<?xml version="1.0" encoding="UTF-8"?><svg id="Layer_1" xmlns="http://www.w3.org/2000/svg" viewBox="0 0 512 348.75"><defs><style>.cls-1{fill:#fdc91e;stroke:#000;stroke-miterlimit:10;stroke-width:17.32px;}</style></defs><path class="cls-1" d="m304.66,335.81c12.62-1.51,27.16.53,37.53-5.11,56.75-30.9,107.54-69.58,140.25-126.84,52.83-92.46.44-193.64-100.53-195.18-12.78-.19-26.33,1.5-38.28,5.78-33.42,11.97-37.85,32.47-13.73,58.09,5.65,6.01,12.09,11.3,18.36,16.7,54.73,47.03,62.93,86.78,24.53,148.15-19.7,31.49-46.32,58.65-69.81,87.77.56,3.55,1.12,7.09,1.68,10.64Z"/><path class="cls-1" d="m13.19,339.11c11.88-1.81,26.71.3,35.14-6.07,47.63-35.97,97.74-70.05,139.14-112.46,37.37-38.28,37.45-90.25,13.49-127.97-23.31-36.71-76.46-56.55-126-43.22-15.51,4.18-28.34,18.33-42.4,27.91,8.9,12.83,15.41,28.65,27.09,38,57.14,45.71,63.65,80.95,18.94,140.01-20.26,26.76-45.64,49.66-68.7,74.31,1.1,3.17,2.2,6.33,3.29,9.5Z"/></svg>