<?xml version="1.0" encoding="UTF-8"?><svg id="Layer_1" xmlns="http://www.w3.org/2000/svg" viewBox="0 0 512 512"><defs><style>.cls-1{fill:#fdc91e;}</style></defs><path class="cls-1" d="m466.95,63.43c-16.92-20.54-54.96-24.48-70.53-25.22-36.89-1.75-83.08-2.54-149.61-2.54h-.22c-30.04-.67-53.33.1-73.14.77-11.61.39-22.57.76-33.02.76h0c-4.77,0-9.49-.07-14.23-.26-3.12-.12-6.17-.19-9.16-.19-32.87,0-67.21,7.67-72.65,64.6-4.43,46.21-13.34,262.32-12.71,276.48,2.11,47.79,29.72,96.07,86.64,96.22,24.72.07,49.48.68,73.42,1.26,25.63.63,52.13,1.28,78.79,1.28s155.56-3.12,167.97-6.59c23.52-6.58,36.54-31.86,36.64-71.17.06-23.38.03-81.09.01-114.58v-22.41c-.01-6.32.96-27.06,2-49.02,1.44-30.56,3.07-65.19,3.07-80.35,0-2.52.03-5.12.07-7.77.26-20.8.56-44.39-13.33-61.26Zm-40,230.11c0-3.43.01-6.97.04-10.55.76-.25,1.53-.51,1.79-.57,1.84-.13,3.78-.07,5.85,0,1.16.04,2.36.07,3.46.07,2.42,0,5.26-.28,8.27-.58,5.07-.49,12.02-1.18,14.58.1.22.11.47.11.7.19v2.08c0,2.28,0,4.69,0,7.18-12.73,1.99-24.34,3.1-34.7,3.34v-1.24Zm.01,10.25c10.42-.24,22.04-1.31,34.69-3.25,0,2.92,0,5.92,0,9-10.62-.69-26.44,1.9-34.64,4.04-.03-3.17-.05-6.42-.05-9.79Zm34.68-30.95c-4.62-1.02-10.45-.47-16.16.1-2.78.27-5.41.53-7.39.53-1.12.09-2.12-.04-3.19-.07-2.2-.07-4.48-.14-6.78.03-.31.02-.66.08-1.03.17.05-3.74.12-7.51.19-11.3.65.36,1.36.62,2.15.62,4.34,0,9.63-.68,15.24-1.4,5.81-.74,11.75-1.49,16.98-1.56-.01.7-.02,1.35-.02,1.88v10.99Zm-34.48,50.06c7.24-2.47,25.69-5.07,34.5-4.42,0,5.09,0,10.26,0,15.45-2.44-.1-5.13-.28-7.95-.48-8.81-.62-18.52-1.26-26.23.28-.15-3.62-.26-7.21-.33-10.83Zm1.92,33.65c-.46-4.79-.82-9.34-1.1-13.74,6.5-1.67,16.71-.97,25.12-.38,3.05.22,5.89.38,8.58.48,0,4.3,0,8.55,0,12.72-7.77.81-23.25.88-31.88.92h-.72Zm32.85-105.59c-5.84.04-12.19.84-18.39,1.64-5.31.68-10.33,1.32-14.1,1.32-.72,0-1.38.21-1.99.52.13-5.83.27-11.59.41-17.2,3.79.76,7.99,1.09,12.4,1.09,5.5,0,11.26-.42,16.69-.81,1.92-.14,3.78-.27,5.57-.38-.23,5.21-.43,9.89-.58,13.84Zm-32.02,114.6c9.01-.04,23.34-.11,31.76-.86,0,4.46,0,8.74,0,12.78-5.67-.06-11.48.27-17.15.61-4.69.28-9.51.56-14.07.6.06-4.45-.18-8.87-.53-13.13Zm36.87-241.08h-39.45c-.16-1.15-.31-2.24-.46-3.18-.32-2.03-.4-4.24-.45-6.52,8.68-.63,18.11-.16,27.26.34,4.35.23,8.77.43,13.16.55,0,2.97-.03,5.92-.06,8.81Zm-38.47,9h38.4c-.01,2.89-.08,6.42-.19,10.47-1.09-.01-2.17-.01-3.25-.03-7.28-.12-14.8-.23-22.21.11-4.58.22-8.44.52-12.15.96h-.1c0-4.01-.2-7.92-.5-11.52Zm38.35-26.82c-4.15-.12-8.35-.31-12.49-.53-9.34-.51-18.95-.99-28.1-.34-.36-3.88-1.22-7.86-3.31-11.32,6.2.08,12.42.21,18.49.37,7.96.2,16.17.37,24.36.43.55,3.71.87,7.53,1.04,11.4Zm-53.8,6.27c.05,3.38.11,6.87.66,10.44,3.05,19.69,2.19,36.67-2.16,43.79-7.41,5.54-20.02,6.2-28.98,6.2h0c-5.36,0-10.65-.27-15.77-.53l-3.15-.16c-10.55-.52-15.73-2.72-18.3-7.48-1.99-5.59-4.73-50.21-.73-61.95,1.29-3.78,3.79-5.83,13.27-5.83,2.05,0,4.15.09,6.25.16,5.11.21,10.22.27,14.04-.25,2.25-.31,5.6-.49,9.18-.49,9.03,0,17.88,1.08,21.51,2.62,3.48,1.47,4.04,4.35,4.19,13.48Zm15.57,41.11c.52-.02,1.05-.04,1.54-.1,3.49-.41,7.15-.71,11.51-.91,7.14-.33,14.52-.21,21.66-.11,1.04.02,2.07.02,3.11.03-.12,3.36-.25,6.92-.4,10.64h-38.88c.71-3.05,1.18-6.27,1.47-9.56Zm6.43,302.97c-9.61,2.63-132.37,6.09-164.33,6.09-26.49,0-52.91-.65-78.46-1.27-24.02-.59-48.85-1.19-73.72-1.27-51.31-.13-71.49-44.96-73.18-83.31-.6-13.44,8.47-230.8,12.66-274.59,4.19-43.81,24.88-52.38,59.21-52.38,2.81,0,5.69.07,8.64.18,4.92.19,9.81.27,14.75.27h0c10.67,0,21.75-.37,33.48-.77,14.27-.48,30.44-1.02,49.48-1.02,7.18,0,14.77.08,23.05.26,66.58,0,112.64.78,149.34,2.52,8.25.4,31.42,2.26,48.02,10.7-2.35.05-4.7.07-7.06.13-9.11.23-18.52.47-27.8.47-2.49,0-4.5,2.01-4.5,4.5s2.02,4.5,4.5,4.5c9.39,0,18.87-.24,28.03-.48,6.27-.16,12.51-.27,18.76-.35.26.28.55.54.79.83,3.35,4.08,5.63,8.91,7.18,14.21-7.46-.07-14.94-.22-22.23-.4-9.13-.22-18.58-.46-27.87-.46-.87,0-1.63.31-2.31.73-8.26-2.53-20.31-2.77-24.12-2.77-4.23,0-8.14.22-11.01.61-2.93.4-7.37.31-11.68.14-2.28-.09-4.56-.18-6.78-.18-5.73,0-20.95,0-26.06,14.98-4.9,14.39-2.33,65.26,1.43,72.31,6.58,12.3,19.34,14.47,29.72,14.97l3.12.16c5.04.26,10.75.55,16.46.55h0c11.36,0,27.68-1.02,38.33-9.88.45-.37.84-.8,1.18-1.27.69-.97,1.3-2.02,1.87-3.12h41.7c-.17,4.06-.36,8.24-.55,12.47-7.3.17-18.18.62-28.84,1.06-13.08.55-26.6,1.11-33.03,1.11-2.49,0-4.5,2.01-4.5,4.5s2.01,4.5,4.5,4.5c6.61,0,20.23-.57,33.4-1.12,10.33-.43,20.88-.88,28.05-1.04-.14,3.05-.28,6.09-.43,9.13-4.39-.08-9.93-.22-16.02-.38-21.07-.53-47.29-1.19-56.66-.33-2.48.24-4.3,2.43-4.07,4.9.23,2.47,2.44,4.29,4.9,4.07,8.84-.83,35.87-.14,55.6.36,5.98.15,11.44.29,15.82.38-.26,5.51-.51,10.84-.74,15.85-2.12.12-4.34.28-6.63.45-9.44.68-20.93,1.49-28.2-.45l.13-5.38c.05-1.9-.71-3.73-2.09-5.05-1.37-1.31-3.23-2.02-5.14-1.85-7.21.52-16.71.27-25.32-.05-4.79-.18-9.43-.35-13.78-.35-4.71,0-8.46.19-11.8.61-3.24.4-5.72,3.06-5.91,6.31-4.25,73.9-17.49,149.44-83.5,149.44-50.57,0-87.8-12.69-110.66-37.72-22.59-24.73-31.8-61.98-27.39-110.72.32-3.51-2.11-6.66-5.57-7.27-5-.87-14.31-2.49-24-2.49-10.39,0-19.09,1.87-25.86,5.57-2.06,1.12-3.39,3.23-3.51,5.57-1.28,24.35-1.28,56.13,0,91.91.45,12.7,1.21,22.13,2,32.13.63,7.92,1.28,16.11,1.8,26.31,1.15,22.63,4.03,36.91,34.27,44.53,16,4.03,36.86,4.26,55.27,4.46,7.94.09,15.45.16,22.12.53,14.71.79,30.53,1.18,48.37,1.18,15.78,0,31.73-.29,47.15-.58,15.66-.29,31.86-.59,48.14-.59,3.64,0,7.46.09,11.38.18,4.25.1,8.63.2,13.03.2,14.11,0,30.3-.92,43.4-7.76,12.63-6.61,17.58-17.64,19.18-29.51,5.02-.01,10.23-.33,15.27-.63,5.53-.33,11.2-.66,16.59-.6,0,4.7-.01,8.91-.02,12.33,0,.12,0,.26,0,.39h-28.47c-2.49,0-4.5,2.01-4.5,4.5s2.02,4.5,4.5,4.5h28.14c-.3,4.56-.86,9.41-1.8,14.28h-54.28c-2.49,0-4.5,2.01-4.5,4.5s2.01,4.5,4.5,4.5h52.02c-1.07,3.39-2.38,6.66-3.99,9.68-4.68.24-9.35.5-14.01.76-18.65,1.03-37.96,2.13-57.27,1.97h-.03c-2.47,0-4.49,2-4.5,4.47-.01,2.49,1.99,4.52,4.47,4.53,1.09.01,2.17.01,3.25.01,18.51,0,36.83-1.02,54.57-2,2.15-.12,4.31-.23,6.46-.35-3.13,2.92-6.86,5.18-11.34,6.43Zm-274.82-113.84c25.53,27.95,66.12,42.12,120.64,42.12,84.28,0,93.57-105.06,96.64-156.29,5-.19,11.42.02,17.84.26,6.36.24,13.28.47,19.37.35l-.06,2.52c-.49,19.71-1.05,42.06-1.03,61.45v2.84c.03,22.23.04,39.78,2.29,62.53l.05.54c2.12,21.44,2.62,38.43-11.42,45.77-10.51,5.49-24.68,6.23-37.15,6.23-4.29,0-8.56-.1-12.71-.19-4.04-.1-7.96-.19-11.7-.19-16.4,0-32.66.3-48.39.59-15.36.28-31.25.57-46.9.57-17.59,0-33.17-.38-47.63-1.16-6.96-.38-14.61-.46-22.71-.55-17.65-.19-37.66-.41-52.11-4.05-21.77-5.49-23.03-11.63-24.08-32.12-.53-10.39-1.19-18.68-1.83-26.7-.79-9.84-1.53-19.14-1.97-31.54-1.19-33.42-1.26-63.26-.2-86.64,4.33-1.61,9.72-2.42,16.08-2.42,5.56,0,11.13.63,15.62,1.3-3.42,49.65,7.12,88.24,31.37,114.78Z"/><path class="cls-1" d="m251.74,347.22c4.5.65,9,.98,13.4.98h0c44.49,0,78.4-33.52,80.62-79.7,1.08-22.19-10.09-63.23-20.6-75.7-11.38-13.53-30.35-31.7-63.79-30.31-19.01.8-47.47,14.33-61.11,25.96-22.23,18.95-25.28,42.21-25.26,64.51.02,45.86,34.45,88.15,76.75,94.26Zm-42.72-148.48c11.7-9.98,37.37-22.09,52.91-22.74,1-.04,1.98-.06,2.95-.06,13.55,0,24.05,3.97,32.44,9.47-5.67-.14-11.42-.04-17.11.08-3.57.07-7.05.15-10.38.15-2.49,0-4.5,2.02-4.5,4.5s2.02,4.5,4.5,4.5h0c3.39,0,6.94-.07,10.57-.15,9.81-.2,19.84-.33,28.83.84,1.32,1.35,2.58,2.71,3.77,4.06-3.48-.14-7.13.05-10.72.25-5.96.32-12.11.64-15.4-.79-2.28-.99-4.93.05-5.93,2.33-.99,2.28.05,4.93,2.33,5.92,5.25,2.29,12.16,1.91,19.47,1.53,6.23-.33,12.64-.66,16.59.89.96,2.14,1.94,4.55,2.91,7.18-6.06.03-12.13.46-18.06.92-5.79.44-11.79.9-17.52.92-2.49,0-4.5,2.03-4.49,4.52,0,2.48,2.02,4.49,4.5,4.49h.01c6.07-.02,12.23-.49,18.19-.95,6.76-.51,13.69-1.01,20.39-.85.9,2.97,1.77,6.07,2.56,9.21-.08,0-.17,0-.25.01-8.28.46-16.84.92-23.62-1.02-2.39-.69-4.88.7-5.57,3.09-.69,2.39.7,4.88,3.09,5.57,4.78,1.37,9.93,1.78,15.17,1.78,3.79,0,7.63-.21,11.42-.42.6-.03,1.17-.05,1.77-.09.72,3.6,1.32,7.18,1.75,10.62-4.68.09-9.36.47-13.95.87-4.95.43-10.07.89-14.92.89-2.49,0-4.5,2.01-4.5,4.5s2.01,4.5,4.5,4.5c5.25,0,10.57-.47,15.71-.92,4.78-.42,9.38-.8,13.86-.85.04,1.52.03,2.99-.03,4.38-.11,2.33-.33,4.63-.63,6.88-5.47.19-10.84.9-16.06,1.59-6.07.81-11.8,1.57-17.67,1.59-2.49.01-4.5,2.03-4.49,4.52,0,2.48,2.02,4.49,4.5,4.49h.01c6.45-.02,12.75-.86,18.83-1.67,4.47-.6,8.77-1.16,13.05-1.42-1.53,5.95-3.68,11.55-6.48,16.66-.31-.04-.62-.13-.94-.1-13.26,1.19-28.93,2.39-44.54,2.39-2.49,0-4.5,2.01-4.5,4.5s2.01,4.5,4.5,4.5c13.64,0,27.15-.9,39.22-1.92-2.58,3.27-5.44,6.26-8.56,8.96-7.05-.09-14.16.12-21.06.37-5.79.21-11.78.43-17.62.43-2.49,0-4.5,2.01-4.5,4.5s2.02,4.5,4.5,4.5c6,0,12.07-.23,17.95-.44,2.25-.08,4.54-.14,6.82-.21-8.81,4.28-18.75,6.69-29.46,6.69-3.75,0-7.6-.28-11.46-.84-35.92-5.19-65.16-41.48-65.18-80.9-.02-22.66,3.41-39.63,20.52-54.22Z"/></svg>