<?xml version="1.0" encoding="UTF-8"?><svg id="Layer_1" xmlns="http://www.w3.org/2000/svg" viewBox="0 0 512 512"><defs><style>.cls-1{fill:#fdc91e;fill-rule:evenodd;}</style></defs><path class="cls-1" d="m460.92,367.27c-5.71-26.63-21.46-49.47-38.26-71.02-16.81-21.53-38.52-41.94-69.93-54.1,1.46,45.6-35.77,74-77.85,57.42-17.55-6.84-22.32-26.33-11.45-45.95,12.95-22.91,39.4-32.81,64.5-32.32-18.14-28.11-63.87-59.26-112.27-59.29,9.11,22.78-4.63,53.28-24.96,65.84-11.42,7.07-27.87,12.48-41.06,8.03-15.73-5.16-22.11-19.83-17.33-36.6,7.77-28.06,33.67-44.09,55.33-48.46-47.21-34.79-115.15-33.05-156.85-21.99-3.46.86-6.85,1.49-9.94,2.68-3.09,1.18-5.54,4.16-9.12,3.82,3.45-7.27,12.24-10.74,19.18-13.35,21.36-8.14,45.9-12.15,72.48-11.23,34.34,1.06,82.62,11.15,102.25,36.47,12.94-1.13,25.12-2.01,39.59,1.18,52.68,11.58,87.74,41.52,102.49,75.09,71.51,21.99,101.22,73.12,122.92,123.35,1.33-7.89-2.08-29.73,9.35-28.77,8.06.7,9.34,12.3,10.16,18.28,1.16,8.82.89,15.4.62,23.57-.26,14.61.93,32.16,1.64,46.57.25,8.8-8.17,14.19-15.39,12.14-6.73-2.14-7.43-8.54-10.56-12.87-9.92-12.69-29.81-26.61-38.3-37.06-4.27-5.12-13.56-22.45-1.9-25.55,5.94-1.52,15.67,3.77,19.64,6.74,6,4.7,9.86,12.91,15.01,17.37h0Zm-125.59-130.07h0c-4.88-3-20.79-1.12-26.12-.11-14.82,2.89-32.72,13.39-37.56,31.98-6.65,24.95,32.78,27.45,46.57,20.15,8.67-4.64,17.23-17.8,19.4-30.26,1.05-6.12,2.81-18.71-2.29-21.75h0Zm-190.8-33.26h0c-1.99,10.21,3.95,18.33,15.1,19.45,24.49,2.62,59.59-32.81,39.87-60.21-21.36,1.7-49.51,14.33-54.98,40.77h0Z"/></svg>