<?xml version="1.0" encoding="UTF-8"?><svg id="Layer_1" xmlns="http://www.w3.org/2000/svg" viewBox="0 0 512 512"><defs><style>.cls-1{fill:#fdc91e;fill-rule:evenodd;}</style></defs><path class="cls-1" d="m333.7,265.1c26.79-30.89,45.35-67.97,72.63-103.51,6.18-8.23,18.52-28.84,29.35-27.8,14.94,1.03,14.94,52.01,16.46,71.06,5.67,79.3,7.74,173.54-1.03,249.24-57.16,23.17-120.5,50.98-205.44,44.8-24.72-2.06-53.04-1.54-73.12-10.3-3.08-1.54-6.18-5.66-10.33-7.71-4.11-2.58-8.23-2.58-11.31-5.16-11.32-9.27-20.09-36.56-27.82-55.1-17-40.17-30.88-80.33-44.78-121.01-7.2-19.57-17.52-39.65-21.64-60.26-3.08-14.93-2.55-37.07,6.18-40.68,11.35-4.11,24.19,12.88,31.94,20.6,28.84,27.8,56.66,53.56,81.89,82.91-9.26-76.22,15.97-157.57,32.96-224.52,4.12-15.45,13.38-66.43,29.35-65.4,20.57,1.54,29.34,37.07,34.48,52.52,22.14,63.86,44.82,135.43,60.25,200.32h0Zm-125.11,23.18h0c-1.03,28.31,3.59,60.76-19.58,60.76-11.32.52-19.55-11.33-26.79-20.08-18.51-23.69-36.04-43.26-54.57-62.83-3.08-2.57-7.2-8.24-11.32-7.21,17,70.04,39.63,134.4,63.33,197.75,22.14-16.48,50.46-35.54,87.04-41.19,28.81-4.13,60.74-2.06,96.8-5.16,27.28-2.06,55.63-6.69,79.3,2.57-4.62-83.41,2.05-171.99,4.11-248.72-25.22,34.5-44.78,71.06-68.97,108.66-7.25,10.81-16.51,29.86-33.5,26.78-12.88-2.58-22.64-33.48-27.82-47.38-22.14-56.13-42.22-112.26-53.54-174.57-.5-1.03-.5-1.54-1.56-1.54-14.91,63.33-31.41,132.34-32.93,212.16h0Zm-18.02,178.69h0c68.48,21.11,167.37,5.15,214.2-27.3-73.13-21.11-164.28-9.27-214.2,27.3h0Z"/></svg>