<?xml version="1.0" encoding="UTF-8"?><svg id="Layer_1" xmlns="http://www.w3.org/2000/svg" viewBox="0 0 512 512"><defs><style>.cls-1{fill:#fdc91e;fill-rule:evenodd;}</style></defs><path class="cls-1" d="m302.14,9.96c12.14-2.42,10.76,21.16,10.39,36.07-1.38,30.18-2.41,54.12-6.24,83.25-1.02,10.06-4.16,31.92-14.55,30.18-6.95-1.04-7.29-22.55-7.65-36.08-1.02-31.91-1.02-54.8,4.16-81.51,2.1-10.06,4.87-30.18,13.89-31.91h0Zm58.27,490.83c-12.83,3.47-17.68-13.87-22.2-23.24-14.92-29.83-33.99-68.68-31.91-108.92,11.81-8.67,19.08,18.39,22.21,27.4,9.37,24.63,15.27,46.48,23.23,70.42,4.19,12.14,11.12,23.94,8.68,34.34h0Zm-127.99-131.47c3.11,13.18-1.74,26.01-5.21,38.16-8.67,28.79-21.51,56.2-35.04,82.56-2.42,5.21-4.16,12.84-12.14,12.14-10.07-8.67-1.03-22.9,2.43-33.3,10.76-32.6,23.59-72.15,40.59-98.16,1.02-3.12,7.29-2.78,9.36-1.39h0Zm-48.92-43.7c-5.54,9.71-16.3,15.95-26,23.23-21.51,16.31-49.26,32.26-76.31,45.44-4.85,2.09-17.35,7.28-19.07-1.73-1.74-8.32,15.94-16.65,23.92-21.5,27.05-16.65,60.71-35.39,86.02-48.22,3.49-1.73,9.73-2.77,11.45,2.78h0Zm283.74,26.36c-7.62,18.03-40.58,2.43-56.88-4.86-15.25-6.94-30.88-14.22-33.65-27.75,1.75-1.74,2.44-3.47,5.21-3.47,13.89,1.39,27.74,11.79,42.33,19.08,14.91,7.63,28.77,12.49,42.99,17h0ZM9.72,264.56c2.08-6.59,9.37-2.77,14.58-2.77,29.83,0,53.05-3.13,84.29,1.04,8.66,1.04,37.1,1.04,38.51,6.59,3.11,11.45-22.2,12.14-32.62,12.14-12.48,0-30.16-.69-48.2-1.73-23.59-1.04-54.81,2.77-56.55-15.27h0Zm492.56-31.22c-3.8,6.24-13.17,7.28-21.51,8.68-22.18,3.81-57.21,9.01-80.81,7.63-5.54,0-12.14-1.73-12.83-5.9-1.39-10.76,22.9-8.32,30.17-8.67,28.1-1.04,59.31-7.29,84.99-1.74h0Zm-345.14-29.48c-14.56,6.24-28.78-4.86-39.89-11.45-24.28-14.22-45.77-27.75-66.59-46.48-10.06-9.02-23.95-16.65-26.72-30.53,11.45-6.24,28.11,9.02,39.56,16.65,22.2,14.57,43.35,30.52,64.86,45.09,11.45,7.63,26.36,13.18,28.78,26.71h0Zm317.75-125.91c1.39,6.24-3.46,13.53-6.95,18.03-12.48,14.92-31.21,28.45-48.9,43.71-7.98,6.94-15.97,13.87-24.98,21.51-5.9,4.86-24.28,20.47-29.14,8.67-3.82-9.02,16.3-20.81,22.2-25.67,9.01-7.29,19.43-15.96,27.39-22.55,21.87-17.34,38.17-32.26,58.62-44.75.69.35.69,1.04,1.74,1.04h0Zm-253.58,93.65c-11.78-1.04-15.61-15.61-20.79-25.67-4.87-9.71-10.42-20.46-14.58-31.22-9.71-22.89-20.46-47.17-22.21-69.37-1.02-12.49,1.05-30.87,12.84-29.48,11.8,1.73,14.91,22.89,16.99,34.34,7.29,37.81,15.27,70.42,26.02,103.37,1.72,5.55,6.59,12.49,1.72,18.04h0Z"/></svg>