<?xml version="1.0" encoding="UTF-8"?><svg id="Layer_1" xmlns="http://www.w3.org/2000/svg" viewBox="0 0 512 512"><defs><style>.cls-1{fill:#fdc91e;fill-rule:evenodd;}</style></defs><path class="cls-1" d="m313.49,173.16c25.3-2.62,76.31-.87,100.73,3.05,39.24,6.98,44.89,3.49,88.06,16.57-5.65,18.75-51.01,51.89-67.56,61.48-17.01,9.59-34.01,17.44-45.36,27.9,13.09,44.04,24.87,104.64,19.61,155.66-1.74,16.57-2.16,39.24-15.26,40.99-9.14,1.32-20.04-9.16-27.01-14.82-31.39-25.73-71.53-63.66-90.7-100.73-10.9,6.98-18.74,20.06-27.04,32.7-17,25.29-37.07,48.84-55.37,76.74-10.03,15.26-26.58,41.86-47.53,23.54-27.46-23.54-2.61-101.59-2.19-142.57-20.04-8.29-43.59-16.57-67.14-26.16-20.49-8.28-48.4-18.31-60.18-32.26-19.62-22.68,7.42-36.63,25.75-45.35,40.97-19.18,89.37-31.83,129.93-49.71-1.32-7.85,5.64-12.21,8.25-19.62,6.55-16.13,7-37.06,10.04-54.07,12.23-29.21,20.07-103.77,50.59-115.54,23.11-8.72,29.66,25.29,40.11,37.94,1.74,16.57,10.03,30.95,15.26,47.53,4.8,16.57,5.68,35.32,11.77,50.57,1.75,4.36,3.49,6.97,6.55,10.03-.45,6.11-3.93,10.03-1.32,16.13h0ZM245.48,27.1h0c-17.01,15.7-25.72,45.78-31.39,69.33,7.42-7.42,14.39-15.26,21.81-22.68,7.38-7.41,19.17-12.21,21.36-23.98-13.1,5.23-23.98,27.9-37.5,32.7.87-18.31,47.95-40.99,25.72-55.37h0Zm-38.82,91.99h0c-.87,6.55-3.03,12.21-4.35,18.32,18.74-15.26,39.68-38.37,62.79-52.76-1.32-4.8-.87-10.9-4.35-13.09-18.33,15.7-36.62,31.4-54.08,47.53h0Zm-8.71,35.76h0c-.88,4.79-4.36,12.64-3.07,16.14,0-.88,0-1.32.87-.88,19.62-16.13,41.88-34.44,60.63-51.01,5.65-4.79,19.17-10.03,13.07-20.49-23.97,18.75-48.4,36.62-71.5,56.25h0Zm-5.23,46.21h0c-3.49,7.41-10.03,11.34-13.97,17.44-21.78-.44-31.82,15.7-44.47,27.04-22.23,19.62-46.66,36.62-69.34,54.93,5.68,3.06,11.78,5.23,17.46,7.86,57.98-65.41,132.1-114.68,198.82-171.8-2.19-4.35-2.61-10.46-5.23-14.38-27.04,24.85-53.62,49.7-84.6,70.63.87,2.62,1.74,4.8,1.32,8.28h0Zm90.7-52.76h0c-56.69,42.73-107.71,91.13-163.07,135.16-5.25,13.08-22.26,19.62-26.17,30.09,7.84,1.74,13.07,6.11,20.49,7.85,56.69-54.94,119.48-103.77,175.27-159.14-3.48-3.49-2.16-11.34-6.52-13.95h0Zm-149.13,181.38h0c12.2,9.59,17.01-6.54,30.08,0,30.52-41.42,79.37-81.97,121.22-117.72,4.8-3.93,18.32-13.95,18.32-16.14,0-.43-12.23-18.32-9.61-17.44-57.54,46.65-102.45,105.07-160.01,151.29h0Zm193.6-136.04h0c-49.27,38.81-91.12,90.26-136.49,131.68-6.1,6.1-15.26,10.03-18.29,18.75,6.52.44,11.33,2.18,15.26,5.23,58.4-54.06,108.12-116.85,178.33-158.7-14.39-.44-26.16,2.18-38.81,3.05h0Zm57.98,0h0c-73.69,47.96-143.87,115.55-200.98,180.52-8.29,9.59-19.65,19.18-22.69,32.26,11.78-16.13,28.78-29.65,44.47-44.04,54.95-52.32,114.25-102.46,176.17-146.07,10-6.98,21.77-12.64,29.2-22.68-8.29,0-20.49-3.48-26.17,0h0Zm53.21,4.37h0c-51.46,30.52-98.54,69.32-151.3,110.32-23.1,17.87-46.23,35.32-68.02,59.3-16.58,18.31-71.53,72.38-68.46,88.51,24.84-36.63,64.53-67.59,97.66-95.92,5.23-10.91,13.07-38.81,27.91-37.94,9.59.44,11.33,10.9,13.07,22.67,28.36-25.29,60.18-47.09,83.28-77.61,2.19-2.18,6.13-2.18,8.75-3.49,23.1-22.24,49.69-40.55,72.37-63.66-5.68,0-10.91-.87-15.26-2.18h0ZM53.21,295.25h0c20.04-16.57,44.89-43.61,65.82-59.3-8.29,2.61-17.45,4.79-24.84,8.72-13.1,19.19-34.46,30.08-48.4,48.4,3.04.43,4.36,2.18,7.42,2.18h0Zm-27.91-18.31h0c.42,6.1,5.22,8.29,9.58,10.9,8.29-8.72,15.68-18.31,24.84-26.16,0-1.31,1.74-2.18-1.29-2.18-9.17,7.4-25.75,8.28-33.14,17.44h0Zm272.06,85.46h0c3.49,10.46,9.58,18.31,13.94,27.91,22.27-22.67,41.01-48.4,64.11-70.2-1.74-6.11-3.48-12.65-3.48-20.5-27.04,18.32-46.24,44.92-74.57,62.79h0Zm23.97,39.68h0c3.07,6.11,6.97,10.9,11.78,15.26,13.07-18.31,21.81-40.99,43.17-50.58-.45-6.54,3.07-14.83,0-20.49-18.32,18.74-37.49,36.62-54.95,55.81h0Zm-155.65-21.37h0c4.8-7.85,10.91-14.38,16.13-21.8-6.1.87-9.58-.87-15.26-.87-.46,6.53-3.07,17-.87,22.66h0Zm176.13,48.4h0c4.36,5.67,25.75,12.21,31.4,16.56-2.61-25.29,3.94-30.08.87-51.88-10,12.21-23.97,21.37-32.27,35.32h0Zm-189.21,49.7h0c8.72-5.23,13.49-19.19,27.01-16.13,6.13-15.7,27.04-30.52,32.26-43.16-16.55,20.06-47.07,34.88-59.27,59.3h0Zm227.16-27.03h0c.87,4.37,5.23,4.8,7.42,7.85-.46-4.35,3.9-13.52,0-13.95,0,4.37-4.81,4.37-7.42,6.11h0Zm-219.76,37.07h0c6.1-.43,10.91-8.28,10.03-12.21-2.61,4.8-8.29,6.54-10.03,12.21h0Z"/></svg>