<?xml version="1.0" encoding="UTF-8"?><svg id="Layer_1" xmlns="http://www.w3.org/2000/svg" viewBox="0 0 512 512"><defs><style>.cls-1{fill:#fdc91e;}</style></defs><path class="cls-1" d="m382.63,40.04l-.3-6.83c-.12-2.75-1.91-5.15-4.51-6.06-16.42-5.74-43.53-6.6-58.23-6.6-9.42,0-18.88.35-25.3.94-22.3,2.04-52.26,12.15-64.1,21.62-36.85,29.46-38.48,73.71-36.5,104.43,1,15.43,1.09,30.88.29,47.1-6.05,1.06-12.6,1.54-20.54,1.54-4.68,0-9.37-.16-14.11-.32-8.1-.27-16.33-.54-24.92-.1-1.89.1-3.65.98-4.85,2.44-1.2,1.46-1.74,3.35-1.47,5.23,1.21,8.58,1.07,17.41.92,26.75-.07,4.14-.13,8.33-.08,12.57.16,14.12.59,25.93,1.22,40.4.16,3.46,2.9,6.24,6.36,6.42,10.08.56,22.36.16,33.63-.32,8.21-.34,16.69-.7,24.86-.57q8.24.13,8.24,8.13c0,5.27.28,11.75.56,18.62.41,9.65.83,19.63.51,26.73-.59,12.69-.78,23.1-.95,33.16-.21,11.64-.4,22.64-1.18,36.86-3.36,62.5-1.33,69.72-.66,72.09.76,2.71,3.13,4.65,5.93,4.89,3.18.26,6.12.53,8.94.79,8.9.82,16.59,1.52,26.64,1.52l6.84-.02h6.02c13.78,0,28.2-.26,39.73-3.41,3.02-.82,5.08-3.62,4.96-6.75-.91-24.29-.4-161.51,1-171.9.63-4.72.42-8.64.26-11.51-.04-.79-.09-1.75-.1-2.51.63-.11,1.61-.23,3.05-.3,6.12-.27,12.24-.66,18.35-1.06,13.79-.9,27.96-1.82,41.47-1.09,3.78.25,6.88-2.64,7.09-6.35,1.02-18.47,2.49-54.15.91-85.49-.16-3.2-2.56-5.84-5.73-6.32-11.83-1.76-24.84-1.91-38.25-1.91h-7.69c-10.05,0-19.85-.07-29.07-.86-.1-2.11-.21-4.22-.32-6.33-1.16-22.38-2.26-43.52,12-63.27,5.71-7.9,17.41-8.34,28.72-8.77l3.26-.13c9.74-.43,20.92.52,30.65,1.33,3.54.3,6.91.58,10.04.79,1.79.13,3.57-.49,4.92-1.69,1.35-1.2,2.16-2.89,2.25-4.69,1.24-24.34.22-47.14-.76-69.18Zm-15.32,61.35c-10.12-.85-21.89-1.83-32.37-1.36l-3.16.13c-12.09.45-26.88,1.04-36.62,11.35h-35.51c-2.48,0-4.49,2.01-4.49,4.49s2.01,4.49,4.49,4.49h29.11c-2.34,3.94-4.26,7.91-5.76,11.89-15.22,3.6-28.42,5.29-39.19,4.91-.06,0-.11,0-.16,0-2.41,0-4.4,1.91-4.48,4.33-.09,2.48,1.85,4.56,4.33,4.64,1.1.04,2.21.06,3.35.06,9.59,0,20.77-1.43,33.2-4.1-.99,4.23-1.65,8.46-2.04,12.7-5.5-.2-11.05.13-16.45.48-4.16.27-8.47.56-12.57.56-2.48,0-4.49,2.01-4.49,4.49s2,4.49,4.49,4.49c4.4,0,8.85-.29,13.16-.57,5.33-.35,10.41-.65,15.36-.48-.12,5.4.05,10.79.3,16.15-4.77.19-9.5.72-14.1,1.28-5.42.65-11.02,1.32-16.49,1.32-2.48,0-4.49,2.01-4.49,4.49s2.01,4.49,4.49,4.49c6.01,0,11.88-.7,17.56-1.38,4.64-.56,9.05-1.08,13.46-1.23.16,3.1.32,6.2.41,9.29.1,3.32,2.6,6.07,5.89,6.48,11.6,1.45,23.84,1.57,36.41,1.57h7.69c10.77,0,21.25.09,30.78,1.07.04,1.16.07,2.35.1,3.53-1.58-.07-3.31-.16-5.14-.25-18.95-.97-32.76-1.3-38.09,3.23-1.86,1.58-2.04,4.3-.5,6.19.87,1.07,2.16,1.62,3.47,1.62,1,0,2-.32,2.84-.97,3.31-2.57,23.3-1.54,31.83-1.11,2.09.11,4.05.21,5.82.28.05,3.22.09,6.43.09,9.64-7.6-1.61-16.91-.47-26,.68-5.09.65-9.89,1.26-13.75,1.26-2.48,0-4.49,2.01-4.49,4.49s2,4.49,4.49,4.49c4.42,0,9.5-.64,14.88-1.33,8.85-1.12,18.76-2.34,24.84-.31-.04,4.48-.12,8.85-.22,13.11-6.42.08-12.79.69-18.97,1.32-6.44.66-13.09,1.34-19.64,1.34-2.48,0-4.49,2.01-4.49,4.49s2.01,4.49,4.49,4.49c7,0,13.89-.7,20.55-1.38,6.12-.62,11.96-1.19,17.82-1.28-.22,6.75-.48,13-.74,18.31-1.44-.03-2.91-.04-4.44-.04-10.59,0-21.43.7-31.9,1.39-6.02.39-12.05.78-18.06,1.05-4.55.2-9.64.89-12.94,4.53-2.09,2.3-2.78,4.9-2.95,7.58-4.28.08-8.72.28-12.83.46-4.61.21-8.91.41-12.29.41-2.48,0-4.49,2.01-4.49,4.49s2,4.49,4.49,4.49c3.5,0,7.94-.2,12.7-.42,4.06-.19,8.45-.37,12.64-.45,0,1.51-.07,3.13-.3,4.89-.16,1.21-.31,3.75-.45,7.23-22.62-.7-30.66.14-33.76,3.43-1.14,1.21-1.68,2.75-1.53,4.35.22,2.33,2.17,4.07,4.47,4.07.14,0,.28,0,.42-.02,1.47-.14,2.7-.97,3.42-2.14,3.1-.93,12.12-1.16,26.71-.72-.14,5.73-.26,12.63-.37,20.33-24.09-.9-33.68-.09-37.48,3.04-1.91,1.58-2.26,4.46-.67,6.37.9,1.09,2.18,1.66,3.47,1.66.98,0,1.96-.33,2.78-1,2.45-1.41,13.2-1.77,31.8-1.08-.07,6.56-.13,13.51-.19,20.68-4.62.08-9.23.19-13.83.35-6.28.22-12.77.44-19.22.44-2.48,0-4.49,2.01-4.49,4.49s2.01,4.49,4.49,4.49h3.17c.15,0,.3,0,.44-.02,5.37-.06,10.72-.25,15.92-.42,4.48-.16,8.97-.26,13.47-.34-.04,7.09-.07,14.3-.09,21.43-6.41-.41-13.36.15-20.16.72-4.73.39-9.19.77-13.13.77-2.48,0-4.49,2-4.49,4.49s2,4.49,4.49,4.49c4.31,0,8.96-.39,13.87-.79,6.7-.55,13.52-1.09,19.4-.65,0,5.95-.01,11.79,0,17.42-5.02.09-10.38.25-15.6.42-6.81.21-13.37.42-18.56.42-2.48,0-4.49,2.01-4.49,4.49s2.01,4.49,4.49,4.49c5.27,0,11.93-.21,18.84-.42,5.12-.16,10.39-.33,15.33-.41.01,5.32.04,10.39.06,15.04-3.7.08-7.38.21-11.05.37-4.98.21-10.12.43-15.19.44-2.48,0-4.49,2.02-4.48,4.5,0,2.48,2.01,4.48,4.49,4.48h0c5.25-.01,10.49-.23,15.55-.45,3.57-.15,7.14-.28,10.73-.36.04,4.93.09,9.2.16,12.54-9.17,1.65-20.31,1.8-31.09,1.8h-6.02c-1.7,0-3.34,0-4.92.01h-1.92c-9.44,0-16.84-.67-25.41-1.46-1.19-.11-2.39-.22-3.64-.33-.47-8.43-.24-28.17,1.65-63.31.78-14.46.99-26.09,1.19-37.34.18-9.97.36-20.28.94-32.78.36-7.7-.08-17.98-.5-27.92-.29-6.72-.56-13.06-.56-18.05,0-15.69-5.62-21.34-21.48-21.59-8.55-.13-17.25.23-25.65.58-8.7.37-18.12.72-26.24.56-.49-11.65-.81-21.89-.95-33.77-.05-4.12.02-8.18.08-12.2.12-7.02.23-14.21-.28-21.39,5.64-.05,11.21.14,16.69.32,4.89.16,9.73.33,14.56.33,11.2,0,19.99-.89,28.52-2.89,2.9-.68,5-3.18,5.18-6.15,1.12-18.67,1.12-36.3-.01-53.92-1.79-27.71-.47-67.51,31.46-93.05,8.83-7.05,35.62-16.77,56.93-18.73,6.04-.55,15.04-.88,24.07-.88,20.68,0,38.3,1.64,49.49,4.55l.09,2.08c.05,1.12.09,2.26.14,3.37-6.38-1.42-13.23-.95-19.9-.47-6.43.46-12.51.9-17.61-.35-2.39-.57-4.84.88-5.43,3.28-.6,2.41.88,4.84,3.28,5.43,6.48,1.6,13.56,1.09,20.39.59,7.28-.52,14.14-.98,19.66.95.15,3.62.26,7.28.37,10.94h-32.25c-2.48,0-4.49,2.01-4.49,4.49s2.01,4.49,4.49,4.49h32.48c.07,3.77.14,7.56.14,11.39-5-.08-9.99-.21-14.85-.37-5.93-.2-11.84-.39-17.74-.44h-.04c-2.47,0-4.47,1.99-4.49,4.46-.02,2.48,1.98,4.5,4.45,4.52,5.83.05,11.66.24,17.51.43,4.91.16,9.96.3,15.03.38-.04,2.64-.04,5.24-.13,7.9-.96-.08-1.94-.16-2.93-.24Z"/></svg>