<?xml version="1.0" encoding="UTF-8"?><svg id="Layer_1" xmlns="http://www.w3.org/2000/svg" viewBox="0 0 512 512"><defs><style>.cls-1{fill:#fdc91e;fill-rule:evenodd;}</style></defs><path class="cls-1" d="m306.42,464.28c-30.73.61-60.83-31.95-86.64-56.52-41.15-38.09-84.79-76.18-108.11-133.93-20.28-48.54-46.1-119.79-3.09-159.73,41.78-39.31,97.69,7.99,127.79,35.02,6.14-48.54,21.5-91.54,48.55-117.34,29.47-28.26,81.7-32.56,109.97,3.07,41.15,52.84,36.82,164.65,18.41,252.49-8,36.25-20.86,79.86-29.5,120.41-7.37,36.85-14.74,99.53-54.65,94.6-16-1.84-23.95-15.97-22.73-38.08h0Zm41.15-152.35h0c17.18-64.51,41.15-141.3,19.64-213.18-4.91-17.19-16.55-50.37-33.14-38.08-25.18,18.42-36.86,71.26-36.86,117.33,0,38.09,8,79.86-31.96,79.25-21.51-.62-30.69-20.89-42.37-41.17-10.46-17.81-23.37-36.86-35.01-48.53-9.22-9.22-31.95-28.88-46.09-26.41-30.73,6.14-6.15,76.17,0,96.44,11.68,35.02,27.64,63.9,43,83.55,38.69,49.77,76.79,93.37,121.65,132.7,12.87-48.53,28.23-92.76,41.15-141.9h0Z"/></svg>