<?xml version="1.0" encoding="UTF-8"?><svg id="Layer_1" xmlns="http://www.w3.org/2000/svg" viewBox="0 0 512 512"><defs><style>.cls-1{fill:#fdc91e;}</style></defs><path class="cls-1" d="m180.55,83.73l10.74,9.4,7.96,18.55.81,8.47v7.76l1.89,27.62v15.12l1.04,55.34-.5,32.16-1.47,9.91.16,4.7,79.84-1.71,114.12-.81,3.43-1.21v-20.97l.91-68.55-1.61-27.32-1.21-11.29-1.31-7.06s.66-47.22-42.74-50.12l-31.15-2h-26.31l-39.32-1.21h-76.51l1.25,3.21Z"/><path d="m241.35,7.83c.65,4.06,1.29,8.11,1.9,11.94,9.47,1.12,22.68-.79,25.51,3.77,5.45,8.76,5.01,21.19,7.31,33.66h-32.19c-.55,7.14-1,13.05-1.53,19.96,28.63,1.12,55.98,2.19,83.33,3.25,7.5.29,15.01.96,22.5.74,23.32-.67,39.04,11.52,45.29,32.27,5.43,18.03,7.33,37.59,7.85,56.55.8,29.19-1.09,58.45-1.4,87.69-.04,4.16,2.35,8.34,4.6,15.79h-122.99c5.34,79.19,10.41,154.54,15.49,229.89-1.5.28-3,.55-4.49.83-1.14-4.74-3-9.44-3.32-14.23-4.37-67.08-8.53-134.17-12.74-201.26-.16-2.5.26-5.16-.47-7.47-.63-1.99-2.74-5.2-3.78-5.04-2.26.33-5.16,2.01-6.16,3.97-1.59,3.15-2.8,7.05-2.54,10.51,5.03,66.6,10.32,133.17,15.46,199.76.14,1.82-.72,3.72-1.12,5.59-1.23.28-2.46.57-3.69.85-1.68-6.13-4.44-12.18-4.88-18.39-4.72-66.98-9.08-133.99-13.64-202.53-25.86,1.33-51.56,2.13-77.16,4.15-17.16,1.35-34.13,5.32-51.29,6.39-9.46.59-15.27-6.66-15.3-16.2-.1-32.55-.57-65.14.95-97.63.79-16.92,3.89-34.13,8.72-50.38,8.76-29.45,26.22-42.22,56.58-43.37,19.12-.72,38.3-.13,60.67-.13V7.83c.83,0,1.67,0,2.5,0Zm-53.44,75.9c4.67,10.41,12.33,19.93,12.8,29.8,2.32,48.71,2.79,97.51,3.66,146.28.05,2.73-2.19,5.5-3.36,8.25-1.69-10.52-1.44-20.06.24-29.33,2.77-15.23-3.64-24.47-17.13-29.87-7.68,8.72-14.68,18.15-23.17,25.93-11.69,10.72-15.01,23.03-10.89,38.41,81.25-2.7,162.58-5.4,243.92-8.1.26-1.07.51-2.14.77-3.22-2.91-.84-5.81-2.38-8.72-2.4-37.5-.35-75.01-.42-112.51-.76-3.94-.04-7.88-1.35-11.81-2.08.13-1.48.26-2.96.39-4.44h134.27c0-24.18.74-46.22-.21-68.18-.95-21.97-1.27-44.39-6.16-65.63-4.47-19.43-18.54-31.79-40.89-31.85-20.82-.06-41.62-1.89-62.45-2.49-14.77-.42-29.56-.08-45.5-.08v70.5c-1.01,0-2.02-.01-3.03-.02v-70.72h-50.22Zm14.05,74.95c-1.97-17.12-2.33-32.67-5.78-47.5-6.26-26.89-34.74-35.12-53.58-14.83-8.87,9.56-17.07,23.14-18.43,35.68-4.44,40.92-5.65,82.19-7.95,123.33-.39,6.88-.05,13.81-.05,21.95,10.72-1.3,19.17-2.32,28.21-3.42-1.88-33.89-3.45-66.33-5.62-98.74-.7-10.47,3.34-14.19,13.51-14.29,15.76-.15,31.52-1.33,49.69-2.19Zm-59.42,8.88c20.81,16.18,38.89,30.23,57.97,45.06v-49.47c-18.99,1.44-36.91,2.8-57.97,4.4Zm4.76,72.43c12.53-13.33,22.72-24.19,33.26-35.41-12.04-9.45-23.59-18.52-37.2-29.2,1.35,22.06,2.53,41.54,3.94,64.61Z"/><path d="m416.56,273.71c-1.59-2.86-4.52-5.71-4.56-8.6-.26-20.6-.03-41.21.4-61.81.03-1.64,2.71-3.23,4.16-4.84v75.25Z"/><path d="m175.57,55.61q-53.94,31.28-80.01,87.72c-2.89-37.4,43.16-87.89,80.01-87.72Z"/></svg>