<?xml version="1.0" encoding="UTF-8"?><svg id="Layer_1" xmlns="http://www.w3.org/2000/svg" viewBox="0 0 512 512"><defs><style>.cls-1{fill:#142b29;}.cls-1,.cls-2{fill-rule:evenodd;}.cls-2{fill:#fff;}</style></defs><path class="cls-1" d="m498.1,239.24c-1.14-21.45-1.34-52.1-8.45-66.24-4.06-8.06-13.46-13.43-23.96-19.73-9.26-5.56-17.7-13.85-25.37-18.32-12.67-7.39-28.71-9.88-36.65-16.92-8.4-7.44-10.59-29.85-23.96-32.42-8.74-1.68-18.32,7.93-26.78,7.05-16.05-7.82-34.27-17.3-53.56-26.78-13.74-6.75-50.64-29.99-62.02-22.55-51.26,33.5-110.71,72.17-169.14,105.71-19.15,10.99-50.79,23.68-54.97,38.05-5.49,18.9.16,47.25,1.41,69.07,2.55,44.5,2.55,86.44,7.04,133.9,1.65,17.32,2.27,51.02,9.86,62.02,12.45,18,75.28,16.05,108.54,16.91,43.48,1.13,83.46,1.87,122.63,0,83.82-3.99,167.86,2.83,235.37-15.5,4.23-67.59,3.79-143.49,0-214.24Z"/><path class="cls-2" d="m337.43,98.29c-19.02,12.16-36.22,4.73-53.56-4.23,12.09-25.42,35.62-3.16,53.56,4.23Z"/><path class="cls-2" d="m390.98,170.18c-42.8,14.53-83.74,30.89-121.21,50.74-4.12-4.23-12.49-10.51-11.28-15.51,36.14-13.19,72.36-26.29,101.47-46.51-36.5,12.82-72.32,26.34-104.3,43.69-15.83-26.05-50.83,5.12-67.65,16.91-18.72,13.12-33.59,25.6-46.51,33.83-4.43-1.68-7.47-4.76-12.69-5.64,13.03-8.1,32.59-9.7,40.88-22.55-20.34,3.14-41.58,24.22-60.62,11.28,33.64-17.57,80.12-22.31,108.54-45.1-39.44,12.25-78.96,24.41-114.17,40.87-3.88-2.7-9.98-3.17-11.27-8.45,64.86-25.34,137.52-42.9,197.32-73.29-71.22,20.4-138.52,44.71-204.37,70.47-9.01-3.67-18.27-7.11-23.97-14.09,111.49-30.87,209.58-75.13,319.95-107.12,15.2,35.07,38.71,61.85,53.56,97.26-37.83,30.3-77.64,58.6-115.58,88.79-6.91-4.82-11.28-12.21-15.5-19.73,34.28-11.75,65.22-26.86,94.43-43.69-31.46,8.47-67.8,24.28-97.25,39.47-4.83-4.11-8.79-9.06-11.27-15.51,26.48-10.63,52.6-21.63,77.52-33.83-27.54,4.41-56.17,19.94-83.16,29.6-2.97-5.95-7.3-10.55-11.28-15.5,36.37-21.89,87.05-29.47,118.4-56.38Zm-125.44,5.64c38.81-9.58,74.39-22.39,105.71-39.47-36.75,6.07-75.36,22.32-105.71,39.47Zm39.46-29.6c8.37-.07,13.37-3.54,16.91-8.46-7.11,1.35-16.4.51-16.91,8.46Zm73.29,60.61c14.05-2.87,24.2-9.63,33.83-16.91-11.25.18-26.46,8.2-33.83,16.91Z"/><path class="cls-2" d="m154.19,132.13c1.92-2.93-4.77-9.27-7.04-12.69.42-3.81,5.93-2.53,7.04-5.64,5.87,2.59,7.01,9.9,12.69,12.69-3.19,4.8-9.79,6.19-14.09,9.86-4.63-3.28-12.49-9.52-9.87-15.5,6.26,1.25,7.13,7.9,11.28,11.28Z"/><path class="cls-2" d="m103.45,143.4c10.91-6,21.99-11.83,32.42-18.32,7.17,1.28,7.17,9.74,12.69,12.68-9.37,8.49-22.51,13.2-33.83,19.73-6.2-2.26-9.68-7.23-11.28-14.09Z"/><path class="cls-2" d="m421.99,144.81c14.1,7.04,24.91,17.37,40.88,22.55-6.13,3.27-18.31.49-26.78,1.41-4.76-7.93-10.89-14.48-14.1-23.96Z"/><path class="cls-2" d="m110.5,160.31c-2.63.19-4.71.93-5.64,2.82-4.57-3.42-6.71-9.26-11.28-12.68.39-2.9,3.77-2.81,5.64-4.23,5.34,3.11,9,7.92,11.28,14.09Z"/><path class="cls-2" d="m102.04,164.54c-18.96,8.76-35.83,19.6-64.83,18.32,14.21-13.98,34.34-22.04,53.56-31.01,5.99,2,8.47,7.5,11.28,12.69Z"/><path class="cls-2" d="m438.91,174.41c5.68-2.34,21.11-2.34,26.78,0-2.06,8.75-11.41,10.2-18.32,14.09-2.47-5.05-5.12-9.91-8.46-14.09Z"/><path class="cls-2" d="m476.97,185.68c4.16,79.94,12.14,169.48,7.04,249.48-9.62-3.86-5.6-16.68-5.64-23.96-.38-70.27-2.84-145.99-2.82-214.24-57.15,32.11-107.48,71.05-153.63,114.17,46.87-36.76,96.65-78.13,148-105.71-.41,76.05,5.49,145.78,4.23,222.7-57.72-39.07-120.92-72.66-179.01-111.35,60.77-43.51,117.95-90.64,181.83-131.08Z"/><path class="cls-2" d="m305.01,295.62c-8.58-1.38-13.19-11.68-18.33-18.32-15.72-20.32-35.43-41.65-52.15-62.02-14.99,5-28.08,16.57-40.87,26.78-11.65,9.3-22.92,27.89-40.88,18.32,27.52-19.93,57.35-37.55,83.16-59.2,1.2-.26,1.33.55,1.41,1.41,18.18,21.48,38.01,43.17,54.97,67.65,5.08,7.32,13.97,15.53,12.69,25.37Z"/><path class="cls-2" d="m28.75,206.83h4.23c27.52,14.32,51.19,32.73,77.52,49.34,36.84,23.22,80.65,36.43,118.4,57.78-57.37,42.7-122.65,77.5-183.23,116.99-8.04-71.37-14.35-151.97-16.92-224.11Zm169.14,102.89c-18.32-18.92-50.88-25.19-76.11-39.46-25.31-14.31-48.72-33.41-74.7-43.69-1.09.31-2.78.04-2.82,1.4,46.85,31.61,95.09,61.84,153.63,81.75Zm-143.76,100.07c-2.39-47.41-6.26-93.34-12.69-136.72-2.15,46.42.61,99.85,12.69,136.72Zm76.11-46.51c-25.48,15.77-50.79,33.98-70.48,52.15,50.9-31.79,103.53-61.85,152.23-95.84-28.35,11.62-55.83,27.64-81.75,43.7Z"/><path class="cls-2" d="m227.48,226.56c3.63.13,2.02,5.5,5.64,5.63-1.5,3.2-8.86.54-12.69,1.41,1.17-3.53,4.95-4.46,7.05-7.05Z"/><path class="cls-2" d="m237.36,237.84c-4.73,3.26-15.48.49-22.55,1.4,3.8-6.47,15.67-.8,22.55-1.4Z"/><path class="cls-2" d="m242.99,244.88c-7.65,6.44-27.15,1.04-39.46,2.82,7.52-9.24,26.52-1.33,39.46-2.82Z"/><path class="cls-2" d="m250.04,251.93c-13.79,5.47-35.93,2.6-53.56,4.23-3.61.06-1.71-1.05-1.41-2.82,15.57-3.22,37.07-.53,54.97-1.41Z"/><path class="cls-2" d="m257.08,260.38c-17.41,8.81-51.8,2.92-76.11,7.05,11.43,5.99,29.99,2.18,46.51,1.41,14.4-.67,32.34-3.43,38.06,4.23-23.32.17-43.63,3.36-67.66,2.82,18.67,11.5,52.87-2.71,74.7,2.82-16.04,5.56-40.67,2.55-57.78,7.04,15.56,8.03,51.84-7.22,64.83,2.83-9.97-.58-16.29,2.51-26.77,1.41,8.29,7.32,23.36.96,33.81,4.23-3.42,2.67-11.24.96-15.49,2.82,2.88,7.02,15.42,3.52,22.54,2.82-.93,6.11-9.22,4.86-11.27,9.86-6.96-3.37-14.7-5.98-21.15-9.86-27.47,19.44-63.38-22.53-90.2-29.6,15.45-15.58,59.32-10.17,85.97-9.87Zm-29.6,33.83c4.65,4.39,14.9,1.9,21.14,0-5.19-4.04-15.21-2.85-21.14,0Z"/><path class="cls-2" d="m472.73,447.84c-133.43,5.74-290.6,15.34-421.43,1.41,3.4-9.37,14.67-13.44,22.55-18.32,58.46-36.19,123.01-77.77,183.23-114.17.16-1.12,4.66-4.27,4.23-1.41,19.04,5.84,39.61,22.92,60.61,35.23,20.05,11.76,42.1,21.54,60.61,32.42,16.55,9.73,30.65,22.82,46.51,32.42,16.38,9.91,33.47,18.15,43.69,32.42Zm-204.37-116.99c-1.4,0-1.68,1.14-2.82,1.41,55.35,35.32,113.48,75.38,174.77,100.07-57.32-33.83-113.38-68.92-171.96-101.48Zm-193.09,116.99c69.1,9.92,144.62-4.23,218.46-4.23,42.21,0,88.51,9.29,126.85-2.82-120.22-4.34-228.98,4.22-345.31,7.05Z"/><path class="cls-2" d="m245.81,77.15c16.68,13.86,40.7,20.37,62.02,29.6-31.34,12.78-62.11,25.98-94.44,38.06-42.1,15.73-82.11,32.17-138.12,35.24,63.08-25.71,113.72-63.87,167.72-98.67-22.95,9.94-46.78,31.2-71.87,43.7-6.29-2.64-10.81-7.06-12.69-14.1,16.81-7.16,26.9-21.02,43.7-28.18,1.02,6.02,3.99,10.1,7.04,14.09,1.84-4.65-11.54-16.64,0-19.73,6.44,2.02,4.66,12.26,9.87,15.5,3.2-5.13-4.15-11.78-5.64-16.91,9.67-8.19,20.89-14.82,31.01-22.55,15.31,5.84,28.56,13.73,43.7,19.73-.11,8.36-8.51,8.4-9.87,15.51,4.82,1.02,7.72-11.98,15.5-12.69,3.21,7.41-12.34,7.06-11.27,16.91-12.4-4.98-23.15-11.62-36.65-15.5Z"/><path class="cls-2" d="m35.8,189.91c7.25-6.47,22.56-5.91,35.24-7.05,10.07-.9,20.3-.04,28.19-2.82h2.82c-20.17,3.71-50.16,28.46-66.24,9.86Z"/></svg>