<?xml version="1.0" encoding="UTF-8"?><svg id="Layer_1" xmlns="http://www.w3.org/2000/svg" viewBox="0 0 512 512"><defs><style>.cls-1{fill:#fdc91e;}</style></defs><path class="cls-1" d="m240.35,243.08c11.23-10.27,23.41-25.52,26.32-34.13,12.62-37.27-14.4-69.06-29.47-78.62-14.1-8.94-49.76-20.09-67.11-22.22-13.29-1.62-39.54-4.35-66.07-4.35-15.58,0-28.71.96-39.04,2.86-12.14,2.23-33.18,7.14-37.77,15-1.09,1.87-3.13,5.36-1.09,47.83.4,8.35.55,16.91.7,25.18.14,7.86.29,15.99.64,24.01,1.02,22.83,3.95,107.65,3.04,128.88-.37,8.57-.55,25.03-.6,31.72q-.21,23.2,1.48,25.01c1.02,1.09,2.44,1.73,3.94,1.77.7-.02,1.42-.11,2.07-.34.47-.03,1.37-.06,3-.06,5.98,0,17.12.46,30.02,1,18.31.76,39.05,1.63,54.99,1.63,6.58,0,11.7-.15,15.64-.45,24.6-1.89,68.16-9.78,82.39-13.33,32.85-8.19,67.72-40.15,57.9-103.25-3.69-23.71-23.99-42.09-41-48.12Zm13.66,120.38c-11.22-.3-22.56,1.13-33.55,2.53-8.83,1.12-17.96,2.28-26.7,2.48-2.05.04-3.68,1.75-3.63,3.8.04,2.03,1.7,3.64,3.72,3.64h.09c9.13-.2,18.46-1.39,27.47-2.53,8.17-1.04,16.55-2.08,24.78-2.42-7.85,6.35-16.72,10.51-25.43,12.69-13.56,3.39-56.9,11.22-80.55,13.04-3.6.28-8.58.41-14.78.41-15.71,0-37.23-.9-54.53-1.62-12.62-.53-23.57-.98-29.9-1.01,0-11.13.21-35.7.67-46.45.93-21.57-2.02-106.91-3.04-129.86-.35-7.87-.49-15.92-.63-23.71-.15-8.35-.31-16.99-.71-25.51-1.53-31.86-.62-39.96-.27-41.77,2.06-1.83,11.33-6.13,30.01-9.56,9.66-1.78,22.12-2.68,37.02-2.68,25.95,0,51.69,2.68,64.72,4.27,8.63,1.06,22.5,4.63,35.44,8.98-.61-.02-1.2-.04-1.74-.09-2.33-.2-4.83-.15-7.48-.1-4.31.07-8.77.17-11.73-.92-1.93-.72-4.06.27-4.78,2.19-.71,1.93.27,4.07,2.19,4.78,4.29,1.59,9.46,1.49,14.46,1.38,2.45-.05,4.75-.09,6.68.07,2.95.26,6.47.1,10.21-.07,3.61-.16,7.5-.33,10.75-.09,3.32,1.51,6.24,3,8.47,4.42,1.37.87,2.88,2.02,4.46,3.36h-21.82c-2.05,0-3.72,1.66-3.72,3.72s1.67,3.72,3.72,3.72h29.19c1.47,1.73,2.93,3.57,4.33,5.59-6.67-.07-14.02.16-19.25,2.27-1.91.77-2.83,2.93-2.06,4.84.58,1.45,1.98,2.33,3.45,2.33.46,0,.93-.09,1.39-.27,4.9-1.97,13.45-1.81,20.32-1.67.25,0,.47,0,.72.01,1.49,2.85,2.81,5.88,3.88,9.05-5.18-.01-10.73.93-15.55,1.76-1.35.23-2.63.45-3.8.63-2.03.31-3.43,2.2-3.12,4.24.28,1.84,1.87,3.16,3.67,3.16.19,0,.38-.01.56-.04,1.22-.19,2.54-.41,3.94-.65,4.94-.85,11.25-1.92,16.23-1.59.61,3.23.93,6.55.89,9.97-4.26.13-8.48.47-12.56.86-4.43.42-8.62.82-12.89.91-2.05.04-3.69,1.74-3.65,3.79.04,2.03,1.7,3.65,3.72,3.65h.07c4.55-.09,9.07-.52,13.45-.94,3.67-.35,7.43-.64,11.18-.79-.43,2.55-.99,5.13-1.87,7.74-.45,1.34-1.32,3.03-2.46,4.91-.6-.17-1.22-.24-1.86-.08-9.25,2.3-16.56,3.46-22.99,3.65-2.05.06-3.67,1.77-3.61,3.83.06,2.02,1.71,3.61,3.72,3.61h.11c5.51-.16,11.58-.99,18.68-2.51-2.73,3.48-5.86,7.1-9.09,10.48-.48-.23-1-.38-1.57-.38h0c-3.22,0-14.32.23-21.81,2.69-1.95.64-3.01,2.75-2.37,4.7.51,1.57,1.97,2.56,3.53,2.56.39,0,.78-.06,1.16-.18,3.56-1.17,8.66-1.82,13.48-2.11-2.65,2.3-5.19,4.2-7.42,5.46-2.39,1.35-3.45,4.24-2.49,6.81.96,2.58,3.67,4.06,6.35,3.51.57-.12,1.22-.18,1.93-.18,4.95,0,12.04,2.83,18.96,7.76-.65.19-1.27.39-1.95.53-4.39.83-9.35.67-14.16.52-1.98-.06-3.94-.13-5.85-.13-2.05,0-3.72,1.66-3.72,3.72s1.66,3.72,3.72,3.72c1.84,0,3.72.06,5.62.12,2,.06,4.03.13,6.06.13,3.25,0,6.52-.17,9.72-.77,1.4-.27,2.72-.66,4.02-1.06,1.33-.41,2.48-.74,3.61-.89,2.07,2.02,4.04,4.22,5.84,6.6-2.47.32-4.92.8-7.33,1.29-4.11.85-8.02,1.64-11.77,1.53-2.02-.02-3.77,1.55-3.83,3.6-.06,2.06,1.55,3.77,3.61,3.83.31,0,.63.01.94.01,4.31,0,8.5-.86,12.56-1.7,3.64-.75,7.08-1.42,10.35-1.45,2.11,4.01,3.68,8.36,4.46,12.99-2.59.32-5.14.74-7.62,1.22-4.43.85-8.61,1.66-12.94,1.53-2.05.03-3.77,1.55-3.83,3.6-.06,2.05,1.55,3.77,3.6,3.83.4.01.79.02,1.19.02,4.7,0,9.12-.86,13.4-1.68,2.47-.48,4.83-.87,7.17-1.15.59,5.8.76,11.29.53,16.45-7.84-.16-19.48.56-24.96,3.04-1.87.85-2.7,3.05-1.86,4.92.62,1.37,1.97,2.19,3.39,2.19.51,0,1.03-.11,1.53-.33,3.61-1.63,13.58-2.53,21.27-2.4-.86,7-2.47,13.36-4.67,19.09-5.75-.05-11.46.6-16.98,1.27-5.22.63-10.15,1.23-15.11,1.23-.15,0-.32,0-.44,0-2.04,0-3.71,1.65-3.72,3.69-.02,2.05,1.64,3.73,3.69,3.74h.46c5.42,0,10.81-.65,16.02-1.29,4.38-.53,8.56-1.05,12.73-1.19-2.59,4.95-5.67,9.34-9.08,13.2Z"/><path class="cls-1" d="m158.2,267.28c-3.13-.06-6.11-.12-8.86-.25-1.55-.07-4.48-.14-8.19-.14-44.36,0-47.49,6.58-47.8,11.13-.28.96-.53,2.33-.74,4.43-5.21-.3-10.87-.43-14.74,2.12-1.72,1.14-2.19,3.44-1.06,5.16.72,1.08,1.9,1.67,3.11,1.67.7,0,1.42-.2,2.05-.61,1.9-1.26,6.42-1.12,10.19-.91-.11,2.96-.18,6.61-.21,11.13-2.12.19-4.21.5-6.26.82-3.28.51-6.39,1.03-9.43.92-1.97.1-3.76,1.57-3.81,3.63-.05,2.05,1.57,3.76,3.62,3.81.27,0,.54,0,.81,0,3.44,0,6.74-.52,9.95-1.02,1.75-.27,3.44-.54,5.1-.71,0,3.49.03,7.38.08,11.7-6.02-.15-13.77.44-18.92,2.18-1.95.66-2.99,2.77-2.33,4.71.52,1.55,1.97,2.53,3.52,2.53.4,0,.8-.06,1.19-.19,4.15-1.4,11.22-1.93,16.63-1.78.04,3.03.09,6.22.15,9.64-5.26,1.75-12.66,3.02-18.13,1.33-1.96-.61-4.05.49-4.65,2.46-.6,1.97.5,4.05,2.46,4.65,2.68.83,5.47,1.14,8.18,1.14,4.7,0,9.14-.95,12.31-1.85.15,1.91,1.24,3.62,2.96,4.52,4.97,2.57,11.37,3.77,20.13,3.77h0c3.94,0,7.92-.24,11.44-.44,2.04-.13,3.98-.24,5.77-.3,53.57-1.84,73.66-20,81.09-34.9,6.21-12.47,4.73-25.75.05-32.41-12.01-17.08-36.21-17.55-55.66-17.93Zm45.63,45.36c-4.97,9.98-20.87,26.98-71.48,28.73-1.88.06-3.92.18-6.06.31-3.52.21-7.16.43-10.77.43h0c-5.01,0-8.99-.45-12.04-1.36l-.03-2.04c-.61-34.01-.43-53.28.54-57.29,3.69-1.69,17.32-3.37,37.17-3.37,3.47,0,6.21.06,7.66.12,2.85.14,5.94.19,9.18.26,16.93.33,38,.74,46.75,13.18,1.75,2.49,3.96,11.25-.91,21.02Z"/><path class="cls-1" d="m318.94,178.78c4.92-.34,10.01.11,15.49.58,4.31.36,8.76.74,13.22.74h29.89c14.62,0,28.52-1.15,41.96-2.25,6.64-.55,13.29-1.1,20.07-1.52,2.13-.13,4-1.47,4.82-3.44,2.9-7.02,2.87-16.37,2.84-24.62,0-2.88-.02-5.64.11-8.08l.08-1.31c.31-5.15.83-13.77-9.99-16-4.02-.83-11.59-1.35-18.27-1.81-2.53-.17-4.78-.33-6.32-.47-5.5-.51-12.51-.77-20.84-.77-20.48,0-71.58,2.44-77.58,7.17-.78.62-1.38,1.43-1.74,2.35-5.49,14.04-.6,39.93.43,44.98.56,2.73,3.1,4.62,5.83,4.44Zm3.4-43.02c8.59-1.82,40.95-4.76,69.65-4.76,7.99,0,14.65.24,19.81.72,1.6.15,3.94.31,6.58.49,5.7.39,13.5.93,16.78,1.6.6.13.96.26,1.16.34.12.69.06,2.14-.02,3.43-5.17-.8-10.99-.55-16.31-.31-2.29.1-4.47.2-6.43.2s-3.72,1.66-3.72,3.72,1.66,3.72,3.72,3.72,4.36-.1,6.76-.21c5.32-.24,11.19-.48,15.75.39,0,1.06,0,2.11,0,3.22,0,.84,0,1.7,0,2.56-1.65.19-3.28.46-4.87.74-2.33.4-4.53.79-6.69.88-1,.04-2.18-.05-3.43-.13-4.13-.29-9.27-.63-12.54,2.36-1.51,1.39-1.62,3.74-.23,5.26.73.8,1.74,1.2,2.74,1.2.9,0,1.8-.32,2.51-.98.92-.85,4.88-.58,7.01-.43,1.55.11,3.03.2,4.25.15,2.64-.11,5.19-.56,7.65-.99,1.17-.2,2.29-.39,3.4-.55-.14,2.52-.38,4.95-.84,7.06-5.53.38-11,.83-16.45,1.28-13.82,1.14-26.88,2.21-41.04,2.21h-29.89c-3.99,0-8.2-.35-12.28-.7-3.99-.33-8.12-.69-12.19-.72-1.87-11.08-2.72-24.09-.84-31.75Z"/><path class="cls-1" d="m483.06,321.68c-1.83-.66-5-1.34-14.71-1.34-11.02,0-25.81.89-34.64,1.43-2.31.14-4.2.25-5.5.32-2.77.14-5.01,2.29-5.27,5.06-.84,9.05-15.63,15.87-34.4,15.87-13.87,0-26.4-3.95-32.7-10.3-3.02-3.04-4.85-10.43-5.71-16,4.81.29,10.87.44,18.12.44,36.72,0,100.27-3.95,107.92-6.7,1.45-.53,2.62-1.63,3.23-3.05,6.79-15.79,5.87-41.05-2.23-61.45-9.66-24.3-32.32-45.22-56.4-52.05-28.79-8.16-54.63-9-75.44-2.39-13.75,4.38-25.31,9.84-37.03,22.33-7.75,8.28-16.94,22.15-19.47,36.23-5.42,30.27,2.28,94.67,17.29,116.6,11.29,16.49,21.38,23.62,33.05,29.23,11.05,5.32,24.87,8.02,41.08,8.02,14.1,0,29.53-2.14,43.45-6.02,40.49-11.28,56.76-51.99,57.43-53.73,1.25-3.21,2.34-6.56,3.4-9.8.63-1.93,1.25-3.83,1.88-5.61,1.01-2.89-.48-6.05-3.36-7.1Zm-35.53,50.6c-.56-.39-1.2-.67-1.93-.69-6.4-.16-12.69.71-18.79,1.58-5.43.78-10.57,1.51-15.77,1.55-2.05.01-3.71,1.69-3.69,3.74.01,2.04,1.68,3.69,3.72,3.69h.02c5.71-.04,11.34-.84,16.78-1.62,3.53-.5,6.94-.99,10.32-1.27-5.24,3.33-11.04,6.11-17.46,7.9-12.98,3.61-27.35,5.61-40.46,5.61-14.31,0-26.84-2.39-36.24-6.92-10.35-4.98-18.76-10.98-28.68-25.48-13.36-19.53-20.54-80.29-15.51-108.34,2.1-11.69,9.96-23.46,16.63-30.57,8.84-9.43,17.58-14.66,32.27-19.33,8.16-2.6,17.32-3.91,27.22-3.91,12.58,0,26.44,2.11,41.2,6.24-2.79.05-5.59.04-8.38.01-1.74-.02-3.47-.04-5.21-.04-2.05,0-3.72,1.66-3.72,3.72s1.67,3.72,3.72,3.72c1.71,0,3.41.02,5.12.04,1.74.02,3.48.04,5.22.04s3.53-.02,5.29-.09c2.48-.09,4.92-.58,7.29-1.05,1.53-.31,3.01-.59,4.41-.76,2.83,1.53,5.58,3.26,8.25,5.17-5.67.36-11.84,1.23-14.2,3.24-1.57,1.33-1.83,3.73-.51,5.3.75.88,1.8,1.35,2.85,1.35.82,0,1.63-.28,2.32-.86,1.94-1.13,12.14-1.99,18.21-1.83,1.68,1.6,3.29,3.26,4.84,4.99-8.73,0-12.38.74-14.17,2.54-1.45,1.46-1.44,3.81.02,5.26.73.72,1.67,1.08,2.62,1.08.8,0,1.61-.26,2.27-.78,1.16-.42,4.89-.82,15.22-.57.62.88,1.2,1.78,1.77,2.68-5.22.06-10.86.43-15.05,2.15-1.9.77-2.81,2.95-2.03,4.85.59,1.44,1.98,2.31,3.44,2.31.47,0,.95-.09,1.41-.28,3.98-1.64,10.9-1.63,16.42-1.6.81,1.65,1.57,3.31,2.25,5,.12.3.2.62.32.91-5.7-.39-11.86-.61-16.28,1.37-1.88.84-2.71,3.04-1.88,4.91.62,1.38,1.97,2.2,3.4,2.2.51,0,1.02-.11,1.52-.32,3.16-1.41,9.39-.98,14.39-.62.45.03.87.05,1.31.09.98,3.59,1.79,7.26,2.31,10.95-1.28.18-2.57.32-3.84.51-4.68.7-9.09,1.36-13.81,1.37-2.05,0-3.71,1.68-3.71,3.73,0,2.05,1.67,3.71,3.72,3.71h.01c5.26-.02,10.16-.75,14.89-1.46,1.15-.17,2.33-.3,3.48-.46.19,3.16.15,6.24-.02,9.23-3.94-.59-8.56-.29-12.79,0-2.05.14-3.97.28-5.58.28-2.05,0-3.72,1.66-3.72,3.72s1.66,3.72,3.72,3.72c1.75,0,3.85-.14,6.08-.3,3.64-.24,8.31-.55,11.46-.03-.42,2.41-.94,4.74-1.65,6.84-12.33,1.98-64.3,5.58-101.89,5.58-10.67,0-18.81-.33-23.53-.96-3.03-.39-5.82,1.71-6.26,4.74-.18,1.27.7,21.98,9.46,30.8,8.45,8.52,23.64,13.6,40.62,13.6,18.79,0,39.5-6.67,44.48-21.18.43-.02.89-.05,1.36-.08,8.7-.52,23.28-1.4,33.96-1.4,2.18,0,3.95.03,5.37.1-.63,1.93-1.29,3.87-1.97,5.78-3.27.97-6.76,1.36-10.46,1.78-2.76.31-5.61.63-8.42,1.21-2.01.42-3.3,2.38-2.89,4.4.36,1.76,1.91,2.96,3.64,2.96.25,0,.51-.02.76-.08,2.47-.51,5.03-.8,7.74-1.11,2-.23,4.03-.45,6.07-.78-1.13,2.21-2.51,4.62-4.1,7.11-4.02.23-7.94,1.09-11.74,1.93-4.91,1.1-9.57,2.12-14.09,1.78-2.08-.16-3.84,1.37-3.99,3.42-.16,2.05,1.38,3.84,3.42,4,.81.06,1.61.09,2.41.09,4.78,0,9.39-1.03,13.87-2.03,1.41-.31,2.79-.61,4.15-.88-3.05,3.79-6.56,7.58-10.58,11.11Z"/><path class="cls-1" d="m339.13,278.48c.44,0,.9-.05,1.35-.16.99-.25,1.84-.74,2.53-1.4,3.54-.01,7.79-.41,12.2-.82,3-.28,5.95-.56,8.43-.67,4.37-.19,8.72-.23,13.07-.27,4.61-.04,9.38-.09,14.16-.32l40.14-1.92c2.67-.13,4.87-2.13,5.25-4.78,1.38-9.68-1.53-18.83-8.41-26.45-11.83-13.09-33.17-19.23-48.11-18.69-14.34.6-28.21,7.11-37.17,17.16-.02,0-.04-.01-.06-.02-4.13-.33-8.02.33-11.79.97-2.39.4-4.64.78-6.86.91-2.05.11-3.62,1.87-3.51,3.91.11,1.98,1.75,3.52,3.71,3.52.07,0,.14,0,.2,0,2.65-.14,5.22-.58,7.71-1,1.79-.31,3.52-.6,5.22-.78-1.35,2.42-2.4,4.93-3.15,7.5h-11.86c-2.05,0-3.72,1.66-3.72,3.72s1.66,3.72,3.72,3.72h10.51c-.12,1.71-.09,3.43.04,5.17-1.99.18-3.94.53-5.85.9-2.15.41-4.18.8-6.12.89-2.05.09-3.64,1.83-3.55,3.88.09,1.99,1.73,3.55,3.71,3.55.06,0,.11,0,.17,0,2.48-.11,4.88-.57,7.2-1.02,2.03-.4,3.97-.76,5.81-.87.89,2.03,2.84,3.38,5.04,3.38Zm41.07-44.33c.54-.02,1.09-.04,1.65-.04,11.98,0,28.72,5.09,37.72,15.06,3.53,3.9,5.48,8.21,5.81,12.85l-35.06,1.68c-4.55.22-9.21.26-13.71.3-4.49.04-8.97.09-13.48.29-2.64.12-5.78.41-8.97.7-3.43.32-7.41.69-10.42.76-.17-7.01,2.63-12.47,5.34-16.09,6.69-8.93,18.9-15.02,31.11-15.52Z"/><path class="cls-1" d="m85.07,204.78c-3.3.47-6.41.91-9.54.92-2.05,0-3.71,1.68-3.71,3.73,0,2.05,1.67,3.71,3.72,3.71h.01c3.65-.01,7.17-.52,10.57-1,2.18-.31,4.29-.6,6.35-.76.2,3.44.43,7.2.69,11.28-.05,0-.1-.01-.16,0-1.81.34-3.61.7-5.42,1.05-3.72.73-7.56,1.49-11.35,2.06-2.03.3-3.43,2.2-3.13,4.23.28,1.85,1.86,3.17,3.67,3.17.18,0,.37-.01.56-.04,3.96-.59,7.89-1.37,11.69-2.12,1.54-.31,3.08-.6,4.62-.89l.15,2.31c.16,2.8,2.38,5.04,5.18,5.24,8.25.58,16.11.89,22.73.89h0c2.99,0,5.96-.06,8.8-.21,48.21-2.5,65.58-18.84,71.66-32.11,5.15-11.24,3.2-23.11-1.4-29.04-13.02-16.77-40.55-16.77-56.99-16.77h-1.98c-.4,0-40.03.35-47.69,8.18-1.14,1.17-1.87,2.57-2.13,4.06-.06.23-.12.48-.18.76-.91.11-1.81.24-2.71.38-2.85.42-5.55.82-8.21.59-2.06-.16-3.84,1.35-4.01,3.4-.17,2.05,1.35,3.84,3.4,4.01.74.06,1.48.09,2.2.09,2.69,0,5.23-.38,7.7-.74.38-.05.75-.11,1.13-.15-.01,1.59.01,3.49.06,5.71-3.5-.4-7.2-.23-10.61-.03-1.81.11-3.57.21-5.19.21-2.05,0-3.72,1.66-3.72,3.72s1.67,3.72,3.72,3.72c1.76,0,3.67-.11,5.63-.23,3.67-.22,7.4-.4,10.42.14.12,2.83.27,6.05.47,9.68-2.37.18-4.71.5-6.99.83Zm17.54-28.63c5.55-2.66,28.38-4.56,39.16-4.56h1.98c14.4,0,38.51,0,48.18,12.45,1.6,2.06,3.83,9.34.07,17.55-3.93,8.57-17.21,23.29-62.09,25.61-2.65.14-5.43.19-8.22.19h0c-5.06,0-10.89-.19-17.08-.55l-.03-.41c-1.91-29.22-2.57-46.12-1.98-50.29Z"/></svg>