<?xml version="1.0" encoding="UTF-8"?><svg id="Layer_1" xmlns="http://www.w3.org/2000/svg" viewBox="0 0 512 512"><defs><style>.cls-1{fill:#fdc91e;fill-rule:evenodd;}</style></defs><path class="cls-1" d="m59.33,428.3c5.99.17,12.99-2.68,20.31-5.57,6.22-2.86,15.57-4.88,19.96-10.06,7.4-8.4,9.36-26.95,10.1-38.37,1.63-24.6-2.69-47.49,9.4-74.14,8-18.08,23.61-35.65,40.76-37.05,19.64-1.53,47.64,16.26,71.33,24.96,19.65,7.23,55.41,18.45,69.22-3.82,6.36-10.72,5.94-27.72,4.76-40.21-1.34-13.4-4.93-26.23-7.75-37.46-2.82-12.03-5.19-25.09-7.46-37.53-3.33-17.43-8.63-36.21,4.81-54.5,15.99-21.57,42.38-18.69,65.76-5.69,15.15,8.37,28.56,16.59,42.18,19.91,38.03,9.08,83.02-34.86,87.62-80.22.89-2.04-3.69-3.09-.68-5.51,8.52,3.78,6.92,15.66,5.77,23.09-4.53,26.84-28.68,58.67-52.47,70.06-16.6,7.88-32.89,8.81-50.86,2.21-17.93-6.31-36.37-21.45-55.43-24.57-9.36-1.43-22.17,1.37-27.99,9.01-7.93,10.7-4.44,29.82-2.68,42.98,4.26,29.48,17.32,51.25,19.47,80.33.88,15.2.95,35.41-12.26,50.67-16.01,18.9-44.84,17.25-66.02,11.07-9.45-2.83-22.56-7.65-36.41-14.85-28.06-14.65-51.26-27.51-70.08,4.29-21.08,35.81-.6,79.43-21.83,117-12.55,22.35-30.77,19.55-47.58,28.88,9.64,2.95,21.4,1.28,34.15,5.86,7.69,2.67,11.39,9.21,2.4,11.48-4.93,1.36-12.9.62-18.22.65-17.74-.07-32.4-2.26-47.93.25-7.95,1.13-20.06,5.22-25.7,2.64-17.64-8.23,2.37-24.89,12.8-36.5,7.33-7.92,16.64-17.92,21.72-24.49,8.55-11.59,18.41-32.36,31.46-20.15,12.98,11.9-11.72,30.35-22.63,45.35h0Z"/></svg>