<?xml version="1.0" encoding="UTF-8"?><svg id="Layer_1" xmlns="http://www.w3.org/2000/svg" viewBox="0 0 512 512"><defs><style>.cls-1{fill:#fdc91e;fill-rule:evenodd;}</style></defs><path class="cls-1" d="m91.78,403.55c13.58-36.78,34.77-73.64,61.08-109.29,26.79-36.38,59.46-71.47,104.54-100.97,72.65-48.04,144.91-76.62,214.51-92.65,8.23-1.93,22.32-3.96,27.7-13.06-3.03-5.63-10.25-2.41-14.4-1.93-76.91,12.04-160.64,35.34-242.84,89.84-47.05,31.41-81.34,70.21-108.79,108.85-26.81,38.13-46.66,78.45-62.63,115.74-1.75-4.89-.88-12.2-1.37-19.47-.69-8.86-3.43-30.06-17.27-21.97-11.51,6.62-8.67,28.41-8.98,39.1-.37,14.59.69,30.12-.52,40.12-.92,7.68-5.39,15.73.99,24.3,13.4,18.38,40.17-6.49,58.61-22.04,7.59-6.3,14.32-13.68,18.35-19.63,4.07-6.34,9.36-14.68,5.4-20.61-7.94-11.88-22.79-1.96-34.38,3.67h0Z"/></svg>