<?xml version="1.0" encoding="UTF-8"?><svg id="Layer_1" xmlns="http://www.w3.org/2000/svg" viewBox="0 0 512 512"><defs><style>.cls-1{fill:#fdc91e;fill-rule:evenodd;}</style></defs><path class="cls-1" d="m35.59,10.92c3.79-2.79,9.11-4.05,13.16-2.53,10.38,3.8,21.79,4.31,32.68,6.84,65.6,15.2,125.36,35.96,187.66,53.44,10.39,3.04,21.53,7.09,31.41,8.86,4.29.76,8.36-.5,9.37,2.53,2.02,4.56-7.1,11.65-9.88,14.94-8.62,10.64-16.21,15.96-25.07,25.07-4.05,4.31-10.39,9.12-11.9,13.17-2.53,6.08-2.02,16.21-2.53,24.57-1.52,18.49-2.79,34.7-5.08,50.15-1.26,7.6-.5,16.47-6.33,21.53-9.62-3.55-15.69-12.41-22.03-19.5-6.59-7.6-12.4-15.7-20.77-21.28-10.64,6.84-17.99,19.25-27.6,28.11-2.79,2.79-7.1,3.8-9.87,6.33-2.79,2.28-8.12,12.67-12.67,12.41-5.56,0-12.4-20.77-15.7-26.85-4.82-9.37-10.63-20.01-14.94-28.37-25.83-48.12-47.62-97-75.98-139.8-5.83-8.87-12.67-18.49-13.92-29.63h0Zm261.87,73.44C219.2,63.85,144.99,39.28,63.95,21.55c59.01,36.98,131.69,66.1,191.97,104.34,14.69-12.66,31.16-26.85,41.55-41.54h0Zm-78.02,82.82C165,124.88,114.85,77.78,58.89,36.75c32.42,60.02,72.17,118.27,101.56,183.11,21.52-15.71,34.45-40.02,59-52.68h0Zm27.87-38.24c-53.43-28.87-107.39-57.24-161.33-85.35,43.82,36.72,92.94,72.69,135.5,113.71,3.03,2.79,6.82,4.31,9.37,6.84,8.6,8.87,7.33,25.32,14.43,35.2-1.27-25.83,2.78-47.11,2.03-70.41h0Zm-22.04,45.84c-4.82,1.01-7.08,4.81-10.63,6.84,6.33,9.12,14.68,15.7,21.27,24.57-2.02-9.62-6.59-21.78-10.64-31.41h0Z"/><path class="cls-1" d="m296.19,198.58c1.01-5.06-15.95-16.46-15.71-7.59.26,4.55,10.38,6.33,15.71,7.59h0Z"/><path class="cls-1" d="m314.93,214.28c4.82,10.13,14.19,15.7,23.8,20.77,1.78-5.82-11.13-18.74-15.7-22.03-1.52-1.26-6.32-2.53-8.1,1.26h0Z"/><path class="cls-1" d="m357.74,255.82c-1.78,14.18,14.69,18.49,12.41,33.18,7.34,1.01,7.34-6.84,5.83-12.41-2.03-7.85-11.15-23.81-18.24-20.77h0Z"/><path class="cls-1" d="m351.4,297.86c-8.11-2.53-28.37-7.85-38.25-5.57-6.08,1.26-9.11,9.62-.75,11.14,4.31.76,12.41-1.52,20.77-1.77,7.59-.5,16.96,1.52,18.24-3.8h0Z"/><path class="cls-1" d="m277.45,317.86c9.87,6.33,13.92-9.88,13.68-17.47-8.87,1.26-16.48,8.61-13.68,17.47h0Z"/><path class="cls-1" d="m368.37,305.46c0,4.81,4.57,4.81,6.34,8.11-1.01,11.4-.51,24.31-3.3,33.93,10.64-2.53,9.13-17.22,10.64-28.36,6.33,1.27,10.38,10.13,18.24,11.9,0-6.33-5.83-10.89-11.15-16.21-5.3-5.32-14.17-15.71-20.77-9.37h0Z"/><path class="cls-1" d="m406.61,344.96c2.02,8.36,8.36,14.69,12.66,21.78,4.06,7.09,6.09,16.21,13.17,20.77,0-10.38-7.34-28.87-13.92-38.75-2.02-3.29-7.85-10.38-11.9-3.8h0Z"/><path class="cls-1" d="m336.47,373.08c5.06,6.59,26.84-4.05,26.84-10.64,0-2.79-1.27-4.81-5.06-5.06-4.05,0-6.09,5.06-9.37,7.59-4.82,3.8-10.38,4.81-12.41,8.11h0Z"/><path class="cls-1" d="m436.75,407.01c-2.03,9.37,3.54,16.21,6.84,24.57,2.53,5.83,3.54,12.92,8.36,16.21,6.07-4.56-.76-48.37-15.2-40.78h0Z"/><path class="cls-1" d="m462.58,477.42c1.01,9.88.77,20.76,5.59,26.85,14.17-1.77,8.6-42.29-5.59-26.85h0Z"/><path class="cls-1" d="m265.95,331.28c8.36,1.77,12.67,12.92,14.43,23.05-11.13,8.36-14.68-13.93-14.43-23.05h0Z"/><path class="cls-1" d="m287.99,373.32c5.56-4.56,28.86-2.28,28.35,5.57-.75,9.37-26.84,2.79-28.35-5.57h0Z"/></svg>