<?xml version="1.0" encoding="UTF-8"?><svg id="Layer_1" xmlns="http://www.w3.org/2000/svg" viewBox="0 0 1920 205.11"><path d="m1909.93,60.72c.06-.95-1.83-1.62-.29-2.41.6-.31,1.16-.62-.63-.52-4.55.26-1.06-.94-2.29-1.27-1.74.64-2.28.74-4.55.86-.78-.43-1.95-.8-1.52-1.59-2.61,1.55-4.39,1.27-5.77,0-.51-.68-2.22-.31-3.4-.4,1.26-.42,1.36-.93,1.03-1.47.1-.57,4.08-.32,2.53-1.24-1.99-.72.24-2.85-6.47-2.04-.26.03-1-.2-1.28-.36-3.77-2.07-4.94-.36-6.7.48-1.35-.33-2.72-.67-4.5-.31-.87.17-2.49.32-2.45.05.32-2.03-4.19-.98-6.7-1.16-.22-.04-.46-.07-.72-.1-.44-.02-.89-.04-1.33-.07-.86-.43-2.98.13-3.49-.4-2.03-2.11-1.97-2.11-7.9-1.24.85-2.89-4.74-1.05-7.78-1.15.14-.37-.08-1.07-.68-.94-2.74.58-4.26-.31-6.21-.34-1.95-.03-3.9-.98-6.38.02-.97.39-.09-.28-.21-.46-.42-.62-1.4-.89-3.31-.5-4.32,0-7.25.88-10.36,1.67,2.12-.16,4.28.08,6.26-.58,1.76-.58,2.25.36,3.07.7.8.33,2.41.67,1.26,1.16-1.36.58-2.41.05-3.39-.23-3.36-.96-5.41,0-7.74.54-2.59.61-2.49,1.67-3.99,2.47-4.39.96.55,2.67-2.76,3.81-.94-.43-.43-1.12-2.1-1.18-2.13-.07-.06,1.04-2.38,1.04-1.37,1.73-6.21,3-5.79,4.99-2.09-.26-1.06-1.33-3.83-1.13-.38-.04-.76-.07-1.15-.09-.19-.55-3.84-.94-1.92-1.37,5.2-1.17,2.5-2.97,4.12-4.4.35-.31,1.07-1.27-2.1-1.23-.11-1.29-.22-2.59-.32-3.88.57-.38,1.69-.69,1.33-1.18,1.94-.53-1.76-.35-.9-.75,2.24-.94-2.32-1.94.28-2.88-1.89.05-2.79-1.54-5.09-.41-1.37.68-3.88.66-5.19,1.23-1.11.11-2.2.79-3.34.13-.93-.53-2.72-.82-3.66-.56-3.03.83-5.04-.08-7.45-.27-2.27-.06-3.76-.36-3.59-1.19.58-.93-.35-1.29-2.71-1.05-.75.07-.75.67-1.91.37-3.42-.92-5.44-.13-7.56.59-3.39-2.71-4.66-3.01-11.13-2.62.51-.51,1.02-1.03,1.53-1.54-2.99.14-5.49-.68-8.53-.45-.69.03-1.38.05-2.06.08-3.1-.21-2.98,1.16-5.89,1.21-.91-.96.07-2.1-1.98-3.02-2.75.37-1.83,1.11-2.13,1.7-.87.12-2.11.43-2.55.34-2.9-.61-3.88-.48-5.07.62-1.24,1.14-1.55,2.36-3.6,3.42-1.58.82-2.07,1.78-.72,2.74-1.21.27-2.41.54-3.62.8-1.57-.04-1.93.4-2.65.7-5.06.8-4.7,2.48-6.05,3.88-2.11.4-.3.79,0,1.19-2.59.76-.73,1.92-2.34,2.77-.87.44-1.61.92-2.66,1.3-1.11.41-1.76.72.3.99,6.22.81,3.53,2.04,1.44,3.24-.86.5-1.72,1-2.58,1.5-2.9.81-1.53,2.06-3.61,3,2.15.15,3.15-.55,4.8-.28l-.06.02c.27.68-.24,1.3-2.11,1.65-3.7.71-4.57,1.75-3.84,3.02-.14.54-3.09.46-2.5,1.17-.38.14-.77.27-1.16.41-1.04-.06-2,.61-2.08.37-.51-1.53-3.06-2.24-7.57-2.35.74-1.01-4.47-.53-3.7-1.55.15-.04.45-.09.43-.11-.06-.1-.22-.19-.35-.28,4.56-1.69,8.66-5.3,9.75-8.15.18-.47.87-.18,1.56-.14,3.03.14,1.04-.76,2.02-1.06,1.74-.17,2.93-.69,2.57-1.13-1.11-1.34,2.16-2.12,3.24-3.17,2.48-.78-1.09-1.7.7-2.57,4.31-2.08,4-2.47-2.12-3.86,1.76-.54,7.04.19,5.67-1.23-.93-.97-5.04-.78-7.43-.37-3.03.53-3.87-.23-5.26-.65-2.85-.87-4.28-.61-4.86.54-2.2-.44-5.61-.71-6.39-1.33-2.55-2.06-4.56-1.27-6.96-.05,1.11.41,4.12-.18,4.16.71.02.44-1.39.76-2.82.9-2.09.21-3.01.05-3.84-.71-.47-.43-.74.62-2.15.48-.65-.63-.56-1.21,1.05-1.69,3.65-.27,2.42-1.1,1.11-1.57-1.74-.61-4.53-.44-7.02-.49-3.61-.07-7.37-.07-10.7-.68-.87-.5.24-1.34-2.58-1.49-2.49-.13-3.59.37-4.58.98-1.08.67-3.18.93-5.01.62-2.6-.44-2.26,0-2.76.57-1.13,1.26-1.95,2.58-7.59,2.73-1.44.04-5.04.2-5.57,1.12-.35.6-.36,1.16-1.08,1.34-.26.16-.53.33-.79.49-.17.37-.34.73-.51,1.1-2.41.44-1.66,1.3-2.45,1.95-2.13-.11-3.14.47-4.61.78-2.38.38-4.61.8-3.92,1.86-1.5,1.08-3.01,2.16-4.51,3.24-1.16,1.02-3.25,1.97-2.43,3.15-3.79.98-4.09,2.57-6.32,3.82-1.71.63-1.25,1.77-4.56,2.01-1.66.12-2.93.75-4.95.4.46-.49,3.46-1.32.05-1.36-3.54-.04-3.44-.25-2.66-1.11.51-.56-.97-.89-2.34-.85-1.41.05-.74.61-1.08.93-2.55.27-4.11,1.16-7.06,1.17-.75-.25,2.44-.54-.06-.78-.88-.92,4.81-.31,2.87-.98-5.14-1.75,1.5-2.69,1.93-4.02h0c1.23.36,2.6.85,2.68-.22.04-.56-2.8-.81-1.66-1.51,4.58.35,4.76.29,3.49-1.09,3.6-2.62-1.71-4.38-5.75-6.27-1.76-.59-6.86-1.41-8.61-1.25-1.81.17-3.54.14-4.09-.41-1.76-1.74-4.13-1.05-6.67-.26-4.73-.11-6.01-3.14-12.76-1.58-.14.03-.89-.09-.9-.15-.13-1.48-2.79-.61-4.59-.52-1.65-.47,1.9-1.02-.23-1.49-2.18.27-2.98.94-4.14,1.5-1.78-.06-2.17-.27-1.41-.85,1.69-1.27-2.35-.91-3.79-1.3-.91.97-5.24.54-6.06,1.55-4.6.15-1.24,2.03-4.94,2.37-1.14.24-2.27.69-3.43.7-6.95.05-8.55,2.14-12.53,3.31-1.79.53.7.76.56,1.15-2.03.79-4.06,1.57-6.09,2.36-2.02.91-6.89,1.27-6.82,2.43.12,2.17-2.3,3.84-6.68,5.33-3.14-.3-5.74-1.38-9.56-.67-2.34.12-3.53-.32-4.47-.93-1.03-.67-2.21-1.31-5.11-1.07-3.47-.72-6.48-.09-9.56.35,1.05-1.13.28-1.79-3.89-1.58-.77-.26-1.53-.52-2.3-.78-2.27-1.33-6.13.33-8.72-.51,1.27-.47,4.29-.28,4.52-1.17-1.61-.3-3.22-.31-4.56.05-3.62.97-7.9-1.41-11.3.25-3.03-1.32-5.94-.15-8.61.15-1.46.16-.13.44.96.46.36.13.73.26,1.09.39-3.18.44-4.86,1.06-2.57,2.17-4.34.45-3.68,1.99-5.98,2.88-.72.18-1.44.35-2.16.53-5.19.52-6.38,2.1-8.61,3.4-1.71.37-3.14-.82-4.92-.09-1.56.19-3.12.38-4.68.57-2.33-.08-5.54-.24-6.03.61-.72,1.23-3.24,1.16-5.68,1.29-.11,0-.24.01-.38.02-3.01.98-6.38.77-8.57-.4-1.35-.72-1.67.13-2.42.3-2.68.5-5.71.62-8.66.83.47-.61.93-1.21,1.55-2.02-2.49.61-4.74,1.93-6.35,1.1-1.2-.61-1.96-.55-3.3-.62-2.91-1.12-7.41-.25-7.68.19-.98,1.59-5.42,1.49-8.09,2.19-.92.13-2.22.08-2.45.53-5.31-.45-2.4-1.63-1.06-2.17,3.11-1.24,2.98-2.62,3.3-4.04.26-1.18,1.36-2.36,1.27-3.54-.17-2,1.24-4.04-1.32-5.98,2.57-.78-2.84-1.06-1.02-1.89,1.56-.71-1.48-.46-1.52-.44-3.11,1.49-7.97.47-11.8.87.2-.59-.05-1.15-2.36-.68-2.48.5-5.21.19-5.69-.36-1.96-2.22-2.77-.53-3.97.06-.42.03-.84.07-1.27.1-1.73-.36-1.46-.8-.43-1.25.62-.28.8-.67-.05-.8-1.26-.19-1.76.38-2.83.5-1.95.2-2.79.02-2.73-.69.09-1.12-1.84-.84-3.75-.5-1.82-.29-4.18.25-5.85-.48-.92-.4.96-.78-.53-1.15-2.83-.7-1.59.43-2.55.54-1.97-1.85-4.39.11-6.55-.08-.72.04-1.44.07-2.16.11-.71-1.51-3.22-1.03-5.8-.56-.46.08-1.17.01-1.77.01q-.73-.41-2.44.35c-4.23.03-3.36,1.28-4.6,2.02-.32.26,1.24.37.25.78-1.89.79-4.25,1.55-4.2,2.68-1.67.12-1.93.96-4.89.64-2.27-.24-3.25.49-.4,1-1.44.41-3.14.77-2.83,1.52,1.09.46,3.68.78.64,1.5-1.83.43-3.19,1.08-4.73,1.64-.15.05-.1.17-.12.2,1.26.53,2.76-.48,4.55.37-5.13.34-6.64,1.5-6.55,2.97-2.13-1.01-3.86-2.22-8.74-1.95-.49-1.09-5.73-.95-5.03-2.23-2.29.1-2.08,1.32-4.39.89-2.62-.49,1.14-.54.99-.91-.05-.12-.08-.26-.28-.35-3.06-1.45-6.18-1.48-10.44-.13-.87-.07-2.66-.06-2.21-.37,2.16-1.49,1.24-2.93-.07-4.39,2.1-.87.43-2.01,1.93-2.92-3.75-.25-6.16-1.59-10.5-1.35-1.29-.05-2.95.28-3.63-.38.57-.04,1.33-.01,1.69-.12.98-.3-.13-.52-.67-.54-2.72-.08-5.45-.1-8.18-.14-4.39-1.6-8.75-.42-13.13,0,.77-1.06,3.01-2.28-2.84-2.61-1.36-.08-2.12-.36-2.45-.9-.81-1.37-4.48-1.24-6.98-.86-2.61.39-4.5,2.12-6.72-.1-.35-.36-1.46.12-2.25.27-1.69.32-3.55.73-5.38.75-4.96.05-5.24,1.18-4.76,2.22.28.6-.28,1.08-.38,1.61-1.18.27-2.37.55-3.55.82-2.67.39-8.8-.27-5.56,1.91.02,0,.04,0,.07,0-.02,0-.04,0-.06,0-2.55.59-4.92,2.63-3.8,3.33.09.06.72.03,1.1.04-2.73.74.14,1.75-1.19,2.56-4.69,1.42-4.95,3.45-5.53,5.24-.25.77-1.35.9-2.14.94-1.61.09-2.24-.36-2.14-.88.06-.3,1.93-.63-.47-.98-2.84,1.21-5.89,2.84-9.52.12-.62-.47-10.68.44-10.11.68,3.12,1.31-2.04,1.39-2.75,2.12-.59.6-1.22,1.14-.13,1.73-1.13.56-1.78-.68-2.19-.13-.89,1.17-4.23,1.54-6.36,2.28-2.45.85.82.94,1.42,1.38-.5.46-3.55.36-2.45,1.17-1.57.58-3.19,1.15-3.79,1.93-1.44-.7-3.97.27-5.45-.37.28-1.11-1.13-1.59-4.34-1.49-2.16-.41,1.12-.8.03-1.21-.3-.29-.84-.58-.85-.87-.04-.63-5.35-1.24-.14-1.89-.82-.37,1.56-.88-.32-1.16-.96-.14-3.2-.27-3.18,0,.08,1.07-3.59.11-3.85.84-2.9.31-5.6-1.33-8.59-.09-1.65-.08-3.64.35-4.88-.34-2.93-1.75-8.02-1.61-13.02-1.55-.38-1.18-2.93-1.51-6.06-1.6-.83-.53,1.5-1.53-1.37-1.62-2.59-.08,1.5,1-1.11,1.22-1.49.03-3.03-.08-3.38-.57-.22-.3,2.99-.59.72-1-1.34-.24-2.92.24-4.2.57-.78.2-1.16.73-3.03.42.62-1.71-1.75-1.51-5.59-.99-3.65.49-4.16,1.73-6.93,2.43-2.75.69-2.98,1.74-.62,2.7-.97.55-1.99,1.32-4.18,1.04-1.06-.13-1.2-1-1.85-1.52-1.79-1.45.67-3.18-3.05-4.72-1.29,1.5-4.93,1.06-7.78,1.24l.16-.05c-2.56-2.06-7-1.25-11.22-.77-1.24-.58-2.53-1.02-5.07-.66-.87.12-1.92-.1-1.84-.52.07-.38,1.17-.23,1.73-.35.92-.19,2.02.56,2.77-.1-1.32-.65-3.4-.43-4.75-.24-3.74.53-1.78-.52-2.45-.82.04-.52.25-1.04.09-1.55-.83-2.58-4.16-3.26-9.71-2-3.44-.59-7.14-.22-10.71-.31-.82-.05-1.65-.09-2.47-.14.01-.65.08-1.3-2.54-1.48.26-1.13-4.11-1.09-4.41-1.03-4.43.91-8.12-.34-10.62-.82-3.01-.58-4.51-.33-6.78-.04-1.58-.66-3.4-1.02-5.91-.47.66-.97.8-1.82-3.64-1.55-1.59-.16-3.14-.26-1.97.55.87.6-.56.82-1.53,1.08-.94.25-1.17-.17-1.73-.29-1.03-.22.47-1.14-1.95-.86-2.92.35.75.95-.19,1.43-.92.06-1.91.09-2.36.43-2.6.7-4.34,1.53-3.69,2.7-.81.4-1.62.81-2.42,1.21-4.84.65-8.26,1.55-6.05,3.49-.92.21-2.06.37-2.06.82-.63.56-.33,1.23-2.24,1.86-.99-1.37-1.87-2.59-2.75-3.81.39-.13.78-.26,1.17-.39.85-1.18-1.74-2.06-2.6-3.1-.04-.04-1.57-.03-1.6.01-1.21,1.79-6.01,1.16-9.39,1.47.38-.29.59-.58-.02-.87-2.53.6-4.59-.52-7.05-.2-2.1-.02-3.06-.53-4.12-.99-2.84-1.25-4.78-1.21-7.95.14-.85.09-2.06-.06-2.35.38-.46-.96-5.61-.35-4.93-1.41.26-.4,1.11-.98.3-1.15-1.53-.32-2.06.64-3.76.57.33-.65-2.09-1.15-.99-1.84,2.83-.66,1.85-1.39-.82-1.34-3.18.06-7.62-.28-9.1,1.27-.76-.02-1.53-.04-2.29-.05-.32-1.66-3.21-1.54-6.91-1.12-1.89.21-1.78,1.4-4.78.97-1.91,1.41-6.77,2.16-7.89,3.74-1.61.22-2.26.64-2.27,1.18-.91.16-1.29.41-1.24.74-1.19.4-3.82.37-3.49,1.22-1.99.81-1.99,2.38-7.19,1.97-.09.05-.17.1-.24.15.01-.05.08-.1.24-.15-1.26,0-2.51-.02-3.77-.03-3.12-.25-5.74-.59-2.62-1.99-5.56,1.71-5.85,1.97-10.6,1.4-3.97-.48-8.88-.07-12.02-1.28,1.47-1.06,2.01-2.04-.84-3.04-.48-.17.25-.74-1.54-.4-2.67.51-6.17.67-7.48,1.78-.39.01-1.11.05-1.14.03-.75-.79-1.15-1.77-4.73-.79-.27-1.01-6.68.04-4.74-1.14,2.52-1.53-1.24-1.57-3.15-1.86-3.16-.49,3.58-1.7-1.61-1.87-.08,0-.12-.12-.18-.18.58,0,1.16-.01,1.74-.02-1.8-.86,1.13-1.78.69-2.23-1.23-1.28,3.95-2.47,0-3.62,4.19-.28,1.52-1.3,2.04-1.98,2.14-1.92-2.24-3.3-4.19-4.98-1.03.4-2.86.78-2.85,1.16.01.91-.44.94-3.35.95-2.47,0-1.76-1.03-3.81-.74.05-.48-.58-.84-2-.47-1.99.52-4.39.36-6.52.59-1.23-.58-3.21-.27-4.8-.41,0-.25,0-.5,0-.75.19-.02.43-.02.56-.06.12-.03.14-.11.2-.16-2.17-.15.38-1.41-2.62-1.25-4.61.24-9.48-.96-13.85.29-1.58-.38.06-2.36-4.94-1.04-.36-.24-3.07.13-1.52-.61-2.75-.2,1.1-1.32-1.48-1.32-4.06,0-8.38-.55-12.11.17-1.05.2-2.21.73-3.14.5-1.08-.27-2.51-.79-1-1.42,1.03-.43.15-.96-.58-1.19-1.03-.33-2.7-.23-3.53.26-1.01.6-3.68.07-4.51.74-4.98.05-3.07,1.58-4.79,2.33-4.62.92-3.38,2.6-4.87,3.92-3.64.49-5.63,2.05-10.56,1.7-3.16.97-6.25,1.95-7.48,3.36-1.55.27-4.84-.47-4.59.83-.48.27.44,1.06-2.16.53-1.38-.28-1.55-.19-2.06.57-.62.13-1.34.23-1.84.4-3.6,1.2-.52,3.18-4.83,4.31-1.42-.53-.73-1.22-.84-1.87-2.8.28-5.33,1.76-7.45-.11-.56-.49-3-.49-4.33-.27-4.17.7-9.01.3-13.21.95-1.79.28-3.5-.25-4.36-.65-1.42-.65.01-.76,1.79-.59.26-.32.43-.49-1.02-.65-1.69-.19-2.98.27-4.47.07-.37-.14-.74-.28-1.11-.42-.17-.48,2.73-.29,1.88-.63-3.85-1.54-8.44-1.56-12.83-.16-.42-.12-.84-.25-1.26-.37.68-.98-2.7-1.11-3.14-1.97-2.05.69-3.17,1.45-6.1,1.31-3.72-.18-4.1.48-3.94,1.5.17,1.1-.53,2.33-5.2,1.17-2.4-.6-3.97.09-5.92.06-2.19-.17-3.67.16-4.8.72-.92-1.21-1.31-2.69-6.93-1.26-.78.2-1.89-.07-2.64-.3-1.84-.55-2.98.13-2.99.38-.04,1.52-3.96,2.7-3.33,4.25-.08.91.86,2.17-4.38,1.26-.71-.12-2.47.02-2.49.35-.06,1.26-4,2.22-1.87,3.73,1.96,1.39-1.49,4.13-5.04,4.84-.34.07-1.03-.05-1.95-.1,1.19-.47,2.17-.86,3.17-1.26-3.02-.13-5.68-1.82-9.02-.19-2.51-.38-3.49.43-5.19.69-.86,1.5-7.6,2.22-5.22,4.29.28.25-5.87,1.36-9.28,1.92-2.36.38-3.01-.91-5.97-.84-1.88.04-.39-1.67-2.64-1.81-3.82-.25.74,1.27-2.77,1.63-3.97.41-2.9-1.09-5.3-1.05-.56-.59-.14-1.26-3.18-1.48-3.07-.22-2.98.48-3.98.92-.77.19-1.45.44-2.31.56-2.22.31-2.64,1.74-5.64,1.28-2.96-.46.64-1.45-.41-2.18-.3-.18-1.14-.38-2.31-.6,1.18-.01,1.82.22,2.31.6,2.54-.69-1.59-1.32-.17-1.99.54-.43-1.24-.43-1.34-.75,1.76-.89,1.75-1.7-1.11-2.36,1.21-2.35-.24-2.87-8.49-3.08-1.91-.25,1.33-.94-.72-1.05-.81-.04-1.89.42-2.85.65-1.69.05-3.56.32-4.66-.38-2.63.17-4.76.09-7.04-.58-2.26-.66-5.42-1.04-8.7-1.08-1.12-.22-1.53-1.32-3.66-.31-1.95-.8-5.74-.8-7.26-1.89-.87-.62-2.94-.05-4.49.06-.86.06-2.58.36-2.57.04.08-2.59-7.83-1.4-9.19-1.35-5.1.2-9.71,1.17-12.68,2.83-1.49.84-1.14,1.94-3.81,2.56-2.13.89-2.93,2.12-6.98,2.5-1.45.14-1.47.67-.79,1.12-3.26.3-10.74-.55-9.93-1.07,1.62-1.05-.54-.82-2.19-.95-3.49-.26-4.13.99-6.62,1.24-1.43-1.25-2.27-2.87-8.1-1.34-4.93-1.05-10.62-.9-16.11-1.06h-.01c.02-1.08-1.85-1.27-4.18-.75-2.98.66-3.24,0-2.96-.61.36-.78,1.35-1.21-2.59-.91-1.68.13-3.97.16-5.96.28-.8.26-1.59.52-2.39.78q-1.05-2.47-7.94-1.93c-.56.04-1.18.01-1.77.01.23-1.1,1.4-2.11,2.64-3.12.5-.91,4.03-1.71.97-2.75h.04c-.77-1.93-4.7-2.2-9.65-1.94-1.51.25-2.37-.21-3.54-.34-2.79-.09-4.58-2.43-8.32-.39-2.48.19-4.1-.19-5.32-.83-.82-.24-2.19-.44-2.39-.72-1.19-1.71-3.49-1.07-5.93-.35-.31-.09-.67-.13-1.08-.14.33-1.02-1.15-.89-3.06-.51-6.46,1.31-13.13,2.56-14.86,5.26-1.89.93-5.39,1.45-6.43,2.6-2.29,1.22-3.48,2.55-3.52,3.98-2.32.59-2.3,1.57-3.61,2.32-.35.03-.71.06-1.07.08-5.21.42-5.05,1.75-4.93,3.06-4.5.22-6.83,1.5-5.01,2.74-1.64.22-2.22.64-2.24,1.18-1.78-.26-3.53-.54-5.36-.76-.87-.11-2.52-.12-1.5-.51,1.75-.67.04-1.56.29-1.73,4.05-2.63-1.69-5.41,1.45-7.99,1.42-.1,2.13-.52,2.13-.84.03-1.88,3.19-3.63,3.15-5.39-.03-1.29,3.14-2.04,2.72-3.22-.39-1.12-3.77-2.54,2.57-3.15.73-.07,1.29-.65,1.41-1.02.35-1.09.45-2.2.67-3.48-3.83.6-7.11.32-10.16-.39-1.15-.16-1.08-.31.03-.45,4.97.1,9.43-.4,13.67-1.19,1.08-.2,2.19-.41,1.61-.88-.7-.57-8.37-1.21-8.97-.72-1.73,1.41-3.48.21-5.19.12-.29,0-.58-.02-.85-.06-.25-.07-.41-.16-.52-.26.17.09.35.18.52.26-.59-.98,4.34-2.7-3.24-2.74-4.63-.02-9.05-.3-13.42-.71-2.56-.24-4.39-1.21-7.63-.78.15-.51-.8-.65-2.13-.68-3.67-.08-6.42-.45-4.99-1.89-2.44-.06-2.89,1.14-5.46.58-6.53-1.43-9.76-.05-12.72,1.57-.57.6.28,1.52-3.03,1.54-4.38.03-2.76.84-2.03,1.55-3.67.61-7.31,1.22-6.89,2.86-1.87.47-3.19.99-1.73,1.79-.61.25-2.57.34-1,.86-1.68.56-.92,1.28-1.16,1.93-3.68.92.16,1.98-.54,2.91-1.05,1.39-2.84,2.73-4.31,4.08-.94.36-1.96.58-3.57.47-3.04-.2-6.84-1.07-8.17-1.02-6.36.21-10.32-1.28-15.12-1.93-3.26-.44-4.71-.51-6.96.15-1.21.53-2.41,1.06-3.62,1.59-1.21.51-2.43,1.02-3.64,1.54-2,.35-1.16,1.32-3.38,1.62-.81.52-3.01.79-2.74,1.51-2.58,1.15-3.03,2.58-4.71,3.84-.83.63-3.37,1.18-1.29,2.02-2.56.19-1.96,1.84-5.32,1.43-4.73-.58-5.79-.76-8.69-.39-1.15-.41,1.01-.98.42-1-4.59-.18-5.64-2.84-11.84-1.76-1.02.18-1.68.18-2.57-.1-2.25-.72-3.77-.68-6.12.22-2.25.86-5.9,1.36-9.76,1.45-3.54.08-2.48-1.04-3.97-1.49-1.06-.32-2.01-.22-3.24-.06-3.61.47-6.26,1.19-8.26,2.32-.79.45-.74,1.19-3.23,1.4-4.58.39-5.98,2.09-7.68,3.05-2.62,1.48-5.28,3.15-7.08,4.87-2.26,2.17-3.19,2.25-8.63,1.89-.21-.01-.67.03-.68.06-.45,1.83-4.12-.54-5.21.42-.46-.32-1.23-.97-1.94-.72-3.67,1.31-9.38,1.6-13.56,2.53v139.09h1919.37V59.61c-3.09-.62-6.56-.29-9.76,1.11Zm-1601.84-7.24s0-.01,0-.02c0,0,.01,0,.02.01,0,0-.01,0-.02,0Zm148.83,5.88s0,0,0,0c-.04,0-.07,0-.11,0,.04,0,.08,0,.12,0,0,0,0,0-.02.01,0,0,0,0,0,0Zm222.45-28.13s0-.01,0-.02c0,0,.01,0,.02.01,0,0-.02,0-.03,0Zm120.17,27.75c-.05-.02-.09-.03-.14-.05.16-.02.32-.02.49,0-.11.02-.23.04-.35.05Zm6.53,3s-.04,0-.06-.01c.03,0,.07,0,.1,0-.01,0-.03.01-.04.02Zm41.3-5.37h0s0,.02-.01.02c-.01,0-.02,0-.04,0,.02,0,.03-.01.05-.02,0,0,0-.02,0-.03.05.01.1.02.15.03-.05,0-.1,0-.15,0Zm80.96,9.8s.03-.01.04-.02c0,.01,0,.02,0,.03-.02,0-.03,0-.05-.01Zm.05-.03s0-.06,0-.09c.11,0,.23,0,.34,0-.12.03-.22.06-.35.08Zm16.71-4.62s-.01,0-.02,0c0,0,.02,0,.03,0,0,0,0,0,0,.01Zm36.01,5.37c.09-.02.18-.04.28-.07.06.02.12.03.18.05-.16,0-.3,0-.45.01Zm7.54-4.52c-.07-.09-.1-.19-.04-.31.12,0,.23,0,.34,0-.12.1-.22.21-.31.31Zm49.68,4.55s0,0,0,0c0,0,0,0-.01,0,0,0,0,0,.01,0,0,0,0,0,0-.01,0,0-.02,0-.03,0,0,0,0,0,0,0,0,0,0,0-.01,0h.02s.01,0,.02-.01c.02.01.04.02.06.03-.02,0-.04,0-.06,0Zm124.75-19.92c.38-.77,1.79-.86,3.98-.7-1.88.08-3.01.27-3.98.7Zm5.71,2.4c-.07-.02-.14-.03-.21-.05.1,0,.2,0,.31.01-.03.01-.06.03-.1.04Zm6.16.68s.01,0,.02-.01c0,0,.02,0,.02.01-.01,0-.03,0-.04,0Zm28.78-.27s-.08-.04-.12-.07c.11,0,.21,0,.32,0-.06.02-.13.04-.2.06Zm.22-.06s0-.01,0-.02c.01,0,.03,0,.04.01-.01,0-.03,0-.04,0Zm36.7,15.75c-.07-.08-.14-.15-.22-.22.25.04.43.07.4.09-.06.04-.12.09-.18.13Zm59.1-8.89s-.03-.02-.04-.03c.03,0,.06,0,.09.01-.02,0-.03,0-.05.01Zm.89-.66s.05-.05.08-.08c.15.02.29.04.43.05-.17,0-.34.02-.51.03Zm100.31,9.46c-.05-.1-.03-.21.01-.32.23.08.45.14.69.16-.22.06-.45.11-.7.16Zm10.4-.14s-.04-.02-.07-.04c.03,0,.06,0,.09,0,0,.01-.02.02-.03.03Zm121.66-10.18s-.08,0-.12,0c.06-.03.13-.06.21-.08-.03.03-.06.06-.09.09Zm2.97-.58s.02,0,.03-.01c.05,0,.1,0,.16,0-.06,0-.12.01-.18.02Zm64.27,10.48s0-.02,0-.03c0,0,.01,0,.02,0,.18.01.34.04.5.06-.17,0-.34-.02-.53-.03Zm3.31-4.1c-.12-.05-.23-.11-.37-.16.22.03.42.06.62.09-.1.02-.18.04-.25.07Zm26.77-14.07c.02-.05.04-.1.06-.16.12.06.23.11.35.16-.14,0-.28,0-.41,0Zm10.19,2.44s.06-.04.1-.05c.11,0,.21.01.32.02-.14.01-.29.02-.42.03Zm69.55,10.2s.02-.07.03-.11c.06.03.11.07.18.1-.07,0-.14,0-.21,0Zm17.79-12.23c-.21-.08-.43-.16-.67-.24.35.03.66.06.98.09-.12.05-.23.1-.31.15Zm35.64,5.9c.08-.06.14-.12.19-.18.24.08.51.15.82.22-.36-.01-.68-.03-1-.04Zm119.54,10.25s.02-.04.03-.07h0c.05.02.11.03.17.05-.06,0-.13.01-.19.02Z"/></svg>