<?xml version="1.0" encoding="UTF-8"?><svg id="Layer_1" xmlns="http://www.w3.org/2000/svg" viewBox="0 0 1384.87 108.98"><path d="m21.21,33.94c5.94,1.93,11.84,3.95,17.81,5.77,32.68,9.99,66.39,13.82,100.32,16.6,77.66,6.39,155.35,1.7,233.03.76,49.13-.59,97.98,2.42,146.48,10.47,89.34,14.83,179.21,17.68,269.55,12.59,62.42-3.51,124.45-10.51,186.4-18.27,60.56-7.59,120.97-16.38,181.54-23.94,65.53-8.18,131.24-14.41,197.39-14.75,3.51-.02,7.01,0,10.52.84-17.15.93-34.33,1.44-51.43,2.87-47.26,3.94-94.59,7.35-141.69,12.68-58.68,6.63-117.13,15.25-175.75,22.49-46.66,5.76-93.35,11.56-140.16,15.89-70.13,6.48-140.5,10.46-210.89,5.87-40.97-2.67-81.9-7.16-122.54-12.97-62.82-8.98-125.77-12.31-189.19-10.81-51.19,1.21-102.44,1.62-153.62.52-45.25-.97-90.37-5.12-134.28-17.25-8.1-2.24-16.05-5.02-24.07-7.56.19-.61.38-1.21.57-1.82Z"/></svg>