<?xml version="1.0" encoding="UTF-8"?><svg id="Layer_1" xmlns="http://www.w3.org/2000/svg" viewBox="0 0 512 512"><defs><style>.cls-1{fill:#fdc91e;}</style></defs><path class="cls-1" d="m108.95,44.86l-2.3.05c-14.08.59-25.01,6.74-31.69,11.79-13.78,10.41-19.99,21.84-20.16,37.08-.18,16.7,2.84,30.55,18.14,43.88,11.55,10.07,21.47,15.9,37.97,15.9,7.25,0,31.78-1.32,42.81-18.28,8.46-13.01,11.05-30.58,6.95-46.99-4.67-18.65-15.11-43.44-51.71-43.44Zm1.96,96.27c-12.82,0-19.82-4.14-29.8-12.84-10.55-9.19-14.05-17.86-13.88-34.37.13-11.31,4.54-19.22,15.22-27.3,5.28-3.99,13.84-8.83,24.84-9.29l1.65-.03c10.3,0,18.27,2.17,24.48,6.9-3.18.17-6.36.43-9.51.71-4.66.41-9.48.84-13.96.84-2.29,0-4.15,1.86-4.15,4.15s1.86,4.15,4.15,4.15c4.85,0,9.85-.44,14.7-.88,5.71-.51,11.14-.95,16.29-.76,1.33,2.05,2.55,4.32,3.65,6.83-7.64.34-16.92,1.61-21.11,3.13-2.15.78-3.27,3.16-2.49,5.31.61,1.69,2.2,2.74,3.9,2.74.47,0,.94-.08,1.41-.25,3.49-1.26,14.01-2.64,21.22-2.74.37,1.26.73,2.55,1.07,3.89.32,1.26.54,2.53.76,3.79-1.9.06-3.8.09-5.7.18-4.1.17-8.2.35-12.35.35-2.29,0-4.15,1.86-4.15,4.15s1.86,4.15,4.15,4.15c4.27,0,8.49-.18,12.71-.36,2.02-.09,4.05-.12,6.08-.19.03,2.98-.19,5.93-.67,8.8-3.38.21-6.71.55-9.97.91-5.69.62-11.06,1.23-16.57,1.04-2.32.02-4.2,1.74-4.27,4.03-.06,2.29,1.74,4.2,4.03,4.27.68.02,1.37.03,2.06.03,5.35,0,10.57-.57,15.64-1.12,2.33-.25,4.6-.49,6.85-.69-1.05,2.79-2.34,5.44-3.92,7.87-6.05,9.3-20.69,12.62-32.37,12.62Z"/><path class="cls-1" d="m155.16,430.23c-.18-6.16-.39-12.31-.61-18.46-.52-14.69-1.05-29.87-1.05-44.82,0-5.55.1-11.15.21-16.77.26-14.39.53-29.27-.92-43.73-.22-2.25-.51-16.06-.81-30.68-1.91-92.85-2.73-93.29-7.3-95.73-2.84-1.51-7.97-2.02-32.93-1.86-2.76,0-5.08.02-6.58.01-8.36-.07-16.76.09-24.89.27-6.77.14-13.56.28-20.38.28-2.92,0-5.37,2.01-6.04,4.73-5.53,9.87-5.71,35.67-5.71,38.96,0,15.19-.14,30.32-.27,45.44-.14,15.13-.28,30.26-.28,45.41,0,2.27-.1,7.84-.25,15.54-2.34,127,.72,129.5,4.6,132.66,2.98,2.43,6.63,3.18,62.78,3.12,13.96-.02,27.13-.04,32.7.25.11,0,.22,0,.33,0,2.74,0,5.17-1.8,5.96-4.45,2.36-7.94,1.97-17.26,1.62-25.49-.06-1.6-.13-3.17-.18-4.7Zm-12.43,22.03c-4.64-.09-10.84-.11-17.89-.11-3.22,0-6.61,0-10.12.01-18.44.02-45.33.06-54.1-.82-2.77-16.32-1.32-95.35-.82-122.29.14-7.81.25-13.47.25-15.77,0-15.12.14-30.2.28-45.3.14-15.16.27-30.33.27-45.55,0-6.88,1.36-25.22,3.22-31.27,5.6-.04,11.17-.16,16.74-.28,8.03-.17,16.33-.35,24.5-.27,1.55.02,3.93,0,6.77-.01,6.03-.04,18.72-.1,24.8.33.18,1.65.36,3.84.52,6.45h-17.23c-2.29,0-4.15,1.85-4.15,4.14s1.86,4.15,4.15,4.15h17.67c.15,3.33.3,6.98.44,10.85-1.43-.06-2.9-.13-4.44-.23-6.82-.42-14.56-.9-20.17,1.3-2.13.84-3.18,3.24-2.34,5.38.64,1.63,2.2,2.63,3.86,2.63.51,0,1.02-.09,1.52-.29,3.9-1.53,10.66-1.12,16.62-.75,1.83.11,3.57.21,5.23.26.11,3.6.22,7.28.32,11.03-3.19.07-6.64.22-9.9.35-3.66.16-7.07.3-9.54.31-2.29.01-4.13,1.88-4.12,4.17.01,2.28,1.87,4.12,4.15,4.12h.02c2.55-.02,6.06-.16,9.84-.32,3.22-.13,6.62-.27,9.77-.35.1,4.15.2,8.25.29,12.24-5.16.09-11.48.84-16.79,1.46-3.04.36-6.17.73-7.31.73h-.05c-2.17.14-4.16,1.81-4.19,4.1-.02,2.29,1.81,4.17,4.1,4.19h.13c1.56,0,4.07-.29,8.29-.79,4.9-.58,11.23-1.32,16-1.41.09,4.05.16,7.88.24,11.33,0,.06,0,.11,0,.17-8.44-.37-17.51-.16-26.21.19-2.28.09-4.07,2.02-3.97,4.31.09,2.28,2.03,4.14,4.31,3.97,8.69-.34,17.76-.56,26.05-.16.11,5.38.21,9.87.3,13.37-3.2.14-6.38.34-9.47.59-5.33.43-10.37.84-15.51.68h-.11c-2.24,0-4.08,1.79-4.14,4.04-.06,2.29,1.74,4.19,4.04,4.25.77.02,1.53.03,2.29.03,4.79,0,9.51-.38,14.1-.74,2.99-.24,6.05-.44,9.1-.57.03.64.07,1.17.1,1.53.38,3.78.62,7.63.78,11.51-3.86.29-7.71.98-11.45,1.68-5.12.97-9.94,1.88-14.7,1.74h-.11c-2.24,0-4.08,1.79-4.14,4.04-.06,2.29,1.75,4.19,4.04,4.25.37.01.73.02,1.1.02,5.25,0,10.38-.97,15.35-1.9,3.51-.67,6.88-1.27,10.14-1.54.06,4.8.05,9.61-.02,14.41-5.1.15-10.6.61-15.97,1.07-5.98.51-11.62,1-16.13,1h-.05c-2.29,0-4.15,1.86-4.15,4.14s1.85,4.15,4.14,4.15h.06c4.86,0,10.68-.5,16.84-1.03,5.12-.44,10.35-.87,15.13-1.03-.09,4.62-.14,9.22-.17,13.8-3.66.12-7.3.33-10.84.6-4.57.35-9.24.62-13.9.72-2.29,0-4.15,1.86-4.15,4.14,0,2.3,1.89,4.2,4.18,4.15,4.92,0,9.79-.38,14.5-.74,3.51-.27,6.89-.47,10.25-.59.05,5.48.1,10.96.24,16.42-17.32-.34-24.84.51-28.23,3.06-1.83,1.38-2.22,3.99-.84,5.82.82,1.09,2.06,1.66,3.32,1.66.86,0,1.72-.27,2.46-.82,1.39-.85,6.67-1.75,23.54-1.43.16,5.09.31,10.21.48,15.21.03.79.05,1.57.08,2.36-2.74.07-5.48.11-8.22.19-5.38.18-10.77.36-16.19.36-2.29,0-4.15,1.85-4.15,4.14s1.86,4.15,4.15,4.15c5.52,0,10.99-.18,16.46-.36,2.74-.09,5.48-.13,8.22-.19.09,2.58.19,5.16.26,7.73.04,1.26.09,2.57.15,3.89-2.97.27-6.15.8-9.47,1.39-6.28,1.11-14.09,2.49-16.84.62-1.89-1.3-4.47-.81-5.76,1.08-1.29,1.89-.81,4.47,1.08,5.76,2.55,1.74,5.81,2.35,9.42,2.35,4.22,0,8.92-.83,13.54-1.65,2.86-.51,5.73-.98,8.29-1.24.05,3.27-.03,6.51-.41,9.48Z"/><path class="cls-1" d="m464.17,434.61c-.82-10.96-1.68-22.29-2.03-33.05-.44-13.63-1.17-26.57-1.95-40.29-1.06-18.76-2.15-38.16-2.47-59.7-.02-.71-.02-1.63-.02-2.71.01-9.45,0-31.36-6.5-54.49.05-.2.15-.38.16-.59.08-1.27-.45-2.39-1.3-3.21-1.25-4.01-2.7-8.03-4.39-12.01h0c0-1.18-.51-2.24-1.32-2.99-16.49-36.06-48.08-55.14-91.48-55.14l-2.16.02c-31.09.43-58.39,21.6-72.19,36.37-.31-2.65-.57-5.34-.82-8l-.22-2.42c-.06-.6-.02-1.51,0-2.54.09-4.92.19-10.01-2.92-13.23-3-3.11-7.53-3.37-11.53-3.37l-2.7.02c-.49,0-.94,0-1.32-.04-3.46-.32-10.07-.47-20.23-.47-8.72,0-18.6.11-26.91.2-5.97.07-11.12.13-14.41.13h-1.94c-1.65-.15-3.26.61-4.45,1.78-1.18,1.16-1.85,2.76-1.85,4.43,0,2.82.14,6.36.29,10.24.27,6.81.57,14.53.21,21.09-.44,8.11-.71,28.69-.98,50.47-.28,22.26-.57,45.29-1.08,54.47-.75,13.69-3.39,135.08.65,141.85,1.59,2.68,3.39,5.71,28.79,5.71,6.21,0,12.51-.21,16.45-.56,6.11-.53,12.19-1.16,18.26-1.8,10.03-1.05,20.41-2.13,30.68-2.7,3.17-.17,5.71-2.71,5.87-5.9.47-9.11-1.16-56.04-2.46-93.76-.66-18.87-1.22-35.17-1.32-41.11-.4-23.35,4.01-39.87,13.09-49.09,6.91-7.03,16.52-10.22,29.7-9.69,36.98,1.43,39.2,40.83,38.31,81.06l-.08,3.74c-.12,6.34-.28,12.58-.44,18.79-.32,12.6-.65,25.64-.65,38.84,0,6.8-.43,13.84-.84,20.65-.55,9.07-1.12,18.45-.74,27.76.13,3.22,2.7,5.8,5.91,5.96,11.26.55,20.62.67,32.07.67l14.09-.02c9.17,0,24.51,0,44.59-1.11,1.65-.09,3.2-.84,4.31-2.08,1.1-1.24,1.66-2.87,1.55-4.53-.38-5.88-.82-11.77-1.27-17.63Zm-49.18,12.92l-14.09.02c-9.23,0-17.07-.07-25.67-.4,0-6.89.42-13.93.84-20.78.43-7,.87-14.23.87-21.41,0-13.04.32-25.42.65-38.52.16-6.23.32-12.5.44-18.86l.08-3.7c.71-32.06,2.04-91.73-50.25-93.77-16.73-.64-29.69,3.87-39.05,13.4-6.05,6.15-10.39,14.26-13.14,24.39-2.74.07-5.49.11-8.22.22-4.56.17-9.13.35-13.75.35-2.29,0-4.15,1.85-4.15,4.14s1.86,4.15,4.15,4.15c4.72,0,9.4-.18,14.07-.36,2.03-.08,4.07-.1,6.11-.17-.54,3.16-.93,6.52-1.21,10.02h-26.08c-2.29,0-4.14,1.86-4.14,4.15s1.85,4.14,4.14,4.14h25.65c-.05,2.29-.12,4.57-.08,6.98.01.84.04,1.89.07,3.11-4.44.11-9.18.69-13.53,1.25-4.05.51-7.87,1-10.69,1-2.29,0-4.14,1.85-4.14,4.14s1.85,4.15,4.14,4.15c3.34,0,7.42-.52,11.74-1.07,4.15-.53,8.69-1.09,12.72-1.19.13,3.97.28,8.62.45,13.74-1.08.1-2.17.19-3.25.29-6.59.63-13.4,1.29-20.24,1.29-2.29,0-4.15,1.85-4.15,4.14s1.86,4.15,4.15,4.15c7.23,0,14.24-.68,21.03-1.33.91-.09,1.83-.16,2.74-.24.09,2.57.18,5.21.27,7.91.01.34.03.7.04,1.04-3.46.06-6.91.17-10.28.32-4.07.18-8.28.37-12.39.37-2.29,0-4.15,1.85-4.15,4.15s1.85,4.15,4.15,4.15c4.29,0,8.6-.2,12.76-.39,3.49-.15,6.85-.26,10.18-.31.16,4.52.32,9.15.48,13.82-7.42.16-14.16.6-20.38,1.39-2.27.29-3.89,2.36-3.6,4.63.26,2.1,2.05,3.63,4.11,3.63.17,0,.35-.01.52-.03,5.96-.75,12.44-1.18,19.62-1.32.13,3.89.25,7.76.38,11.56-5.2-.27-10.55.4-15.73,1.05-4.35.56-8.46,1.08-12.45,1.08h-.04c-2.29,0-4.14,1.85-4.14,4.14s1.85,4.15,4.14,4.15h2.02c.25,0,.5-.03.74-.06,3.63-.17,7.25-.63,10.78-1.08,5.15-.66,10.01-1.28,14.55-1,.14.01.25-.05.39-.05.15,4.81.28,9.44.4,13.75-6.77-.12-14.3-.15-20.65,2.53-2.11.89-3.09,3.32-2.2,5.44.67,1.58,2.2,2.53,3.82,2.53.54,0,1.09-.11,1.62-.33,4.86-2.06,11.32-1.99,17.62-1.87.13,5.57.22,10.35.23,13.88-8.61.61-17.17,1.51-25.49,2.38-6,.63-12,1.25-18.05,1.78-3.55.31-9.58.51-15.37.51-9.41,0-14.99-.48-17.82-.92-1.24-17.54-.83-103.85.79-133.52.52-9.45.81-32.6,1.09-54.99.26-20.7.54-42.1.97-49.94.39-7.15.08-15.18-.21-22.27-.04-1.22-.09-2.4-.13-3.54,2.89-.02,6.38-.06,10.21-.1,8.27-.1,18.1-.21,26.78-.21,9.63,0,16.05.14,19.07.42.7.06,1.54.1,2.47.1l2.7-.02c.85,0,1.51.02,2.01.05.06,1.28.03,2.91,0,3.87,0,.52,0,.98,0,1.46-1.82.11-3.71.47-5.58.85-1.63.33-3.32.68-4.57.74-1.4.08-2.8.06-4.21.06-1.71,0-3.4,0-5.11.1-.56.04-1.91.31-3.2.6-.01,0-.03,0-.04,0-.78-.14-1.61-.06-2.39.28-3.96,1.72-3.17,4.85-2.97,5.47.73,2.22,2.32,2.81,4,2.81,1.12,0,2.27-.26,3.23-.47.77-.17,1.56-.37,1.9-.41,1.52-.1,3.04-.09,4.56-.09,1.54.01,3.11.01,4.66-.07,1.87-.09,3.87-.51,5.8-.9,1.3-.27,3.25-.68,4.53-.76.27,2.79.58,5.63,1,8.5-7.84-.89-17.99-.66-22.65,1.68-2.05,1.03-2.87,3.52-1.84,5.57,1.03,2.05,3.52,2.87,5.57,1.84,3.2-1.61,14.05-1.57,20.64-.49.24.96.44,1.95.73,2.88.8,2.6,3.13,4.54,5.85,4.55h.03c2.7,0,5.04-1.59,5.86-4.17,2.75-5.71,33.93-40.28,70.05-40.78l1.99-.02c17.15,0,32,3.17,44.48,9.45-.19.03-.38.06-.56.08-2.11.3-4.11.59-5.84.69-8.79.5-17.38.74-26.27.74-2.29,0-4.14,1.85-4.14,4.14s1.85,4.15,4.14,4.15c9.05,0,17.8-.25,26.74-.76,2.01-.11,4.22-.43,6.54-.76,3.69-.52,8.07-1.14,11.29-.73,3.03,2.34,5.86,4.92,8.51,7.74-2.37.13-4.72.3-7.02.46-2.84.21-5.69.41-8.56.55-1.75.09-3.88,0-6.14-.1-5.37-.22-10.92-.45-15.14,1.28-2.12.87-3.13,3.29-2.26,5.41.65,1.6,2.2,2.57,3.83,2.57.53,0,1.06-.09,1.57-.31,2.54-1.05,7.38-.84,11.65-.66,2.45.1,4.77.19,6.87.1,2.95-.14,5.86-.35,8.77-.56,4.47-.32,8.73-.6,13.08-.65,1.99,2.79,3.83,5.76,5.54,8.9-4.64.11-9.55.28-14.96.52-1.32.05-2.97.05-4.75.04-5.94-.03-12.64-.08-16.71,1.8-2.08.95-2.99,3.41-2.03,5.5.7,1.52,2.2,2.41,3.77,2.41.58,0,1.17-.12,1.73-.38,2.4-1.1,8.9-1.07,13.2-1.04,1.95.01,3.73.02,5.16-.05,6.87-.3,12.92-.49,18.61-.59,1.11,2.57,2.11,5.15,3.01,7.75-.69.15-1.38.3-2.05.46-2.19.5-4.25.98-6.2,1.22-2.69.34-5.53.47-8.53.6-4.84.21-9.85.44-14.57,1.65-2.22.57-3.55,2.83-2.98,5.05.48,1.87,2.17,3.11,4.01,3.11.34,0,.69-.04,1.03-.13,3.88-1,8.25-1.19,12.87-1.4,3.04-.14,6.18-.27,9.21-.66,2.35-.3,4.72-.84,7-1.37.9-.21,1.78-.41,2.65-.59.97,3.52,1.78,7.01,2.44,10.44-3.54-.26-7.27-.08-10.75.14-1.46.1-2.86.19-4.12.22-1.23.03-2.88-.02-4.7-.08-9.1-.31-16.39-.27-20.46,3.21-1.74,1.48-1.95,4.1-.46,5.84.82.97,1.98,1.46,3.15,1.46.95,0,1.91-.33,2.69-.99,1.96-1.67,10.63-1.38,14.81-1.23,2.02.07,3.84.13,5.23.09,1.34-.04,2.83-.14,4.39-.24,3.78-.24,8.28-.51,11.66.05.71,4.98,1.16,9.68,1.44,13.95h-29.55c-2.29,0-4.15,1.85-4.15,4.15s1.86,4.15,4.15,4.15h29.95c.1,3.73.11,6.88.11,9.2,0,1.17,0,2.15.01,2.91.02,1.36.07,2.65.09,3.99-5.06-.46-11.12.28-17.06,1.02-3.65.46-7.11.89-9.57.91-2.29.01-4.14,1.88-4.13,4.17.02,2.28,1.87,4.12,4.15,4.12h.02c2.97-.02,6.66-.47,10.56-.97,5.25-.66,12.01-1.49,16.22-.9.15,5.37.34,10.62.56,15.75-3.26.07-6.53.12-9.79.23-5.36.18-10.73.36-16.14.36-2.29,0-4.15,1.86-4.15,4.15s1.86,4.14,4.15,4.14c5.5,0,10.96-.18,16.42-.36,3.29-.11,6.59-.16,9.89-.23.24,4.88.48,9.7.75,14.45-4.68.33-9.39,1.12-14,1.95-3.44.61-6.7,1.19-9.82,1.55-2.18.25-3.79,2.14-3.68,4.34.12,2.19,1.92,3.91,4.12,3.92h2.01c.71,0,1.38-.18,1.97-.49,2.28-.35,4.59-.76,6.85-1.16,4.35-.77,8.77-1.52,13.01-1.83.02.37.04.75.06,1.11.25,4.54.5,8.98.74,13.4-3.05.07-6.08.13-9.12.25-4.43.17-8.87.35-13.35.35-2.29,0-4.15,1.85-4.15,4.15s1.86,4.14,4.15,4.14h1.97c.11,0,.23,0,.35-.02,3.81-.05,7.58-.19,11.36-.34,3.06-.12,6.14-.19,9.21-.25.18,3.59.34,7.2.48,10.82-7.46-.03-15.14.03-22.25,1.51-2.24.46-3.68,2.66-3.21,4.9.41,1.95,2.13,3.3,4.05,3.3.28,0,.57-.03.85-.09,6.39-1.33,13.74-1.37,20.89-1.33.14,4.05.38,8.18.63,12.31-7.71.98-14.13,1.46-20.17,1.46h-.06c-2.29,0-4.15,1.86-4.15,4.14s1.84,4.11,4.2,4.15c6.26,0,12.85-.48,20.68-1.46.19,2.71.38,5.41.59,8.11h-21.33c-2.29,0-4.15,1.85-4.15,4.14s1.86,4.15,4.15,4.15h21.94c.17,2.32.35,4.65.52,6.98-16.68.78-29.56.78-37.62.78Z"/></svg>