<?xml version="1.0" encoding="UTF-8"?><svg id="Layer_1" xmlns="http://www.w3.org/2000/svg" viewBox="0 0 512 512"><defs><style>.cls-1{fill:#142b29;}.cls-1,.cls-2{fill-rule:evenodd;}.cls-2{fill:#fff;}</style></defs><path class="cls-1" d="m486.28,374.12c-5.19-16.74-11.61-33.09-16.09-48.28-24.2-81.95-54.67-159.21-81.54-239.25-4.81-14.33-12.17-38.68-20.38-43.99-6.68-4.31-19.62-3.38-25.76-2.15-51.9,10.44-105.12,29.95-154.48,47.2-15.93,5.57-38.68,13.24-41.84,25.75-3.06,12.08,5.38,35.26,9.65,50.42,13.96,49.52,30.94,92.67,45.06,137.32,10.04,31.72,18.11,60.07,27.9,93.35,7.94,27,19.73,68.5,34.32,86.9,5.68,7.15,16.22,16.79,22.53,19.3,18.64,7.44,46.31-.57,66.52-6.43,17.44-5.06,33.03-11.91,47.21-16.09,34.56-10.21,65.39-17.62,92.26-35.4,7.72-19.77,1.38-46.92-5.36-68.67Z"/><path class="cls-1" d="m49.63,8.28c-16.93,33.68-27.23,86.65-23.6,138.4C5.89,101.87,21.37,35.74,47.48,8.28h2.14Z"/><path class="cls-1" d="m82.89,16.86c-19.52,30.19-25.36,74.06-26.82,122.31-7.05-3.95-7.95-14.86-8.58-22.53-3.47-41.59,13.48-82.81,33.25-99.78h2.15Z"/><path class="cls-1" d="m444.44,26.52c.91-.2,1.01.42,1.07,1.07,25.07,21.23,56.26,75.12,45.06,124.45-9.18-46.61-21.32-90.26-46.13-121.23v-4.29Z"/><path class="cls-1" d="m105.41,53.34c.95.48,1.92.94,2.15,2.15-7.62,18.84-14.5,38.42-15.02,64.37-22.39-15.37-1.02-56.28,12.88-66.52Z"/><path class="cls-1" d="m422.98,54.41c1.25-.17,1.91.24,2.15,1.07,10.55,3.71,19.9,16.14,25.75,27.89,8.35,16.78,14.01,37.09,9.66,59.01-6.38-6.26-5.52-15.84-7.52-23.6-5.52-21.52-17.01-43.75-28.97-61.15-.57-.86-1.11-1.74-1.07-3.22Z"/><path class="cls-1" d="m131.17,71.58c-4.02,12.48-12.81,29.35-13.95,48.28-12.36-14.05-.06-43.42,13.95-48.28Z"/><path class="cls-1" d="m412.25,78.01c16.87,10.14,29.27,29.85,26.83,55.79-11.14-14.97-13.79-38.42-26.83-51.5v-4.29Z"/><path class="cls-2" d="m345.74,83.38c20.06,33.85,28.45,76.63,41.84,121.23,8.9,29.64,22.88,58.49,33.27,89.04,4.56,13.44,14.68,31.45,8.58,48.28-3.69,10.18-20.01,13.28-33.26,17.17-39.6,11.65-74.03,24.64-113.72,34.33-17.18-36.92-29.23-85.94-46.14-128.75-11.71-29.67-19.89-63.59-31.11-99.78-3.17-10.22-11.53-25.14-9.66-31.11,2.18-6.9,20.42-11.85,31.12-16.09,31.36-12.44,77.95-23.61,105.14-33.26,1.94-.69,9.4-1.59,13.95-1.07Zm-121.23,59.01c2.09,23.08,11.12,45.43,18.24,67.6,7.2,22.41,14.33,45.05,23.6,65.44,34.84-12.37,70.91-23.5,106.21-35.4-10.23-48.42-25.33-91.97-42.91-133.04h-2.14c-32.63,13.51-72.2,20.07-103,35.4Zm-20.38-10.73c-1.57.93-3.4,1.61-3.22,4.29,13.84,63.24,41.15,128.41,62.22,188.82,4.65,13.3,14.22,53.99,26.83,57.94,9.03,2.82,26.53-6.08,36.48-8.58,33.8-8.5,62.36-16.61,89.04-28.96,4.68-2.17,14.81-3.07,9.66-11.81-6.75.7-8.42,8.94-15.02,11.81-10.02,4.37-24.85,7.99-36.48,10.72-14.3,3.38-28.16,6.04-41.84,10.73-13.72,4.72-25.88,12.32-39.7,12.87-12.93-16.06-17.56-37.18-24.67-56.85-21.41-59.19-45.52-121.01-64.37-183.46-1.65-4.14,7.88-6.17,2.14-7.51h-1.07Zm219.94,193.11c-5.31-29.73-15.61-54.47-26.82-78.31,8.04,27,13.78,56.31,26.82,78.31Zm-38.62-59c-8.02-2.21-26.5,8.85-27.89,13.94-3.97,14.49,12.9,37.81,16.09,45.06,12-1.23,24.44-2.01,28.97-10.72-2.18-9.59-6.89-45.46-17.17-48.28Zm-43.98,16.09c-9.29-1.21-16.41,5.92-25.76,8.58,4.95,16.87,8.76,34.88,17.17,48.29,14.51.19,23.16-5.46,31.12-11.81-6.46-13.54-6.87-43.02-22.53-45.06Zm-35.41,11.8c-10.3-.54-24.77,3.77-32.19,9.66,4.05,17.41,8.81,34.11,17.16,47.22,12.64-.25,20.5-5.27,30.04-8.59-1.41-19.68-7.03-35.16-15.02-48.28Z"/><path class="cls-1" d="m403.67,101.62c12.09,3.75,18.34,17.48,16.09,32.18-6.71-8.73-15.01-21.39-16.09-32.18Z"/><path class="cls-2" d="m323.21,119.85c18.73,34.55,28.65,77.92,42.91,116.94-35.5,6.7-63.3,21.09-98.7,27.89-11.74-37.61-23.27-75.44-35.41-112.65,28.17-12.95,59.98-22.27,91.2-32.19Zm-62.23,47.21c5.38,22.29,42.07,17.85,46.14-2.15,3.68-18.05-8.56-28.73-23.6-26.82-16.47,2.09-26.65,11.88-22.53,28.97Zm71.88,11.8c-19.71-19.45-30.43,7.3-47.2,9.66-10.56,1.49-24.54-1.14-28.96,9.66-5.08,12.37,11.31,36.5,15.01,48.28,25.47-8.51,53.73-14.22,76.18-25.75-9.27-19.09-3.22-30.19-15.02-41.84Z"/><path class="cls-2" d="m283.51,146.68h4.29c-3.7,8.46-7.15,17.18-10.73,25.74-1.17-7.61,6.05-16.11,6.44-25.74Z"/><path class="cls-2" d="m291.02,146.68c.87.57,1.74,1.12,3.22,1.07-2.02,10.85-6.07,19.68-11.8,26.82,2.61-9.56,7.65-16.66,8.58-27.89Z"/><path class="cls-2" d="m278.15,148.82c3.59,3.15-5.53,11.44-5.37,18.24-6.7-4.52,1.7-14.25,5.37-18.24Z"/><path class="cls-2" d="m316.77,182.08c3.03-.89,2.78,1.51,5.37,1.07-6.08,16.1-11,33.35-21.45,45.06,5.83-14.91,14.27-27.21,16.09-46.14Z"/><path class="cls-2" d="m324.28,184.23c1.73-.3,1.85,1.01,3.22,1.07-1.89,12.83-8.18,30.39-17.16,39.7,5.37-12.86,12.38-24.09,13.94-40.77Z"/><path class="cls-2" d="m329.64,190.66c2.1,4.29-2.72,10.84-3.22,16.1-2.1-4.29,2.37-11.21,3.22-16.1Z"/><path class="cls-2" d="m274.93,197.1c.86.57,1.74,1.11,3.22,1.07-3.19,7.53-5.19,16.26-10.73,21.45.07-9.94,7.76-12.27,7.51-22.53Z"/><path class="cls-2" d="m269.57,198.18c2.75,4.58-4.14,8.71-4.3,13.95-6.39-5.62.75-9.77,4.3-13.95Z"/><path class="cls-2" d="m292.09,199.25c-5.69,12.91-9.5,27.68-18.24,37.55,4.29-12.88,10.96-23.37,13.95-37.55h4.29Z"/><path class="cls-2" d="m281.36,200.32c3.43,7.49-6.77,19.6-8.58,28.97-4.01-8.26,8.82-17.41,8.58-28.97Z"/><path class="cls-2" d="m335.01,211.05c2.15,1.42,2.39,4.76,3.22,7.5-2.53-.02-3.16,1.85-6.44,1.07,1.34-2.59,2.66-5.21,3.22-8.58Z"/><path class="cls-2" d="m383.28,272.2c5.31,11.5,7.87,25.75,12.88,37.55-4.68,4.62-12.42,6.16-20.38,7.51-1.57-13.45-7.82-22.22-8.58-36.47,3.31-4.92,8.92-7.53,16.09-8.58Z"/><path class="cls-2" d="m353.24,324.77c-6.61,1.26-11.96,3.78-18.24,5.36-2.86-12.52-9.38-21.36-11.8-34.33,6.94-1.29,12.95-3.5,18.24-6.44,6.43,9.3,7.61,23.86,11.8,35.41Z"/><path class="cls-2" d="m301.75,300.09c6.62,9.47,7.74,24.45,12.88,35.41-7.28,2.01-12.9,5.7-21.46,6.43-2.99-12.38-7.93-22.81-10.73-35.4,7.54-1.05,13.98-3.18,19.31-6.45Z"/><path class="cls-2" d="m444.44,404.17c-10.56,7.33-26.48,9.28-39.7,13.94-2.83-8.26-4.74-17.44-7.52-25.75,12.78-3.33,25.06-7.13,37.55-10.73,4.73,6,5.2,16.25,9.66,22.54Zm-39.7-7.52c-.39,7.19,3.06,10.53,4.29,16.1,11.29-1.23,19.67-5.38,28.96-8.58.45-7.72-4.13-12.05-2.14-18.24-12.41,1.54-21.64,6.25-31.11,10.72Z"/><path class="cls-2" d="m429.42,391.29c2.75,2.26,4.09,5.93,4.29,10.73-6.94,1.28-12.94,3.5-18.24,6.43-3.4-1.95-3.74-6.98-5.36-10.73,7.11-1.47,13.55-3.6,19.31-6.43Z"/><path class="cls-2" d="m397.23,420.26c-13.39,4.48-26.51,9.26-40.77,12.87-1.39-8.97-4.64-16.1-6.43-24.68,13.21-4.32,25.53-9.52,39.7-12.88,1.49,9.25,5.63,15.82,7.51,24.69Zm-11.8-19.32c-11.3,1.92-21.02,5.44-31.11,8.57-1.23,8.4,2.18,12.13,3.22,18.24,13.47-.83,21.64-6.97,34.33-8.58,1.42-9.64-4.22-12.23-6.43-18.23Z"/><path class="cls-2" d="m383.28,405.23c.97,3.69,2.62,6.69,4.29,9.66-7.83,3.61-16.41,6.47-25.75,8.58-.59-4.41-3.07-6.94-3.22-11.81,9.16-1.21,16.49-4.24,24.67-6.43Z"/><path class="cls-2" d="m347.88,435.28c-13.63,4.25-26.71,9.04-40.77,12.87-.94-10.15-4.65-17.53-6.43-26.83,13.51-2.94,26.63-6.26,38.62-10.72,4.21,6.87,5.44,16.72,8.58,24.68Zm-39.7,7.51c12.64-2.02,26.16-3.17,32.19-11.81-11.46,3.21-25.31,4.02-32.19,11.81Z"/><path class="cls-2" d="m297.46,156.33c5.34,5.8-1.1,12.4-5.37,15.02-.62-3.16,4.12-10.17,5.37-15.02Z"/><path class="cls-2" d="m314.62,181.01c-7.67,16.29-12.69,35.23-22.53,49.35,9.08-14.88,10.97-36.95,22.53-49.35Z"/><path class="cls-2" d="m300.68,194.95c-2.96,11.36-9.22,28.68-17.17,38.63,6.29-12.3,10.3-26.88,17.17-38.63Z"/><path class="cls-2" d="m331.79,198.18c6.06,7.71-3.42,15.93-5.36,22.53-.58-5.61,6.01-13.28,5.36-22.53Z"/><path class="cls-2" d="m271.71,479.26c-33.73-87.07-59.03-177.79-90.12-270.36-3.82-11.39-9.05-27.99-13.94-46.14-4.11-15.24-12.9-35.18-9.66-45.06,3.49-10.63,26.13-19.52,39.7-24.68,18.02-6.85,33.69-11.19,48.28-16.09,35.39-11.88,68.73-18.23,98.7-28.97,21.74-7.78,29.54,23.82,35.41,42.92,5.71,18.61,11.49,32.39,16.09,47.2,10.65,34.2,19.57,65.82,30.04,96.56,5.21,15.29,13.41,29.36,18.24,45.06,10.1,32.89,18.71,60.45,31.11,95.49,5.92,16.74,13.09,37.81,10.73,50.43-4.19,22.32-47.58,31.32-71.89,38.62-14.05,4.22-29.68,7.52-43.98,11.8-15.2,4.55-29.6,10.61-41.84,12.88-24.27,4.51-43.23,2.41-56.87-9.66ZM341.45,53.34c-48.39,11.86-98.6,26.52-139.48,45.06,26.77-5.45,51.62-12.56,76.17-20.38,24.19-7.71,49.3-17.24,77.25-17.16,24.77,52.73,39.92,115.04,61.15,179.17,14.22,42.95,32.85,87.49,47.2,133.04,4.42,14.01,13.68,35.45,11.81,49.34-1.16,8.59-10.99,13.91-9.66,17.17,26.65-6.23,11.02-44.8,4.29-64.37-32.22-93.63-61.58-188.72-93.34-278.94-5.22-14.84-10.26-30.58-19.31-42.92-5.82-2.43-12.91-.78-16.09,0Zm55.78,150.2c-6.54-23.12-11.93-44.84-21.46-69.74-7.06-18.44-12.92-57.92-36.47-55.79-12.4,1.12-28.04,7.52-40.77,10.73-29.24,7.37-51.05,13.02-78.32,23.61-10.13,3.93-30.32,11.1-32.19,19.31-1.65,7.21,6.66,26.08,9.65,35.41,20.64,64.17,34.35,110.85,55.79,171.66,4.58,13,15.6,59.06,28.97,62.22,11.38,2.69,30.52-7.17,41.84-10.73,16.44-5.17,30.65-8.98,40.76-12.87,26.89-10.34,53.94-16.13,74.03-32.19-5.04-53.68-27.13-89.64-41.84-141.62Zm-234.95-83.68c-3.95,21.49,5.41,32.17,11.8,51.5,25.73,77.74,50.83,158.91,76.17,232.81,9.97,29.09,14.94,62.62,38.62,75.09-29.16-47.82-45.16-108.51-64.37-172.73-8.15-27.25-22.57-57.59-32.19-87.98-4.3-13.6-8.88-30.2-13.94-46.14-4.8-15.08-14.5-33.1-15.02-45.06-.18-4.07,4.87-9.68,1.07-11.8-.01,2.13-2.93,1.37-2.14,4.29Zm236.03,265c-35.63,10.26-75.68,22.87-106.22,35.41.29,15.8,4.41,27.77,12.88,35.4,49.87-15.58,102.68-28.2,148.05-48.28-2.59-10.64-5.75-20.71-9.65-30.04-13.35-2.85-29.32,2.98-45.06,7.51Zm12.88,67.6c-37.51,10.53-71.2,24.2-109.43,31.11,15.21,7.06,29.73-1.04,46.14-6.45,34.39-11.32,72.23-20.35,102.99-32.19-15.41-1.79-25.43,3.51-39.7,7.52Zm-119.09,32.19c4.34.75,6.13-1.04,5.37-5.37h-5.37c-.75,3.3-.75,2.06,0,5.37Z"/></svg>