<?xml version="1.0" encoding="UTF-8"?><svg id="Layer_1" xmlns="http://www.w3.org/2000/svg" viewBox="0 0 512 512"><defs><style>.cls-1{fill:#fdc91e;}</style></defs><path class="cls-1" d="m484.69,115.69c-1.3-.99-3-1.32-4.58-.88-5.49,1.53-10.68,2.21-16.81,2.21-3.6,0-7.22-.23-11.05-.47-1.6-.1-3.21-.2-4.87-.29,9.2-11.27,21.36-29.19,18.98-39.18-.85-3.56-3.27-6.14-6.81-7.26-1.34-.42-2.8-.29-4.04.38-2.71,1.44-5.35,2.9-7.95,4.34-12.58,6.94-24.47,13.49-39.23,16.45-2.01.4-3.87.6-5.69.6-7.26,0-12.64-3.25-19.44-7.37-6.66-4.03-14.21-8.6-25.14-11.07-6.58-1.48-13.85-2.24-21.62-2.24-19.16,0-37.95,4.67-50.27,12.49-36.83,23.36-38.14,60.48-38.18,96.94-4.76,1.05-10.61,1.57-17.45,1.57-11.74,0-24.24-1.56-32.62-2.74-16.56-2.32-29.34-9.78-43.15-18.57-13.16-8.38-25.82-19.55-38.05-30.35-3.05-2.69-6.07-5.36-9.05-7.93-6.78-5.87-12.84-13.35-18.69-20.58l-.63-.77c-1.13-1.4-2.35-3.32-3.64-5.34-3.94-6.2-8.41-13.23-15.56-13.23-3.73,0-7.25,2.01-10.44,5.96-5.2,6.45-6.08,30.47-2.6,71.4.95,11.26,4.53,21.18,11.57,32.15,1.29,2.01,2.96,4.09,4.72,6.28,1.5,1.87,3.27,4.07,4.69,6.2-2.97-.8-6.19-1.99-9.17-3.09-5.24-1.93-9.75-3.6-13.54-3.6-4.92,0-8.38,3.06-8.83,8.08-1.63,41.64,31.57,76.13,56.77,96.17-3.53-.48-7.17-1.46-10.96-2.48-3.63-.98-7.39-2-11.14-2.55-2.02-.3-3.77-.44-5.35-.44-5.2,0-8.7,1.68-10.41,5-3.19,6.2,2.24,13.78,7.98,21.8.85,1.18,1.68,2.35,2.45,3.47,11.72,16.96,35.72,34.72,59.08,39.44-10.26,9.36-26.21,14.09-47.57,14.09-15.86,0-34.24-2.6-54.63-7.72-1.79-.45-3.69.08-4.99,1.4-1.3,1.32-1.81,3.22-1.33,5.01,4.17,15.69,26.67,36.89,41.48,42.59,23.46,9.03,53.13,15.68,83.53,18.72,14.62,1.46,28.11,2.17,41.27,2.17,36.64,0,69.91-5.72,101.71-17.49,23.58-8.72,41.79-17.26,59.72-32.84,13.13-11.41,21.77-24.29,30.92-37.92,3.33-4.96,6.77-10.1,10.43-15.13,16.61-22.78,24.05-44.15,32.04-69.72,4.22-13.51,6.22-26.71,8.15-39.48,1.08-7.12,2.19-14.49,3.68-21.83,1.23-6.05,1.7-12.04,2.16-17.85.34-4.4.7-8.95,1.39-13.38,1.09-7,2.87-8.35,8.16-12.36,1.66-1.26,3.53-2.68,5.62-4.46,2.17-1.85,4.4-3.66,6.62-5.45,11.95-9.68,24.3-19.68,24.41-34.64.02-1.64-.75-3.19-2.05-4.19Zm-28.95,30.71c-1.56,1.27-3.11,2.56-4.67,3.85-.24-.05-.45-.14-.7-.14h-22.43c-2.23,0-4.03,1.8-4.03,4.03s1.81,4.03,4.03,4.03h13.18c-3.4,2.73-6.21,5.69-8.02,10.92-.66.02-1.37.05-2.14.08-3.7.14-12.13.46-14.64-.05-1.2-.88-2.84-1.07-4.26-.34-1.98,1.03-2.75,3.46-1.72,5.44,1.28,2.46,3.85,3.24,11.4,3.24,2.56,0,5.68-.09,9.52-.24.03,0,.05,0,.08,0-.56,4.12-.92,8.19-1.24,12.13-.04.53-.09,1.05-.13,1.57-3.76-.31-7.44-.92-11.27-1.56-2.16-.37-4.32-.73-6.52-1.05-2.29-.33-4.77-.43-7.17-.52-3.61-.15-7.34-.3-10.14-1.22-2.12-.71-4.4.44-5.1,2.56-.7,2.11.45,4.4,2.56,5.09,3.87,1.28,8.18,1.46,12.35,1.62,2.3.09,4.46.18,6.35.45,2.13.31,4.22.66,6.3,1.02,3.82.65,7.75,1.29,11.85,1.64-.28,2.35-.61,4.68-1.08,7-.52,2.55-.94,5.07-1.38,7.6h-1.12c-12.76.06-25.98.15-37.19-2.75-2.16-.56-4.35.74-4.91,2.89-.56,2.16.74,4.36,2.9,4.91,10.38,2.68,22.3,3.03,33.42,3.03,1.88,0,3.73-.01,5.55-.02-.35,2.23-.71,4.49-1.04,6.68-.08.51-.16,1.01-.23,1.52-2.46-.4-5.31-.14-8.12.14-1.29.13-2.48.26-3.4.26-7.56.1-14.49-.31-21.37-.95-6.98-.65-14.08-.58-20.94-.52-2.07.02-4.14.04-6.2.04-2.23,0-4.03,1.81-4.03,4.03s1.81,4.03,4.03,4.03c2.09,0,4.18-.02,6.28-.04,6.66-.06,13.55-.13,20.12.48,7.12.66,14.33.98,22.05.98,1.2.02,2.65-.13,4.27-.3,1.76-.18,4.85-.47,6.09-.21-.67,4.17-1.44,8.3-2.29,12.42-11.68-.05-23.49-.48-34.92-.92-12.2-.47-24.8-.96-37.32-.96-2.23,0-4.03,1.8-4.03,4.03s1.81,4.03,4.03,4.03c12.36,0,24.9.48,37.01.95,10.92.42,22.18.81,33.41.89-.67,2.65-1.37,5.31-2.21,8-.32,1.02-.63,1.97-.94,2.97-3,.08-6,.42-8.94.77-3.24.39-6.31.75-9.25.75h-8.57c-5.73,0-11.45-.01-17.17,0-5.53-.02-11.39-.41-17.05-.82-8.15-.59-16.56-1.19-24.69-.6-2.22.16-3.89,2.09-3.73,4.31.16,2.22,2.06,3.85,4.31,3.73,7.54-.56,15.67.03,23.52.6,5.73.41,11.64.84,17.4.84h.25c5.72-.01,11.43,0,17.14,0h8.58c3.42,0,6.87-.41,10.21-.81,1.83-.22,3.6-.42,5.34-.56-1.44,4.37-2.91,8.59-4.43,12.69-3.63-.46-7.45-.26-10.93-.06-1.76.1-3.47.2-5.05.2-8.67,0-16.99-.32-25.44-.97-11.4-.88-28.57-1.75-45.64-.94-2.23.11-3.94,2-3.84,4.22.11,2.23,1.97,3.87,4.22,3.83,16.66-.8,33.47.06,44.64.92,8.66.67,17.19.99,26.06.99,1.73,0,3.6-.11,5.52-.22,2.51-.14,5.04-.26,7.39-.15-1.38,3.35-2.83,6.66-4.41,9.92-10.18-.02-20.34-.11-30.5-.22-11.2-.12-22.41-.24-33.64-.24-2.23,0-4.03,1.8-4.03,4.03s1.81,4.03,4.03,4.03c11.2,0,22.38.12,33.56.24,8.8.09,17.61.15,26.43.19-2.04,3.68-4.3,7.37-6.77,11.07-.02,0-.04-.02-.06-.02-3.47-.22-6.87.12-10.16.46-2.34.24-4.54.47-6.7.48-5.51.06-11.02.04-16.53.02l-28.32-.02c-1.37,0-3.06-.13-4.85-.26-5.41-.39-11.54-.84-15.54,1.16-2,.99-2.8,3.41-1.81,5.41.7,1.41,2.13,2.23,3.61,2.23.6,0,1.22-.14,1.79-.42,2.02-1.01,7.64-.61,11.36-.33,2.02.15,3.9.28,5.44.28l28.3.02c5.55.02,11.1.04,16.64-.02,2.53-.03,5.03-.28,7.44-.53,1.3-.13,2.54-.25,3.78-.34-1.97,2.75-3.86,5.48-5.71,8.2-2.93.16-5.84.49-8.67.88-2.99.41-5.81.79-8.61.91-9.89.44-20.07.44-29.92.45h-1.11c-8.21,0-16.51.25-24.54.48-7.52.22-15.3.45-22.91.47-2.23.01-4.03,1.82-4.02,4.05,0,2.22,1.81,4.02,4.03,4.02h.01c7.72-.02,15.55-.25,23.12-.47,7.97-.23,16.21-.48,24.31-.48h1.11c9.94,0,20.21,0,30.28-.45,3.16-.15,6.3-.57,9.33-.98.6-.08,1.16-.14,1.75-.22-2.35,3.49-4.71,6.93-7.14,10.28-4.73.01-9.46.14-14.19.27-7.72.22-15.71.46-23.49.09-3.32-.15-6.71-.37-10.14-.59-9.13-.57-18.57-1.17-27.52-.74-2.22.11-3.94,2-3.83,4.23.11,2.23,1.98,3.88,4.23,3.83,8.49-.42,17.71.17,26.62.73,3.47.22,6.91.44,10.27.59,3.09.15,6.2.2,9.29.2,4.99,0,9.95-.14,14.81-.29,2.55-.07,5.11-.09,7.66-.15-3.98,4.86-8.28,9.5-13.25,13.82-.35.3-.7.56-1.05.86-6.06,0-12.11.12-18.15.23-6.08.12-12.17.24-18.27.24-7.67,0-15.54-.61-23.15-1.21-8.98-.7-18.27-1.42-27.48-1.17-2.23.06-3.98,1.91-3.92,4.14.06,2.23,1.93,4.06,4.14,3.92,8.8-.23,17.86.47,26.63,1.16,7.76.6,15.8,1.23,23.78,1.23,6.15,0,12.29-.12,18.43-.24,2.46-.05,4.92-.06,7.37-.1-5.93,4.12-12.06,7.64-18.6,10.86-13.41.06-27.29-.54-43.58-1.89-5.85-.48-11.87-.54-17.7-.59-7.84-.07-15.95-.14-23.48-1.29-2.19-.34-4.26,1.17-4.6,3.37-.34,2.2,1.18,4.26,3.38,4.6,8.1,1.24,16.51,1.31,24.63,1.38,5.68.05,11.54.1,17.1.56,9.56.79,18.25,1.3,26.57,1.61-2.76,1.08-5.6,2.16-8.55,3.26-5.04,1.87-10.14,3.51-15.27,5.06-4.32-1.27-9.28-1.32-14.14-1.29-3.17.01-6.19.03-8.7-.32-3.99-.56-8.08-1.34-12.03-2.1-3.43-.65-6.86-1.31-10.29-1.85-4.95-.77-10.08-1.18-15.05-1.57-6.86-.54-13.95-1.1-20.36-2.64-2.16-.52-4.34.81-4.86,2.98-.52,2.16.81,4.34,2.98,4.86,7.03,1.69,14.44,2.28,21.61,2.84,4.81.38,9.79.78,14.44,1.5,3.34.52,6.68,1.16,10.02,1.8,3.75.72,7.62,1.44,11.49,2.01-7.67,1.53-15.48,2.74-23.43,3.63-3.19-1.02-6.63-1.38-9.99-1.67-2.49-.22-4.84-.43-6.9-.91l-4.54-1.08c-5.34-1.28-10.88-2.61-16.46-3.51l-2.97-.47c-8.02-1.25-18-2.81-23.92-6.71-.72-.48-1.57-.69-2.44-.66-2.05.11-3.62,1.26-4.29,3.11-.9,1.66-.54,3.78.97,5.03,1.11.92,2.56,1.14,3.84.73,7.21,3.76,16.76,5.25,24.6,6.48l2.92.46c1.91.31,3.84.72,5.76,1.12-.35,0-.7.02-1.06.02-12.81,0-25.97-.69-40.23-2.12-29.5-2.95-58.2-9.37-80.81-18.08-9.29-3.58-23.37-15.68-30.73-26.6,17.01,3.68,32.6,5.53,46.45,5.53,29.82,0,50.77-8.63,62.26-25.65,1.07-1.58,1.18-3.62.31-5.31-.88-1.7-2.6-2.78-4.51-2.83-20.21-.51-47.56-16.72-60.97-36.12-.8-1.17-1.67-2.38-2.56-3.61-1.98-2.77-5.37-7.52-6.55-10.26,1.03-.04,2.57.07,4.31.32,3.14.46,6.44,1.35,9.94,2.3,5.72,1.54,11.62,3.14,17.84,3.14,4.12,0,7.85-.69,11.4-2.13,2.13-.85,3.45-2.99,3.26-5.28-.21-2.45-1.61-3.47-3.73-5.01-39.39-28.54-61.68-62.01-61.48-91.93,2.19.47,5.43,1.67,8.36,2.75,6.95,2.56,15.09,5.46,21.51,4.44,2.55-.4,4.42-2.61,4.41-5.2-.05-6.72-5.15-13.08-9.65-18.7-1.58-1.98-3.08-3.84-4.08-5.4-6.16-9.59-9.14-17.78-9.95-27.39-3.16-37.23-2.22-60.36.33-63.95,1.48-1.83,2.29-2.06,2.27-2.08,1.64.31,5.1,5.76,6.77,8.39,1.39,2.19,2.83,4.45,4.34,6.31l.63.77c6.14,7.58,12.49,15.43,19.98,21.91,2.95,2.56,5.94,5.2,8.97,7.87,12.54,11.07,25.51,22.51,39.36,31.33,14.31,9.1,28.69,17.5,47.31,20.1,8.69,1.22,21.68,2.84,34.07,2.84,9.77,0,17.93-1.02,24.25-3.03,2.17-.69,3.64-2.7,3.64-4.98,0-36.51,0-71,33.33-92.13,10.72-6.8,27.42-10.86,44.68-10.86,6.89,0,13.57.69,19.31,1.99,9.28,2.1,15.76,6.02,22.04,9.82,7.54,4.57,14.67,8.88,24.85,8.88,2.48,0,5.08-.27,7.74-.8,16.35-3.27,28.93-10.2,42.24-17.54,1.17-.65,2.36-1.3,3.55-1.96-1.52,7.31-13.5,25.67-23.82,35.75-1.53,1.49-2,3.77-1.17,5.75.81,1.95,2.72,3.22,4.83,3.22h.08l1.92-.02c4.91,0,9.33.28,13.61.55,8.13.52,15.94.77,23.08-.32-.84,1.82-1.98,3.58-3.34,5.31-3.01.09-6.04.24-9.02.44-6.05.4-12.3.8-17.83.21-2.24-.23-4.2,1.37-4.44,3.58-.23,2.22,1.37,4.2,3.58,4.44,2.33.25,4.71.34,7.12.34,4.01,0,8.09-.26,12.08-.52.03,0,.05,0,.08,0-2.29,1.98-4.7,3.95-7.17,5.95Z"/></svg>