<?xml version="1.0" encoding="UTF-8"?><svg id="Layer_1" xmlns="http://www.w3.org/2000/svg" viewBox="0 0 512 512"><defs><style>.cls-1{fill:#fdc91e;stroke:#000;stroke-miterlimit:10;stroke-width:16.87px;}</style></defs><path class="cls-1" d="m303.41,413.26c12.29-1.47,26.46.52,36.56-4.98,55.28-30.1,104.77-67.79,136.64-123.57,51.46-90.07.43-188.64-97.94-190.14-12.45-.19-25.65,1.46-37.29,5.63-32.56,11.66-36.88,31.63-13.37,56.59,5.51,5.85,11.78,11.01,17.89,16.27,53.32,45.82,61.3,84.55,23.89,144.33-19.2,30.68-45.13,57.14-68.01,85.51.55,3.46,1.09,6.91,1.64,10.37Z"/><path class="cls-1" d="m19.46,416.48c11.57-1.76,26.02.29,34.24-5.92,46.4-35.05,95.22-68.25,135.55-109.56,36.4-37.29,36.48-87.92,13.14-124.67-22.71-35.76-74.48-55.09-122.75-42.1-15.11,4.07-27.61,17.85-41.31,27.19,8.67,12.5,15.01,27.91,26.39,37.02,55.67,44.54,62.01,78.86,18.45,136.39-19.74,26.07-44.46,48.38-66.92,72.39,1.07,3.08,2.14,6.17,3.21,9.25Z"/></svg>