<?xml version="1.0" encoding="UTF-8"?><svg id="Layer_1" xmlns="http://www.w3.org/2000/svg" viewBox="0 0 512 512"><defs><style>.cls-1{fill:#fdc91e;fill-rule:evenodd;}</style></defs><path class="cls-1" d="m376.38,12.44c-.9,9.02-7.21,18.04-12.18,25.7-35.18,54.12-79.36,107.34-119.51,158.75,41.48-11.72,73.05-25.7,117.24-36.07,9.94-2.26,35.64-7.67,40.14,1.35,6.78,12.63-11.71,35.63-18.95,46.9-53.2,81.63-120.84,152.44-177.67,230.45-14.42,19.39-24.8,36.98-43.29,53.67-4.97,4.06-12.17,11.27-20.28,8.57-16.25-4.5,0-28.86,3.13-34.72,45.56-80.73,92.91-154.68,151.08-223.23-45.98,13.53-91.53,32.92-139.79,47.8-14.42,4.51-34.27,14.88-47.79,1.35-.9-17.14,13.98-29.31,24.36-41.49,29.74-34.28,61.77-67.2,92.88-101.47,30.67-34.27,62.23-68.09,95.17-101.02,13.52-13.97,27.5-25.26,43.29-35.63,2.7-1.8,7.21-6.76,12.18-.9h0Zm-236.77,257.96h0c-4.05,4.51-10.82,9.02-9.02,12.63,49.16-10.82,95.15-31.12,140.7-46,14.45-4.51,31.57-15.79,45.99-7.67,2.27,15.34-9.45,26.6-16.68,37.88-7.65,11.73-16.22,22.55-20.3,34.72,32.47-41.94,75.32-78.92,98.32-126.27-35.61,10.82-80.26,23.89-117.24,37.88-9.91,3.6-27.06,14.89-40.15,12.17-24.79-5.41,7.21-41.94,13.55-50.05,26.6-37.89,58.61-70.81,81.6-104.18-58.16,64.94-118.14,135.74-176.77,198.88h0Z"/></svg>