<?xml version="1.0" encoding="UTF-8"?><svg id="Layer_1" xmlns="http://www.w3.org/2000/svg" viewBox="0 0 512 512"><defs><style>.cls-1{fill:#212121;}</style></defs><path class="cls-1" d="m157.86,303.56c-39.01-34.23-65.41-85-64.65-137.54.38-26.38,8.3-51.9,23.5-73.51,16.6-23.6,40.49-41.29,65.95-54.34C230.78,13.54,291.22,1.7,343.08,21.59c25.3,9.71,46.51,27.79,59.73,51.49,13.37,23.98,18.15,52,16.43,79.21-3.71,59.15-40.52,109.7-83.74,147.62-5.54,4.86-11.19,9.6-16.71,14.48-2.69,2.36.87,7.09,3.86,5.01,25.18-17.55,47.55-40.84,65.49-65.66,17.7-24.47,31.33-52.61,36.48-82.52,9.59-55.82-9.72-117.76-60.56-147.33-49.65-28.89-114.02-22.32-165.25-1.29-27.82,11.42-54.4,27.22-75.19,49.21-19.44,20.56-32.69,46.17-36.91,74.22-8.18,54.1,13.6,110.9,52.04,149.09,4.8,4.77,10.07,9.09,15.43,13.21,2.72,2.09,6.27-2.51,3.68-4.77h0Z"/><path class="cls-1" d="m158.39,316.26c.59,0,.59-.91,0-.91s-.58.91,0,.91h0Z"/><path class="cls-1" d="m157.8,315.34c6.8,7.04,10.3,15.26,10.97,25.04.64,9.12-.23,18.19-.18,27.31.03,8.48.92,17.23,4.22,25.11,2.41,5.73,8.23,15.37,15.31,15.58,1.7.05,3.23-2.16,2.11-3.65-2.38-3.14-6.25-4.7-8.71-7.99-2.51-3.39-4.08-7.36-5.18-11.4-2.31-8.42-2.48-17.13-2.24-25.79.38-15.29.41-37.43-14.45-46.58-1.5-.92-3.04,1.16-1.85,2.38h0Z"/><path class="cls-1" d="m318.79,316.85c-11.43,12.72-11.65,30.61-14.04,46.65-1.11,7.44-2.85,14.97-6.19,21.75-3.42,6.99-8.6,12.11-14.92,16.53-1.85,1.3-.78,4.34,1.58,3.75,14.78-3.72,21.12-21.66,23.66-35.04,3.33-17.65,2.48-36.03,12.16-51.9.84-1.38-1.16-2.98-2.26-1.75h0Z"/><path class="cls-1" d="m193.54,411.5c16.85,4.71,34.11,6.69,51.6,6.06,8.33-.3,16.65-1.18,24.87-2.61,8.5-1.47,17.67-3.06,25.46-6.88,2.54-1.25.64-4.76-1.82-4.3-7.95,1.47-15.63,4.29-23.6,5.84-8.46,1.64-17.04,2.65-25.66,3.03-16.7.75-33.63-.84-49.96-4.37-2.1-.45-2.97,2.64-.89,3.22h0Z"/><path class="cls-1" d="m187.86,422.81c2.1-3.82.64-8.34-3.1-10.4-1.85-1.01-3.91.65-3.47,2.66,1.39,6.19,3,13.06.96,19.29-1.53,4.68-5.45,8.98-10.61,9.1-1.5.03-2.85,1.27-2.82,2.82.12,5.98.15,11.97.2,17.95.02,1.41,1.29,2.96,2.82,2.81,6.85-.68,13.71-1.34,20.58-2-.83-1.45-1.65-2.89-2.49-4.33-6.02,10.03-2.43,22.15,4.95,30.42,9.34,10.47,23.83,12.66,37.16,12.85,7.69.11,15.38-.2,23.07-.21,7.43-.01,14.87-.12,22.23-1.23,12.56-1.9,24.47-7.36,30.91-18.8,5.69-10.16,6.5-23.75-2.76-32.08-.71,1.73-1.44,3.46-2.15,5.18,12.14,1.15,21.93-10.4,20.16-22.09-.23-1.55-2.36-2.68-3.78-2.15-7.06,2.63-14.19,3.51-21.66,2.7,1.06,1.05,2.1,2.1,3.15,3.14-.12-8.71.91-17.7-.79-26.28-.56-2.77-5.26-2.88-5.71,0-1.37,8.65-.02,17.56.21,26.28.03,1.83,1.4,2.97,3.14,3.15,7.95.82,15.82-.22,23.3-3.06-1.27-.72-2.52-1.43-3.8-2.15,1.29,8.12-6.42,15.12-14.22,14.38-2.61-.25-4.03,3.5-2.15,5.18,7.08,6.39,6.35,16.48,2.16,24.34-5.25,9.83-14.95,14.38-25.56,16.29-12.21,2.2-24.95,1.29-37.31,1.53-11.76.22-25.08.61-35.44-5.88-9.16-5.73-16.2-18.36-10.13-28.62,1.02-1.73-.26-4.57-2.49-4.33-6.86.72-13.71,1.45-20.58,2.15.92.94,1.86,1.87,2.81,2.81-.07-5.98-.17-11.97-.18-17.95-.94.94-1.88,1.88-2.82,2.82,6.77-.04,12.29-4.42,14.97-10.49,3.5-7.93,1.3-16.81-.78-24.8-.76.99-1.5,1.99-2.26,2.98,2.72.22,3.71,3.15,2.89,5.42-.28.81.99,1.33,1.4.59h0Z"/><path class="cls-1" d="m187.1,434.36c19.04,3.07,38.17,3.92,57.4,2.76,9.34-.56,18.63-1.58,27.85-3.03,9.64-1.51,19.83-3.03,29.07-6.25,2.64-.92,1.58-4.69-1.16-4.17-9.24,1.75-18.27,4.4-27.56,5.99-9.59,1.65-19.26,2.79-28.97,3.44-18.71,1.26-37.65.69-56.3-1.2-1.4-.14-1.73,2.23-.35,2.46h0Z"/><path class="cls-1" d="m180.72,449.95c9.24,2.63,19.24,3.48,28.81,4.07,10.3.64,20.63.66,30.92.07,9.75-.56,19.47-1.66,29.11-3.28,4.97-.83,9.9-1.82,14.82-2.94,4.67-1.07,10.1-1.78,14.21-4.32,1.67-1.02,1.04-3.78-1.01-3.75-4.64.07-9.31,2.02-13.79,3.12-4.64,1.14-9.31,2.14-14.01,3.02-9.93,1.85-19.98,3.11-30.08,3.78-9.54.63-19.11.74-28.66.32-10.03-.44-19.98-1.89-30-2.4-1.35-.07-1.57,1.95-.31,2.31h0Z"/><path class="cls-1" d="m218.95,396.19c-1.91,2.55-3.71,5.45-6.15,7.51,1.49.87,2.99,1.74,4.49,2.61,1.63-6.12-.03-13.62-.38-19.92-.38-6.94-.69-13.88-.97-20.83-.56-14.16-.89-28.32-1.01-42.49-.12-13.47-.18-26.97.17-40.45.28-11.03,1.09-22.34,5.12-32.73,3.8-9.8,11.25-18.99,22.03-21.14,12.38-2.48,18.4,7.85,19.92,18.55,1.78,12.66,1.5,25.89,1.7,38.65.21,14.02.08,28.05-.41,42.07-1.07,31.41-3.76,62.73-8.25,93.84-.69,4.78,6.62,6.84,7.31,2.02,4.31-30.19,7.18-60.61,8.18-91.1.5-15.07.59-30.16.28-45.24-.28-13.95-.12-28.37-2.29-42.18-1.62-10.34-7.01-21.1-18.17-23.4-10.49-2.16-21.63,2.99-28.48,10.86-16.67,19.14-14.55,48.15-14.64,71.79-.07,17.11.36,34.23,1.04,51.32.35,8.82.78,17.63,1.29,26.44.26,4.27.53,8.54.83,12.81.28,4.05.23,7.99,1.83,11.76.91,2.12,4.47,1.5,4.92-.64.64-3.13,2.31-6.08,3.63-8.97.61-1.35-1.09-2.32-1.96-1.15h0Z"/><path class="cls-1" d="m235.02,416.46c1.07-5.36.63-10.86.5-16.29-.15-5.87-.3-11.73-.43-17.6-.28-11.47-.56-22.93-.84-34.4-.28-11.47-.54-22.94-.87-34.4-.31-11.29.17-22.83-2.03-33.92-.23-1.13-2.18-1.19-2.34,0-1.57,11.2-.5,22.64-.18,33.92.33,11.47.71,22.94,1.07,34.4.35,11.47.71,22.94,1.07,34.4.18,5.87.36,11.74.54,17.6.18,5.44.02,11,1.39,16.29.26,1.01,1.91,1.09,2.13,0h0Z"/><path class="cls-1" d="m226.82,236.96c-5.64-18.41-11.52-36.71-16.27-55.38-4.74-18.68-8.58-37.53-11.83-56.52-.51-2.96-5.64-3.05-6.07,0-.45,3.15-3.14,4.8-6.25,4.7-3.96-.12-6.22-3.65-6.58-7.31-.94-9.42,8.07-15.38,15.36-19.13-1.19-.15-2.36-.31-3.55-.46,3.55,4.27,3.73,10.11.87,14.76h5.28c-3.84-6.63-6.91-19.13,1.11-24.26,4.88-3.12,15.66.46,13.6,7.37,1.68-.45,3.38-.89,5.07-1.34-5.92-5.65-3-18.12,6.2-17.72,4.16.18,8.4,2.9,9.95,6.82.73,1.85.94,4.88-.64,6.4-1.88,1.79-3.07-.22-3.43-2.01-1.8-9,8.73-18.95,16.76-20.62,8.33-1.73,19.77,6.54,15.46,15.79,1.37-.36,2.74-.72,4.11-1.08-5.15-2.99-1.68-11.31,2.9-13.1,8.25-3.23,14.77,7.68,15.44,14.35.38,3.74,6.01,3.92,5.97,0-.05-4.83,7.36-6.06,10.48-3.35,5.35,4.67.35,13.37-4.21,16.4,1.44.58,2.85,1.16,4.27,1.74-2.05-5.94,7.36-9.94,11.52-6.3,5.48,4.79,1.78,14.24-3.1,17.88,1.22.16,2.44.32,3.68.47-.15-.15-1.45-4.11-2.19-3.25-.12.14.26,1.84.25,2.13-.08,2.38-1.42,4.54-2.38,6.65-2.38,5.18-4.79,10.34-7.23,15.49-4.77,10.06-9.67,20.06-14.7,29.99-10.16,20.1-20.87,39.92-32.06,59.48,1.57-.2,3.12-.4,4.69-.6-3.73-3.17-4.06-8-4.14-12.62-.08-5.74.02-11.48.03-17.22.02-11.78.03-23.55.05-35.33.03-23.55.07-47.11.12-70.66,0-3.81-5.92-3.81-5.92,0-.05,25.16-.08,50.32-.12,75.48-.03,12.31-.05,24.62-.07,36.93-.02,8.94-1.82,21.1,5.84,27.63,1.42,1.22,3.66,1.17,4.67-.6,15.36-26.71,29.8-53.94,43.25-81.66,3.27-6.75,6.48-13.54,9.65-20.35,2.24-4.85,5.58-10.04,4.22-15.64-.87-3.62-5-6.95-8.51-4.07-3.84,3.14-2.76,9.35.26,12.51.83.87,2.64,1.26,3.66.47,8.33-6.31,13.3-22.23,2.19-28.76-8.56-5.04-22.87,2.99-19.27,13.5.58,1.67,2.62,2.83,4.27,1.74,8.05-5.32,14.11-19.71,4.22-26.56-7.1-4.92-19.47-1.05-19.4,8.49h5.97c-1.09-11.02-11.83-25.72-24.52-19.59-8.56,4.15-12.08,18.2-2.84,23.52,1.3.75,3.43.41,4.11-1.08,5.02-10.85-3.56-23.32-14.95-24.89-12.21-1.67-25.15,9.13-27.98,20.73-1.07,4.4-.69,10.57,3.43,13.37,4.46,3.02,9.74.17,11.67-4.32,4.7-11.01-7.62-21.73-18.17-20.13-12.82,1.95-16.67,19.35-7.77,27.83,1.67,1.6,4.41.87,5.08-1.34,3.4-11.29-10.81-18.9-20.3-15.33-13.53,5.09-11.47,23.77-5.54,33.69,1.17,1.98,4.09,1.98,5.28,0,4.22-7.12,3.32-15.74-2.01-21.99-.86-1.01-2.46-1.03-3.55-.46-10.77,5.71-23.84,17.23-16.7,30.82,4.83,9.25,21.47,9.33,23.2-2.34h-6.07c6.25,37.66,15.49,75.97,29.7,111.46,1.09,2.69,5.36,1.69,4.47-1.23h0Z"/><path class="cls-1" d="m331.18,70.76c5.82-4.65,12.38-8.35,19.44-10.77,3.55-1.21,6.9-2.46,10.36-.4,2.41,1.43,4.16,3.75,5.28,6.28,5.48,12.31-7.31,25.59-19.7,25.25.92.93,1.86,1.86,2.79,2.79-.07-5.43-1.93-10.88-4.62-15.56-2.16-3.79-6.29-10.24-10.91-10.92-2.16-.32-3.56,1.51-2.71,3.51.87,1.99,2.66,3.05,4.13,4.59,1.7,1.76,3.15,3.7,4.37,5.81,2.44,4.19,3.42,8.6,4.26,13.32.25,1.41,2.11,2.41,3.43,1.95,7.97-2.81,15.49-4.99,20.81-12.12,4.52-6.05,5.41-13.78,2.26-20.66-2.62-5.74-8.94-11.45-15.68-9.78-9.72,2.42-18.73,7.49-26.42,13.82-2.05,1.69.87,4.52,2.9,2.9h0Z"/><path class="cls-1" d="m360.77,113.98c7.33-5.14,15.53-8.99,24.45-10.14-.68-.51-1.35-1.03-2.03-1.54,5.79,23.9,5.58,49.69,1.67,73.87-3.96,24.41-12.59,47.6-24.67,69.13-6.85,12.19-15.05,23.76-24.16,34.37-1.09,1.29.63,3.07,1.88,1.88,36.99-35.09,56.2-87,55.34-137.62-.25-14.38-2.76-28.77-6.01-42.74-.2-.83-1.14-1.63-2.03-1.54-10,.94-19.26,4.69-26.29,11.96-1.16,1.19.38,3.41,1.83,2.38h0Z"/><path class="cls-1" d="m358.28,112c14.21,47.33,9.49,98.86-16.12,141.54-7.18,11.96-15.97,22.67-24.83,33.38-1.17,1.41.56,3.1,1.98,1.99,19.42-15.31,32.52-38.82,40.85-61.74,8.56-23.56,12.29-49.26,10.02-74.26-1.3-14.3-4.34-28.18-9.77-41.49-.51-1.27-2.54-.81-2.13.59h0Z"/><path class="cls-1" d="m151.18,303.59c4.03,4.46,8.13,9.8,13.08,13.25.99.68,2.34-.68,1.67-1.66-3.45-4.96-8.79-9.06-13.25-13.09-1.02-.92-2.43.49-1.5,1.5h0Z"/><path class="cls-1" d="m147.45,300.83c4.42,4.02,8.83,8.1,13.35,12.02,4.24,3.68,8.38,7.64,13.37,10.28,1.07.57,2.67-.67,1.82-1.82-6.72-9.1-17.19-16-25.91-23.12-1.82-1.49-4.42,1-2.62,2.63h0Z"/><path class="cls-1" d="m163.62,60.03c-6.85,2.62-12.8,7.54-18.18,12.45-5.68,5.2-10.71,10.97-15.08,17.32-8.71,12.67-14.93,27.16-18.66,42.06-8.18,32.81-4.97,68.24,7.05,99.71,3.43,9.01,7.56,17.75,12.41,26.09,2.57,4.44,5.36,8.76,8.33,12.95,2.72,3.83,5.36,7.84,9.14,10.69,2.15,1.63,4.34-1.41,3.37-3.38-1.77-3.6-4.55-6.57-6.9-9.82-2.48-3.45-4.82-6.98-7.03-10.61-4.31-7.05-8.12-14.41-11.37-22.01-6.63-15.51-11.01-32.12-12.77-48.9-3.18-30.16,1.75-61.72,17.16-88.13,4.24-7.27,9.27-14.18,15.03-20.32,5.69-6.08,12.47-10.59,18.76-15.95.96-.82-.07-2.61-1.25-2.16h0Z"/><path class="cls-1" d="m163.14,291.05c.38.67.84,1.25,1.39,1.79-.15-.58-.3-1.16-.46-1.74,0,.03,0,.06-.02.09-.12.91.07,2.1,1.04,2.53,4.97,2.23,11.67.16,12.9-5.63.63-2.94-.4-6.06-2.48-8.19-1.06-1.1-2.51-2.08-3.99-2.49-1.83-.51-2.87.18-4.39,1-1.4.76-1.07,3.01.45,3.4-.08-.15-.17-.29-.25-.44.15.18.3.37.43.55.46.37.83.56,1.35.79.61.26,1.2.45,1.75.85.99.74,2.01,2.2,1.9,3.48-.21,2.81-3.84,3.36-5.94,2.59-.73-.26-1.67.04-2.19.58-.03.04-.07.07-.1.11.58-.15,1.16-.31,1.73-.46-.48-.17-.84-.38-1.25-.67-1.17-.8-2.52.75-1.86,1.87h0Z"/><path class="cls-1" d="m207.69,287.05c10.69-20.17,22.47-39.6,34.45-59.01.38-.6-.54-1.13-.94-.55-12.66,18.9-23.86,38.91-34.37,59.06-.3.57.56,1.07.86.5h0Z"/><path class="cls-1" d="m210.48,304.39c7.24-13.09,14.45-26.19,21.65-39.3,3.6-6.56,7.19-13.12,10.79-19.68,1.8-3.28,3.6-6.56,5.4-9.84.78-1.4,1.53-2.81,2.31-4.22,1.42-2.6,1.45-4.46,5.05-3.85-.68-.11-.97.88-.3,1.02,2.74.59,2.66-3.77.23-4.26-2.92-.59-4.79,3.89-5.78,5.69-2.71,4.92-5.4,9.84-8.09,14.76-10.77,19.68-21.55,39.37-32.24,59.1-.35.64.61,1.2.97.57h0Z"/><path class="cls-1" d="m220.33,322.38c4.59-13.48,9.64-26.8,15.25-39.89,5.45-12.71,11.83-24.9,17.72-37.39.33-.7-.64-1.3-1.06-.61-7.16,12.28-12.94,25.6-18.48,38.68-5.41,12.76-10.28,25.72-14.6,38.89-.25.75.92,1.06,1.17.32h0Z"/><path class="cls-1" d="m217.18,387.34c12.66-22.08,25.38-44.69,35.38-68.13.28-.68-.68-1.3-1.04-.6-11.72,22.79-22.65,45.84-35.33,68.15-.36.64.63,1.22.99.58h0Z"/><path class="cls-1" d="m217.28,410.07c7.01-11.88,13.96-23.8,20.91-35.71,6.91-11.88,14.44-23.59,20.69-35.83.33-.65-.58-1.18-.97-.57-7.57,11.48-14.04,23.8-20.96,35.69-6.93,11.92-13.86,23.85-20.74,35.8-.4.7.66,1.32,1.07.63h0Z"/><path class="cls-1" d="m227.53,413.64c13.04-20.42,26.32-40.81,38.69-61.64.4-.68-.63-1.27-1.06-.62-13.4,20.2-25.97,41.02-38.69,61.64-.41.67.63,1.28,1.06.62h0Z"/><path class="cls-1" d="m242.72,409.93c9.29-11.95,17.39-24.68,24.12-38.24.33-.7-.69-1.31-1.06-.61-6.98,13.33-15.02,26.06-24.14,38.02-.48.62.59,1.45,1.07.83h0Z"/><path class="cls-1" d="m194.51,416.2c.07-2.91.13-5.82.26-8.73.03-.73-1.07-.71-1.12,0-1.82,24.67-.28,49.77,4.24,74.08.15.78,1.32.45,1.19-.33-4.21-24.47-5.53-48.96-4.31-73.75h-1.12c0,2.91-.07,5.82-.12,8.73-.02.62.96.62.97,0h0Z"/><path class="cls-1" d="m203.42,409.73c-1.27,30.13-1.67,60.73,1.02,90.79.07.75,1.2.77,1.19,0-1.14-30.32-2.21-60.45-1.02-90.79.03-.77-1.16-.76-1.19,0h0Z"/><path class="cls-1" d="m215.96,412.77c-5.33,30.72-7.54,63.12-3.68,94.16.1.77,1.29.82,1.24,0-.92-15.48-1.8-30.82-1.24-46.33.56-15.92,2.24-31.78,4.92-47.49.13-.8-1.09-1.14-1.24-.34h0Z"/><path class="cls-1" d="m272.77,409.6c-2.15,28.06-4.55,56.13-6.27,84.22-.05.85,1.24.83,1.32,0,2.43-28.04,4.17-56.15,6.19-84.22.05-.8-1.19-.79-1.24,0h0Z"/><path class="cls-1" d="m277.75,416.2c-1.42,26.97-.71,54.36,3.43,81.08.1.71,1.35.55,1.27-.17-3.2-26.94-4.82-53.78-3.48-80.91.03-.79-1.19-.78-1.22,0h0Z"/><path class="cls-1" d="m283.93,412.98c3.91,31.31,4.17,62.41,3.07,93.88-.03.84,1.22.82,1.29,0,2.67-31.11.87-62.97-3.1-93.88-.1-.79-1.35-.81-1.25,0h0Z"/><path class="cls-1" d="m293.81,435.63c-.02,14.03-.28,28.08.05,42.1.02.73,1.11.73,1.12,0,.33-14.02.07-28.08.05-42.1,0-.79-1.22-.79-1.22,0h0Z"/></svg>