<?xml version="1.0" encoding="UTF-8"?><svg id="Layer_1" xmlns="http://www.w3.org/2000/svg" viewBox="0 0 512 512"><defs><style>.cls-1{fill:#212121;}</style></defs><path class="cls-1" d="m24.24,391.63v-50.21h-5.8c-2.89,0-5.17.72-6.86,2.16-1.69,1.44-2.53,3.99-2.53,7.63h-2.45v-6.94c0-1.09.19-2.14.57-3.14.38-1.01,1.07-1.82,2.08-2.45,1.01-.63,2.44-.94,4.29-.94h38.37v3.67h-17.06v50.21h-10.61Z"/><path class="cls-1" d="m105.48,392.37l-17.64-45.07c-1.25-3.1-2.5-5.25-3.76-6.45-1.25-1.2-2.69-1.9-4.33-2.12v-1.63c.22,0,.75-.03,1.59-.08.84-.05,1.46-.08,1.84-.08,1.9,0,3.86.2,5.88.61s3.92,1.35,5.72,2.82c1.8,1.47,3.32,3.78,4.57,6.94l11.02,28.17,7.35-20.9-2.86-7.27c-1.25-3.1-2.6-5.25-4.04-6.45-1.44-1.2-2.98-1.9-4.61-2.12v-1.63c.22,0,.71-.03,1.47-.08.76-.05,1.33-.08,1.71-.08,1.9,0,3.86.22,5.88.65,2.01.44,3.92,1.38,5.72,2.82,1.8,1.44,3.32,3.74,4.57,6.9l11.68,29.72,13.96-39.27h3.92l-19.35,54.62h-3.27l-12.57-32.01-11.19,32.01h-3.27Z"/><path class="cls-1" d="m198.81,391.63c-1.91,0-3.39-.31-4.45-.94-1.06-.63-1.81-1.71-2.25-3.27-.44-1.55-.65-3.69-.65-6.41v-43.27h10.61v43.27c0,2.45.34,4.42,1.02,5.92.68,1.5,2.25,2.25,4.69,2.25h.82v2.45h-9.8Z"/><path class="cls-1" d="m261.02,393.02c-2.23,0-4.44-.22-6.61-.65-2.18-.44-4.16-1.07-5.96-1.92-1.8-.84-3.23-1.88-4.29-3.1-1.06-1.22-1.59-2.6-1.59-4.12v-9.55h2.29c.87,5.66,2.63,9.69,5.27,12.08,2.64,2.4,6.25,3.59,10.82,3.59,2.07,0,3.88-.3,5.43-.9,1.55-.6,2.75-1.48,3.59-2.65.84-1.17,1.27-2.63,1.27-4.37,0-2.34-.75-4.29-2.25-5.84-1.5-1.55-3.55-3.12-6.16-4.7l-10.04-6.04c-3.7-2.18-6.31-4.41-7.84-6.7-1.53-2.29-2.29-4.93-2.29-7.92,0-4.3,1.65-7.7,4.94-10.21,3.29-2.5,7.74-3.76,13.35-3.76,2.23,0,4.44.22,6.61.65,2.18.44,4.16,1.08,5.96,1.92,1.8.84,3.22,1.87,4.29,3.06,1.06,1.2,1.59,2.59,1.59,4.16v9.55h-2.29c-.93-5.66-2.67-9.69-5.23-12.08-2.56-2.39-5.91-3.59-10.04-3.59-1.96,0-3.66.33-5.1.98-1.44.65-2.55,1.57-3.31,2.74-.76,1.17-1.14,2.57-1.14,4.2,0,2.29.78,4.14,2.33,5.55,1.55,1.42,3.61,2.89,6.16,4.41l10.04,5.96c3.7,2.18,6.41,4.31,8.12,6.41,1.71,2.1,2.57,4.64,2.57,7.63,0,4.68-1.77,8.38-5.31,11.1-3.54,2.72-8.6,4.08-15.19,4.08Z"/><path class="cls-1" d="m327.24,391.63c-1.91,0-3.39-.31-4.45-.94-1.06-.63-1.81-1.71-2.25-3.27-.44-1.55-.65-3.69-.65-6.41v-43.27h10.61v43.27c0,2.45.34,4.42,1.02,5.92.68,1.5,2.25,2.25,4.69,2.25h.82v2.45h-9.8Z"/><path class="cls-1" d="m396.64,393.27c-5.39,0-10.11-1.27-14.17-3.8-4.06-2.53-7.2-5.95-9.43-10.25-2.23-4.3-3.35-9.14-3.35-14.53s1.11-10.23,3.35-14.53c2.23-4.3,5.37-7.72,9.43-10.25,4.05-2.53,8.78-3.8,14.17-3.8s10.17,1.27,14.17,3.8c4,2.53,7.12,5.95,9.35,10.25,2.23,4.3,3.35,9.14,3.35,14.53s-1.12,10.23-3.35,14.53c-2.23,4.3-5.35,7.72-9.35,10.25-4,2.53-8.72,3.8-14.17,3.8Zm0-3.67c3.32,0,6.14-.97,8.45-2.9,2.31-1.93,4.08-4.76,5.31-8.49,1.22-3.73,1.84-8.23,1.84-13.51s-.61-9.85-1.84-13.55c-1.23-3.7-2.99-6.52-5.31-8.45-2.31-1.93-5.13-2.9-8.45-2.9s-6.06.97-8.37,2.9c-2.31,1.93-4.08,4.75-5.31,8.45-1.22,3.7-1.84,8.22-1.84,13.55s.61,9.79,1.84,13.51c1.22,3.73,2.99,6.56,5.31,8.49,2.31,1.93,5.1,2.9,8.37,2.9Z"/><path class="cls-1" d="m501.64,391.88l-34.62-40.66v40.42h-4.08v-44.09c0-2.07-.5-3.81-1.51-5.23-1.01-1.41-2.95-2.12-5.84-2.12h-.41v-2.45h5.72c3.1,0,5.62.41,7.55,1.22,1.93.82,3.52,2.04,4.78,3.67l28.09,32.66v-37.56h4.08v54.13h-3.76Z"/><path class="cls-1" d="m98.16,423.57c.91-1.6,2.16-2.84,3.74-3.74,1.58-.89,3.35-1.34,5.31-1.34,2.3,0,4.31.59,6.03,1.77,1.73,1.18,2.93,2.81,3.62,4.88h-4.74c-.47-.98-1.13-1.72-1.99-2.21-.85-.49-1.84-.74-2.96-.74-1.2,0-2.26.28-3.19.84-.93.56-1.66,1.35-2.18,2.37-.52,1.02-.78,2.22-.78,3.59s.26,2.55.78,3.57c.52,1.03,1.25,1.82,2.18,2.38.93.56,2,.84,3.19.84,1.12,0,2.1-.25,2.96-.75.85-.5,1.52-1.24,1.99-2.22h4.74c-.69,2.1-1.89,3.73-3.6,4.9-1.72,1.17-3.73,1.75-6.05,1.75-1.96,0-3.73-.45-5.31-1.34-1.58-.89-2.82-2.13-3.74-3.72-.91-1.59-1.37-3.39-1.37-5.41s.46-3.83,1.37-5.43Z"/><path class="cls-1" d="m141.28,439.3l-4.53-8h-1.94v8h-4.12v-20.54h7.71c1.59,0,2.94.28,4.06.84,1.12.56,1.96,1.31,2.52,2.27.56.95.84,2.02.84,3.19,0,1.35-.39,2.57-1.18,3.66-.78,1.09-1.95,1.84-3.5,2.25l4.91,8.33h-4.77Zm-6.47-11.09h3.44c1.12,0,1.95-.27,2.5-.81.55-.54.82-1.29.82-2.25s-.27-1.67-.82-2.19-1.38-.78-2.5-.78h-3.44v6.03Z"/><path class="cls-1" d="m163.97,422.09v5.15h6.91v3.27h-6.91v5.44h7.8v3.35h-11.92v-20.57h11.92v3.35h-7.8Z"/><path class="cls-1" d="m198.39,435.39h-8.18l-1.35,3.91h-4.33l7.39-20.57h4.8l7.38,20.57h-4.35l-1.35-3.91Zm-1.12-3.3l-2.97-8.59-2.97,8.59h5.94Z"/><path class="cls-1" d="m231.14,418.76v3.32h-5.47v17.21h-4.12v-17.21h-5.47v-3.32h15.06Z"/><path class="cls-1" d="m248.56,418.76v20.54h-4.12v-20.54h4.12Z"/><path class="cls-1" d="m281.36,418.76l-7.53,20.54h-5l-7.53-20.54h4.41l5.65,16.33,5.62-16.33h4.38Z"/><path class="cls-1" d="m298.25,422.09v5.15h6.91v3.27h-6.91v5.44h7.8v3.35h-11.92v-20.57h11.92v3.35h-7.8Z"/><path class="cls-1" d="m354.42,418.76v20.54h-4.12v-8.74h-8.8v8.74h-4.12v-20.54h4.12v8.44h8.8v-8.44h4.12Z"/><path class="cls-1" d="m372.84,418.76v12.71c0,1.39.36,2.46,1.09,3.19.73.74,1.75,1.1,3.06,1.1s2.36-.37,3.09-1.1c.73-.74,1.09-1.8,1.09-3.19v-12.71h4.15v12.68c0,1.75-.38,3.22-1.13,4.43-.76,1.21-1.77,2.11-3.03,2.72-1.26.61-2.67.91-4.22.91s-2.92-.3-4.16-.91c-1.25-.61-2.23-1.51-2.96-2.72-.73-1.21-1.09-2.68-1.09-4.43v-12.68h4.12Z"/><path class="cls-1" d="m414.09,430.5c.75.94,1.12,2.02,1.12,3.24,0,1.1-.27,2.06-.81,2.9-.54.83-1.32,1.49-2.34,1.96-1.02.47-2.23.71-3.62.71h-8.86v-20.54h8.47c1.39,0,2.59.23,3.6.68,1.01.45,1.78,1.08,2.29,1.88.52.8.78,1.72.78,2.74,0,1.2-.32,2.2-.96,3-.64.8-1.49,1.37-2.55,1.71,1.16.22,2.11.79,2.85,1.74Zm-10.39-3.27h3.77c.98,0,1.74-.22,2.27-.66.53-.44.79-1.07.79-1.9s-.26-1.46-.79-1.91-1.28-.68-2.27-.68h-3.77v5.15Zm6.49,8c.56-.47.84-1.14.84-2s-.29-1.57-.88-2.07c-.59-.5-1.38-.75-2.38-.75h-4.06v5.53h4.15c1,0,1.78-.24,2.34-.71Z"/><path class="cls-1" d="m256,265.11c-1.03,3.89-8.59,10.06-18.98,15.97l3.74,6.68,15.24,27.43,15.24-27.43,3.75-6.68c-10.39-5.91-17.96-12.08-18.98-15.97Z"/><path class="cls-1" d="m449.61,72.49l-193.61,58.49L62.39,72.49c-.51,1.76-.77,3.52-.77,5.29,0,7.89,5.1,15.2,13.03,17.59l9.58,2.9,118.49,35.8c26.4,8,43.58,32.09,44.13,58.27-.04.55,0,1.14,0,1.69-.07,10.02-2.5,20.34-8.08,30.15-13.48,23.72-41.6,36.17-68.19,29.89-17.59-4.19-32.13-15.38-40.57-31.17-7.86-14.61-9.55-31.43-4.74-47.29,1.21-3.97,2.79-7.78,4.74-11.38-19.53,14.32-25.48,45.31-17.96,63.85,2.57,5.43,5.77,10.65,9.62,15.57,6.87,8.81,15.68,16.08,25.59,21.19,12.23,6.32,25.01,9.22,37.45,9.22,29.63,0,57.35-16.56,71.27-43.18,13.92,26.62,41.64,43.18,71.27,43.18,12.45,0,25.22-2.9,37.45-9.22,9.91-5.1,18.73-12.37,25.59-21.19,3.85-4.92,7.05-10.13,9.62-15.57l.04-.04c7.45-18.54,1.54-49.5-17.99-63.82,1.95,3.6,3.52,7.42,4.73,11.38,4.81,15.86,3.12,32.68-4.73,47.29-8.45,15.79-22.99,26.99-40.57,31.17-26.58,6.28-54.71-6.17-68.18-29.89-5.58-9.8-8.01-20.12-8.08-30.15,0-.55.04-1.14,0-1.69.55-26.18,17.73-50.27,44.13-58.27l118.49-35.8,9.58-2.9c7.93-2.39,13.04-9.69,13.04-17.59,0-1.76-.26-3.53-.77-5.29Z"/><path class="cls-1" d="m315.19,149.34c-23.32,7.01-38.11,30.81-32.61,54.53,4.99,21.44,24.05,35.51,44.69,35.51,4.37,0,8.81-.62,13.22-1.98,11.71-3.53,21.37-11.42,27.13-22.21,5.76-10.76,7.01-23.17,3.49-34.88-2.9-9.62-8.77-17.81-16.74-23.61l18.25-5.54,19.09-5.76,10.65-3.19c7.93-2.39,13.07-9.69,13.07-17.59,0-1.76-.26-3.56-.81-5.32l-99.43,30.07Zm12.04,67.6c-12.92,0-23.39-10.46-23.39-23.39s10.46-23.39,23.39-23.39c2.72,0,5.36.48,7.78,1.4-3.86,1.25-6.68,4.88-6.68,9.22,0,5.36,4.37,9.73,9.73,9.73,4.92,0,8.96-3.64,9.58-8.34,1.91,3.34,2.97,7.27,2.97,11.38,0,12.92-10.46,23.39-23.39,23.39Z"/><path class="cls-1" d="m120.29,145.38l19.09,5.76,18.25,5.54c-7.97,5.8-13.84,13.99-16.74,23.61-3.52,11.71-2.28,24.12,3.49,34.88,5.77,10.79,15.42,18.69,27.13,22.21,4.41,1.36,8.85,1.98,13.22,1.98,20.64,0,39.69-14.06,44.69-35.51,5.51-23.72-9.29-47.51-32.6-54.53l-99.43-30.07c-.55,1.76-.81,3.56-.81,5.32,0,7.89,5.14,15.2,13.07,17.59l10.65,3.19Zm64.47,24.78c2.72,0,5.36.48,7.78,1.4-3.85,1.25-6.68,4.88-6.68,9.22,0,5.36,4.37,9.73,9.73,9.73,4.92,0,8.96-3.64,9.58-8.34,1.91,3.34,2.97,7.27,2.97,11.38,0,12.92-10.46,23.39-23.39,23.39s-23.39-10.46-23.39-23.39,10.46-23.39,23.39-23.39Z"/></svg>