<?xml version="1.0" encoding="UTF-8"?><svg id="Layer_1" xmlns="http://www.w3.org/2000/svg" viewBox="0 0 512 512"><defs><style>.cls-1{fill-rule:evenodd;}</style></defs><path class="cls-1" d="m243.79,9.17c-17.82.68-38.76,1.76-46.45,2.43-12.15,1.08-14.45,1.76-17.42,4.59-2.84,2.84-3.24,4.19-2.43,8.37,1.22,6.21,8.51,19.98,22.28,42.27,6.08,9.72,10.94,18.64,10.94,19.99s-1.76,13.37-4.05,26.74c-2.16,13.5-4.86,33.22-6.08,44.02-1.22,10.67-2.97,22.82-3.92,27.01-1.08,4.05-3.65,16.88-5.67,28.49l-3.78,21.2-15.93.54c-13.37.41-16.47.95-19.58,3.38-9.18,6.75-9.18,14.99,0,19.72,4.59,2.43,7.83,2.57,34.97,2.57,16.34,0,33.62-.54,38.22-.95,4.73-.54,8.78-.41,9.18.27.95,1.62,5.81,80.08,7.7,125.32,2.16,51.99,3.65,71.84,7.02,95.61,2.3,16.74,3.51,21.74,5.27,22.69,3.51,1.76,6.35.14,7.83-4.59,1.76-5.4,7.7-58.47,9.59-86.02.81-11.48,2.43-29.44,3.51-39.84,1.08-10.4,2.84-29.84,3.92-43.21,1.08-13.37,2.84-32.54,4.05-42.54,1.08-9.99,2.16-20.66,2.43-23.63l.27-5.4,35.78-.68c27.95-.54,36.59-1.08,39.84-2.7,7.43-3.78,7.97-14.04,1.08-18.5-2.7-1.89-7.43-2.57-18.5-3.11l-14.99-.68-.95-10.8c-.54-5.94-1.89-17.55-3.11-25.66-7.16-49.02-7.83-52.93-14.18-101.14l-1.22-9.32,9.18-15.66c10.53-17.96,20.8-37.95,23.77-46.32,5.27-15.39,3.92-15.93-35.11-15.66-17.01.14-45.64.68-63.47,1.22Zm86.29,13.64c-1.08,3.65-8.51,17.69-22.01,41.59-5.27,9.18-9.86,18.63-10.26,20.93-.95,5.27,1.62,26.74,12.69,103.3,2.3,15.26,4.46,31.46,5,36.05l.95,8.51-56.31-.27c-42.54-.13-56.18-.54-56.18-1.89,0-.81,2.03-13.91,4.59-29.03,2.57-15.12,5-31.19,5.54-35.65.54-4.46,2.03-16.88,3.38-27.68,7.02-53.2,6.89-55.77-3.24-72.24-5.81-9.45-20.8-36.87-22.69-41.46-.95-2.3.4-2.43,20.25-2.57,11.61-.13,31.87-.68,44.83-1.08,12.96-.54,35.11-1.08,49.02-1.22l25.39-.27-.95,2.97Zm-55.91,236.99c0,1.35-1.22,10.26-2.57,19.99-3.38,22.55-6.35,55.09-11.07,120.18-1.49,20.8-3.11,41.19-3.65,45.24l-1.08,7.43-.95-10.8c-.54-5.94-1.48-23.9-2.3-39.84-4.86-100.47-6.89-137.47-7.56-140.03-.81-2.84-.4-2.97,8.37-3.51,21.61-1.08,20.8-1.08,20.8,1.35Z"/><path class="cls-1" d="m220.97,186.88c-.54,3.65-2.03,13.64-3.38,22.28-2.43,15.8-1.76,21.34,1.35,10.13,1.62-6.08,6.62-33.89,6.62-36.87,0-1.08-.81-1.89-1.89-1.89s-2.16,2.3-2.7,6.35Z"/><path class="cls-1" d="m236.36,211.45c0,7.83.54,13.64,1.35,13.64,3.24,0,3.51-25.66.41-26.74-1.35-.41-1.76,2.84-1.76,13.1Z"/></svg>