<?xml version="1.0" encoding="UTF-8"?><svg id="Layer_1" xmlns="http://www.w3.org/2000/svg" viewBox="0 0 512 512"><defs><style>.cls-1{fill:#fdc91e;}</style></defs><path class="cls-1" d="m494.14,429.48c-.21-9.82-.45-19.63-.7-29.46-.59-23.43-1.2-47.66-1.2-71.51,0-8.85.12-17.79.24-26.76.3-22.96.61-46.71-1.06-69.78-.26-3.59-.58-25.63-.93-48.96-2.19-148.15-3.14-148.85-8.38-152.73-3.25-2.41-9.15-3.23-37.79-2.97-3.17.01-5.83.03-7.55.02-9.59-.12-19.23.15-28.56.44-7.77.22-363.17-2.47-367.62,3.97-2.72,3.94-9.61,11.04-10.38,15.37-6.35,15.75-7.94,45.56-7.94,50.82,0,24.23-.16,48.37-.31,72.5-.16,24.15-.32,48.28-.32,72.46,0,3.61.61,12.53-.28,24.8-14.29,196.95,13.99,199.72,18.44,204.77,3.42,3.87,343.51,11.97,407.95,11.87,16.02-.02,31.13-.06,37.53.41.13,0,.25.01.38.01,3.14,0,5.93-2.87,6.84-7.1,2.71-12.67,2.26-27.54,1.86-40.66-.07-2.56-.15-5.07-.21-7.49Zm-14.27,35.15c-5.33-.14-12.44-.18-20.53-.18-3.7,0-7.59.01-11.62.02-16.84.03-260.9.07-364.94-.62-26.39-.18-47.67-21.44-47.95-47.83-.52-48.65.4-118.22.79-147.98.16-12.46.28-21.49.28-25.15,0-24.12.16-48.19.32-72.28.16-24.19.31-48.39.31-72.68,0-.64,0-1.34.02-2.09.36-26.44,21.74-47.83,48.18-47.85,96.96-.09,318.74-.24,323.78-.38,9.22-.27,18.74-.55,28.11-.42,1.78.02,4.51,0,7.77-.02,6.92-.07,21.48-.16,28.46.52.21,2.64.41,6.13.6,10.29h-19.77c-2.63,0-4.76,2.95-4.76,6.61s2.13,6.62,4.76,6.62h20.28c.17,5.31.35,11.13.51,17.31-1.64-.09-3.32-.21-5.1-.37-7.83-.67-16.71-1.43-23.15,2.08-2.45,1.34-3.65,5.17-2.69,8.58.74,2.6,2.53,4.19,4.43,4.19.58,0,1.17-.15,1.74-.46,4.48-2.44,12.24-1.79,19.07-1.19,2.1.18,4.1.33,6,.42.13,5.74.25,11.62.37,17.6-3.66.12-7.62.35-11.37.56-4.2.25-8.11.47-10.95.5-2.63.02-4.74,3-4.73,6.65.01,3.65,2.14,6.58,4.76,6.58h.03c2.93-.02,6.96-.25,11.3-.51,3.7-.21,7.6-.44,11.21-.55.12,6.62.23,13.16.33,19.53-5.92.15-13.18,1.33-19.27,2.33-3.49.58-7.08,1.16-8.39,1.16h-.06c-2.49.22-4.78,2.89-4.81,6.54-.03,3.65,2.08,6.65,4.71,6.69h.15c1.79,0,4.67-.46,9.51-1.26,5.62-.92,12.89-2.1,18.36-2.24.1,6.46.19,12.57.27,18.08,0,.09,0,.17,0,.27-9.69-.59-20.09-.25-30.07.3-2.62.15-4.67,3.23-4.56,6.88.1,3.65,2.33,6.6,4.94,6.34,9.98-.55,20.38-.9,29.89-.26.13,8.59.24,15.75.35,21.34-3.67.22-7.32.55-10.86.94-6.12.68-11.9,1.33-17.8,1.09h-.13c-2.57,0-4.69,2.85-4.76,6.44-.07,3.65,2,6.68,4.63,6.79.88.04,1.75.05,2.63.05,5.5,0,10.92-.6,16.18-1.18,3.43-.38,6.94-.7,10.44-.91.03,1.02.08,1.87.12,2.44.43,6.04.71,12.18.89,18.36-4.43.47-8.84,1.56-13.14,2.69-5.87,1.54-11.4,3-16.87,2.78h-.13c-2.57,0-4.69,2.85-4.76,6.44-.07,3.65,2.01,6.69,4.63,6.79.42.02.84.02,1.27.02,6.02,0,11.91-1.54,17.61-3.03,4.03-1.06,7.9-2.03,11.64-2.46.07,7.66.05,15.34-.03,22.99-5.85.24-12.17.97-18.33,1.71-6.86.82-13.34,1.6-18.51,1.6h-.06c-2.63,0-4.76,2.96-4.76,6.61s2.13,6.62,4.75,6.62h.07c5.58,0,12.26-.8,19.33-1.64,5.87-.7,11.88-1.4,17.36-1.65-.1,7.38-.16,14.71-.19,22.02-4.2.19-8.37.53-12.44.96-5.24.56-10.61.98-15.95,1.15-2.63,0-4.76,2.96-4.76,6.61,0,3.66,2.17,6.7,4.8,6.62,5.64,0,11.24-.6,16.64-1.18,4.03-.43,7.91-.75,11.76-.93.05,8.74.11,17.49.27,26.2-19.88-.54-28.51.82-32.39,4.89-2.1,2.2-2.55,6.37-.97,9.29.94,1.73,2.36,2.66,3.8,2.66.99,0,1.98-.42,2.83-1.32,1.6-1.35,7.66-2.79,27.02-2.27.18,8.13.36,16.29.55,24.26.03,1.26.06,2.51.09,3.77-3.14.11-6.29.17-9.43.31-6.18.29-12.36.57-18.59.57-2.63,0-4.76,2.96-4.76,6.61s2.13,6.62,4.76,6.62c6.33,0,12.62-.28,18.9-.58,3.14-.14,6.29-.2,9.43-.31.1,4.12.21,8.23.3,12.34.04,2.01.11,4.11.17,6.2-3.41.42-7.06,1.28-10.87,2.21-7.21,1.77-16.17,3.97-19.32.98-2.17-2.07-5.13-1.29-6.61,1.72-1.48,3.01-.93,7.13,1.24,9.2,2.93,2.78,6.66,3.75,10.81,3.75,4.84,0,10.24-1.33,15.54-2.63,3.28-.81,6.57-1.56,9.52-1.98.05,5.21-.03,10.39-.47,15.12Z"/><path class="cls-1" d="m178.02,346.51c6.29-.44,145.65-46.23,154.33-46.77,2.73-.17,3.52-3.69,6.16-4.4,28.7-7.66,24.76-59.87-8.91-63.98-5.21-.64-149.7-58.95-157.37-52.9-.99.79-1.76,1.82-2.22,3-7.02,17.96-.77,152.89.56,159.35.72,3.49,3.96,5.91,7.46,5.68Zm3.8-151.96c10.99-2.33,140.7,49.94,144.9,50.8.77.16,1.23.33,1.48.44.16.88.08,2.74-.02,4.38-6.61-1.02-14.06-.7-20.87-.4-2.93.13-5.72.26-8.23.26s-4.76,2.12-4.76,4.76,2.13,4.76,4.76,4.76,5.58-.13,8.65-.27c6.81-.3,14.31-.61,20.15.5,0,1.36-.01,2.71,0,4.12,0,1.07,0,2.18,0,3.28-2.11.24-4.19.59-6.23.95-2.98.51-5.79,1.01-8.55,1.12-1.28.05-2.79-.06-4.39-.17-5.29-.37-11.86-.81-16.04,3.02-1.94,1.78-2.07,4.79-.29,6.73.94,1.02,2.22,1.54,3.51,1.54,1.15,0,2.3-.41,3.21-1.25,1.17-1.09,6.24-.74,8.97-.55,1.99.14,3.88.26,5.43.19,3.38-.14,6.64-.71,9.79-1.26,1.49-.26,2.93-.49,4.35-.7-.18,3.22-.48,6.33-1.08,9.03-7.08.48-137.89,46.32-143.1,46.28-2.4-14.17-4.03-127.74-1.63-137.55Z"/></svg>