<?xml version="1.0" encoding="UTF-8"?><svg id="Layer_1" xmlns="http://www.w3.org/2000/svg" viewBox="0 0 512 512"><defs><style>.cls-1{fill:#fdc91e;fill-rule:evenodd;}</style></defs><path class="cls-1" d="m352.81,92.33c-9.81-6.76-1.13-17.55-1.38-26.01-56.82,49.89-120.82,116.47-172.28,177.02-5.36,6.11-12.49,12.42-14.52,16.74-2.66,5.94-.23,24.11-.15,33.05-.06,10.05,2.16,23.92-2.87,32.28-3.3,5.3-11.08,9.68-14.54,15.79-2.04,3.69-.56,7.34-3.08,10.88-2.69,2.74-3.85-1.24-5.28-1.06-17.85,19.17-37.56,44.12-56.68,64.26-4.59,4.68-9.47,10.95-16.03,10.87-2.82-10.67,13.69-21.38,21.88-31.99-4.55-8.58-6.24-17.18-8.87-25.78-7.28,6.78-13.19,22.16-23.09,22.27-4.43-12.26,12.69-24.55,19.11-36.91-11.99-1.65-28.86,3.63-42.62-.07-7.62,5.19-11.8,17.84-19.32,16.48-1.82-6.53,4.51-12.34,7.97-16.84,12.14-15.93,25.38-33.31,40.06-49.57,9-10.15,19.78-18.89,28.29-28.86,2.53-2.9,4.25-7.23,7.41-9.82,5.23-4.05,14.66-3.34,21.98-5.01,7.97-1.99,16.07-5.75,21.49-6.75,4.79-.69,10.72,1.97,14.05-.15,5.88-3.41,15.62-18.19,24.47-28.19,54.79-62.01,121.11-134.83,184.76-189.42-9.71,2.81-18.59,8.96-27.32,13.67-5.72,2.93-21.6,12.36-26.91,7.78-2.09-1.74-4.21-6.02-1.2-8.45,14.08-12.75,39.06-22.1,57.81-30.9,7.79-3.43,15.88-8.79,19.42-6.58,10.59,6.29-5.24,35.01-8.04,42.07-2.5,6.09-6.1,13.96-10.02,21.18-3.93,6.58-6.37,16.82-14.51,18.02h0Zm-227.16,196.87,0,0c6.94-8.36,14.52-16.75,19.23-25.09-6.53,2.14-12.57,3.79-20.07,4.99-6.22,1.18-14.53-.02-19.92,2.9-5.08,2.93-9.81,9.36-15.02,15.32,11.96-.91,23.81,1.84,35.78,1.88h0Zm-61.35,27.43,0,0c10.01-4.41,31.81,4.32,41.01-1.52,5.25-3.09,7.24-10.61,12.77-16.25-9.45-3.26-23.76,3.59-35.17-4.44-6.31,7.4-14.85,14.83-18.61,22.21h0Zm-25.59,28.36,0,0c6.71.25,13.56-.61,22.18-.69,5.58-.21,17.58,1.74,22.03-.86,6.82-4.05,8.17-13.49,16.57-20.12-10.58-4.37-28.51,7.15-39.48-3.28-7.09,8.21-13.09,16.58-21.3,24.95h0Zm99.26-53.19,0,0c7.47,12.7,4.73,25.81,8.04,38.56,3.81-2.92,4.41-6.11,8.06-9.18-2.67-10.83-2.47-24.25-2.11-34.94.13-3.36,1.52-8.32-1.21-9.73-4.1,5.15-7.56,9.97-12.78,15.29h0Zm-23.81,29.77,0,0c3.15,11.94,2.95,23.76,6.58,35.54,4.26-5.31,9.63-10.79,15-16.27-2.84-12.59-3.45-25.19-6.77-37.61-4.72,6.11-9.46,12.23-14.82,18.34h0Zm-25.7,33.63,0,0c3.47,10.66,2.77,21.36,5.11,31.87,7.43-7.25,11.99-14.48,19.26-21.9-3.13-10.02-4.83-20.23-8.29-30.57-5.83,6.92-10.71,13.83-16.08,20.6h0Z"/><path class="cls-1" d="m274.01,325.26c4.36,20.07.39,39.91-1.81,59.89.04,2.87-3.17.98-4.59,3.08-13.65,24.24-42.56,55.03-65.75,82.88-5.53,6.61-16.05,25.07-22.44,22.89-5.29-1.7-7.17-13.97-8.49-18.76-1.99-7.32-2.52-12.91-3.7-19.12-5.75.38-2.61-5.08-4.53-6.01-2.08-1.1-12.43,2.68-17.67,4.16-5.89,1.5-14.14,7.01-18.01,3.21-5.81-6,9.35-22.77,14.56-29.04,24.78-29.15,47.79-59.07,66.05-85.75,1.74-2.42-4.19-4.43-1.34-6.7,13.33-7.8,28.33-9.55,44.44-10.81,4.95-.53,11.83.84,15-1.11,3.17-1.94,7.74-8.86,11.99-14.17,54.57-67.28,116.91-141.5,176.29-207.23-7.65,1.35-20.45,15.05-26.75,6.97-4.7-6.5,13.1-15.63,18.18-18.54,9.53-5.21,18.12-8.49,24.47-12.38,5.87-3.74,10.29-9.21,15.12-5.11,7.08,5.68-.43,22.04-3.06,29.89-1.4,3.68-3.09,9.6-5.92,14.74-2.67,4.66-5.95,11.55-12.18,11.46-8.22-8.38-1.45-16.91-.24-25.23-.17-.48-.01-.95-.5-1.43-63.13,74.07-125.46,148.29-189.07,222.21h0Zm-55.39,16.83h0c-2.16,6.72-8.97,13.67-12.58,20.57,11.17-2.04,22.15-4.53,33.16-6.4,4.72-7.07,13.27-14.18,16.39-21.23-12.26,3.47-24.7,3.91-36.97,7.07h0Zm-19.35,29.42h0c-1.55,3.84-6.31,8.04-7.38,11.72,6.98-3.89,21.71.43,27.9-3.62,4.76-3.24,7.87-10.93,12.45-16.25-10.82,3.62-21.98,5.64-32.97,8.15h0Zm-12.9,19.29h0c-3.81,2.59-4.55,7.54-8.67,11.42,8.46.72,16.75-.96,25.2-1.84,2.03-4.65,8.7-9.19,9.93-13.67-6.36,2.94-21.07.53-26.46,4.1h0Zm-22.52,31.67h0c10.99-2.82,23.95.08,33.54-15.5-11.31,2.51-27.63-.2-33.54,15.5h0Zm-17.65,22.52h0c11.8-2.03,25.36-2.96,33.34-18.21-11.32,1.23-26,2.66-33.34,18.21h0Zm106.51-94.45h0c4.56,8.89,5.16,20.86,5.09,29.96.02,1.92-2,7.84.56,8.46,2.05-2.41,4.11-4.19,6.02-5.49-2.98-10.51-2-23.44-2.1-33.98.13-3.36.87-8.95-.89-9.74-2.2,3.53-5.84,7.24-8.68,10.79h0Zm-14.66,17.54h0c1.92.62,1.13,1.43,3.06,3,1.83,8.77,1.14,19.16,1.54,27.45.18,1.75-.58,5.11,1.34,5.73,2.37-2.42,4.75-4.84,6.96-7.1.5-13.73-1.39-27.29-2.97-41.16-3.63,4.02-6.63,8.05-9.93,12.07h0Zm-9.94,11.75h0c1.13,1.43,4.31.76,3.22,3.16-2.53,2.9-5.11.7-7.47,3.11,5.38,11.61,3.1,23.28,6.41,34.74,3.32-3.06,4.56-5.94,8.21-9.01-3-12.75-5.04-25.5-5.16-37.95-2.7,2.11-2.68,4.02-5.21,5.96h0Zm-23.35,28.33h0c6.65,11.27,5.81,22.78,9.11,33.92,3.3-4.98,8.36-10.14,11.66-15.45-3.15-10.98-5.65-22.29-7.67-33.45-5.7,4.85-7.57,9.99-13.1,14.98h0Zm-13.73,17.54h0c4.9,10.49,5.81,20.85,9.9,31.51,3.64-3.39,4.88-6.59,8.69-9.83-3.63-10.81-5.81-21.81-9.42-32.64-3.96,3.72-5.69,7.41-9.16,10.95h0Zm-13.87,17.7h0c3.15,10.97,4.24,24.38,7.37,34.08,3.14-5.14,7.24-9.96,11.97-15.12-4.07-9.71-8.49-19.4-11.14-29.27-3.32,3.39-5.19,6.91-8.2,10.3h0Z"/></svg>