<?xml version="1.0" encoding="UTF-8"?><svg id="Layer_1" xmlns="http://www.w3.org/2000/svg" viewBox="0 0 512 512"><defs><style>.cls-1{fill:#fdc91e;fill-rule:evenodd;}</style></defs><path class="cls-1" d="m259.55,306.43c-56.8,37.91-115.33,84.57-174.29,123.77-8.45,5.46-18.74,14.6-26.98,13.69-8.96-.84-22.96-19.2-28.27-27.39-5.62-8.73-14.18-25.96-10.15-37.57.75-1.19,182.88-147.3,196.49-156.98-9.42-19.28-25.85-36.18-36.13-57.51-4.1-1.93-6.9-1.71-7.25-7.75,1.98-7.07,10.66-6.06,15.52-7.15,42.15-9.25,86.38-18.66,130.7-27.38,51.26-9.97,103.91-18.21,148.04-32.7,7.01-2.39,17.09-3.33,19.05,3.57,1.35,6.53-11.65,25.75-16.81,33.63-45.09,70.13-87.36,151.03-133.45,219.56-4.02,6.1-13.76,20.41-23.09,20.15-1.56-.16-27.83-32.78-32.43-37.35-6.97-7.91-13.99-16.53-20.97-22.61h0Zm-55.4-149.79h0c6.49,10.77,40.17,55.08,39.01,67.16-.59,6.96-196.94,153.21-209.48,162.23,5.08,7.22,7.47,17.89,14.87,22.24,53.31-39.47,143.45-119.5,197.22-147.87,6.62-3.62,8.81-9.71,13.57-8.54,7.07,1.98,31.69,53.21,50.12,66.71,13.17-20.78,139.08-201.67,135.72-208.45-79.07,16.82-159.96,31.8-241.04,46.53h0Zm-16.66,169.72h0c19.28-14.93,53.37-33.27,67.32-49.75-19.28,14.92-52.03,34.29-67.32,49.75h0Z"/></svg>