<?xml version="1.0" encoding="UTF-8"?><svg id="Layer_1" xmlns="http://www.w3.org/2000/svg" viewBox="0 0 512 170.36"><defs><style>.cls-1{fill:#fff;}.cls-2{fill-rule:evenodd;}</style></defs><path class="cls-1" d="m5.82,18.09l5.46-9.83,5.99-3.3h3.74L87.78,1.56h341.1l61.05,2.67s7.94,1.58,8.85,2.86,4.58,8.08,4.58,8.08c0,0,1.68,5.59,1.98,6.56s-.46,8.51,0,9.24c.46.73.07,20.18.07,20.18l1.6,10.94-1.53,16.78-2.29,35.01,1.53,19.45s-.51,11.18-.64,12.16-1.96,10.21-1.96,10.21l-5.04,5.59-5.42,2.67h-6.63l-43.95,2.37-72.49,1.03-118.43,1.22H121.96l-100.58-2.25-6.1-2.67-3.66-2.98-2.9-4.5-2.9-8.51-.92-11.67.92-117.91Z"/><path class="cls-2" d="m510.4,26.8c-.74-10.78-2.61-16.85-6.43-20.45-1.88-1.77-3.02-2.18-9.05-3.27-10.66-1.93-26.47-2.41-79.34-2.44-19.17-.03-45.1-.16-57.63-.32-28.81-.35-39.27-.39-161.5-.22-59.84.1-105.95.29-113.92.48-7.37.19-20.3.51-28.81.67-19.5.45-25.93.8-31.96,1.83-6.77,1.16-10.05,2.21-12.6,4.08C1.98,12.42.97,19.16,1.65,57.61c.27,12.71.4,23.91.4,24.87-1.27,45.38-1.01,56.04,1.47,64.99.54,1.96,1.27,4.62,1.61,5.97,2.08,7.67,6.9,12.32,14.74,14.25,4.56,1.09,28.41,1.6,119.28,2.6,10.99.13,26.4.06,38.2-.19,11.19-.22,49.59-.42,88.45-.48,37.79-.06,70.63-.19,73.04-.32,2.41-.1,27.61-.32,55.95-.48,66.81-.39,88.46-1.06,97.17-3.02,7.3-1.64,11.66-4.08,13-7.16,1.68-4.08,2.61-17.33,2.61-38.77.07-23.69,1.21-57.52,2.14-63.55.94-6.07,1.27-20.77.67-29.53Zm-7.3,35.95c-1.41,12.9-2.35,35.21-2.41,58.74-.07,24.68-.8,33.86-2.75,36.46-1.54,2.18-4.09,3.5-8.58,4.49-7.84,1.73-28.28,2.44-81.49,2.86-22.31.16-52.14.45-66.34.64-39.34.51-244.93.55-287.14.03-21.98-.26-25.26-.35-28.68-.93-8.91-1.44-11.99-4.53-14.88-14.99-3.35-12.07-3.35-11.14-2.75-97.09.2-34.12.4-36.65,3.48-41.4,3.15-4.88,8.64-6.03,32.1-6.74,6.63-.19,14.81-.48,18.09-.67,16.62-.9,36.79-1.03,152.12-.99,178.85.03,248.01.32,263.69,1.03,9.92.45,18.36,2.31,20.77,4.53,2.48,2.25,4.89,9.89,5.63,17.46.4,4.75-.2,30.11-.87,36.59Z"/><path class="cls-2" d="m490.7,8.6c-1.81-1.16-4.29-1.25-35.58-1.44-30.89-.19-50.59.03-50.59.58,0,.16,10.32.29,23.99.32,13.13,0,31.63.13,41.01.22,16.28.22,17.22.26,19.63.96,2.55.8,3.35.48,1.54-.64Z"/><path class="cls-2" d="m370.14,7.38c-2.68,0-8.51-.26-12.87-.55-7.3-.51-15.35-.58-85.1-.61-53.61,0-80.35-.13-87.79-.39-5.9-.22-20.77-.55-33.1-.71-18.16-.26-24.59-.22-33.84.16-6.3.22-20.64.61-31.9.8-26.4.45-48.45,1.16-55.49,1.77-6.77.55-12.53,1.77-13.2,2.7-.8,1.22.27,1.32,3.89.35,2.35-.61,5.96-1.16,10.92-1.6,7.84-.71,12.93-.9,48.52-1.73,11.99-.26,27.34-.74,34.18-1.03,10.12-.45,16.28-.51,33.84-.32,11.79.13,26.74.39,33.17.58,7.71.26,38.13.39,88.45.42,53.88.03,78.74.16,83.43.42,8.38.45,21.78.51,21.78.06,0-.19-2.08-.32-4.89-.32Z"/><path class="cls-2" d="m136,162.24c-18.56.77-53.27.99-76.26.48-10.05-.22-14.68-.48-22.11-1.25-8.44-.87-10.59-.99-9.58-.51.13.1,4.02.61,8.64,1.16,6.3.74,10.79,1.06,18.7,1.25,20.3.58,69.63.26,81.96-.51,4.96-.29,3.82-.83-1.34-.61Z"/></svg>