<?xml version="1.0" encoding="UTF-8"?><svg id="Layer_1" xmlns="http://www.w3.org/2000/svg" viewBox="0 0 512 100"><defs><style>.cls-1{fill:#fdc91e;}.cls-2{fill-rule:evenodd;}</style></defs><path class="cls-1" d="m4.54,12.72l5.48-5.46,6.02-1.83h3.76l67.11-1.89h342.84l61.36,1.49s7.98.88,8.9,1.59,4.6,4.49,4.6,4.49c0,0,1.69,3.11,1.99,3.65s-.46,4.73,0,5.13.07,11.21.07,11.21l1.61,6.08-1.53,9.32-2.3,19.45,1.53,10.81s-.51,6.21-.64,6.76c-.13.54-1.97,5.67-1.97,5.67l-5.06,3.11-5.45,1.49h-6.67l-44.18,1.32-72.86.57-119.04.68H121.28l-101.09-1.25-6.14-1.49-3.68-1.66-2.91-2.5-2.91-4.73-.92-6.48.92-65.53Z"/><g><path class="cls-2" d="m511.7,17.56c-.74-5.99-2.63-9.36-6.47-11.36-1.89-.98-3.03-1.21-9.09-1.82-10.71-1.07-26.6-1.34-79.75-1.36-19.26-.02-45.33-.09-57.92-.18-28.96-.2-39.47-.21-162.32-.12-60.15.05-106.49.16-114.5.27-7.41.11-20.41.29-28.96.37-19.6.25-26.07.45-32.13,1.02-6.8.64-10.1,1.23-12.66,2.27C.68,9.56-.33,13.31.35,34.68c.27,7.06.4,13.29.4,13.82-1.28,25.22-1.01,31.14,1.48,36.12.54,1.09,1.28,2.57,1.62,3.32,2.09,4.26,6.94,6.85,14.82,7.92,4.58.61,28.56.89,119.89,1.44,11.05.07,26.54.04,38.39-.11,11.25-.12,49.84-.23,88.91-.27,37.99-.04,70.99-.11,73.42-.18,2.42-.05,27.75-.18,56.24-.27,67.15-.21,88.91-.59,97.66-1.68,7.34-.91,11.72-2.27,13.07-3.98,1.68-2.27,2.63-9.63,2.63-21.55.07-13.16,1.21-31.96,2.16-35.32.94-3.37,1.28-11.54.67-16.41Zm-7.34,19.98c-1.41,7.17-2.36,19.57-2.42,32.64-.07,13.72-.81,18.82-2.76,20.26-1.55,1.21-4.11,1.94-8.62,2.5-7.88.96-28.42,1.36-81.9,1.59-22.43.09-52.4.25-66.68.36-39.54.29-246.18.3-288.61.02-22.09-.14-25.39-.2-28.83-.52-8.96-.8-12.06-2.51-14.95-8.33-3.37-6.71-3.37-6.19-2.76-53.95.2-18.96.4-20.37,3.5-23.01,3.17-2.71,8.69-3.35,32.26-3.75,6.67-.11,14.89-.27,18.19-.37,16.7-.5,36.98-.57,152.89-.55,179.77.02,249.28.18,265.04.57,9.97.25,18.45,1.28,20.88,2.51,2.49,1.25,4.92,5.49,5.66,9.7.4,2.64-.2,16.73-.88,20.33Z"/><path class="cls-2" d="m491.89,7.44c-1.82-.64-4.31-.7-35.76-.8-31.05-.11-50.85.02-50.85.32,0,.09,10.37.16,24.11.18,13.2,0,31.79.07,41.22.12,16.37.12,17.31.14,19.73.54,2.56.45,3.37.27,1.55-.36Z"/><path class="cls-2" d="m370.72,6.76c-2.69,0-8.55-.14-12.93-.3-7.34-.29-15.42-.32-85.54-.34-53.88,0-80.76-.07-88.23-.21-5.93-.12-20.88-.3-33.27-.39-18.25-.14-24.72-.12-34.01.09-6.33.12-20.75.34-32.06.45-26.54.25-48.7.64-55.77.98-6.8.3-12.6.98-13.27,1.5-.81.68.27.73,3.91.2,2.36-.34,5.99-.64,10.98-.89,7.88-.39,13-.5,48.76-.96,12.06-.14,27.48-.41,34.35-.57,10.17-.25,16.37-.29,34.01-.18,11.85.07,26.87.21,33.34.32,7.75.14,38.32.21,88.91.23,54.15.02,79.14.09,83.86.23,8.42.25,21.89.29,21.89.04,0-.11-2.09-.18-4.92-.18Z"/><path class="cls-2" d="m135.39,92.82c-18.66.43-53.55.55-76.65.27-10.1-.12-14.75-.27-22.23-.7-8.49-.48-10.64-.55-9.63-.29.13.05,4.04.34,8.69.64,6.33.41,10.84.59,18.79.7,20.41.32,69.98.14,82.37-.29,4.98-.16,3.84-.46-1.35-.34Z"/></g></svg>