<?xml version="1.0" encoding="utf-8"?>
<!-- Generator: Adobe Illustrator 27.2.0, SVG Export Plug-In . SVG Version: 6.00 Build 0)  -->
<svg version="1.1" id="Layer_1" xmlns="http://www.w3.org/2000/svg" xmlns:xlink="http://www.w3.org/1999/xlink" x="0px" y="0px"
	 viewBox="0 0 512 100" style="enable-background:new 0 0 512 100;" xml:space="preserve">
<style type="text/css">
	.st0{fill-rule:evenodd;clip-rule:evenodd;}
</style>
<path class="st0" d="M511.7,17.6c-0.7-6-2.6-9.4-6.5-11.4c-1.9-1-3-1.2-9.1-1.8C485.4,3.3,469.5,3,416.4,3
	c-19.3,0-45.3-0.1-57.9-0.2c-29-0.2-39.5-0.2-162.3-0.1C136,2.8,89.7,2.9,81.7,3c-7.4,0.1-20.4,0.3-29,0.4
	c-19.6,0.2-26.1,0.5-32.1,1C13.8,5,10.5,5.6,7.9,6.6c-7.2,2.9-8.2,6.7-7.6,28C0.6,41.7,0.8,48,0.8,48.5c-1.3,25.2-1,31.1,1.5,36.1
	c0.5,1.1,1.3,2.6,1.6,3.3c2.1,4.3,6.9,6.8,14.8,7.9c4.6,0.6,28.6,0.9,119.9,1.4c11.1,0.1,26.5,0,38.4-0.1
	c11.2-0.1,49.8-0.2,88.9-0.3c38,0,71-0.1,73.4-0.2c2.4-0.1,27.8-0.2,56.2-0.3c67.1-0.2,88.9-0.6,97.7-1.7c7.3-0.9,11.7-2.3,13.1-4
	c1.7-2.3,2.6-9.6,2.6-21.6c0.1-13.2,1.2-32,2.2-35.3C512,30.6,512.3,22.4,511.7,17.6L511.7,17.6z M504.4,37.5
	c-1.4,7.2-2.4,19.6-2.4,32.6c-0.1,13.7-0.8,18.8-2.8,20.3c-1.5,1.2-4.1,1.9-8.6,2.5c-7.9,1-28.4,1.4-81.9,1.6
	c-22.4,0.1-52.4,0.2-66.7,0.4c-39.5,0.3-246.2,0.3-288.6,0c-22.1-0.1-25.4-0.2-28.8-0.5c-9-0.8-12.1-2.5-14.9-8.3
	c-3.4-6.7-3.4-6.2-2.8-54c0.2-19,0.4-20.4,3.5-23c3.2-2.7,8.7-3.3,32.3-3.8C49.3,5.2,57.5,5.1,60.8,5c16.7-0.5,37-0.6,152.9-0.6
	c179.8,0,249.3,0.2,265,0.6c10,0.2,18.5,1.3,20.9,2.5c2.5,1.2,4.9,5.5,5.7,9.7C505.7,19.8,505.1,33.9,504.4,37.5L504.4,37.5z"/>
<path class="st0" d="M491.9,7.4c-1.8-0.6-4.3-0.7-35.8-0.8c-31-0.1-50.9,0-50.9,0.3c0,0.1,10.4,0.2,24.1,0.2
	c13.2,0,31.8,0.1,41.2,0.1c16.4,0.1,17.3,0.1,19.7,0.5C492.9,8.2,493.7,8.1,491.9,7.4z"/>
<path class="st0" d="M370.7,6.8c-2.7,0-8.5-0.1-12.9-0.3c-7.3-0.3-15.4-0.3-85.5-0.3c-53.9,0-80.8-0.1-88.2-0.2
	c-5.9-0.1-20.9-0.3-33.3-0.4c-18.2-0.1-24.7-0.1-34,0.1C110.4,5.7,96,6,84.7,6.1C58.1,6.3,36,6.7,28.9,7c-6.8,0.3-12.6,1-13.3,1.5
	c-0.8,0.7,0.3,0.7,3.9,0.2c2.4-0.3,6-0.6,11-0.9c7.9-0.4,13-0.5,48.8-1c12.1-0.1,27.5-0.4,34.3-0.6c10.2-0.2,16.4-0.3,34-0.2
	c11.9,0.1,26.9,0.2,33.3,0.3c7.8,0.1,38.3,0.2,88.9,0.2c54.1,0,79.1,0.1,83.9,0.2c8.4,0.2,21.9,0.3,21.9,0
	C375.7,6.8,373.6,6.8,370.7,6.8L370.7,6.8z"/>
<path class="st0" d="M135.4,92.8c-18.7,0.4-53.6,0.6-76.7,0.3C48.6,93,44,92.8,36.5,92.4c-8.5-0.5-10.6-0.6-9.6-0.3
	c0.1,0.1,4,0.3,8.7,0.6c6.3,0.4,10.8,0.6,18.8,0.7c20.4,0.3,70,0.1,82.4-0.3C141.7,93,140.6,92.7,135.4,92.8L135.4,92.8z"/>
</svg>
