<?xml version="1.0" encoding="UTF-8"?><svg id="Layer_1" xmlns="http://www.w3.org/2000/svg" viewBox="0 0 512 134.45"><defs><style>.cls-1{fill:#fcc81f;}.cls-2{fill-rule:evenodd;}</style></defs><path class="cls-1" d="m7.36,14.28l5.42-7.75,5.95-2.6h3.71L88.81,1.23h339.01l60.67,2.11s7.89,1.25,8.8,2.25c.91,1.01,4.55,6.38,4.55,6.38,0,0,1.67,4.41,1.97,5.18s-.46,6.72,0,7.29.07,15.93.07,15.93l1.59,8.63-1.52,13.24-2.28,27.63,1.52,15.35s-.51,8.83-.63,9.59-1.95,8.06-1.95,8.06l-5.01,4.41-5.39,2.11h-6.59l-43.68,1.87-72.05.81-117.7.96h-127.41l-99.96-1.77-6.07-2.11-3.64-2.35-2.88-3.55-2.88-6.72-.91-9.21.91-93.06Z"/><path class="cls-2" d="m508.83,21.15c-.73-8.51-2.6-13.3-6.39-16.14-1.86-1.39-3-1.72-8.99-2.58-10.59-1.52-26.31-1.9-78.85-1.93-19.05-.03-44.82-.13-57.28-.25C328.68-.03,318.29-.05,196.81.07c-59.47.08-105.29.23-113.22.38-7.33.15-20.18.41-28.64.53-19.38.35-25.77.63-31.77,1.44-6.73.91-9.99,1.75-12.52,3.22C3.54,9.8,2.54,15.12,3.21,45.47c.27,10.03.4,18.87.4,19.63-1.27,35.82-1,44.23,1.47,51.3.53,1.55,1.27,3.65,1.6,4.71,2.06,6.05,6.86,9.73,14.65,11.25,4.53.86,28.24,1.27,118.55,2.05,10.92.1,26.24.05,37.96-.15,11.12-.18,49.28-.33,87.91-.38,37.56-.05,70.2-.15,72.59-.25,2.4-.08,27.44-.25,55.61-.38,66.4-.3,87.91-.84,96.57-2.38,7.26-1.29,11.59-3.22,12.92-5.65,1.67-3.22,2.6-13.68,2.6-30.6.07-18.69,1.2-45.39,2.13-50.16.93-4.79,1.27-16.39.67-23.3Zm-7.26,28.37c-1.4,10.18-2.33,27.79-2.4,46.36-.07,19.48-.8,26.72-2.73,28.78-1.53,1.72-4.06,2.76-8.52,3.55-7.79,1.37-28.11,1.93-80.99,2.25-22.18.13-51.81.35-65.93.51-39.09.41-243.42.43-285.38.03-21.84-.2-25.11-.28-28.5-.73-8.86-1.14-11.92-3.57-14.78-11.83-3.33-9.52-3.33-8.79-2.73-76.63.2-26.93.4-28.93,3.46-32.68,3.13-3.85,8.59-4.76,31.9-5.32,6.59-.15,14.72-.38,17.98-.53,16.52-.71,36.56-.81,151.18-.79,177.75.03,246.49.25,262.07.81,9.86.35,18.25,1.82,20.65,3.57,2.46,1.77,4.86,7.8,5.59,13.78.4,3.75-.2,23.76-.87,28.88Z"/><path class="cls-2" d="m489.25,6.79c-1.8-.91-4.26-.99-35.36-1.14-30.7-.15-50.28.03-50.28.46,0,.13,10.26.23,23.84.25,13.05,0,31.44.1,40.76.18,16.18.18,17.12.2,19.51.76,2.53.63,3.33.38,1.53-.51Z"/><path class="cls-2" d="m369.44,5.82c-2.66,0-8.46-.2-12.79-.43-7.26-.41-15.25-.46-84.58-.48-53.28,0-79.85-.1-87.25-.3-5.86-.18-20.65-.43-32.9-.56-18.05-.2-24.44-.18-33.63.13-6.26.18-20.51.48-31.7.63-26.24.35-48.15.91-55.14,1.39-6.73.43-12.45,1.39-13.12,2.13-.8.96.27,1.04,3.86.28,2.33-.48,5.93-.91,10.86-1.27,7.79-.56,12.85-.71,48.22-1.37,11.92-.2,27.17-.58,33.97-.81,10.06-.35,16.18-.41,33.63-.25,11.72.1,26.57.3,32.97.46,7.66.2,37.9.3,87.91.33,53.55.03,78.26.13,82.92.33,8.32.35,21.64.41,21.64.05,0-.15-2.06-.25-4.86-.25Z"/><path class="cls-2" d="m136.74,128.05c-18.45.61-52.95.79-75.79.38-9.99-.18-14.59-.38-21.98-.99-8.39-.68-10.52-.79-9.52-.41.13.08,4,.48,8.59.91,6.26.58,10.72.84,18.58.99,20.18.46,69.2.2,81.45-.41,4.93-.23,3.8-.66-1.33-.48Z"/></svg>