<?xml version="1.0" encoding="UTF-8"?><svg id="Layer_1" xmlns="http://www.w3.org/2000/svg" viewBox="0 0 911.25 81"><defs><style>.cls-1{fill:#fdc91e;}.cls-2{fill-rule:evenodd;}</style></defs><path class="cls-1" d="m2.91,8.93l2.76-4.62,3.03-1.55h1.89l33.76-1.6h824.91l30.87,1.26s4.01.74,4.48,1.34,2.31,3.8,2.31,3.8c0,0,.85,2.63,1,3.09s-.23,4,0,4.35.04,9.49.04,9.49l.81,5.15-.77,7.89-1.16,16.47.77,9.15s-.26,5.26-.32,5.72-.99,4.8-.99,4.8l-2.55,2.63-2.74,1.26h-3.35l-22.22,1.12-36.65.48-59.88.57H61.63l-50.85-1.06-3.09-1.26-1.85-1.4-1.47-2.12-1.47-4-.46-5.49.46-55.48Z"/><g><path class="cls-2" d="m910.47,13.03c-.37-5.07-1.32-7.93-3.25-9.62-.95-.83-1.52-1.03-4.57-1.54-5.39-.91-13.38-1.13-40.11-1.15-9.69-.02-22.8-.08-29.14-.15-14.57-.17-672.3-.18-734.1-.11-30.26.05-53.57.14-57.6.23-3.73.09-10.27.24-14.57.32-9.86.21-13.11.38-16.16.86-3.42.54-5.08,1.04-6.37,1.92C.97,6.27.46,9.44.8,27.53c.14,5.98.2,11.25.2,11.7-.64,21.35-.51,26.37.75,30.58.27.92.64,2.17.81,2.81,1.05,3.61,3.49,5.8,7.45,6.7,2.3.51,14.37.76,60.31,1.22,5.56.06,13.35.03,19.31-.09,5.66-.11,677.52-.2,697.17-.23,19.11-.03,35.71-.09,36.93-.15,1.22-.05,13.96-.15,28.29-.23,33.78-.18,44.72-.5,49.13-1.42,3.69-.77,5.9-1.92,6.57-3.37.85-1.92,1.32-8.15,1.32-18.24.03-11.14.61-27.06,1.08-29.9.47-2.85.64-9.77.34-13.89Zm-3.69,16.91c-.71,6.07-1.19,16.57-1.22,27.63-.03,11.61-.41,15.93-1.39,17.15-.78,1.03-2.07,1.65-4.34,2.11-3.96.82-14.3,1.15-41.2,1.34-11.28.08-26.36.21-33.54.3-19.89.24-776.28.26-797.62.02-11.11-.12-12.77-.17-14.5-.44-4.51-.68-6.06-2.13-7.52-7.05-1.69-5.68-1.69-5.24-1.39-45.68.1-16.05.2-17.25,1.76-19.48,1.59-2.3,4.37-2.84,16.23-3.17,3.35-.09,7.49-.23,9.15-.32,8.4-.42,18.6-.48,76.91-.47,90.43.02,777.84.15,785.77.48,5.01.21,9.28,1.09,10.5,2.13,1.25,1.06,2.47,4.65,2.85,8.21.2,2.23-.1,14.16-.44,17.21Z"/><path class="cls-2" d="m900.51,4.47c-.91-.54-2.17-.59-17.99-.68-15.62-.09-25.58.02-25.58.27,0,.08,5.22.14,12.13.15,6.64,0,15.99.06,20.74.11,8.23.11,8.71.12,9.93.45,1.29.38,1.69.23.78-.3Z"/><path class="cls-2" d="m839.56,3.89c-1.36,0-4.3-.12-6.51-.26-3.69-.24-7.76-.27-43.03-.29-27.1,0-693.07-.06-696.83-.18-2.98-.11-10.5-.26-16.74-.33-9.18-.12-12.43-.11-17.11.08-3.18.11-10.44.29-16.13.38-13.35.21-24.5.54-28.05.83-3.42.26-6.34.83-6.67,1.27-.41.57.14.62,1.97.17,1.19-.29,3.02-.54,5.52-.76,3.96-.33,6.54-.42,24.53-.82,6.06-.12,13.82-.35,17.28-.48,5.12-.21,8.23-.24,17.11-.15,5.96.06,13.52.18,16.77.27,3.9.12,671.72.18,697.17.2,27.24.02,39.81.08,42.18.2,4.24.21,11.01.24,11.01.03,0-.09-1.05-.15-2.47-.15Z"/><path class="cls-2" d="m68.73,76.76c-9.38.36-26.94.47-38.56.23-5.08-.11-7.42-.23-11.18-.59-4.27-.41-5.35-.47-4.85-.24.07.05,2.03.29,4.37.54,3.18.35,5.45.5,9.45.59,10.27.27,35.2.12,41.44-.24,2.51-.14,1.93-.39-.68-.29Z"/></g></svg>