<?xml version="1.0" encoding="utf-8"?>
<!-- Generator: Adobe Illustrator 27.2.0, SVG Export Plug-In . SVG Version: 6.00 Build 0)  -->
<svg version="1.1" id="Layer_1" xmlns="http://www.w3.org/2000/svg" xmlns:xlink="http://www.w3.org/1999/xlink" x="0px" y="0px"
	 viewBox="0 0 911.2 81" style="enable-background:new 0 0 911.2 81;" xml:space="preserve">
<style type="text/css">
	.st0{fill-rule:evenodd;clip-rule:evenodd;}
</style>
<g>
	<g>
		<path class="st0" d="M911.1,13.3c-0.2-5-0.7-7.8-1.9-9.5c-0.6-0.8-0.9-1.1-2.6-1.5c-3.1-0.8-7.6-1.2-23-1.2
			c-5.5,0-13-0.1-16.7-0.1C858.7,0.9,91.8,0.9,56.4,0.9C39.1,0.9,25.8,1,23.5,1.1c-2.1,0.1-5.9,0.2-8.3,0.3C9.5,1.6,7.7,1.8,6,2.2
			C3.9,2.9,3,3.3,2.3,4.1C0.1,6.7-0.1,9.7,0.1,27.7c0.1,5.9,0.1,11.1,0.1,11.6c-0.3,21.2-0.3,26.1,0.4,30.3c0.2,1,0.3,2.1,0.5,2.8
			c0.6,3.5,2,5.7,4.3,6.6c1.3,0.5,8.2,0.7,34.5,1.2c3.2,0.1,7.6,0,11-0.1c3.2-0.1,778.3-0.2,789.5-0.2c10.9,0,20.4-0.1,21.1-0.1
			c0.7,0,8-0.1,16.2-0.2c19.3-0.2,25.6-0.5,28.1-1.4c2.1-0.7,3.4-1.9,3.8-3.4c0.5-1.9,0.7-8,0.7-18.1c0-11,0.3-26.8,0.6-29.6
			C911.2,24.2,911.4,17.5,911.1,13.3z M909,30.1c-0.4,6-0.7,16.4-0.7,27.4c0,11.5-0.2,15.8-0.8,17c-0.5,1.1-1.2,1.6-2.5,2.1
			c-2.3,0.8-8.2,1.2-23.6,1.4c-6.4,0.1-15.1,0.2-19.2,0.3c-11.4,0.2-834.8,0.2-847,0C8.9,78.2,8,78.1,7,77.9c-2.6-0.6-3.5-2.1-4.3-7
			c-1-5.6-1-5.2-0.8-45.2C2,9.6,2,8.5,2.9,6.3s2.5-2.9,9.3-3.2c1.9-0.1,4.3-0.2,5.2-0.3c4.8-0.4,10.7-0.5,44-0.4
			c51.7,0,835.7,0.1,840.2,0.5c2.8,0.2,5.3,1.1,6,2.1c0.7,1.1,1.4,4.7,1.7,8.1C909.4,15.2,909.3,27.1,909,30.1z"/>
		<path class="st0" d="M905.6,4.9c-0.5-0.5-1.2-0.6-10-0.6c-8.7-0.1-14.3,0-14.3,0.3c0,0.1,2.9,0.1,6.8,0.1c3.7,0,8.9,0.1,11.6,0.1
			c4.6,0.1,4.8,0.1,5.5,0.4C905.9,5.5,906.1,5.4,905.6,4.9z"/>
		<path class="st0" d="M870.6,4.2c-0.8,0-2.4-0.1-3.7-0.2c-2.1-0.2-4.4-0.3-24.6-0.3c-15.5,0-787.2,0-789.3-0.1
			c-1.7-0.1-6-0.2-9.6-0.3c-5.3-0.2-7.1-0.1-9.8,0c-1.8,0.1-6,0.3-9.2,0.4c-7.6,0.2-14,0.5-16.1,0.8C6.4,4.8,4.6,5.4,4.5,5.8
			C4.2,6.4,4.5,6.4,5.6,5.9c0.7-0.3,1.7-0.5,3.1-0.7c2.3-0.3,3.8-0.4,14-0.8c3.5-0.1,7.9-0.3,9.9-0.4c2.9-0.2,4.7-0.2,9.8-0.1
			C45.9,3.9,50.2,4,52,4.1c2.2,0.1,775,0.2,789.5,0.2c15.6,0,22.8,0.1,24.1,0.2c2.4,0.2,6.3,0.2,6.3,0S871.4,4.2,870.6,4.2z"/>
		<path class="st0" d="M38.9,76.4c-5.4,0.3-15.4,0.4-22,0.2c-2.9-0.1-4.3-0.2-6.4-0.6c-2.4-0.4-3.1-0.4-2.8-0.2
			c0.1,0,1.1,0.3,2.5,0.5c1.8,0.3,3.1,0.5,5.4,0.6c5.9,0.3,20.2,0.1,23.7-0.2C40.8,76.6,40.4,76.3,38.9,76.4z"/>
	</g>
</g>
</svg>
