<?xml version="1.0" encoding="utf-8"?>
<!-- Generator: Adobe Illustrator 27.2.0, SVG Export Plug-In . SVG Version: 6.00 Build 0)  -->
<svg version="1.1" id="Layer_1" xmlns="http://www.w3.org/2000/svg" xmlns:xlink="http://www.w3.org/1999/xlink" x="0px" y="0px"
	 viewBox="0 0 1466.7 488.9" style="enable-background:new 0 0 1466.7 488.9;" xml:space="preserve">
<style type="text/css">
	.st0{fill-rule:evenodd;clip-rule:evenodd;}
</style>
<g>
	<path class="st0" d="M1462.5,19.2c-0.7-3.5-1.6-3.8-13.5-4.4c-11.8-0.6-19.3,0.1-19.3,1.7c0,0.5,3.9,0.9,9.1,1c5,0,12,0.4,15.6,0.7
		c6.2,0.7,6.6,0.8,7.5,2.9C1462.9,23.5,1463.2,22.6,1462.5,19.2z"/>
	<g>
		<path class="st0" d="M1466.5,76.5c-0.3-30.8-1.2-48.1-3-58.4c-0.9-5-1.4-6.2-4.2-9.4c-5-5.5-12.3-6.9-36.9-7
			c-8.9-0.1-21-0.5-26.8-0.9c-13.4-1-1247.8-1.1-1304.7-0.6C63,0.5,41.5,1.1,37.8,1.6c-3.4,0.5-9.5,1.5-13.4,1.9
			C15.3,4.8,12.3,5.9,9.5,8.8c-3.2,3.3-4.7,6.3-5.9,11.6c-3.3,15-3.8,34.3-3.5,144.1c0.1,36.3,0.2,68.3,0.2,71.1
			C-0.2,365.3-0.1,395.7,1,421.3c0.2,5.6,0.6,13.2,0.8,17c1,21.9,3.2,35.2,6.9,40.7c2.1,3.1,13.2,4.6,55.5,7.4
			c5.1,0.4,12.3,0.2,17.8-0.5c5.2-0.6,1252.6-1.2,1270.7-1.4c17.6-0.2,32.9-0.5,34-0.9c1.1-0.3,12.9-0.9,26-1.4
			c31.1-1.1,41.2-3,45.2-8.6c3.4-4.7,5.4-11.6,6.1-20.5c0.8-11.6,1.2-49.5,1.2-110.8c0-67.7,0.6-164.3,1-181.5
			C1466.7,143.6,1466.8,101.6,1466.5,76.5L1466.5,76.5z M1463.1,179.2c-0.7,36.9-1.1,100.6-1.1,167.8c0,70.5-0.4,96.7-1.3,104.2
			c-0.7,6.2-1.9,10-4,12.8c-3.6,4.9-13.2,7-37.9,8.2c-10.4,0.5-24.3,1.3-30.9,1.8c-18.3,1.5-1343.6,1.6-1363.2,0.1
			c-10.2-0.7-11.8-1-13.3-2.7c-4.2-4.1-5.6-12.9-6.9-42.8c-1.6-34.5-1.6-31.8-1.3-277.4C3.2,53.8,3.3,46.6,4.8,33
			c1.5-13.9,4-17.2,14.9-19.3c3.1-0.5,6.9-1.4,8.4-1.9C35.9,9.2,45.3,8.9,98.9,9c83.3,0.1,1345,0.9,1352.3,2.9
			c4.6,1.3,8.5,6.6,9.7,12.9c1.2,6.4,2.3,28.2,2.6,49.9C1463.7,88.3,1463.5,160.7,1463.1,179.2L1463.1,179.2z"/>
		<path class="st0" d="M1401.3,21.1c-1.2,0-4-0.7-6-1.6c-3.4-1.5-7.1-1.6-39.6-1.7c-25,0-1267-0.4-1270.4-1.1
			c-2.7-0.6-9.7-1.6-15.4-2c-8.5-0.7-11.4-0.6-15.7,0.5c-2.9,0.6-9.6,1.7-14.9,2.3c-12.3,1.3-22.6,3.3-25.8,5
			c-3.2,1.6-5.8,5-6.1,7.7c-0.4,3.5,0.1,3.8,1.8,1c1.1-1.7,2.8-3.3,5.1-4.6c3.6-2,6-2.6,22.6-4.9c5.6-0.7,12.7-2.1,15.9-2.9
			c4.7-1.3,7.6-1.5,15.7-0.9c5.5,0.4,12.4,1.1,15.4,1.6c3.6,0.7,1247.3,1.1,1270.7,1.2c25.1,0.1,36.6,0.5,38.8,1.2
			c3.9,1.3,10.1,1.5,10.1,0.2C1403.5,21.5,1402.6,21.1,1401.3,21.1L1401.3,21.1z"/>
	</g>
	<path class="st0" d="M294.6,484.6c-7.2,2.3-20.8,3-29.7,1.5c-3.9-0.7-5.7-1.5-8.6-3.8c-3.3-2.6-4.1-3-3.7-1.6
		c0.1,0.3,1.6,1.8,3.4,3.5c2.5,2.2,4.2,3.2,7.3,3.8c7.9,1.7,27.1,0.8,31.9-1.6C297.1,485.6,296.7,483.9,294.6,484.6L294.6,484.6z"/>
</g>
</svg>
