<?xml version="1.0" encoding="UTF-8"?><svg id="Layer_1" xmlns="http://www.w3.org/2000/svg" viewBox="0 0 600.79 6.28"><defs><style>.cls-1{fill-rule:evenodd;}</style></defs><path class="cls-1" d="m549.17,3.44c15.08-.03,32.69-.06,51.62-.09V.7c-88.24.06-196.63.13-325.46.2-81.73.03-190.57.11-241.87.14-10.87,0-22.18,0-33.46,0v2.51c177.3.06,476.67.04,549.17-.1Z"/><path class="cls-1" d="m600.79,4.8c-87.79.23-211.56.26-385.23.1-71.87-.05-110.09,0-146.93.27-19.8.13-44.39.15-68.63.09v.99c29.14.09,44.81.02,114.09-.34,33.64-.16,63.39-.3,66.03-.27,7.92.05,72.7.11,135.53.11,32.11-.03,70.34.08,84.79.22,31.05.27,120.83.17,200.35-.11v-1.06Z"/></svg>