<?xml version="1.0" encoding="UTF-8"?><svg id="Layer_1" xmlns="http://www.w3.org/2000/svg" viewBox="0 0 1080 1080"><defs><style>.cls-1{fill:#fdc91e;}.cls-2{fill:#fff;}.cls-3{fill:#92cfa3;}</style></defs><path d="m2.29,581.89c-.21-.4,1.3-2.07,1.54-2.53.6-1.13,1.1-2.26,1.84-3.32,1.47-2.11,2.75-4.32,4.23-6.43s2.67-4.44,3.74-6.85,2.48-4.21,3.84-6.33c1.45-2.24,3.03-4.37,4.36-6.7s2.46-4.59,3.65-6.9,2.83-4.19,4.06-6.4c1.3-2.33,2.12-4.92,3.8-7.02,1.53-1.91,2.9-3.85,4.17-5.96s2.78-4.05,4.29-6.05c.71-.94,1.2-1.95,1.77-2.97.62-1.1,1.44-2.06,2.25-3.02,1.62-1.91,3.1-3.92,4.62-5.91,3.34-4.38,6.91-8.48,10.49-12.65s6.65-8.29,10.26-12.18c1.74-1.87,3.55-3.64,5.15-5.64s3.07-4.06,4.78-5.95c1.82-2,3.81-3.84,5.72-5.76,1.77-1.78,3.48-3.64,5.42-5.25,2.09-1.73,4.2-3.49,6.47-4.97,2.09-1.37,3.65-3.31,5.5-4.95s4.07-3.2,5.98-4.96,3.87-3.75,5.65-5.75c.79-.89,1.46-1.83,2.18-2.77.79-1.04,2-1.55,2.94-2.43.87-.82,1.59-1.81,2.36-2.72.86-1.03,1.8-1.97,2.74-2.94,1.8-1.85,3.58-3.64,5.69-5.15,1.99-1.42,3.67-3.18,5.43-4.87s3.5-3.27,5.12-5.12c1.75-2,3.87-3.57,5.94-5.22s4.15-3.44,6.39-4.95c2.01-1.35,4.06-2.65,5.93-4.21,2.02-1.68,4.28-3.01,6.39-4.57s4.25-3.36,6.48-4.88c4.23-2.9,8.79-5.33,12.95-8.33,2.16-1.56,4.34-3.02,6.74-4.19,2.1-1.03,4.07-1.96,5.95-3.38s3.54-2.92,5.46-4.18c2.14-1.41,4.56-2.26,6.95-3.17,2.23-.85,4.22-2.08,6.36-3.12.97-.47.54-2.21-.57-2.09l-.34.04c-1.42.16-1.44,2.4,0,2.25l.34-.04-.57-2.09c-2.38,1.17-4.6,2.43-7.09,3.38-2.27.87-4.52,1.76-6.54,3.13-1.9,1.29-3.61,2.83-5.45,4.2-2.02,1.5-4.23,2.41-6.45,3.56-2.37,1.23-4.46,2.8-6.66,4.29s-4.42,2.78-6.59,4.22-4.43,2.72-6.54,4.24-4.29,3.34-6.49,4.93-4.24,2.88-6.26,4.52-4.28,2.95-6.4,4.45-4.1,3.25-6.14,4.88-4.16,3.35-5.94,5.42c-1.64,1.9-3.54,3.46-5.32,5.22s-3.69,3.29-5.68,4.86-3.78,3.51-5.59,5.36-3.16,4.09-5.26,5.53-3.39,3.74-5.13,5.58c-1.84,1.95-3.74,3.87-5.77,5.64s-4.15,3.21-6.02,5.07c-.91.91-1.79,1.86-2.79,2.68s-2.22,1.42-3.25,2.25c-2.08,1.66-4.23,3.31-6.18,5.12s-3.66,3.69-5.52,5.51-3.89,3.78-5.59,5.89-3.15,4.15-4.88,6.11-3.67,3.8-5.41,5.8-3.51,4.19-5.24,6.3c-3.4,4.16-7.09,8.07-10.43,12.29-1.66,2.09-3.27,4.22-4.89,6.35-1.53,2-3.22,3.88-4.71,5.9-.73,1-1.2,2.11-1.84,3.16s-1.52,2.03-2.31,3.03c-1.57,1.98-2.74,4.21-4.1,6.33s-3.16,3.8-4.28,5.98c-1.27,2.45-2.29,4.93-3.9,7.2-3.06,4.31-4.98,9.29-7.86,13.73-1.42,2.2-2.89,4.42-4.46,6.52s-2.29,4.47-3.44,6.73c-1.24,2.43-2.99,4.49-4.43,6.79-1.33,2.13-2.71,4.21-3.83,6.45-.9,1.8-2.85,3.03-1.73,5.18.67,1.28,2.61.15,1.94-1.13h0Z"/><path d="m5.9,579.48c-.25-.13-.49-.29-.74-.41s-.49-.21-.78-.21c-.26,0-.55.08-.77.22-.18.11-.35.26-.49.42-.15.19-.3.38-.42.59-.2.36-.35.75-.5,1.14-.14.36-.26.73-.41,1.09l.11-.27c-.03.06-.05.12-.08.18l2.09.57c0-.11.02-.22.03-.33.02-.27-.14-.61-.33-.79s-.51-.34-.79-.33-.59.11-.79.33-.3.48-.33.79c0,.11-.02.22-.03.33l.04.3c.03.15.1.27.2.38.14.19.35.35.58.4.2.04.4.04.6,0,.24-.06.56-.29.67-.52.3-.64.5-1.32.77-1.96l-.11.27c.11-.26.24-.52.41-.75l-.18.23c.08-.1.16-.2.26-.27l-.23.18s.07-.05.11-.07l-.27.11s.06-.02.09-.03l-.3.04s.07,0,.11,0l-.3-.04s.09.02.13.04l-.27-.11c.27.12.51.3.77.43s.56.2.87.11c.26-.07.54-.27.67-.52.14-.26.21-.58.11-.87-.09-.27-.26-.54-.52-.67h0Z"/><path d="m150.56,658.8c-.11-.17-.21-.33-.32-.5v1.13c.57-1.13,1.38-2.09,1.89-3.27.58-1.33,1-2.72,1.59-4.05,1.23-2.77,2.59-5.48,3.85-8.24s2.43-5.43,3.81-8.09,2.51-5.07,3.44-7.78,2.35-4.98,3.54-7.47,2.74-5.1,4.42-7.47,2.86-4.66,4.06-7.15,2.63-4.99,4.26-7.34,3.19-4.78,4.62-7.29,2.91-4.77,4.23-7.23c2.76-5.15,4.91-10.6,7.65-15.77s5.66-10.09,7.87-15.48c1.05-2.57,2.61-4.81,4.01-7.21s2.66-4.93,4.26-7.16,3.36-4.45,5-6.7,3.27-4.74,4.7-7.29c.68-1.22,1.36-2.44,2.12-3.62s1.8-2.02,2.54-3.15c.63-.96.92-2.09,1.55-3.05.8-1.2,2.01-2.22,2.98-3.29,1.84-2.03,3.56-3.99,4.98-6.34s3.24-4.06,4.62-6.31c.67-1.09,1.34-2.14,2.09-3.18.85-1.18,1.53-2.46,2.48-3.56.74-.84,1.53-1.64,2.12-2.6.76-1.22,1.46-2.43,2.33-3.57,1.72-2.27,3.27-4.59,4.81-6.99.73-1.13,1.49-2.23,2.46-3.18.92-.89,1.86-1.72,2.61-2.76,1.72-2.39,3.2-4.91,5.1-7.16,1.6-1.89,3.62-3.28,5.27-5.1s3.27-3.87,5.68-4.94c2.24-.99,4.71-1.36,7.07-1.92,2.72-.65,5.35-1.67,8-2.55,2.83-.94,5.68-1.55,8.58-2.21,5.81-1.32,11.48-3.23,17.22-4.81,2.93-.81,5.87-1.61,8.76-2.55,1.27-.41,2.54-.84,3.79-1.32,1.32-.52,2.66-.74,4-1.17,1.16-.37,2.17-1.04,3.21-1.66s2.19-1.17,3.13-1.98c.8-.7,1.21-1.58,1.6-2.55.46-1.17,1.02-2.32,1.37-3.52.63-2.16.68-4.79-.14-6.9-.4-1.04-1.03-1.85-1.8-2.65-.87-.9-1.59-1.95-2.5-2.81s-1.99-1.24-3.1-1.81-1.82-1.49-3.03-1.73c-1.41-.28-2.02,1.89-.6,2.17,1.09.21,2,1.29,3.02,1.75,1.33.61,2.23,1.26,3.16,2.39.76.92,1.77,1.74,2.39,2.76.67,1.1.8,2.46.77,3.72s-.26,2.39-.71,3.53c-.41,1.05-.79,2.29-1.36,3.26s-1.69,1.48-2.65,2.03c-1.23.7-2.39,1.59-3.77,1.96-1.23.33-2.4.59-3.6,1.06-1.39.55-2.82,1.02-4.24,1.47-2.82.9-5.68,1.68-8.54,2.46-5.67,1.56-11.26,3.44-16.99,4.75-2.82.64-5.61,1.23-8.36,2.14-2.61.86-5.18,1.87-7.85,2.53-2.42.6-4.91.98-7.23,1.92s-4.05,2.42-5.69,4.27c-.8.89-1.57,1.81-2.44,2.63-.93.86-1.95,1.59-2.84,2.5-1.82,1.87-3.36,4.03-4.81,6.2-.76,1.14-1.46,2.39-2.39,3.4s-1.93,1.76-2.75,2.78c-1.74,2.15-2.99,4.65-4.6,6.89-.76,1.05-1.58,2.06-2.35,3.1s-1.4,2.28-2.16,3.38c-.66.95-1.53,1.73-2.24,2.64-.88,1.14-1.58,2.4-2.43,3.56-.75,1.02-1.37,2.11-2.04,3.17-.77,1.23-1.79,2.2-2.68,3.35-1.56,2.02-2.61,4.33-4.33,6.24-.94,1.04-1.86,2.08-2.81,3.11s-1.96,1.9-2.65,3.05c-.59.98-.89,2.11-1.56,3.05-.79,1.12-1.82,2.01-2.56,3.18-1.53,2.41-2.75,5.01-4.33,7.39s-3.24,4.72-4.97,6.95c-.79,1.03-1.65,2.01-2.4,3.06-.83,1.16-1.47,2.43-2.18,3.66-1.4,2.43-2.82,4.86-4.34,7.21-1.43,2.21-2.23,4.74-3.33,7.12-1.23,2.65-2.62,5.2-4.05,7.74-2.85,5.09-5.35,10.32-7.79,15.61s-5.34,10.05-8.3,14.86c-1.46,2.37-3.19,4.56-4.64,6.94s-2.48,4.9-3.76,7.33-3.09,4.76-4.57,7.2-2.51,5.08-3.93,7.54c-1.33,2.31-2.08,4.7-3.06,7.16-1.08,2.73-2.63,5.26-3.9,7.91s-2.45,5.44-3.69,8.15-2.55,5.12-3.53,7.81c-.45,1.24-.92,2.39-1.66,3.49s-1.19,1.72-.45,2.89,2.72.09,1.94-1.13h0Z"/><path d="m257.66,435.57c-.23.07-.45.05-.67-.06l.67,1.65c.46-1,1.85-1.52,2.69-2.19,1.33-1.05,2.4-2.39,3.63-3.54s2.72-2.05,4.21-2.94,2.64-2.05,4.06-2.95c1.26-.8,2.65-1.38,4.01-2,1.62-.73,3.04-1.67,4.57-2.55,3.06-1.77,6.68-2.37,10.1-3.03,1.59-.31,3.24-.51,4.82-.88.78-.19,1.47-.48,2.17-.87.73-.42,1.37-.54,2.17-.74,1.59-.41,2.9-1.6,4.28-2.44s3-1.43,4.46-2.23c2.86-1.55,4.66-3.78,6.42-6.44.69-1.04,1.53-2.01,1.77-3.27.3-1.57-.06-3.29-.73-4.71-.63-1.34-1.59-2.16-2.64-3.15-1.16-1.1-2.03-2.32-3.33-3.29-.7-.52-1.41-1.07-2.19-1.48-.58-.31-1.25-.48-1.78-.88s-.88-.98-1.38-1.41c-.61-.51-1.34-.87-2.05-1.2-3.2-1.47-6.68-1.9-10.04-2.85s-6.12-2.71-9.18-4.06c-3.23-1.43-6.54-1.67-9.98-2.25-1.71-.29-3.44-.32-5.14-.61-1.8-.3-3.58-.67-5.39-.83-3.5-.32-6.9-1.08-10.42-1.11s-7.4-.46-10.9.31-7.08,2.74-10.49,4.17c-1.65.69-3.24,1.37-4.48,2.7s-2.68,2.03-3.92,3.22-2.8,2.06-4.07,3.28-2.48,2.75-3.93,3.91c-.77.62-1.66,1.09-2.33,1.83-.48.53-.77,1.19-1.21,1.75-.53.69-1.33,1.12-1.91,1.77-.65.73-1.12,1.46-2.02,1.91-.96.48-.54,2.22.57,2.09,1.9-.22,3.36-1.1,4.92-2.14s2.95-1.93,4.07-3.46,2.31-2.85,3.57-4.17,2.67-2.48,4.49-2.99l-.87-2.05c-.59.4-1.19.77-1.82,1.1-1.27.68-.14,2.62,1.13,1.94.63-.34,1.23-.7,1.82-1.1,1.02-.69.42-2.41-.87-2.05-3.34.93-5.46,3.55-7.69,6.02-1.23,1.36-2.1,2.93-3.65,3.96s-3.22,2.47-5.1,2.69l.57,2.09c1.32-.66,1.96-1.87,3.01-2.81.48-.43,1-.76,1.42-1.27.53-.64.85-1.43,1.47-2,1.14-1.06,2.47-1.85,3.58-2.97s2.1-2.42,3.39-3.32c.62-.43,1.27-.8,1.86-1.28.54-.43.96-.99,1.49-1.43,1.23-1.02,2.51-1.74,3.61-2.93s2.5-1.7,3.91-2.29c1.56-.65,3.12-1.29,4.66-1.99s3-1.35,4.58-1.8c1.71-.48,3.43-.49,5.2-.5,3.52-.01,7.18-.2,10.65.4,6.72,1.16,13.52,1.69,20.26,2.78,3.31.54,6.12,1.98,9.1,3.44s6.05,2.39,9.33,3.14c1.43.33,2.86.67,4.25,1.16.88.31,1.77.66,2.57,1.15.61.37.99.88,1.49,1.37,1.03,1.01,2.45,1.4,3.63,2.22,1.35.93,2.35,1.97,3.44,3.18.99,1.1,2.21,1.83,2.82,3.24s.76,3.04-.13,4.39c-1.76,2.65-3.33,5.15-6.17,6.77-1.31.74-2.72,1.28-4.05,1.99-1.5.79-2.85,2.17-4.5,2.64-.57.16-1.14.2-1.7.43-.63.26-1.16.7-1.8.95-1.61.62-3.51.69-5.19,1.03-3.66.75-7.4,1.37-10.75,3.16-1.55.83-2.93,1.84-4.54,2.58-1.48.68-3,1.29-4.38,2.17-1.55.98-2.86,2.25-4.46,3.18s-2.98,1.86-4.27,3.07-2.37,2.65-3.82,3.67c-1.01.71-2.31,1.34-2.85,2.51-.32.69-.06,1.39.67,1.65.43.15.81.2,1.26.14,1.42-.18,1.43-2.42,0-2.25h0Z"/><path d="m39.45,522.11c.96.69,1.82,1.56,2.88,2.11,1.19.62,2.13,1.3,3.19,2.15,1.99,1.6,4.34,2.62,6.32,4.23s3.23,3.7,5.18,5.23,4.07,2.61,5.94,4.18c4.16,3.5,8.8,6.32,12.99,9.78,2.02,1.67,3.98,3.42,6.02,5.06s4.11,2.6,6.44,3.51c2.49.98,4.87,2.06,7.17,3.44s4.45,2.88,6.68,4.3,4.47,3.19,6.83,4.54c2.1,1.2,4.35,2.1,6.37,3.45,2.22,1.47,4.33,3.11,6.67,4.41s4.42,2.66,6.61,4.07,4.53,2.68,6.83,3.91c1.06.56,2.14,1.14,3.3,1.48,1.36.41,2.71.66,4.03,1.19,2.85,1.14,5.68,2.31,8.59,3.3,1.39.47,2.83.8,4.22,1.27,1.28.43,2.36,1.26,3.61,1.76,2.57,1.04,5.66,1.2,8.4,1.19,1.59,0,3.2-.14,4.78.11,1.4.22,2.76.55,4.18.59.64.02,1.07-.53,1.12-1.12.02-.24.04-.47.06-.71.12-1.44-2.13-1.43-2.25,0-.02.24-.04.47-.06.71l1.12-1.12c-1.29-.03-2.53-.35-3.8-.54s-2.64-.19-3.97-.17c-2.6.04-5.31,0-7.84-.7-1.11-.31-2.04-.9-3.06-1.42-1.19-.61-2.42-.92-3.7-1.29-2.63-.78-5.22-1.74-7.77-2.75-1.17-.46-2.32-.98-3.5-1.43-1.24-.48-2.54-.66-3.8-1.08-2.5-.84-4.79-2.47-7.08-3.74s-4.35-2.81-6.57-4.15-4.48-2.56-6.62-4.05-4.19-2.78-6.49-3.91-4.24-2.54-6.34-3.94c-4.36-2.9-8.76-6.06-13.53-8.25-2.39-1.1-4.96-1.82-7.24-3.15s-4.11-3.2-6.07-4.85-3.92-3.27-5.96-4.8c-2.19-1.64-4.56-3.04-6.71-4.74s-4.22-3.43-6.56-4.92c-1.23-.78-2.32-1.63-3.31-2.7-.9-.98-1.71-2.05-2.7-2.96-2.1-1.94-4.76-3.01-6.97-4.78-1.07-.86-2.04-1.76-3.28-2.34s-2.16-1.49-3.23-2.27c-1.17-.85-2.29,1.1-1.13,1.94h0Z"/><path d="m211.21,354.98c-1.18-1.51-2.62-2.74-4.19-3.83-.77-.53-1.56-1.01-2.37-1.47-.88-.5-1.44-1.06-2.1-1.8-1.18-1.3-2.52-2.38-4.09-3.16-1.86-.93-3.49-2.22-5.31-3.22-3.34-1.85-6.83-3.97-9.72-6.47-1.5-1.3-2.52-2.77-3.5-4.48-1.07-1.85-2.45-3.48-3.51-5.34-.97-1.7-2.15-3.32-3-5.08-.96-1.98-1.28-4.39-1.88-6.51s-.77-4.09-1.35-6.11c-.3-1.05-.35-2.09-.48-3.16s-.36-2.22-.42-3.34c-.13-2.34.04-4.7.04-7.04v-7.25c0-2.25-.25-4.58.21-6.79s1.01-4.41,1.57-6.6c.53-2.06,1.4-3.96,2.17-5.93.7-1.79.84-3.82,1.81-5.47,1.07-1.82,1.91-3.66,3.17-5.37s2.55-3.55,3.91-5.27c2.69-3.38,5.88-6.18,9.25-8.86,1.79-1.42,3.6-2.81,5.39-4.24,1.48-1.18,2.85-2.57,4.42-3.64,1.69-1.15,3.83-1.68,5.7-2.49,2.07-.9,4.12-1.87,6.17-2.8,3.96-1.79,8.28-2.48,12.39-3.84,1.9-.63,3.8-1.47,5.8-1.69,2.31-.25,4.72-.11,7.05-.11,4.78-.01,9.57.05,14.35.07,2.38.01,4.77,0,7.15,0s4.76-.3,6.99.1c4.28.77,8.54,1.53,12.72,2.81,1.91.59,3.76,1.39,5.69,1.91.95.25,1.84.42,2.7.94s1.61,1.01,2.53,1.34c1.88.67,3.51,1.77,5.36,2.53,1.95.8,3.72,1.68,5.32,3.07,1.71,1.47,3.38,2.98,4.98,4.57,1.03,1.02,2.62-.57,1.59-1.59-3.05-3.03-6.17-6.05-10.18-7.75-.98-.41-1.99-.76-2.9-1.31-.86-.51-1.67-1.04-2.62-1.38-1.89-.67-3.45-1.93-5.42-2.41-2.13-.52-4.14-1.38-6.23-2.03s-4.4-1.18-6.61-1.73-4.35-.81-6.54-1.18-4.63-.14-6.89-.14c-4.94,0-9.88-.02-14.82-.05-2.47-.02-4.95-.03-7.42-.02-2.34,0-4.77-.14-7.09.14-2.12.26-4.09,1.08-6.1,1.74s-4.25,1.28-6.39,1.82-4.12,1.15-6.11,2.05c-2.13.96-4.24,1.97-6.39,2.9-1.95.85-4.15,1.38-5.92,2.58-1.61,1.09-3,2.49-4.52,3.71-3.56,2.86-7.26,5.56-10.63,8.65s-5.78,6.56-8.37,10.1c-.64.88-1.32,1.73-1.84,2.69s-.94,1.93-1.48,2.86c-1,1.71-1.18,3.54-1.84,5.38-.76,2.11-1.79,4.11-2.36,6.28s-1.11,4.55-1.63,6.83-.35,4.39-.34,6.62c0,2.5,0,5,0,7.5s-.13,4.88-.06,7.31c.03,1.09.19,2.16.35,3.23s.17,2.23.39,3.33.63,2.08.8,3.15.3,2.21.62,3.3c.61,2.14,1.01,4.43,1.78,6.51s2.07,3.7,3.12,5.55,2.41,3.64,3.57,5.5c1.05,1.69,1.94,3.34,3.38,4.75,1.31,1.28,2.83,2.34,4.34,3.36,3.49,2.34,7.05,4.54,10.63,6.73,1.7,1.04,3.32,1.75,4.71,3.24.59.63,1.1,1.3,1.81,1.81.8.58,1.7,1.01,2.53,1.54,1.74,1.12,3.3,2.4,4.58,4.04.89,1.14,2.47-.46,1.59-1.59h0Z"/><path d="m179.91,166.65c.99,3.33,2.41,6.49,3.95,9.6s2.79,6.44,4.54,9.48,3.8,5.88,5.3,9.08c1.28,2.74,2.29,5.64,4.67,7.65,1.37,1.16,3.37-.82,1.99-1.99-2.28-1.93-3.14-4.82-4.39-7.42-1.48-3.06-3.44-5.81-5.14-8.74s-2.85-6.07-4.34-9.07-2.9-6.08-3.87-9.33c-.52-1.73-3.23-.99-2.71.75h0Z"/><path d="m94.81,275.25c3.5-.03,6.64,1.55,9.83,2.8,3.51,1.37,7.06,2.54,10.62,3.78,3.04,1.06,6.08,2.05,9.15,3,2.18.68,4.96,1.39,6.6,3.08,1.26,1.3,3.25-.69,1.99-1.99-1.82-1.87-4.66-2.77-7.08-3.56-3.16-1.03-6.34-1.98-9.48-3.09-3.69-1.3-7.41-2.51-11.06-3.94-3.46-1.35-6.78-2.94-10.57-2.9-1.81.02-1.81,2.83,0,2.81h0Z"/><path d="m305.28,183.02c-1.28-.35-2.73-.21-3.4,1.09-.28.53-.35,1.11-.42,1.7-.02.23-.04.47-.06.7,0,.11-.02.21-.03.32.04-.31-.02.09-.03.12-.78,3.42-2.23,6.6-3.68,9.78-.31.69-.2,1.51.5,1.92.6.35,1.6.19,1.92-.5,1.32-2.89,2.68-5.79,3.56-8.85.32-1.12.51-2.21.61-3.37,0,0,.05-.38.02-.18s.03-.12.04-.16c0-.04.1-.34.02-.14-.07.19.03-.07.06-.1-.08.07-.15.17-.24.24-.17.06-.21.07-.11.04.07-.02.07-.02-.02,0-.15-.07.13,0,.2.01-.23-.02.33.09.3.08,1.75.47,2.49-2.23.75-2.71h0Z"/><path d="m351.82,463.1c-.37,0-.73.01-1.1.03l.99,2.4c.66-.84,2.44-.43,3.36-.36,1.51.13,2.98,0,4.49-.22,3.95-.58,7.67-2.09,11.61-2.69,2.07-.31,4.16-.47,6.22-.81s3.97-.89,5.9-1.52c4.1-1.34,8.11-2.61,12.33-3.54,8.52-1.89,16.99-4.01,25.51-5.86s17.14-3.12,25.69-4.74c4.15-.79,8.21-1.99,12.36-2.74,2.06-.38,4.15-.62,6.19-1.1s4.05-1.31,6.08-1.95c8.14-2.57,16.61-4.35,24.94-6.22,4.26-.95,8.51-1.82,12.7-3.03,1.99-.57,3.97-1.15,5.95-1.74s3.81-1.42,5.78-1.93,3.93-1.32,6.03-1.58c1.96-.24,3.92-.4,5.82-.95s3.58-.81,5.44-1.12c2.05-.34,4.03-.95,6.06-1.37s4.1-.31,6.18-.51c1.96-.19,3.89-.56,5.81-.99,2.06-.46,4.11-1,6.21-1.24.96-.11,1.93-.19,2.89-.33,1.1-.16,2.08-.52,3.13-.84.9-.27,1.78-.27,2.71-.35,1.02-.08,2.02-.3,3.02-.51,2.03-.42,4.05-.87,6.03-1.48s3.75-1.36,5.73-1.81c1.45-.33,2.92-.67,4.36-1.06,1.3-.35,2.44-1,2.85-2.36.52-1.73-2.19-2.48-2.71-.75-.16.52-2.51.75-3.07.91-1.85.52-3.73.84-5.52,1.53-3.69,1.43-7.82,2.51-11.76,2.78-2.02.14-3.82,1.03-5.82,1.26s-4.06.47-6.08.92-4.04.95-6.09,1.28-3.99.2-5.99.41-3.85.7-5.75,1.17-3.99.61-5.95,1.06c-1.85.43-3.59,1.06-5.49,1.3-2,.25-3.96.41-5.89,1.01-7.94,2.5-15.8,5.09-23.96,6.86s-16.82,3.74-25.1,6.02c-4.03,1.11-7.87,2.73-12.01,3.43s-8.15,1.71-12.25,2.6c-8.42,1.83-16.99,2.97-25.44,4.65s-16.97,3.92-25.47,5.8c-4.17.92-8.36,1.75-12.42,3.12s-7.87,2.63-12.08,3.12c-1.97.23-3.95.43-5.89.87s-3.77,1.06-5.67,1.53-3.71.84-5.6.95c-1.34.08-2.66-.19-4.01-.16-1.21.03-2.56.28-3.36,1.29-.68.87-.35,2.47.99,2.4.37-.02.73-.03,1.1-.03,1.81-.02,1.81-2.82,0-2.81h0Z"/><path d="m600.33,300.28l-.43-.61-1.21,2.11c-.76-.04-.23-.27-.25.15,0,.11.1.3.13.41.15.44.24.89.36,1.34.32,1.16.9,2.16,1.49,3.2.7,1.22,1.49,2.46,1.89,3.81.44,1.49.09,3.06.09,4.58,0,1.32.32,2.59.57,3.87.29,1.48.56,2.97.96,4.42.85,3.06,1.95,6.04,2.75,9.12,1.57,6.09,3.67,11.95,4.63,18.19s1.6,12.46,3.25,18.54c.85,3.12,1.29,6.33,2.29,9.42.43,1.33.72,2.72,1.19,4.04.5,1.41,1.38,2.57,1.98,3.93.5,1.14.54,2-.42,2.88-1.15,1.04-2.49,1.92-3.75,2.81-2.49,1.75-5.04,3.44-7.4,5.37-1.11.91-2.11,1.94-3.22,2.85s-2.39,1.72-3.56,2.6c-2.46,1.85-4.58,4.11-6.89,6.14s-4.87,3.72-7.19,5.73-4.45,4.38-6.09,6.84c-.75,1.12-1.32,2.36-2.15,3.43s-1.76,1.95-2.55,3.01c-1.44,1.97-2.09,4.51-1.87,6.93.21,2.27,1.18,4.42,3.16,5.66,2.09,1.32,4.71,1.49,7.09,1.83,2.98.43,5.94.5,8.95.39,1.34-.05,2.71-.04,4.04-.23,1.48-.21,2.88-.79,4.36-1s2.97-.2,4.45-.49c1.58-.31,3.11-.83,4.7-1.1,3.21-.54,6.42-1.01,9.61-1.68,6.5-1.36,12.83-3.52,19.38-4.62,3.1-.52,6.21-.96,9.3-1.59,2.64-.54,5.26-.88,7.95-.95.93-.02,2.08-.07,2.79.63.9.9,1.12,2.54,1.42,3.71.68,2.65,1.82,4.92,3.35,7.18,1.81,2.68,3.47,5.44,5.15,8.2,1.58,2.59,3.37,5.01,5.02,7.55.71,1.09,1.4,2.21,1.91,3.4.57,1.31.9,2.71,1.48,4.03,1.21,2.75,2.87,5.35,4.48,7.88.76,1.19,1.68,2.27,2.49,3.43.88,1.26,1.55,2.64,2.3,3.97,1.5,2.64,3.12,5.19,4.55,7.87.69,1.29,1.53,2.52,2.13,3.85.64,1.42.97,2.96,1.73,4.33.59,1.04,1.46,2.08,1.91,3.1.28.65.45,1.38.61,2.07.74,3.13,1.11,7.11,3.6,9.43,1.27,1.18,2.85,1.45,4.51,1.18,1.78-.29,1.02-2.99-.75-2.71-3.1.5-3.79-4.69-4.24-6.75-.33-1.51-.6-3.06-1.24-4.47-.53-1.17-1.36-2.16-1.98-3.28-.75-1.36-1.08-2.92-1.73-4.33-.58-1.26-1.37-2.43-2.03-3.66-.73-1.37-1.43-2.75-2.2-4.1s-1.6-2.49-2.34-3.78c-.8-1.39-1.49-2.84-2.41-4.16-1.69-2.42-3.34-4.79-4.86-7.33-.7-1.17-1.37-2.35-1.93-3.59-.63-1.38-.97-2.87-1.58-4.25-1.15-2.6-2.89-4.88-4.5-7.21-1.78-2.58-3.33-5.3-4.97-7.97s-3.54-4.95-4.79-7.68c-1.05-2.28-1.09-4.99-2.48-7.12s-3.76-2.34-6.05-2.22c-2.72.13-5.37.47-8.05,1.02-3.08.63-6.19,1.07-9.3,1.59-3.29.55-6.47,1.41-9.69,2.28-6.39,1.72-12.8,2.9-19.31,4.02-1.45.25-2.85.7-4.28,1.01-1.54.34-3.1.32-4.65.55-1.36.2-2.63.71-3.98.94-1.55.26-3.2.21-4.77.25-2.91.07-5.75-.1-8.63-.5-2.1-.29-4.96-.5-6.2-2.49s-.89-4.83.2-6.72c.6-1.05,1.46-1.89,2.24-2.79.88-1.02,1.59-2.12,2.27-3.28,1.56-2.66,3.81-5.21,6.11-7.27s4.72-3.62,6.98-5.56c2.37-2.04,4.51-4.41,7.01-6.29,1.09-.82,2.24-1.56,3.32-2.4,1.24-.96,2.32-2.08,3.53-3.08,2.27-1.89,4.76-3.51,7.17-5.2,2.06-1.45,5.35-3.14,5.86-5.84s-1.63-4.74-2.45-7.14c-.97-2.85-1.77-5.81-2.37-8.76-.65-3.18-1.58-6.28-2.21-9.46-.6-3-1.04-6.02-1.46-9.05s-.85-6.33-1.52-9.46-1.72-5.83-2.55-8.77c-.88-3.12-1.58-6.29-2.54-9.39-.89-2.89-1.78-5.66-2.36-8.64-.28-1.44-.52-2.71-.43-4.18s.19-2.88-.23-4.28c-.75-2.51-2.71-4.52-3.38-7.01-.45-1.64-.88-3.85-2.96-3.96-1.01-.06-1.82,1.25-1.21,2.11l.43.61c1.03,1.46,3.47.06,2.42-1.42h0Z"/><g><path d="m612.85,840.88c6.34,3.29,12.43,6.53,18.6,9.61,5.37,2.68,8.5,7.15,10.57,12.56,1.1,2.88.37,5.56-1.07,8.07-2.01,3.51-4.98,5.91-8.76,7.43-7.11,2.86-14.49,2.86-21.99,2.63-9.27-.28-18.54-.22-27.81-.1-2.66.03-5.33.67-7.95,1.2-3.05.62-5.79,1.96-7.86,4.38-2.93,3.43-5.96,6.8-8.66,10.41-5.19,6.94-10.19,14.03-15.27,21.05-.78,1.08-1.51,2.06-1.22,3.64.34,1.83-.91,2.8-2.56,3.48-1.04.43-2.16,1.13-2.8,2.03-4.88,6.86-9.69,13.77-14.43,20.74-.95,1.39-1.45,3.08-2.21,4.6-1.73,3.49-2.78,7.7-5.41,10.29-5.18,5.11-7.41,11.69-10.68,17.78-.4.75-.67,1.74-1.3,2.16-.81.54-2.02.99-2.88.78-.66-.16-1.53-1.47-1.46-2.18.24-2.38.61-4.81,1.4-7.05.93-2.62,2.35-5.05,3.68-7.8-6.68-2.41-12.71-5.66-19.64-7.19-9.86-2.17-19.59-5.12-28.83-9.43-7.3-3.4-14.7-6.59-22.06-9.87-14.45-6.43-27.99-14.39-40.59-23.96-2.43-1.85-5.03-3.47-7.39-5.41-5.27-4.34-10.51-8.72-15.63-13.24-6.03-5.33-11.93-10.8-17.83-16.26-1.68-1.55-3.16-3.31-4.89-5.14-.66.62-1.12.97-1.48,1.41-4.3,5.16-8.58,10.34-12.87,15.5-1.02,1.22-1.89,2.39-2.04,4.15-.1,1.22-1.04,2.41-1.75,3.52-1.43,2.25-2.95,4.44-4.51,6.76.73.83,1.23,1.5,1.83,2.05,6.95,6.34,13.97,12.59,20.85,18.99,8.8,8.2,18.56,15.06,28.79,21.32,3.74,2.28,7.25,4.95,10.76,7.57,1.71,1.28,3.7,2.44,3.73,5.09,0,.5.9,1.06,1.47,1.47,3.78,2.68,7.63,5.27,11.37,8.02,1.35,1,2.65,2.21,3.59,3.59.48.71.51,2.3.02,2.93-.48.6-1.92.75-2.86.59-.89-.15-1.7-.91-2.5-1.46-7.75-5.32-15.49-10.65-23.21-16.01-.88-.61-1.94-1.36-2.29-2.29-1.62-4.29-5.78-5.66-8.98-8.11-1.22-.93-2.87-1.34-4-2.35-6.1-5.48-12.61-10.39-19.5-14.84-8.32-5.37-16.4-11.05-22.88-19.1-1.52,1.79-3.88,1.7-5.15,3.81-.95,1.58-2.53.44-3.81-.41-1.46-.97-2.47-2.02-1.77-3.9.12-.33.33-.69.6-.91,2.96-2.44,3.96-6.05,5.67-9.26,1.32-2.46,2.96-4.76,4.58-7.04,2.53-3.58,5.39-6.94,7.7-10.65,4.48-7.19,9.87-13.6,15.58-19.8,1.37-1.49,3.62-2.68,2.62-5.51-.2-.56.81-1.64,1.42-2.36,1.74-2.04,3.76-3.87,5.31-6.05,7.68-10.78,16.7-20.39,25.6-30.12.96-1.05,1.46-1.97,1.36-3.51-.13-2.07,1.04-2.75,3.05-2.35,1.72.34,3.45.63,5.18.83.41.05.97-.22,1.3-.52,4.67-4.21,9.32-8.45,13.97-12.68-.14-.28-.28-.57-.42-.85-3.31.46-6.65.8-9.94,1.41-12.83,2.4-25.65,4.84-38.45,7.36-2.86.56-5.68,1.43-8.46,2.34-.93.3-1.79,1.07-2.48,1.81-1.37,1.48-2.75,1.88-4,.47-1.57-1.78-3.19-3.58-3.58-6.17-.53-3.61-1.36-7.17-1.98-10.77-1.69-9.74-3.52-19.45-4.95-29.23-1.32-9.05-2.15-18.17-3.26-27.25-1.29-10.55-3.52-20.88-6.12-31.21-4.42-17.5-7.9-35.23-11.91-52.83-1.54-6.78-3.71-13.41-5.13-20.21-1.79-8.6-2.98-17.32-4.64-25.94-1.8-9.34-3.86-18.64-5.79-27.95-5.82-28.08-11.62-56.16-17.46-84.24-.89-4.29-1.88-8.57-2.92-12.83-.18-.76-.94-1.36-1.24-2.11-.28-.72-.37-1.54-.41-2.32-.04-.65.3-1.36.15-1.97-.71-2.85.86-5.22,3.64-5.74,4.66-.88,9.36-1.65,13.9-2.96,10.91-3.15,21.88-5.96,33.1-7.82,6.36-1.05,12.58-2.93,18.92-4.16,4.06-.79,8.21-1.24,12.34-1.55,5.17-.38,10.15-1.54,14.94-3.37,7.57-2.88,15.39-4.61,23.31-6.18,7.64-1.52,15.14-3.79,22.67-5.84,14.12-3.86,28.24-7.74,42.33-11.72,9.06-2.56,18.28-4.23,27.56-5.8,10.94-1.85,21.72-4.59,32.63-6.64,22.42-4.21,44.89-8.2,67.33-12.34,2.51-.46,4.97-1.23,7.41-2,4.51-1.43,9.01-2.88,13.46-4.5,1.44-.52,2.75-1.51,3.98-2.45,5.5-4.19,9.45-9.84,13.98-14.95,1.04-1.17,1.1-2.25.64-3.67-2.88-8.81-5.93-17.55-9.41-26.16-5.25-13-10.08-26.18-14.91-39.35-1.12-3.06-1.46-6.41-2.21-9.61-.67-2.84.82-4.95,2.39-6.97.45-.58,1.51-1.12,2.19-1.02,2.38.33,4.76.8,7.05,1.51,2.08.65,4,1.77,6.05,2.52,6.63,2.43,13.37,4.56,19.9,7.23,4.49,1.84,8.74,4.28,13,6.63,5.03,2.76,9.85,5.92,14.95,8.51,3.23,1.63,6.82,2.54,10.47,3.86,6.21-5.44,13.19-10.02,18.2-16.77,5.7-7.68,12.44-14.38,19.36-20.95,3.71-3.52,7-7.48,10.54-11.18,1.18-1.23,2.46-2.4,3.85-3.38,6.18-4.35,8.34-2.47,12.34,3.2,1.14,1.62,1.45,3.82,2.29,6.16,1.09-.19,2.27-.3,3.39-.6,7.66-2.03,15.26-4.29,22.96-6.11,12.47-2.94,23.52-8.95,33.8-16.17,6.23-4.38,11.63-10.03,17.02-15.5,11.16-11.31,21.08-23.71,30.81-36.27,1.05-1.35,2.15-2.67,3.06-4.12,5.96-9.56,13.29-18.09,20.03-27.06,6.66-8.87,12.47-18.37,18.71-27.55,7.07-10.39,14.2-20.75,21.31-31.11,1.86-2.71,3.74-5.4,5.68-8.04,1.16-1.57,1.14-3.03.26-4.75-1.51-2.95-1.4-2.99,1.64-4.51.71-.35,1.34-.99,1.83-1.62,1.73-2.21,3.21-4.65,5.12-6.68,2.24-2.37,4.78-4.48,7.33-6.52.57-.46,1.99-.6,2.56-.21,2.36,1.61,2.06,6.22-.22,7.84-1.15.82-2.27,1.85-3.03,3.02-1.57,2.46-2.88,5.08-4.31,7.65.46,1.89,1.58,3.07,3.31,4.02,15.59,8.53,29.77,19.09,43.56,30.23,3.8,3.07,7.57,6.17,11.47,9.1,11.39,8.56,21.31,18.61,30.28,29.63,3.54,4.35,7.14,8.66,10.88,12.84,5.68,6.35,11.59,12.5,16.46,20.11,1.18-1.49,2.24-2.64,3.08-3.94,3.55-5.55,6.94-11.21,10.59-16.7,1.87-2.81,4.18-5.34,6.29-7.98.15-.19.44-.3.51-.51,1.34-3.9,5.13-6.01,7.01-9.6.82-1.57,3.05-2.75,4.88-3.35,2.48-.81,3.94.88,2.89,3.2-1.54,3.4-3.05,6.93-5.26,9.9-9.03,12.13-18.14,24.21-27.78,35.87-1.97,2.39-3.67,4.75-6.71,5.78-.66.22-1.55.75-1.69,1.31-.93,3.59-4.36,5.03-6.38,7.67-2.07,2.72-4.26,5.35-6.51,7.92-14.33,16.34-29.68,31.73-44.26,47.82-11.5,12.68-23.92,24.41-35.85,36.63-4.86,4.98-9.68,10-14.45,15.07-10.47,11.15-22.17,20.98-33.84,30.79-6.99,5.88-14.59,11.05-22.09,16.28-7.71,5.37-15.52,10.61-23.5,15.55-3.8,2.35-8.06,3.98-12.18,5.75-4.82,2.07-9.79,3.78-14.56,5.95-3.95,1.8-8.01,2.91-12.27,3.2-3.19,3.6-7.17,5.85-11.88,5.97-9.79.25-19.44,1.71-29.14,2.79-5.81.64-11.7.64-17.54,1.02-1.91.12-3.81.52-5.89.82.18,1.27.29,2.22.46,3.16,2.42,13.08,5.06,26.12,7.2,39.24,1.83,11.2,2.83,22.53,4.64,33.73,2.38,14.69,5.19,29.31,7.84,43.96,1.82,10.08,3.67,20.16,5.55,30.24.44,2.38,1.01,4.73,2.14,7.22.51-1.03,1.12-2.03,1.52-3.1,5.04-13.42,15.7-19.59,28.89-22.62,9.94-2.28,19.63-1.57,29.14,2.01,3.64,1.37,7.26,2.76,10.89,4.14.34.13.74.42,1.01.33,4.56-1.48,7.47,1.97,10.93,3.68,1.72.85,3.07,2.23,5.35,1.75.9-.19,2.06.89,3.45,1.56,11.15-7.91,22.48-15.95,33.81-23.99-.3-4.04.48-4.64,4.37-2.99-.17-1.02-.5-1.92-.39-2.75.11-.86.43-1.99,1.06-2.43,1.11-.77,2.04,0,2.63,1.09.23.42.49.82.95,1.59,1.24-.91,2.32-1.81,3.51-2.56,4.53-2.86,8.98-5.89,13.68-8.45,4.78-2.6,9.71-1.06,13.44,3,4.32,4.71,7.72,10.06,11.23,15.32,2.36,3.53,4.09,7.48,6.12,11.23,1.05,1.93,2.18,3.8,3.21,5.74,3.2,6.04,2.63,10.7-2.29,15.48-3.32,3.23-6.97,6.11-10.49,9.13-.82.71-1.71,1.34-2.13,1.68-.16,1.84.24,3.66-.49,4.46-1.51,1.67-3.02-.48-4.93-.89-11.51,8.7-23.17,17.52-34.89,26.39,1.34,4,2.46,7.84,3.89,11.56,5.69,14.75,9.28,30.31,17.19,44.19,2.9,5.09,5.72,10.22,8.75,15.23,5.81,9.6,11.69,19.16,17.63,28.67,2.26,3.62,4.69,7.15,7.22,10.58,8.34,11.29,16.54,22.67,23.79,34.71.19.31.31.71.58.93,5.71,4.66,8.39,11.61,12.96,17.16,4.58,5.55,8.67,11.49,12.93,17.29,3.91,5.31,7.91,10.56,11.61,16.01,4.39,6.46,8.39,13.18,12.78,19.63,4.25,6.25,8.73,12.35,13.26,18.41.9,1.2,2.5,1.87,3.8,2.76,1.52,1.04,2.99,5.42,2.33,7.04-.6,1.47-2.44,1.85-4.01.58-2.09-1.68-4.04-3.54-5.98-5.39-1.15-1.09-2.18-2.29-3.4-3.59-.83.54-1.52.95-2.17,1.43-11.02,8.29-21.76,16.96-33.57,24.14-1.36.82-2.68,1.72-4.09,2.44-18.01,9.24-35.55,19.45-54.42,26.98-1.81.72-3.56,1.61-5.29,2.52-6.55,3.46-13.49,5.56-20.84,6.57-3.12.43-6.14,1.52-9.2,2.35-4.84,1.31-9.63,2.6-14.78,1.71-1.83-.32-3.83.32-5.36.47-.74,1.66-1.41,2.89-1.83,4.19-.28.86-.41,1.87-.24,2.74.56,2.87,1.31,5.71,1.93,8.57.21.95.38,1.93.37,2.89-.02,1.33-.65,2.37-2.09,2.61-1.43.24-2.37-.46-2.76-1.81-.73-2.58-1.56-5.15-2.06-7.78-2.9-15.27-7.79-29.95-12.65-44.66-1.07-3.22-1.68-6.61-2.35-9.95-2.99-14.96-5.93-29.92-8.87-44.89-.57-2.87-1.27-5.74-1.55-8.64-.2-2.05-2.04-3.07-2.44-4.72-.37-1.51.59-3.32.3-4.88-1.45-8.03-3.09-16.03-4.73-24.03-.44-2.14-1.04-4.27-1.72-6.35-2.08-6.37-4.16-12.75-6.39-19.07-3.24-9.19-5.99-18.58-10.58-27.26-1.36-2.58-2.43-5.32-3.58-8-.23-.53-.34-1.18-.29-1.75.24-2.97.17-3.26-2.23-4.4-5.5-2.62-11.06-5.14-16.54-7.81-3.84-1.86-7.7-3.72-11.34-5.92-2.26-1.37-4.13-3.38-6.83-5.66.96,3.1,1.7,5.54,2.47,7.97.33,1.04.77,2.06,1.1,3.1.41,1.32.04,2.36-1.12,3.17-3.86,2.7-8.12,4.42-12.72,5.35-.24.05-.56.15-.71.05-3.06-2.03-6.13-.34-9.12.12-5.78.89-11.55,1.96-17.26,3.26-7.37,1.68-14.73,3.46-21.99,5.56-12.6,3.64-25.5,5.56-38.44,7.34-5.31.73-10.61,1.54-16.12,2.35,3.16,7.22,1.7,13.21-4.4,17.9,2.99,2.72,5.82,5.34,8.71,7.9,4,3.56,5.49,8.11,4.69,13.22-1.18,7.55-4.65,13.72-11.35,17.97-7.92,5.04-15.54,10.55-23.49,15.54-4.11,2.58-8.54,4.72-13.01,6.64-7.4,3.18-14.94,6.02-22.41,9.02-.62.25-1.21.59-1.82.88Zm-221.8-381.38c1.45-.55,2.88-1.18,4.36-1.64,4.21-1.29,8.43-2.52,12.65-3.77-.05-.18-.11-.36-.16-.53-9.09,2.2-18.19,4.4-27.28,6.6.03.15.07.3.1.45,3.48-.4,6.95-.8,10.43-1.2-6.38,1.96-12.79,3.79-19.5,4.49,1.43-.66,2.85-1.33,4.28-1.99-.07-.21-.15-.41-.22-.62-2.03.67-4.05,1.34-6.08,2.01-.64,2.77-3.1,2.3-4.99,2.79.65-.45,1.31-.9,1.96-1.35-.04-.14-.09-.28-.13-.42-1.15.34-2.3.69-3.87,1.15,1.02.26,1.57.41,2.13.55-1.49.48-2.96,1.02-4.47,1.44-5.64,1.57-11.28,3.14-16.94,4.64-7.66,2.04-15.27,4.43-23.04,5.91-7.8,1.48-15.21,4.81-23.47,4.42-2.9-.14-5.9,1.88-8.81,2.9.72,8.82.65,17.3,2.68,25.54,11.69-2.72,23.22-5.31,34.7-8.1,15.77-3.83,31.46-8,47.51-10.55,26.77-4.25,53.23-10.06,79.68-15.9,21.33-4.71,42.56-9.85,63.9-14.46,15.03-3.25,30.01-6.62,44.79-10.92,6.78-1.98,13.77-3.24,20.66-4.83.76-.18,1.5-.42,2.81-.79-1.01-.45-1.45-.62-1.86-.84-4.54-2.4-5.79-4.77-4.92-9.77.25-1.41.77-2.83,1.45-4.1,2.42-4.57,5.66-8.53,9.43-12.07.76-.71,1.47-1.47,2.81-2.81-2.16.29-3.45.44-4.74.63-18.68,2.7-37.02,7.54-55.93,8.85-5.1.35-10.2,1.18-15.2,2.26-15.38,3.32-30.74,6.76-46.06,10.37-12.58,2.96-25.1,6.2-37.63,9.37-4.2,1.06-8.36,2.3-12.54,3.46,10.57-.41,20.49-4.04,30.79-5.7-1.11.56-2.26.96-3.43,1.26-10.73,2.83-21.43,5.81-32.22,8.41-7.82,1.88-15.75,3.25-23.62,4.84ZM920,112.79c-1.85,2.53-3.66,4.82-5.27,7.24-2.5,3.75-4.73,7.7-7.32,11.38-6.04,8.58-12.26,17.03-18.36,25.57-2.34,3.28-4.79,6.51-6.76,10.01-4.26,7.59-9.36,14.57-14.7,21.41-2.03,2.6-4.01,5.24-5.83,7.98-7.3,11-15.39,21.39-24.29,31.14-2.46,2.7-4.66,5.65-6.99,8.47-3.42,4.14-6.83,8.29-10.29,12.39-8.72,10.34-19.38,18.14-31.58,23.9-1.54.73-3.07,1.5-4.58,2.3-9.99,5.27-20.61,8.79-31.55,11.38-4.63,1.1-9.33,1.89-13.97,2.94-4.35.98-8.3,2.85-11.6,5.93-2.57,2.4-4.09,5.38-3.06,8.85,1.06,3.57,3.94,5.48,7.53,6.18,1.79.35,3.63.48,5.45.66,2.79.27,5.6.41,8.38.74,8.53,1,17.03,1.22,25.5-.58,3.21-.68,6.49-1.13,9.76-1.5.83-.09,2.27.3,2.49.85.33.82.17,2.24-.38,2.94-1.5,1.91-3.14,3.78-5.02,5.3-9.51,7.64-19.11,15.16-28.69,22.72-.38.3-.79.57-1.21.83-10.14,6.43-19.03,14.44-28.15,22.17-4.49,3.8-6.53,8.7-6.91,14.42-.24,3.52,1.35,5.88,4.82,6.04,4.48.21,9.05.24,13.47-.42,6.44-.96,12.28-3.91,18.11-6.74,12.06-5.84,24.63-10.74,35.17-19.37.92-.75,2.11-1.31,3.26-1.56.64-.14,1.67.34,2.13.88.33.38.26,1.46-.05,1.98-.55.92-1.31,1.79-2.17,2.42-5.31,3.89-10.57,7.85-16.03,11.52-5.27,3.53-10.87,6.56-16.12,10.1-5.36,3.61-8.78,8.79-10.29,15.08-1.22,5.11,1.24,8.59,6.4,8.82,3.87.17,7.92.3,11.63-.61,7.09-1.73,14.06-4.02,20.94-6.47,3.29-1.17,6.35-3.11,9.33-4.98,8.67-5.45,17.25-11.06,25.89-16.56,1.34-.85,2.67-2.54,4.53-1.02,1.15.94.78,2.37-1.48,4.65-3.69,3.72-7.48,7.36-11.32,10.93-3.9,3.62-6.9,7.89-9.44,12.51-.98,1.78-1.87,3.67-1.62,5.98,2.56,1.17,5.08,1.88,7.84,1.55,8.05-.96,15.87-2.76,23.07-6.66,3.86-2.09,7.74-4.15,11.51-6.39,8.69-5.17,18.01-9.3,26-15.63,13.3-10.53,26.63-21.01,39.88-31.6,8.4-6.71,16.37-13.9,23.61-21.88,6.64-7.32,13.2-14.71,19.87-22,10.88-11.88,21.85-23.68,32.75-35.54,9.99-10.87,19.69-22.03,30.6-32.02,3.51-3.22,6.52-6.87,9.15-10.9,2.11-3.24,4.87-6.05,7.33-9.06,1.44-1.76,2.87-3.52,4.33-5.31-2.7-2.92-5.19-5.43-7.47-8.12-11.18-13.26-23.03-25.89-35.6-37.84-1.32-1.26-2.45-2.73-3.77-3.99-3.7-3.54-7.29-7.22-11.22-10.47-8.37-6.92-16.99-13.53-25.38-20.42-2.91-2.39-5.25-5.5-8.23-7.79-7.35-5.67-15.29-10.46-24.06-14.71Zm-384.95,806.83c.93-1.12,1.66-1.93,2.31-2.8,7.24-9.52,14.51-19.02,21.7-28.59,4.11-5.47,9.16-9.18,16.02-10.7,7.95-1.76,15.99-2.14,24.02-2.05,8.09.1,16.08-.78,24.1-1.48,4.34-.38,8.3-1.95,11.85-4.48,2.85-2.03,3.53-4.38,1.6-7.21-2.69-3.96-5.86-7.52-10.4-9.49-5.15-2.23-10.33-4.39-15.44-6.69-3.47-1.56-6.82-3.29-10.82-1.62-.65.27-2.09-.19-2.49-.78-.39-.57-.09-1.8.22-2.62.97-2.65,3.44-3.7,5.7-4.83,7.42-3.71,14.94-7.2,22.33-10.97,8.15-4.15,16.29-8.36,24.27-12.84,6.37-3.58,12.58-7.48,18.7-11.47,4.26-2.78,7.58-6.52,9.44-11.38,1.32-3.44-.19-8.85-3.1-10.45-3.57-1.96-7.49-3.46-11.53-3.12-7.28.62-14.6,1.01-21.71,3.05-4.92,1.41-9.93,2.5-14.93,3.62-1.65.37-3.39.52-5.08.51-1.58,0-2.8-.95-3.29-2.47-.52-1.61.75-2.19,1.8-3.12,1.98-1.77,4.43-1.94,6.71-2.63,10.63-3.2,21.29-6.3,31.93-9.46,1.16-.34,2.36-.7,3.41-1.28,4.31-2.38,5.48-8.14,2.43-12.01-.47-.6-1.36-1.08-2.12-1.21-3.36-.6-6.73-1.27-10.13-1.53-13.7-1.05-27.06.66-39.91,5.6-3.23,1.24-6.5.23-9.73.78-.53.09-1.6-.81-1.77-1.44-.17-.62.26-1.71.8-2.16,1.4-1.16,2.91-2.23,4.52-3.07,5.44-2.85,11.15-5.22,17.26-5.79,7.13-.66,12.93-4.11,18.76-7.64,1.65-1,3.15-2.32,4.52-3.69,2.28-2.29,2.29-4.1.32-6.71-.51-.68-1.1-1.33-1.48-2.09-.67-1.33-1.76-1.98-3.15-2.22-3.84-.67-7.66-1.58-11.54-1.97-13.14-1.35-26.26-1.03-39.3,1.04-4.94.78-9.81,1.96-14.71,2.97-16.39,3.38-32.65,7.17-48.09,13.87-7.16,3.11-14.49,5.82-21.72,8.79-9.14,3.76-18.44,7.23-26.8,12.61-16.32,10.49-32.76,20.82-47.9,33.04-13.5,10.89-26.98,21.78-39.05,34.29-.81.84-1.57,1.74-2.95,3.27,1.22.86,2.3,1.47,3.2,2.28,9.15,8.26,18.2,16.63,27.41,24.81,14.47,12.84,31.38,21.93,48.36,30.81,17.62,9.22,35.42,18.08,53.17,27.04,4.01,2.02,8.15,3.77,12.28,5.68Zm-228.18-309.15c5.84-.17,11.12-1.01,16.34-2.16,22.17-4.84,44.33-9.74,66.48-14.63,9.88-2.18,19.76-4.42,29.64-6.6,14.53-3.2,29.08-6.35,43.61-9.56,17.51-3.87,34.99-7.86,52.52-11.68,18.24-3.97,36.49-7.91,54.77-11.66,14.22-2.91,28.53-5.42,42.77-8.24,16.64-3.3,33.24-6.77,49.86-10.11,7.17-1.44,14.52-2.22,21.54-4.18,16.71-4.67,33.5-8.81,50.76-10.92,4.2-.51,8.37-1.29,12.62-1.95-1.24-8.15-2.5-16.07-3.65-24.01-1.93-13.28-3.8-26.57-5.67-39.87-.92-6.52-1.76-13.06-2.68-19.58-.11-.76-.54-1.48-.99-2.66-2.74,6.84-4.75,13.29-6.07,20.04-3.02,15.43-6.49,30.77-9.9,46.12-.98,4.4-2.16,8.78-3.66,13.02-1.71,4.82-5.74,6.19-10.22,3.88-.87-.45-1.71-.97-2.63-1.28-3.06-1.03-5.29-3.07-6.83-5.8-3-5.31-6.21-10.53-8.7-16.07-6.54-14.51-14.75-28.07-22.9-41.67-.93-1.56-2.1-3.02-3.36-4.33-.69-.71-1.78-1.33-2.74-1.42-9.11-.83-18.24-1.42-27.34-2.32-6.65-.65-13.12.03-19.6,1.52-7.96,1.83-15.97,3.43-23.96,5.15-7.98,1.72-16,3.3-23.94,5.23-9.6,2.34-19.06,5.24-28.69,7.45-23.07,5.3-46.19,10.38-69.3,15.46-20.26,4.45-40.47,9.16-60.83,13.1-25.15,4.86-50.49,8.72-75.29,15.39-10.36,2.79-20.9,4.91-31.35,7.4-2.2.52-4.53.84-6.54,2.49,4.15,31.65,11.68,62.63,15.91,94.41Zm31.55,11.29c.15,1.62.17,2.47.31,3.31,1.33,7.94,2.58,15.9,4.05,23.82,2.21,11.87,4.79,23.68,6.81,35.58,2.44,14.43,4.44,28.93,6.67,43.39.45,2.92,1.09,5.82,1.77,9.39,1.56-1.64,2.56-2.67,3.54-3.73,4.07-4.38,7.89-9.02,12.23-13.11,10.2-9.63,20.47-19.21,31.05-28.41,8.86-7.71,17.39-15.73,25.27-24.4,12.73-14.02,26.77-26.35,43.48-35.44.75-.41,1.4-.99,2.14-1.41,4.91-2.79,9.98-5.21,15.69-5.72,5.61-.5,11.24-.37,16.75.82,4.28.93,8.72,1.75,12.64,3.58,14.39,6.69,28.35,14.24,41.92,22.47,3.55,2.15,6.88,4.66,10.44,6.77,14.7,8.71,29.45,17.34,44.19,26,2.1,1.23,4.21,2.44,6.5,3.78,31.76-26.01,63.46-51.97,95.31-78.05-4.23-20.84-8.14-41.65-12.7-62.51-1.34.2-2.23.14-2.95.46-8.75,3.9-18.08,5.95-27.33,8.05-14.03,3.19-28.19,5.84-42.33,8.51-8.27,1.56-16.69,2.38-24.92,4.11-24.6,5.17-49.06,11.01-73.72,15.84-20.48,4.01-40.83,8.61-61.21,13.06-17.88,3.91-35.79,7.68-53.75,11.16-11.37,2.21-22.85,3.85-34.31,5.61-11.69,1.8-23.41,3.42-35.12,5.15-4.07.6-8.12,1.27-12.43,1.95Zm331.61,102.53c-1.04-.95-1.41-1.4-1.87-1.7-4.51-2.9-9.07-5.73-13.54-8.68-7.84-5.17-15.51-10.63-23.47-15.59-12.32-7.68-24.85-15.02-37.25-22.56-11.26-6.84-22.37-13.94-33.73-20.6-10.42-6.11-21.01-11.92-31.67-17.59-5.36-2.85-10.89-5.57-17.19-5.84-2.8-.12-5.61-.33-8.41-.3-18.1.19-33.89,6.27-47.05,18.79-6.36,6.06-12.39,12.47-18.8,18.47-9.35,8.76-19.13,17.07-27.59,26.75-1.12,1.28-2.35,2.48-3.63,3.62-9.03,8.02-18.09,16.01-27.14,24.01-1.92,1.7-3.92,3.32-5.73,5.12-3.37,3.36-6.66,6.8-9.93,10.25-1.2,1.26-2.25,2.66-3.83,4.55,2.23,10.93,4.63,22.62,6.98,34.33.37,1.85,1.5,2.3,3.17,2.21,3.53-.2,7.1-.1,10.6-.57,11.24-1.53,22.46-3.18,33.66-4.95,10.72-1.7,21.29-4.28,32.19-4.9,2.11-.12,4.46-.71,6.21-1.85,21.61-14.01,44.98-24.49,68.68-34.28,8.44-3.49,17.08-6.62,25.83-9.23,18.6-5.56,37.51-9.65,56.89-11.66,13.65-1.42,27.03-.85,40.33,2.36,1.42.34,2.89.64,4.2,1.24,3.9,1.78,7.44,3.92,6.95,9.11-.04.42.25.88.45,1.55,4.75-.67,9.37-1.31,14.7-2.06Zm305.83,52.32c-1.21-1.96-2.01-3.48-3.02-4.84-6.23-8.44-12.57-16.81-18.77-25.27-10.39-14.18-20.74-28.38-28.94-44.01-2.09-3.98-4.82-7.63-7.2-11.46-4.45-7.16-8.65-14.42-11.21-22.54-3.44-10.93-7.1-21.8-10.7-32.68-.4-1.21-1.01-2.35-1.57-3.64-.78.45-1.22.66-1.61.94-11.07,8.02-22.13,16.04-33.21,24.06-1.98,1.43-4.02,2.77-5.99,4.22-1.37,1.01-2.74,2.04-3.98,3.2-2.98,2.8-3.38,2.82-6.01-.18-4.6,1.62-5.45,1.61-8.91,1.1-6.84-.99-11.47-5.09-15.13-10.54-4.9-7.29-8.21-15.25-9.53-23.95-.32-2.07-1.28-3.56-2.6-5.08-2.71-3.12-6.67-3.94-10.08-5.78-2.03-1.09-3.95-.86-5.92.21-3.93,2.13-6.53,5.42-8.32,9.42-2.8,6.26-3.86,12.81-3.39,19.64.49,7.18.83,14.37,1.43,21.55.57,6.81,1.32,13.6,2.14,20.38.2,1.64.98,3.22,1.58,4.8,1.66,4.32,4.67,7.73,7.87,10.9,4.15,4.11,8.34,8.25,13.7,10.88,4.82,2.36,9.56,4.89,14.45,7.1,5.93,2.69,9.91,7.06,13.2,12.64,4.31,7.3,7.98,14.56,9.75,23.05,2.14,10.23,5.85,20.13,8.69,30.23,2.34,8.32,5.27,16.49,6.54,25.11.43,2.96,1.39,5.85,2.21,9.23,2.99-.44,5.63-.72,8.22-1.22,3.35-.64,6.64-1.57,10-2.16,2.99-.53,6.07-.58,9.05-1.17,15.05-2.97,28.52-9.92,41.94-16.92,10.82-5.64,21.43-11.69,32.19-17.44,4.79-2.56,8.54-6.36,13.1-9.76Zm-391.03-340.48c1.18.43,2.15,1,3.18,1.11,9.83,1.1,19.64,2.27,29.53.43,10.56-1.97,21.15-3.67,31.98-3.4,4.06.1,7.97.26,11.81,1.85,1.48.61,2.54,1.28,3.2,2.68,1.5,3.2,2.98,6.41,4.54,9.58,1.56,3.17,2.89,6.5,4.86,9.4,5.21,7.67,10.8,15.09,16.08,22.71,4.02,5.81,7.76,11.82,11.7,17.68,2.42,3.61,5,7.11,7.51,10.66.26-.07.52-.15.78-.22.88-3.49,1.69-7,2.64-10.47,3.06-11.19,5.3-22.55,7.36-33.96,1.89-10.42,4.49-20.72,6.83-31.06.21-.91.76-1.75,1.22-2.59,2.1-3.86,5.78-5.51,9.74-6.37,5.47-1.19,10.99-2.25,16.54-2.91,11.63-1.39,23.29-2.45,34.93-3.75,2.46-.27,5.05-.49,6.8-1.85-.62-2.53-1.45-4.59-1.57-6.69-.26-4.52-4.56-7.25-8.57-5.02-5.3,2.95-10.98,4.71-16.87,5.85-4.31.83-8.64,1.59-13,2.16-2.03.27-4.16.23-6.18-.07-5.54-.82-10.14-5.99-10.5-11.57-.29-4.55.68-8.73,3.63-12.34.6-.73,1.11-1.54,2-2.79-5.51,1.24-10.48,2.28-15.42,3.49-4.71,1.15-9.4,1.38-14.13.23-2.49-.61-4.5-1.95-5.69-4.24-1.81-3.46-2.44-7.06-1.43-10.96,1.74-6.73,5.32-12.28,10.41-16.9,4.52-4.1,9.1-8.14,13.75-12.09,1.45-1.23,2.08-2.46,1.88-4.39-.45-4.49-.63-9.01-1.03-13.51-.32-3.61-.79-7.21-1.22-11.1-2.87-.56-5.45-.99-8-1.59-.75-.18-1.7-.64-2.03-1.26-2.71-5.02-4.67-10.25-3.35-16.11.5-2.19,1.47-4.09,3.41-5.43,2.09-1.44,4.1-3.01,6.39-4.71-.91-1.68-.39-3.78-2.12-5.66-2.86,2.67-5.67,5.15-8.32,7.81-2.5,2.5-4.7,5.3-7.23,7.76-5.94,5.79-12.23,11.24-17.94,17.23-6.97,7.32-13.51,15.05-20.22,22.62-1.03,1.17-1.9.96-3.13.12-3.08-2.08-6.19-4.15-9.47-5.88-4.2-2.21-8.62-4.02-12.89-6.1-13.72-6.68-27.55-13.1-42.1-17.8-.98-.32-2.02-.44-3.66-.79.84,2.31,1.39,4.02,2.07,5.67,2.2,5.29,4.69,10.48,6.64,15.86,4.65,12.85,9.02,25.8,13.6,38.67,1.35,3.78,2.84,7.54,4.6,11.14,1.79,3.65,1.83,4.29-.59,7.57-6.76,9.17-14.77,17.23-22.48,25.56-2.07,2.23-3.95,4.64-5.92,6.95-1.18,1.39-2.34,2.79-3.59,4.12-4.09,4.33-8.8,8.17-10.95,14.65Zm-276.72,182.06c.36,2.12.57,3.67.88,5.21,2.67,13.28,5.41,26.54,8.02,39.83,2.17,11.02,4.23,22.05,6.26,33.09,2.72,14.76,5.2,29.56,8.08,44.29,3.04,15.57,6.83,30.98,9.02,46.72.74,5.29,2.15,10.45,4.2,15.52,1.14-.07,2.1-.07,3.06-.19,9.2-1.17,18.39-2.48,27.61-3.51,14.83-1.66,29.47-4.17,43.68-8.87,1.14-.38,2.32-.82,3.29-1.5,5.99-4.21,11.93-8.5,17.88-12.78.75-.54,1.41-1.2,2.11-1.8-1.45-.52-2.72-.49-3.97-.28-10.35,1.73-20.73,3.3-31.03,5.29-13.7,2.64-27.52,4.06-41.43,4.72-3.55.17-3.93-.07-5.09-3.33-.32-.91-.66-1.88-.69-2.83-.19-6.51-1.75-12.78-2.89-19.15-4.6-25.7-9.01-51.43-13.4-77.17-1.27-7.45-2.02-15-3.42-22.42-2.36-12.47-5.08-24.86-7.57-37.3-.85-4.26-.35-5.33,3.84-6.27,7.24-1.64,14.55-3.04,21.88-4.25,7.21-1.19,14.51-1.85,21.72-3.04,11.31-1.86,22.58-4.02,33.88-5.97,10.82-1.87,21.7-3.42,32.48-5.5,10.9-2.09,21.69-4.75,32.56-6.99,25.22-5.19,50.5-10.06,75.67-15.5,14.44-3.12,28.83-6.48,43.5-8.25,16.42-1.98,32.41-5.95,48.36-9.98,11.85-2.99,23.81-5.28,35.82-7.41,7.9-1.4,15.93-2.31,23.4-5.58,3.07-1.34,5.88.38,6.47,3.77.88,5.05,1.69,10.11,2.76,15.12,2.18,10.26,4.82,20.43,6.72,30.74,2.76,15,4.75,30.14,7.56,45.13,3,15.94,6.57,31.77,9.92,47.65.16.76.58,1.47.99,2.51,5.92-10.39,11.63-20.41,17.57-30.84-.45-.33-1.05-.75-1.63-1.2-3.75-2.89-5.8-6.84-6.98-11.31-1.41-5.34-2.4-10.77-1.98-16.29.88-11.67,2.16-23.24,12.57-31.13,1.44-1.09,1.84-2.74,1.54-4.61-.66-4.08-1.07-8.2-1.79-12.26-2.93-16.45-5.93-32.89-8.92-49.33-.39-2.13-.83-4.25-1.27-6.49-1.04.16-1.75.21-2.45.38-3.56.83-7.1,1.8-10.68,2.51-8.13,1.6-16.29,3.04-24.43,4.62-25.04,4.86-50.07,9.7-75.09,14.66-11.49,2.28-22.91,4.93-34.4,7.19-19.15,3.78-38.39,7.13-57.5,11.14-26.63,5.59-53.17,11.61-79.74,17.48-23.71,5.23-47.38,10.66-71.13,15.69-23.02,4.88-46.38,8.2-68.98,15-5.48,1.65-10.95,3.32-16.85,5.11Zm555,213.88c1.03,4.66,2.13,9.28,3.07,13.94,1.75,8.73,3.39,17.49,5.11,26.23.61,3.09,1.61,3.88,4.73,3.88.73,0,1.46-.07,2.19-.16,14.04-1.85,27.34-6.08,40.06-12.25,2.96-1.44,5.98-2.76,9.03-4.01,10.49-4.32,21.06-8.46,31.49-12.93,11.7-5.01,23.03-10.7,32.04-20.09,1.93-2.01,4.28-3.62,6.45-5.4,1.12-.92,2.43-1.46,3.66-.43,1.36,1.14,1.06,2.63.19,3.97-.53.81-1.11,1.63-1.81,2.29-2.29,2.19-4.43,4.62-7.02,6.4-10.04,6.92-19.99,14.01-31.1,19.22-6.85,3.21-13.61,6.62-20.46,9.83-8.95,4.19-17.88,8.5-27.7,10.34-5.06.95-9.95,2.32-14.67,4.4-2.55,1.12-5.37,1.61-8,2.59-3.51,1.31-7.39,1.41-10.68,3.46-1.32.82-2.65.39-3.31-1.13-.64-1.46-1.59-1.58-3-1,2.09,15.3,7.41,29.56,11.69,44.21,1.44-.09,2.58.05,3.59-.26,6.88-2.08,13.91-3.17,21.07-3.59,1.7-.1,3.46-.19,5.06-.72,9.61-3.15,19.49-5.74,28.7-9.83,12.02-5.34,23.66-11.59,35.17-18,18.43-10.26,37.26-19.96,53.29-34,.7-.62,1.4-1.24,2.03-1.8-.18-.48-.21-.74-.35-.92-4.64-6.11-10.07-11.65-13.5-18.65-.23-.47-.86-.76-1.34-1.08-1.17-.79-2.62-1.32-3.49-2.35-2.9-3.45-5.7-6.99-8.35-10.64-3.52-4.83-6.61-9.99-10.34-14.65-3.69-4.6-6.84-9.48-9.64-14.65-1.28-2.36-2.67-4.66-4.06-6.95-.87-1.43-1.85-2.79-2.98-4.49-1.69,1.41-3.16,2.47-4.43,3.75-1.53,1.55-3.09,2.36-4.92.98-7.24,5.05-14.21,9.98-21.27,14.79-2.92,1.99-5.91,3.94-9.08,5.47-8.77,4.25-17.68,8.21-26.48,12.4-5.94,2.83-12.17,4.25-18.7,4.66-2.92.19-5.91.16-8.73.81-7.6,1.75-15.12,3.81-22.67,5.76-.1.03-.16.17-.52.57Zm-331.57,92.43c-4.21-1.6-7.83-3.05-11.5-4.34-14.9-5.23-29.18-11.86-42.8-19.78-15.71-9.14-31.42-18.36-45.38-30.16-.56-.47-1.18-.86-1.79-1.28-14.89-10.25-29.61-20.71-43.07-32.83-.7-.63-1.51-1.12-2.35-1.74-11.44,10.33-22.36,20.87-31.68,32.88.45.61.62.94.88,1.18,13.47,12.8,27.32,25.11,43.19,34.95,4.46,2.76,8.65,5.95,13.03,8.82,6.22,4.08,12.49,8.09,18.79,12.04,5.48,3.43,11.06,6.71,16.57,10.09,9.37,5.75,18.86,11.2,29.24,15.01,8.46,3.11,16.75,6.7,25.11,10.09,1.79.73,3.55,1.53,5,2.16,2.14-2.24,4.07-4.2,5.9-6.24.72-.81,1.21-1.82,1.8-2.74,3.56-5.53,7.05-11.12,10.72-16.58,2.57-3.82,5.39-7.48,8.33-11.52Zm193.23-210.57c1.23-2.32,2.18-4.29,3.3-6.16,1.82-3.04,3.61-6.1,5.67-8.97,2.21-3.08,3.36-6.08,1.22-9.67-.48-.8-.5-1.87-.69-2.83-.94-4.79-1.9-9.57-2.8-14.37-3.29-17.62-6.55-35.25-9.84-52.87-.24-1.27-.63-2.51-1.11-4.36-4.38,3.51-8.36,6.65-12.29,9.87-7.75,6.34-15.48,12.7-23.2,19.07-6.87,5.67-13.67,11.43-20.58,17.04-10.9,8.84-21.9,17.56-32.81,26.39-1.37,1.11-2.52,2.51-3.84,3.85.7.58,1.05.93,1.45,1.19,11.73,7.7,23.47,15.39,35.2,23.09,2.85,1.87,5.9,3.53,8.44,5.76,2.15,1.89,4.05,2.06,6.63,1.32,11.05-3.16,22.28-5.39,33.74-6.53,3.87-.38,7.71-1.2,11.5-1.81Zm88.35-91.22c.46,1.98.73,3.92,1.37,5.72,1.81,5.04,3.69,10.05,5.7,15.01,1.55,3.83,3.13,7.68,5.09,11.3,1.63,3.02,4.57,4.59,7.92,5.43,1.82.46,3.19.18,4.68-1.06,4.31-3.59,8.64-7.18,13.21-10.42,12.73-9.05,25.73-17.73,38.35-26.92,12.43-9.04,24.54-18.52,36.77-27.83,1.02-.77,1.86-1.78,2.8-2.7-.56-.7-.8-1.15-1.17-1.45-4.62-3.75-8.08-8.41-10.92-13.6-.63-1.15-1.58-2.17-2.53-3.1-2.87-2.81-5.93-5.44-8.69-8.36-1.62-1.71-2.81-3.83-4.33-5.97-2.81,2.18-5.46,4.31-8.2,6.34-10.11,7.47-20.18,14.99-30.39,22.31-6.14,4.4-12.62,8.33-18.77,12.72-10.22,7.3-20.29,14.81-30.89,22.57Zm-168.04,118.25c.07.24.14.47.2.71,1.66.09,3.32.18,4.98.25,6.22.27,12.42.65,18.25,3.2.8.35,1.9.31,2.79.13,5.98-1.19,11.94-2.51,17.92-3.69,15.55-3.07,31.12-6.06,46.67-9.14,12.32-2.44,24.63-4.93,36.93-7.44,1.76-.36,3.47-1,5.5-1.6-1.26-6.03-2.46-11.81-3.6-17.28-4.84.6-9.3,1.01-13.7,1.74-5.39.89-10.74,2.04-15.98,3.06-.86,5.43-1.21,5.71-6.55,6.24-4.73.47-9.47.98-14.19,1.56-8.83,1.09-17.71,1.91-26.46,3.48-9.71,1.74-19.28,4.27-28.95,6.3-4.05.85-8.19,1.26-12.29,1.87-1.65.25-2.71.9-3.47,2.68-.76,1.8-2.35,3.32-3.8,4.73-1.26,1.23-2.84,2.14-4.28,3.19Zm136.44-118.83c3.87-4.41,8.82-6.79,14.09-7.66.21-3.27.2-6.07.59-8.81,1.03-7.25,4.78-13.27,9.22-18.83,6.91-8.64,15.06-15.31,26.91-15.52,1.22-.02,2.44-.47,4.38-.87-3.77-1.66-6.71-3.13-9.78-4.24-3.32-1.2-6.75-2.28-10.36-1.77-4.33.62-8.63,1.45-12.94,2.17-6.14,1.02-11.21,3.91-15.29,8.6-.64.73-1.36,1.41-2.12,2.02-3.25,2.64-5.17,6.15-6.42,10.02-1.2,3.7-2.03,7.53-3.24,11.23-1.73,5.29-1.35,10.53-.32,15.88.64,3.36,2.47,5.68,5.28,7.77Zm-2.89,3.95c-.51-.62-.71-.93-.98-1.17-6.4-5.66-8.56-12.79-7.41-21.11.23-1.63.26-3.3.39-5-3.56.26-5.83,1.01-8.14,2.84-4,3.17-7.15,7.01-8.62,11.98-3.12,10.55-3.18,21.11,0,31.67.84,2.8,2.24,5.26,4.75,6.69,2.47,1.4,5.13,2.7,7.88,3.32,4.28.96,6.31-.88,6.52-5.15.4-8.33,1.18-16.56,5.6-24.07Zm157.65-39.3c3.85-2.26,7.81-4.4,11.56-6.86,3.59-2.36,4.31-5.09,2.9-9.2-.39-1.15-.79-2.33-1.42-3.36-2.45-4.06-4.98-8.08-7.5-12.1-2.14-3.4-4.43-6.72-6.47-10.17-2.42-4.11-4.47-4.85-8.7-2.56-2.79,1.51-5.49,3.17-8.17,4.87-2.14,1.36-4.18,2.89-6.36,4.42.61,1.11,1.05,1.96,1.54,2.78,2.24,3.76,4.5,7.52,6.76,11.27,1.25,2.08,2.52,4.15,3.81,6.21.84,1.34,1.85,2.58,2.6,3.97,2.29,4.27,5.44,7.76,9.45,10.73Zm-81.83-4.89c-.06-.34-.12-.69-.18-1.03-5.93-2.76-11.85-5.39-18.76-4.61-10.85,1.22-19.19,6.79-25.97,14.93-4.54,5.45-7.15,11.89-8.4,18.85-.66,3.67.7,5.29,4.31,6.25,1.89.5,2.68-.79,3.75-1.65,11.92-9.53,23.99-18.85,36.93-26.98,2.86-1.79,5.55-3.84,8.32-5.77Zm-94.68,118.6c6.55-1.89,12.96-3.74,19.45-5.62-.1-.65-.11-1.15-.27-1.59-3.35-9.39-5.06-19.08-5.29-29.04-.03-1.4-.37-2.8-.55-4.05-1.76.25-3.1.7-4.38.56-2.1-.23-3.05.75-3.91,2.46-2.37,4.68-4.85,9.31-7.35,13.92-2.49,4.6-5.07,9.15-7.77,14.01,3.28,3.05,6.48,6.01,10.07,9.35Zm5.04-379.47c-8.18-1.79-15.85-2.85-23.97-3.16.5,6.43.97,12.5,1.47,19.08,7.7-5.45,14.82-10.5,22.5-15.93Zm1.92,262.44c.63,3.39.18,7.02,2.21,10.11-.04-3.52-.7-6.91-2.21-10.11Zm18.84,143.19c1.1-.59,1.77-.95,2.35-1.25-.77-1.72-1.43-3.21-2.35-5.26v6.51Zm-436.29,145.22q.93,1.71,2.81,2.32-1.05-1.74-2.81-2.32Zm382.74-162.59c.29.16.58.33.88.49.63-1.17,1.27-2.33,1.9-3.5-.23-.13-.47-.26-.7-.38-.69,1.13-1.38,2.26-2.08,3.39Zm-342.13,114.4c-.13-.13-.27-.26-.4-.39-.32.34-.64.68-.95,1.01.08.08.16.15.25.23.37-.29.74-.57,1.11-.86Z"/><path d="m194.06,233.4c-.19.14-.38.2-.58.3-.46,1.24-1.35,2.33-2.75,3.43-4.88,3.81-9.74,7.77-12.49,13.64-4.96,10.55-8.81,21.37-10.14,33.08-1.18,10.38-1.6,20.62.59,30.94,4.55,21.46,16.94,36.33,36.92,45.08.51.22.98.54,1.75.97-3.27,1.54-6.26,2.89-9.19,4.35-13.96,6.96-26.46,16.14-38.57,25.83-27.2,21.77-53.21,44.85-76.39,70.96-10.86,12.23-21.54,24.63-30.93,38.06-4.19,6-8.44,11.96-12.77,18.1-.57-.04-1.29-.2-1.98-.1-1.8.25-2.8,1.36-2.2,3.04.91,2.54,0,4.52-1.19,6.54-1.37,2.31-2.79,4.59-4.17,6.89-6.29,10.45-12.62,20.88-18.85,31.37-2.17,3.66-4.16,7.43-6.13,11.21-.55,1.05-.93,2.3-.98,3.47-.07,1.7,1.92,2.74,3.08,1.61,1.6-1.57,3.26-3.26,4.28-5.22,8.02-15.38,16.29-30.6,26.27-44.83.68-.98,1.39-1.93,1.96-2.71,4.82,3.35,9.29,6.72,14.03,9.67,7.97,4.97,16.05,9.79,24.21,14.45,8.48,4.84,17.09,9.44,25.67,14.09,8.36,4.53,16.87,8.81,25.12,13.54,9.12,5.22,18.31,10.27,28.14,14.05,4.65,1.79,9.31,3.54,14.23,5.41-2.17,4.42-4.23,8.56-6.23,12.73-6.99,14.52-12.65,29.58-18.32,44.64-.17.45-.54.99-.42,1.36.28.86.61,2.02,1.28,2.35.63.32,1.96.03,2.54-.49.86-.78,1.47-1.93,1.93-3.03,1.02-2.45,1.68-5.06,2.83-7.44,5.38-11.09,10.75-22.19,16.35-33.17,7.93-15.55,15.9-31.07,24.16-46.44,4.1-7.62,8.87-14.88,13.36-22.3,3.03-5.01,6.02-10.05,9.16-14.99,5.7-8.96,11.5-17.85,17.27-26.77,3.91-6.04,7.82-12.1,11.8-18.09,1.01-1.51,2.18-2.96,3.49-4.22,3.96-3.81,7.86-7.71,12.09-11.19,4.32-3.56,8.83-6.95,13.58-9.91,8.46-5.26,17.83-8.39,27.41-11.03,9.89-2.72,19.61-6,28.48-11.35,4.54-2.74,8.63-6,11.66-10.4,3.19-4.62,2.5-8.77-1.96-12.08-1.44-1.06-3.02-1.92-4.78-3.03,2.52-1.06,4.71-2.09,6.97-2.91,5.52-1.99,8.91-6.25,11.84-10.98.69-1.11,1.06-2.48,1.33-3.77,1.42-6.84-1.51-12.85-7.72-16.05-.55-.29-1.04-.7-1.92-1.29,1.39-.53,2.27-.96,3.19-1.2,3.64-.97,6.12-3.43,8.27-6.32,7-9.41,1.52-19.43-5.8-23.27-7.6-3.99-15.85-6.27-24.24-8-3.92-.81-7.88-1.44-11.79-2.14.03-.52-.05-.81.06-.99,4.18-6.75,6.22-14.25,7.49-21.97-.33-1.08-.33-2.31.23-3.58,1.27-2.89,1.96-5.94,2.73-8.97-.14.04-.28.08-.42.12.13-1.53.18-3.14.4-4.72,1.85-12.94,1.62-25.78-1.79-38.48-1.92-7.17-5.31-13.33-11.39-17.84-1.37-1.01-2.59-2.22-3.9-3.33-2.73-2.31-5.07-4.94-8.9-5.97-2.81-.75-5.37-2.86-7.73-4.75-5.48-4.39-11.78-6.87-18.53-8.27-4.29-.89-8.64-1.54-12.97-2.2-6.23-.95-12.42-.2-18.59.57-7.14.89-14.32,1.62-21.41,2.81-7.72,1.3-15.16,3.55-21.77,8-.59.4-1.25.68-2.45,1.33,0-.33-.02-.65-.03-.98m-10.39,106.98c-3.46-5.01-7.16-9.99-9.73-15.46-2.09-4.44-2.8-9.56-3.89-14.44-2.13-9.51-.81-18.94,1.03-28.33,2.64-13.5,8.86-24.98,19.29-34.07.55-.48,1.11-.97,1.59-1.51,7.2-8.03,16.58-12.12,26.64-15.21,9.39-2.89,18.97-3.25,28.62-2.89,7.31.28,14.65.65,21.9,1.61,11.62,1.53,21.76,6.2,29.28,15.61,2.44,3.05,4.9,6.09,7.4,9.09,5.12,6.18,8.04,13.31,9.46,21.15,1.84,10.14,2.52,20.35,1.84,30.63-.16,2.4-.64,4.86-1.46,7.12-3.43,9.41-7.46,18.56-12.45,27.27-.18.32-.33.67-.57.93-3.27,3.48-5.87,7.64-10.7,9.46-3.97,1.49-7.78,3.38-11.72,5.13-5.33-12.19-6.38-24.92-9.32-37.22,2.77-1.8,5.27-3.31,7.65-4.99,6.92-4.89,11.12-11.54,12.27-19.96.61-4.45-1.43-8.3-5.46-10.27-6.41-3.12-12.73-2.97-18.79,1.01-3.25,2.14-5.01,5.28-5.75,9.01-1.34,6.81-.82,13.61.31,20.39.16.94.28,1.89.44,2.99-3.53,1.85-7.25,2.2-11.26,2.68-.64-1.57-1.25-3-1.8-4.45-3.07-7.97-7.43-15.08-13.81-20.88-2.87-2.61-6.01-4.47-9.88-5.2-7.72-1.45-11.87,1.95-14.21,8.34-1.93,5.28-1.87,10.86-.23,16.23,1.63,5.3,5.12,9.1,10.47,10.96,7.95,2.77,16,4.47,24.41,2.22.58-.15,1.21-.12,2.24-.22,4.53,12.11,6.94,24.92,11.79,37.49-2.5.44-4.62.87-6.75,1.17-.54.07-1.22-.14-1.69-.44-3.48-2.2-3.46-2.22-6.37.45-.26.24-.56.42-1.01.75-2.26-3.73-6.18-4.35-9.87-5.63-4.88-1.7-10.07-1.84-14.92-3.27-6.41-1.88-12.54-4.68-18.78-7.13-1.81-.71-3.52-1.69-5.34-2.36-4.35-1.59-8.22-3.94-10.86-7.76Zm125.49,52.54c-3.39-1.91-6.62-3.73-10.14-5.71.86-.98,1.28-1.79,1.95-2.16,2.44-1.36,4.88-2.76,7.47-3.8,2.96-1.19,3.73-.74,5.05,2.25.75,1.7,1.37,3.46,2.22,5.63-2.24,1.3-4.42,2.56-6.54,3.79Zm.73,11.57l-.45.05c-.07-.75-.15-1.5-.22-2.25.16-.02.32-.03.47-.05.07.75.13,1.5.2,2.25Zm-6.99-25.27c-3.05,1.68-5.77,4.11-9.51,4.24-.6.02-1.25.2-1.79.03-4.73-1.52-9.45-3.09-14.37-4.72,4.1-3.11,7.97-6.01,11.79-8.97.86-.66,1.76-1.42,2.26-2.35.39-.73.57-2.04.17-2.6-.42-.58-1.64-.67-2.54-.78-.41-.05-.9.32-1.31.57-9.57,6.01-20.34,8.58-31.22,10.8-1.41.29-2.9.18-4.51.26-.53-.97-1.02-1.88-1.79-3.3,4.75-1.63,9.18-3.26,13.67-4.66,8.95-2.78,18.01-5.24,26.89-8.25,3.51-1.19,6.65-3.46,10.19-5.37,3.59,6.76,5.91,14.24,8.34,21.32-2.24,1.35-4.22,2.63-6.28,3.77Zm-31.69-19.38c-.56.28-1.38.78-2.26,1.14-1.67.69-3.36,1.3-5.05,1.94-3.9-12.59-7.65-24.68-11.46-36.98,3.23-1.17,6.4-2.32,9.86-3.58,2.97,12.5,5.91,24.86,8.91,37.48Zm-5.96-66.49c.31-.62.62-1.23.93-1.85l.4.16c-.28.69-.55,1.38-.83,2.07l-.5-.39Zm3.53,5.96c.38-3.47,1.7-6.62,3.92-9.32,2.57-3.12,6.26-3.9,9.9-2.19,2.38,1.11,3.24,2.37,2.52,4.94-.78,2.78-1.85,5.55-3.22,8.09-2.71,5.01-6.76,8.85-11.98,12.4-1.12-4.95-1.62-9.4-1.13-13.92Zm4.9,50.13l1.23,4.27c-.22.11-.43.21-.65.32-.62-1.42-1.48-2.78-.58-4.59Zm-28.46-29.13c-7.07,3.19-21.45,1.87-26.91-4.7-5.74-6.91-5.8-11.19-2.61-18.13,1.68-3.64,3.89-4.4,7.79-3.26,5.2,1.53,9.5,4.32,12.75,8.73,3.87,5.25,6.71,11.02,8.99,17.36Zm-52.29,32.5c5.59,2.29,11.46,3.97,16.42,7.44-6.19-1.1-11.66-3.52-16.42-7.44Zm141.07,81.02c-3.16,3.44-6.99,6.08-11.17,8.17-11.32,5.65-23.3,9.4-35.61,12.04-11.16,2.39-21.7,6.06-30.19,13.92-4.08,3.78-7.42,8.37-11.09,12.6-2.95,3.4-5.72,6.99-8.88,10.19-4.41,4.46-8.17,9.27-11.1,14.88-10.24,19.59-21.43,38.63-34.06,56.78-7.54,10.84-14.37,22.09-20.61,33.72-.34.63-.74,1.23-1.3,2.15-2.55-1.36-5.08-2.53-7.43-4-7.82-4.89-16.23-8.43-24.96-11.26-5.37-1.74-10.47-4.02-15.22-7.09-1.84-1.19-3.72-2.36-5.7-3.3-12.5-5.99-23.83-13.81-35.07-21.82-4.96-3.53-10.25-6.61-15.49-9.72-5.67-3.36-11.32-6.7-16.32-11.08-2.55-2.23-5.46-4.04-8.43-6.19.81-1.18,1.53-2.3,2.32-3.36,9.78-13.11,19.39-26.35,29.44-39.25,5.01-6.43,10.65-12.41,16.33-18.27,8.91-9.21,18.11-18.14,27.17-27.2,8.64-8.64,17.68-16.84,27.65-23.95,10.73-7.65,21.19-15.74,32.34-22.74,12.49-7.84,25.6-14.69,38.49-21.88,1.09-.61,2.55-.9,3.81-.81,4.01.28,8.01.84,12.02,1.22,1.56.15,2.84.64,3.64,2.06,1.48,2.64,2.98,5.27,4.6,8.15-1.05.51-1.76.92-2.5,1.22-8.45,3.4-16.14,8.02-23.09,13.92-1.26,1.07-1.91,2.15-1.46,3.78.49,1.77,1.74,2.28,3.34,1.31.31-.19.58-.45.84-.7,5.19-4.96,11.36-8.45,17.79-11.42,2.72-1.25,5.72-2.19,8.68-2.57,11.59-1.48,23.16-.94,34.51,1.89,6.03,1.5,11.93,3.54,17.05,7.32,1.27.94,2.74,1.59,4.09,2.42,4.23,2.59,6.72,6.23,7.07,11.3.35,5.2-2.83,10.01-7.88,11.31-3.79.97-7.58,1.37-11.58.93-4.59-.51-9.27-.42-13.89-.23-3.44.14-6.22,2.16-8.58,4.5-2.69,2.65-5.11,5.57-7.69,8.34-1.07,1.15-2.27,2.17-3.35,3.32-.49.51-.9,1.13-1.21,1.77-.62,1.27-1.71,2.58-.16,3.94,1.19,1.04,3.09,1.02,4.67-.34,3.43-2.94,6.73-6.02,10.1-9.02,2.37-2.11,4.74-4.21,7.14-6.29,1.54-1.34,3.36-1.97,5.4-1.87,3.04.14,6.1.18,9.13.48,4.84.48,9.51.04,13.9-2.19,1.13-.57,2.15-.45,3.42-.31,5.32.58,10.7.57,16.02,1.18,3.72.43,7.5,1.13,10.99,2.42,4.61,1.71,5.42,6.02,2.07,9.67Zm12.2-41.66c2.14,2.07,2.81,4.31,2.01,7.25-1.81,6.67-5.7,11.5-12.5,12.95-7.6,1.61-15.36,2.45-23.06,3.58-.94.14-1.92.02-3.27.02,2.76-5.49,6.53-10.1,3.92-16.31,1.01-.6,1.81-1.09,2.63-1.55.85-.48,1.73-.89,2.58-1.38,5.13-3,5.88-4.65,4.59-10.69,8.41-.29,16.51-.22,23.1,6.14Zm-8.27-12.69c-5.95.58-11.9.64-17.61-.03-3.46-7.48-6.78-14.66-10.11-21.84-.56-1.22-1.03-2.5-1.77-3.61-1.43-2.15-1.03-3.85,1.31-5.63,5.02,1.11,10.49,1.88,15.66,3.57,7.27,2.38,14.38,5.33,21.43,8.32,1.91.81,3.66,2.44,4.98,4.1,2.11,2.66,1.68,5.74-.56,8.28-3.56,4.03-7.99,6.33-13.33,6.85Z"/><path d="m116.04,779.4c-2.37.52-4.75.93-7.07,1.58-7.75,2.16-15.18,1.47-22.41-2.08-2.12-1.04-3.59-2.49-4.34-4.66-1.63-4.71-2.15-9.55-1.01-14.42,1.16-4.98,4.28-8.4,9.1-10.16,3.23-1.18,6.56-1.67,10.02-1.82,6.57-.29,13.11-.95,19.92-1.48.33-1.56.66-3.08.99-4.6,2.51-11.85,8.06-22.12,15.91-31.28,4.66-5.43,10.02-10.03,16.03-13.78,2.63-1.64,5.77-2.58,8.78-3.49,8.29-2.5,16.61-4.86,25.3-5.63,6.28-.56,12.38.79,18.56,1.35,6.88.62,13.32,2.92,19.8,5.01,2.26.73,4.34,2.22,6.3,3.64,4.45,3.22,8.97,6.39,13.07,10.01,2.79,2.47,5.31,5.45,7.26,8.63,2.92,4.77,5.38,9.84,7.77,14.91,3.15,6.67,3.6,13.87,3.55,21.12-.03,4.87,0,9.74,0,14.92.75.17,1.66.45,2.6.57,8.21,1.08,16.42,2.24,24.65,3.15,4.95.55,9.94.73,14.92,1.02,1.88.11,3.39,1.76,3.28,3.96-.37,7.43-.64,14.88-1.2,22.3-.92,12.17-2.16,24.29-4.28,36.33-2.42,13.7-5.15,27.31-8.68,40.78-1.14,4.35-1.59,8.88-2.32,13.33-.66,4.05-1.07,4.41-5.18,4.27-.98-.03-1.95-.06-2.93-.03-11.98.32-23.91-.44-35.83-1.49-8.87-.79-17.71-1.78-26.57-2.62-2.79-.27-5.6-.39-8.4-.51-8.29-.35-16.58-.77-24.87-.95-4.88-.11-9.76.2-14.64.28-2.44.04-4.89.19-7.31-.02-3.58-.31-4.22-1.54-2.78-4.83.44-1,.88-2.03,1.5-2.93,3.84-5.65,5.92-11.96,7.36-18.58.95-4.4,2.38-8.71,3.59-13.05.39-1.4.77-2.8,1.15-4.22-.43-.3-.68-.6-.99-.68-12.77-2.99-24.28-8.78-35.05-16.08-9.2-6.23-15.43-14.9-19.01-25.32-2.45-7.13-4.23-14.5-6.49-22.42Zm65.71,64.21c-.71,4.21-1.04,7.99-2.03,11.58-1.13,4.1-2.91,8.02-4.3,12.05-1.6,4.67-3.08,9.37-4.71,14.35,1.49.13,2.44.29,3.39.3,6.35.03,12.7.17,19.05,0,17.99-.47,35.85,1.41,53.74,2.74,13.6,1.01,27.21,1.8,41.13,2.71.57-2.33,1.18-4.29,1.53-6.29,2.2-12.37,4.47-24.73,6.46-37.14,1.37-8.55,2.37-17.15,3.4-25.75.96-7.99,1.82-15.98,2.56-23.99.54-5.81.8-11.64,1.18-17.43-13.29-1.83-26.25-3.62-39.52-5.45-.47,4.33-2.83,7.89-1.94,12.11.15.73-.41,1.61-.67,2.41-1.4,4.41-3.04,8.76-4.18,13.24-1.99,7.82-5.09,14.99-10.61,21-.65.71-1.21,1.54-1.66,2.4-2.31,4.5-5.92,7.74-10.17,10.28-4.52,2.69-9.26,4.91-14.42,6.16-2.49.6-5.03,1.14-7.38,2.1-7.06,2.88-14.34,3.79-21.89,2.97-1.94-.21-3.9-.27-5.85-.36-1.07-.05-2.15,0-3.13,0Zm-56.15-84.25c.18,3.29.25,6.58.58,9.85.18,1.77.87,3.48,1.24,5.24.29,1.42.32,2.9.67,4.31,2.57,10.27,7.93,18.75,16.06,25.6,4.03,3.4,8.07,6.53,12.96,8.74,9.19,4.15,18.77,6.91,28.62,8.76,6.14,1.16,12.42,1.41,18.59.47,9.16-1.4,17.62-4.76,25.17-10.28,2.95-2.16,5.97-4.25,9.09-6.16,7.18-4.4,11.16-11.02,13.53-18.84.6-1.98,1.03-4.03,1.8-5.95,3.42-8.55,4.33-17.49,4.2-26.58-.13-8.94-2.58-17.36-6.62-25.27-2.6-5.1-5.53-10.05-8.49-14.96-1.5-2.48-3.09-5.07-5.2-7-6.72-6.16-14.3-10.94-23.33-13.1-7.01-1.68-14.04-3.39-21.29-3.19-11.18.31-22,2.78-32.59,6.23-.91.3-1.77.82-2.56,1.37-3.31,2.29-6.65,4.54-9.85,6.98-2.12,1.61-4.47,3.18-5.94,5.31-5.35,7.75-9.94,15.95-12.78,25.01-2.39,7.63-3.19,15.52-3.85,23.47Zm118.59,51.14c-.16-.14-.32-.28-.48-.42-.76.53-1.51,1.09-2.29,1.59-4.01,2.55-8.16,4.9-12,7.67-5.91,4.27-12.14,7.59-19.53,8.32-1.31.13-2.9.21-3.82.97-2.29,1.87-4.85,2.03-7.56,2.09-2.56.06-5.11.29-7.66.5-7.91.68-15.58-.25-22.91-3.44-4.8-2.09-9.54-4.31-14.42-6.2-2.45-.95-4.71-2.04-6.45-3.99-4.52-5.1-9-10.25-13.47-15.4-.86-.99-1.62-2.06-2.94-3.74.1,1.31.04,1.78.17,2.2,2.24,7.09,6.08,13.29,10.81,18.93,1.14,1.36,2.77,2.38,4.34,3.28,7.2,4.1,14.44,8.13,21.7,12.14,3.24,1.79,6.72,2.88,10.42,3.2,10.76.92,21.43.94,31.82-2.68,12.05-4.2,23.08-9.91,30.84-20.54,1.11-1.52,2.29-2.99,3.45-4.48Zm-124.46-58.94c-2.51.19-4.44.24-6.33.51-3.5.5-7,.99-10.45,1.75-3.54.78-7.01,1.9-10.52,2.84-1.8.48-2.68,1.7-2.63,3.47.12,3.89.26,7.78.64,11.64.09.88,1.03,1.92,1.85,2.44,3.03,1.91,6.28,2.22,9.82,1.42,4.26-.96,8.61-1.51,12.92-2.22,1.29-.21,2.58-.37,3.83-.55.29-7.11.57-13.89.87-21.32Z"/><path class="cls-2" d="m920,112.79c8.77,4.24,16.7,9.04,24.06,14.71,2.98,2.29,5.32,5.4,8.23,7.79,8.39,6.89,17.01,13.5,25.38,20.42,3.94,3.25,7.52,6.94,11.22,10.47,1.32,1.26,2.44,2.73,3.77,3.99,12.58,11.95,24.42,24.58,35.6,37.84,2.27,2.7,4.77,5.2,7.47,8.12-1.46,1.79-2.89,3.56-4.33,5.31-2.47,3.01-5.22,5.82-7.33,9.06-2.63,4.03-5.64,7.68-9.15,10.9-10.92,10-20.61,21.15-30.6,32.02-10.9,11.86-21.87,23.66-32.75,35.54-6.68,7.28-13.23,14.68-19.87,22-7.24,7.97-15.22,15.16-23.61,21.88-13.25,10.59-26.59,21.07-39.88,31.6-7.99,6.33-17.31,10.46-26,15.63-3.77,2.24-7.65,4.3-11.51,6.39-7.2,3.9-15.01,5.7-23.07,6.66-2.76.33-5.28-.38-7.84-1.55-.25-2.31.63-4.19,1.62-5.98,2.54-4.62,5.54-8.89,9.44-12.51,3.84-3.57,7.63-7.21,11.32-10.93,2.26-2.28,2.63-3.71,1.48-4.65-1.86-1.52-3.18.17-4.53,1.02-8.65,5.5-17.22,11.11-25.89,16.56-2.98,1.87-6.04,3.81-9.33,4.98-6.88,2.46-13.85,4.74-20.94,6.47-3.71.91-7.76.78-11.63.61-5.16-.23-7.62-3.71-6.4-8.82,1.5-6.29,4.92-11.46,10.29-15.08,5.26-3.54,10.86-6.58,16.12-10.1,5.46-3.66,10.73-7.62,16.03-11.52.86-.63,1.62-1.5,2.17-2.42.31-.52.38-1.6.05-1.98-.47-.54-1.49-1.02-2.13-.88-1.15.26-2.35.81-3.26,1.56-10.54,8.62-23.11,13.52-35.17,19.37-5.83,2.82-11.67,5.77-18.11,6.74-4.42.66-8.99.63-13.47.42-3.47-.16-5.05-2.53-4.82-6.04.38-5.73,2.43-10.62,6.91-14.42,9.12-7.73,18.01-15.74,28.15-22.17.41-.26.82-.53,1.21-.83,9.57-7.56,19.18-15.08,28.69-22.72,1.88-1.51,3.52-3.39,5.02-5.3.55-.7.71-2.12.38-2.94-.22-.55-1.66-.94-2.49-.85-3.27.37-6.54.82-9.76,1.5-8.48,1.8-16.97,1.58-25.5.58-2.78-.33-5.59-.47-8.38-.74-1.82-.17-3.66-.3-5.45-.66-3.59-.7-6.47-2.61-7.53-6.18-1.03-3.47.49-6.45,3.06-8.85,3.29-3.07,7.25-4.94,11.6-5.93,4.64-1.05,9.34-1.85,13.97-2.94,10.94-2.59,21.57-6.11,31.55-11.38,1.51-.8,3.04-1.57,4.58-2.3,12.2-5.76,22.86-13.55,31.58-23.9,3.46-4.1,6.87-8.25,10.29-12.39,2.33-2.82,4.53-5.77,6.99-8.47,8.91-9.76,16.99-20.14,24.29-31.14,1.82-2.74,3.8-5.39,5.83-7.98,5.33-6.84,10.43-13.82,14.7-21.41,1.97-3.5,4.42-6.73,6.76-10.01,6.1-8.54,12.32-16.99,18.36-25.57,2.6-3.68,4.82-7.63,7.32-11.38,1.61-2.42,3.42-4.71,5.27-7.24Z"/><path class="cls-2" d="m535.05,919.62c-4.13-1.9-8.27-3.66-12.28-5.68-17.75-8.95-35.56-17.82-53.17-27.04-16.98-8.88-33.89-17.97-48.36-30.81-9.22-8.18-18.27-16.55-27.41-24.81-.9-.81-1.99-1.42-3.2-2.28,1.37-1.53,2.13-2.42,2.95-3.27,12.07-12.51,25.55-23.4,39.05-34.29,15.15-12.22,31.58-22.55,47.9-33.04,8.36-5.38,17.66-8.85,26.8-12.61,7.22-2.97,14.55-5.68,21.72-8.79,15.44-6.7,31.7-10.49,48.09-13.87,4.9-1.01,9.77-2.19,14.71-2.97,13.04-2.07,26.17-2.39,39.3-1.04,3.87.4,7.69,1.3,11.54,1.97,1.4.24,2.48.89,3.15,2.22.38.75.97,1.4,1.48,2.09,1.97,2.61,1.97,4.43-.32,6.71-1.37,1.37-2.87,2.69-4.52,3.69-5.84,3.52-11.64,6.97-18.76,7.64-6.11.57-11.82,2.93-17.26,5.79-1.61.84-3.13,1.91-4.52,3.07-.54.45-.97,1.54-.8,2.16.17.62,1.24,1.53,1.77,1.44,3.22-.55,6.49.46,9.73-.78,12.85-4.94,26.21-6.65,39.91-5.6,3.4.26,6.77.93,10.13,1.53.76.14,1.65.61,2.12,1.21,3.05,3.87,1.87,9.64-2.43,12.01-1.05.58-2.25.93-3.41,1.28-10.64,3.16-21.3,6.26-31.93,9.46-2.28.69-4.74.86-6.71,2.63-1.05.94-2.32,1.52-1.8,3.12.49,1.52,1.71,2.46,3.29,2.47,1.7,0,3.43-.14,5.08-.51,5-1.12,10.01-2.22,14.93-3.62,7.11-2.04,14.44-2.43,21.71-3.05,4.05-.34,7.96,1.15,11.53,3.12,2.91,1.6,4.42,7.01,3.1,10.45-1.86,4.86-5.18,8.6-9.44,11.38-6.13,3.99-12.33,7.89-18.7,11.47-7.98,4.48-16.11,8.68-24.27,12.84-7.39,3.76-14.91,7.26-22.33,10.97-2.26,1.13-4.73,2.18-5.7,4.83-.3.83-.61,2.06-.22,2.62.4.59,1.84,1.05,2.49.78,4-1.67,7.35.06,10.82,1.62,5.12,2.29,10.3,4.45,15.44,6.69,4.55,1.97,7.71,5.54,10.4,9.49,1.92,2.83,1.25,5.18-1.6,7.21-3.55,2.53-7.51,4.1-11.85,4.48-8.02.7-16.01,1.58-24.1,1.48-8.03-.1-16.07.29-24.02,2.05-6.86,1.52-11.91,5.23-16.02,10.7-7.18,9.57-14.45,19.07-21.7,28.59-.66.86-1.38,1.67-2.31,2.8Z"/><path class="cls-2" d="m338.42,621.76c4.31-.68,8.36-1.35,12.43-1.95,11.7-1.72,23.42-3.35,35.12-5.15,11.45-1.76,22.94-3.41,34.31-5.61,17.96-3.48,35.88-7.25,53.75-11.16,20.38-4.46,40.73-9.05,61.21-13.06,24.66-4.83,49.13-10.67,73.72-15.84,8.23-1.73,16.65-2.54,24.92-4.11,14.14-2.67,28.3-5.31,42.33-8.51,9.25-2.11,18.58-4.15,27.33-8.05.72-.32,1.61-.27,2.95-.46,4.56,20.86,8.47,41.67,12.7,62.51-31.85,26.08-63.55,52.04-95.31,78.05-2.3-1.33-4.4-2.55-6.5-3.78-14.73-8.66-29.49-17.28-44.19-26-3.57-2.11-6.9-4.62-10.44-6.77-13.57-8.23-27.53-15.78-41.92-22.47-3.92-1.82-8.36-2.65-12.64-3.58-5.51-1.19-11.15-1.32-16.75-.82-5.71.51-10.78,2.93-15.69,5.72-.74.42-1.39,1.01-2.14,1.41-16.71,9.1-30.75,21.42-43.48,35.44-7.88,8.68-16.41,16.7-25.27,24.4-10.58,9.2-20.85,18.78-31.05,28.41-4.34,4.09-8.16,8.73-12.23,13.11-.98,1.06-1.98,2.09-3.54,3.73-.68-3.57-1.32-6.47-1.77-9.39-2.23-14.46-4.23-28.96-6.67-43.39-2.01-11.9-4.6-23.71-6.81-35.58-1.47-7.92-2.72-15.88-4.05-23.82-.14-.84-.16-1.69-.31-3.31Zm273.98-17.69c.61,3.64.92,7.19,1.84,10.57,1.62,5.92,5.6,9.93,11.33,12.03,8.11,2.97,21.67-1.57,26.53-8.72,1.05-1.55,1.35-3.68,3.59-4.34.4-.12.77-1.28.69-1.9-.54-4.46-.46-9.07-2.65-13.17-3.45-6.45-8.37-11.09-15.93-12.06-7.37-.94-14,1.43-20.06,5.34-1.6,1.04-2.85,3.05-3.59,4.89-.94,2.33-1.2,4.93-1.75,7.37Z"/><path class="cls-2" d="m670.04,724.29c-5.33.75-9.95,1.39-14.7,2.06-.21-.67-.49-1.13-.45-1.55.49-5.19-3.05-7.33-6.95-9.11-1.32-.6-2.78-.9-4.2-1.24-13.3-3.2-26.69-3.78-40.33-2.36-19.38,2.02-38.29,6.11-56.89,11.66-8.75,2.61-17.39,5.75-25.83,9.23-23.7,9.79-47.07,20.26-68.68,34.28-1.75,1.13-4.1,1.73-6.21,1.85-10.89.62-21.47,3.2-32.19,4.9-11.2,1.77-22.43,3.42-33.66,4.95-3.49.48-7.06.37-10.6.57-1.67.1-2.8-.36-3.17-2.21-2.35-11.7-4.75-23.4-6.98-34.33,1.58-1.89,2.63-3.29,3.83-4.55,3.27-3.45,6.56-6.9,9.93-10.25,1.81-1.8,3.81-3.42,5.73-5.12,9.05-8,18.11-15.99,27.14-24.01,1.28-1.13,2.51-2.33,3.63-3.62,8.46-9.68,18.24-17.98,27.59-26.75,6.41-6.01,12.44-12.42,18.8-18.47,13.15-12.52,28.95-18.6,47.05-18.79,2.8-.03,5.61.18,8.41.3,6.29.27,11.82,2.99,17.19,5.84,10.66,5.67,21.26,11.48,31.67,17.59,11.37,6.66,22.48,13.76,33.73,20.6,12.41,7.54,24.94,14.88,37.25,22.56,7.97,4.97,15.63,10.42,23.47,15.59,4.47,2.95,9.04,5.78,13.54,8.68.47.3.84.75,1.87,1.7Z"/><path class="cls-2" d="m975.87,776.62c-4.55,3.39-8.31,7.2-13.1,9.76-10.76,5.75-21.37,11.8-32.19,17.44-13.42,7-26.89,13.96-41.94,16.92-2.98.59-6.06.64-9.05,1.17-3.36.59-6.65,1.52-10,2.16-2.59.5-5.22.79-8.22,1.22-.83-3.38-1.78-6.27-2.21-9.23-1.26-8.62-4.2-16.79-6.54-25.11-2.84-10.1-6.55-19.99-8.69-30.23-1.77-8.48-5.44-15.75-9.75-23.05-3.3-5.58-7.28-9.95-13.2-12.64-4.88-2.22-9.63-4.74-14.45-7.1-5.36-2.63-9.55-6.77-13.7-10.88-3.2-3.16-6.21-6.58-7.87-10.9-.61-1.57-1.38-3.16-1.58-4.8-.83-6.78-1.58-13.58-2.14-20.38-.6-7.17-.93-14.37-1.43-21.55-.47-6.83.59-13.38,3.39-19.64,1.79-4,4.38-7.29,8.32-9.42,1.97-1.06,3.89-1.3,5.92-.21,3.41,1.83,7.36,2.65,10.08,5.78,1.31,1.51,2.28,3.01,2.6,5.08,1.33,8.7,4.63,16.66,9.53,23.95,3.67,5.45,8.29,9.55,15.13,10.54,3.46.5,4.31.52,8.91-1.1,2.63,3,3.03,2.98,6.01.18,1.24-1.16,2.61-2.19,3.98-3.2,1.97-1.44,4.01-2.79,5.99-4.22,11.07-8.01,22.14-16.04,33.21-24.06.39-.28.83-.49,1.61-.94.56,1.29,1.17,2.43,1.57,3.64,3.6,10.88,7.25,21.75,10.7,32.68,2.56,8.13,6.76,15.39,11.21,22.54,2.38,3.83,5.11,7.48,7.2,11.46,8.2,15.63,18.55,29.83,28.94,44.01,6.2,8.46,12.53,16.83,18.77,25.27,1.01,1.37,1.81,2.88,3.02,4.84Z"/><path class="cls-2" d="m308.12,618.2c5.9-1.79,11.37-3.46,16.85-5.11,22.6-6.8,45.96-10.12,68.98-15,23.75-5.03,47.42-10.46,71.13-15.69,26.57-5.86,53.11-11.88,79.74-17.48,19.1-4.01,38.35-7.36,57.5-11.14,11.49-2.27,22.91-4.92,34.4-7.19,25.02-4.96,50.06-9.8,75.09-14.66,8.14-1.58,16.3-3.02,24.43-4.62,3.59-.71,7.12-1.68,10.68-2.51.69-.16,1.41-.22,2.45-.38.44,2.24.89,4.36,1.27,6.49,2.99,16.44,5.99,32.88,8.92,49.33.72,4.06,1.13,8.18,1.79,12.26.3,1.87-.1,3.52-1.54,4.61-10.41,7.88-11.69,19.46-12.57,31.13-.42,5.52.57,10.95,1.98,16.29,1.18,4.47,3.23,8.42,6.98,11.31.58.45,1.18.87,1.63,1.2-5.94,10.42-11.65,20.45-17.57,30.84-.42-1.03-.83-1.74-.99-2.51-3.35-15.87-6.92-31.71-9.92-47.65-2.82-14.99-4.81-30.13-7.56-45.13-1.89-10.31-4.53-20.48-6.72-30.74-1.07-5.01-1.88-10.07-2.76-15.12-.59-3.39-3.4-5.1-6.47-3.77-7.47,3.26-15.51,4.18-23.4,5.58-12.01,2.13-23.97,4.42-35.82,7.41-15.96,4.03-31.95,8-48.36,9.98-14.67,1.77-29.06,5.13-43.5,8.25-25.16,5.44-50.45,10.31-75.67,15.5-10.87,2.24-21.66,4.9-32.56,6.99-10.78,2.07-21.66,3.63-32.48,5.5-11.3,1.95-22.57,4.11-33.88,5.97-7.21,1.19-14.51,1.85-21.72,3.04-7.33,1.21-14.63,2.61-21.88,4.25-4.19.95-4.7,2.02-3.84,6.27,2.49,12.44,5.22,24.84,7.57,37.3,1.4,7.42,2.15,14.97,3.42,22.42,4.39,25.74,8.81,51.47,13.4,77.17,1.14,6.37,2.7,12.64,2.89,19.15.03.95.36,1.91.69,2.83,1.16,3.26,1.54,3.5,5.09,3.33,13.91-.66,27.73-2.08,41.43-4.72,10.3-1.98,20.68-3.56,31.03-5.29,1.24-.21,2.52-.23,3.97.28-.7.6-1.37,1.26-2.11,1.8-5.94,4.28-11.88,8.57-17.88,12.78-.97.68-2.15,1.12-3.29,1.5-14.21,4.69-28.85,7.2-43.68,8.87-9.22,1.03-18.4,2.34-27.61,3.51-.95.12-1.92.12-3.06.19-2.05-5.07-3.47-10.23-4.2-15.52-2.19-15.74-5.98-31.15-9.02-46.72-2.88-14.73-5.36-29.53-8.08-44.29-2.03-11.04-4.1-22.08-6.26-33.09-2.61-13.29-5.35-26.55-8.02-39.83-.31-1.54-.53-3.09-.88-5.21Z"/><path class="cls-2" d="m863.12,832.08c.36-.4.43-.54.52-.57,7.55-1.95,15.08-4.01,22.67-5.76,2.82-.65,5.81-.62,8.73-.81,6.52-.41,12.76-1.84,18.7-4.66,8.8-4.19,17.71-8.15,26.48-12.4,3.17-1.53,6.16-3.49,9.08-5.47,7.06-4.8,14.03-9.74,21.27-14.79,1.82,1.38,3.38.56,4.92-.98,1.26-1.27,2.74-2.34,4.43-3.75,1.14,1.7,2.11,3.06,2.98,4.49,1.4,2.29,2.79,4.59,4.06,6.95,2.79,5.16,5.95,10.04,9.64,14.65,3.73,4.65,6.83,9.81,10.34,14.65,2.65,3.64,5.45,7.19,8.35,10.64.87,1.03,2.32,1.56,3.49,2.35.48.32,1.11.61,1.34,1.08,3.42,7,8.86,12.54,13.5,18.65.14.18.17.44.35.92-.63.56-1.33,1.18-2.03,1.8-16.03,14.04-34.86,23.73-53.29,34-11.5,6.41-23.15,12.66-35.17,18-9.21,4.09-19.08,6.68-28.7,9.83-1.59.52-3.36.62-5.06.72-7.16.41-14.19,1.5-21.07,3.59-1.01.31-2.15.17-3.59.26-4.29-14.66-9.6-28.91-11.69-44.21,1.41-.58,2.36-.46,3,1,.67,1.52,1.99,1.95,3.31,1.13,3.29-2.05,7.17-2.15,10.68-3.46,2.62-.98,5.44-1.47,8-2.59,4.73-2.08,9.62-3.45,14.67-4.4,9.82-1.84,18.75-6.15,27.7-10.34,6.85-3.21,13.61-6.61,20.46-9.83,11.11-5.21,21.06-12.3,31.1-19.22,2.59-1.78,4.73-4.21,7.02-6.4.7-.67,1.28-1.48,1.81-2.29.87-1.34,1.17-2.82-.19-3.97-1.23-1.03-2.54-.49-3.66.43-2.17,1.78-4.52,3.39-6.45,5.4-9.01,9.39-20.33,15.08-32.04,20.09-10.43,4.47-21,8.6-31.49,12.93-3.04,1.25-6.07,2.57-9.03,4.01-12.72,6.18-26.02,10.4-40.06,12.25-.72.1-1.46.17-2.19.16-3.12,0-4.12-.79-4.73-3.88-1.72-8.74-3.36-17.49-5.11-26.23-.93-4.66-2.04-9.28-3.07-13.94Z"/><path class="cls-2" d="m364.62,466.11c1.91-.5,4.37-.03,5.01-2.8,2.03-.67,4.05-1.34,6.08-2.01.07.21.15.41.22.62-1.43.66-2.85,1.33-4.28,1.99,6.71-.7,13.12-2.53,19.5-4.49l-.12.09c7.88-1.6,15.82-2.97,23.64-4.85,10.79-2.6,21.49-5.58,32.22-8.41,1.17-.31,2.32-.7,3.43-1.26-10.3,1.66-20.22,5.28-30.79,5.7,4.18-1.16,8.34-2.39,12.54-3.46,12.53-3.17,25.05-6.41,37.63-9.37,15.32-3.61,30.68-7.04,46.06-10.37,5-1.08,10.1-1.9,15.2-2.26,18.91-1.31,37.25-6.15,55.93-8.85,1.29-.19,2.58-.34,4.74-.63-1.33,1.34-2.05,2.1-2.81,2.81-3.76,3.54-7.01,7.49-9.43,12.07-.67,1.27-1.2,2.69-1.45,4.1-.87,5,.38,7.37,4.92,9.77.41.22.85.39,1.86.84-1.31.37-2.05.61-2.81.79-6.89,1.6-13.88,2.86-20.66,4.83-14.78,4.31-29.76,7.67-44.79,10.92-21.35,4.61-42.58,9.75-63.9,14.46-26.45,5.84-52.91,11.64-79.68,15.9-16.05,2.55-31.74,6.73-47.51,10.55-11.48,2.79-23.02,5.38-34.7,8.1-2.03-8.25-1.96-16.73-2.68-25.54,2.9-1.02,5.91-3.04,8.81-2.9,8.25.39,15.67-2.94,23.47-4.42,7.77-1.48,15.37-3.87,23.04-5.91,5.66-1.5,11.3-3.07,16.94-4.64,1.51-.42,2.98-.96,4.47-1.44l-.11.08Zm-62.1,33.63c2.76.03,5.07-1.99,5.51-4.85.14-.94-.09-2.15.42-2.77,1.47-1.78.81-3.13-.46-4.49-1.5-1.6-3.49-2.09-5.3-1.07-2.77,1.55-4.76,3.83-5.29,7.06-.55,3.35,1.82,6.09,5.13,6.13Zm25.55-10.69c.02-3.43-2.08-5.43-5.75-5.5-3.28-.06-6.35,3.24-6.28,6.76.05,2.72,2.13,4.73,4.94,4.77,3.53.05,7.08-2.96,7.09-6.02Zm10.39.58c1.43-.47,3.16-.74,4.57-1.57,2.48-1.46,3.01-5.48,1.02-7.3-1.9-1.73-4.31-2.42-6.78-1.58-2.57.88-4.23,2.83-4.68,5.57-.29,1.75.52,3.14,2.11,3.85,1.08.49,2.3.64,3.76,1.02Z"/><path class="cls-2" d="m531.56,924.52c-2.94,4.04-5.76,7.7-8.33,11.52-3.67,5.46-7.15,11.05-10.72,16.58-.59.92-1.08,1.94-1.8,2.74-1.83,2.05-3.77,4-5.9,6.24-1.45-.63-3.21-1.43-5-2.16-8.36-3.39-16.65-6.98-25.11-10.09-10.39-3.82-19.87-9.27-29.24-15.01-5.51-3.38-11.09-6.66-16.57-10.09-6.31-3.95-12.57-7.96-18.79-12.04-4.39-2.87-8.58-6.06-13.03-8.82-15.87-9.84-29.72-22.15-43.19-34.95-.26-.25-.43-.58-.88-1.18,9.32-12.02,20.24-22.55,31.68-32.88.85.62,1.66,1.12,2.35,1.74,13.46,12.12,28.18,22.59,43.07,32.83.6.41,1.23.81,1.79,1.28,13.96,11.81,29.67,21.02,45.38,30.16,13.62,7.92,27.9,14.55,42.8,19.78,3.67,1.29,7.29,2.75,11.5,4.34Z"/><path class="cls-2" d="m724.78,713.94c-3.79.61-7.63,1.43-11.5,1.81-11.45,1.13-22.69,3.37-33.74,6.53-2.58.74-4.49.57-6.63-1.32-2.54-2.23-5.59-3.89-8.44-5.76-11.73-7.7-23.47-15.39-35.2-23.09-.4-.26-.75-.61-1.45-1.19,1.32-1.34,2.46-2.73,3.84-3.85,10.92-8.82,21.91-17.55,32.81-26.39,6.92-5.61,13.72-11.37,20.58-17.04,7.72-6.37,15.45-12.73,23.2-19.07,3.93-3.21,7.92-6.36,12.29-9.87.48,1.85.87,3.09,1.11,4.36,3.29,17.62,6.55,35.25,9.84,52.87.89,4.8,1.85,9.58,2.8,14.37.19.96.22,2.03.69,2.83,2.14,3.59.99,6.59-1.22,9.67-2.06,2.87-3.85,5.94-5.67,8.97-1.12,1.87-2.06,3.84-3.3,6.16Z"/><path class="cls-2" d="m645.09,740.97c1.44-1.05,3.01-1.96,4.28-3.19,1.45-1.41,3.04-2.93,3.8-4.73.76-1.78,1.81-2.44,3.47-2.68,4.1-.61,8.24-1.03,12.29-1.87,9.67-2.02,19.23-4.55,28.95-6.3,8.75-1.57,17.63-2.39,26.46-3.48,4.72-.59,9.45-1.09,14.19-1.56,5.34-.53,5.69-.82,6.55-6.24,5.24-1.02,10.59-2.17,15.98-3.06,4.4-.73,8.86-1.14,13.7-1.74,1.14,5.46,2.35,11.24,3.6,17.28-2.04.6-3.74,1.24-5.5,1.6-12.3,2.52-24.61,5.01-36.93,7.44-15.55,3.07-31.12,6.07-46.67,9.14-5.98,1.18-11.94,2.51-17.92,3.69-.9.18-1.99.22-2.79-.13-5.84-2.55-12.03-2.93-18.25-3.2-1.66-.07-3.32-.17-4.98-.25-.07-.24-.14-.47-.2-.71Z"/><path class="cls-2" d="m781.53,622.15c-2.81-2.09-4.64-4.4-5.28-7.77-1.02-5.35-1.41-10.59.32-15.88,1.21-3.7,2.04-7.53,3.24-11.23,1.26-3.87,3.18-7.38,6.42-10.02.75-.61,1.48-1.29,2.12-2.02,4.08-4.69,9.16-7.58,15.29-8.6,4.31-.72,8.61-1.55,12.94-2.17,3.6-.51,7.04.57,10.36,1.77,3.07,1.11,6.01,2.58,9.78,4.24-1.94.4-3.16.85-4.38.87-11.85.21-20,6.88-26.91,15.52-4.44,5.56-8.19,11.58-9.22,18.83-.39,2.74-.39,5.54-.59,8.81-5.28.86-10.22,3.25-14.09,7.66Z"/><path class="cls-2" d="m778.64,626.09c-4.41,7.51-5.2,15.75-5.6,24.07-.21,4.27-2.24,6.11-6.52,5.15-2.74-.61-5.41-1.91-7.88-3.32-2.51-1.43-3.91-3.89-4.75-6.69-3.19-10.57-3.12-21.13,0-31.67,1.47-4.97,4.62-8.81,8.62-11.98,2.31-1.83,4.57-2.58,8.14-2.84-.13,1.7-.17,3.36-.39,5-1.15,8.32,1.01,15.45,7.41,21.11.27.24.46.55.98,1.17Z"/><path class="cls-2" d="m936.29,586.79c-4.02-2.97-7.16-6.46-9.45-10.73-.74-1.39-1.76-2.63-2.6-3.97-1.29-2.06-2.56-4.13-3.81-6.21-2.26-3.75-4.52-7.51-6.76-11.27-.49-.82-.93-1.67-1.54-2.78,2.18-1.52,4.22-3.05,6.36-4.42,2.67-1.7,5.38-3.36,8.17-4.87,4.23-2.29,6.28-1.55,8.7,2.56,2.04,3.46,4.33,6.77,6.47,10.17,2.53,4.01,5.05,8.03,7.5,12.1.62,1.03,1.02,2.21,1.42,3.36,1.41,4.11.69,6.84-2.9,9.2-3.75,2.47-7.71,4.6-11.56,6.86Z"/><path class="cls-2" d="m854.46,581.9c-2.77,1.93-5.47,3.98-8.32,5.77-12.94,8.13-25.01,17.45-36.93,26.98-1.07.85-1.85,2.15-3.75,1.65-3.61-.96-4.97-2.58-4.31-6.25,1.25-6.96,3.86-13.4,8.4-18.85,6.78-8.15,15.12-13.71,25.97-14.93,6.91-.78,12.83,1.85,18.76,4.61.06.34.12.69.18,1.03Z"/><path class="cls-2" d="m759.79,700.5c-3.59-3.33-6.78-6.3-10.07-9.35,2.7-4.86,5.28-9.41,7.77-14.01,2.5-4.61,4.98-9.24,7.35-13.92.86-1.71,1.81-2.69,3.91-2.46,1.28.14,2.62-.31,4.38-.56.18,1.25.52,2.64.55,4.05.23,9.96,1.95,19.65,5.29,29.04.16.44.16.94.27,1.59-6.49,1.87-12.9,3.72-19.45,5.62Z"/><path class="cls-2" d="m391.15,459.41c-3.48.4-6.95.8-10.43,1.2-.03-.15-.07-.3-.1-.45,9.09-2.2,18.19-4.4,27.28-6.6.05.18.11.36.16.53-4.22,1.25-8.45,2.47-12.65,3.77-1.48.46-2.91,1.09-4.37,1.64,0,0,.11-.09.11-.09Z"/><path class="cls-2" d="m766.74,583.47c1.51,3.2,2.17,6.59,2.21,10.11-2.03-3.09-1.58-6.72-2.21-10.11Z"/><path class="cls-2" d="m785.58,726.66v-6.51c.92,2.05,1.58,3.53,2.35,5.26-.57.31-1.25.67-2.35,1.25Z"/><path class="cls-2" d="m349.29,871.88q1.76.57,2.81,2.32-1.88-.61-2.81-2.32Z"/><path class="cls-2" d="m732.04,709.29c.69-1.13,1.38-2.26,2.08-3.39.23.13.47.26.7.38-.63,1.17-1.27,2.33-1.9,3.5-.29-.16-.58-.33-.88-.49Z"/><path class="cls-2" d="m364.74,466.03c-.56-.14-1.11-.29-2.13-.55,1.57-.47,2.72-.81,3.87-1.15.04.14.09.28.13.42-.65.45-1.31.9-1.97,1.35,0,0,.1-.07.1-.07Z"/><path class="cls-2" d="m389.9,823.69c-.37.29-.74.57-1.11.86-.08-.08-.16-.15-.25-.23.32-.34.64-.68.95-1.01.13.13.27.26.4.39Z"/><path class="cls-2" d="m45.16,521.05c.81-1.18,1.53-2.3,2.32-3.36,9.78-13.11,19.39-26.35,29.44-39.25,5.01-6.43,10.65-12.41,16.33-18.27,8.91-9.21,18.11-18.14,27.17-27.2,8.64-8.64,17.68-16.84,27.65-23.95,10.73-7.65,21.19-15.74,32.34-22.74,12.49-7.84,25.6-14.69,38.49-21.88,1.09-.61,2.55-.9,3.81-.81,4.01.28,8.01.84,12.02,1.22,1.56.15,2.84.64,3.64,2.06,1.48,2.64,2.98,5.27,4.6,8.15-1.05.52-1.76.92-2.5,1.22-8.45,3.39-16.14,8.02-23.09,13.92-1.26,1.07-1.91,2.15-1.46,3.78.49,1.77,1.74,2.28,3.34,1.31.31-.19.58-.45.84-.71,5.19-4.96,11.36-8.45,17.79-11.42,2.72-1.25,5.72-2.19,8.68-2.57,11.59-1.48,23.16-.94,34.51,1.89,6.03,1.5,11.93,3.54,17.05,7.32,1.27.94,2.74,1.59,4.09,2.42,4.23,2.59,6.72,6.23,7.07,11.3.35,5.2-2.83,10.01-7.88,11.31-3.79.97-7.58,1.37-11.58.93-4.59-.51-9.27-.42-13.89-.23-3.44.14-6.22,2.16-8.58,4.5-2.69,2.65-5.11,5.57-7.69,8.34-1.07,1.15-2.27,2.18-3.35,3.32-.49.51-.9,1.13-1.21,1.77-.62,1.27-1.7,2.58-.16,3.94,1.19,1.05,3.09,1.02,4.67-.34,3.43-2.94,6.73-6.02,10.1-9.02,2.37-2.11,4.74-4.22,7.14-6.29,1.54-1.33,3.36-1.97,5.4-1.87,3.04.14,6.1.18,9.13.48,4.84.48,9.51.04,13.9-2.19,1.13-.57,2.15-.45,3.42-.31,5.32.58,10.7.56,16.02,1.18,3.72.43,7.5,1.13,10.99,2.42,4.61,1.71,5.42,6.02,2.07,9.67-3.16,3.44-6.99,6.08-11.17,8.17-11.32,5.65-23.3,9.4-35.61,12.04-11.16,2.39-21.71,6.06-30.19,13.92-4.08,3.78-7.42,8.37-11.09,12.6-2.95,3.41-5.72,6.99-8.88,10.19-4.41,4.46-8.17,9.27-11.1,14.88-10.24,19.59-21.43,38.63-34.06,56.78-7.54,10.84-14.37,22.09-20.61,33.72-.34.63-.74,1.23-1.3,2.15-2.55-1.36-5.08-2.53-7.43-4-7.82-4.89-16.23-8.43-24.96-11.27-5.37-1.74-10.47-4.02-15.22-7.09-1.84-1.19-3.72-2.36-5.7-3.3-12.5-5.99-23.83-13.81-35.07-21.83-4.96-3.53-10.25-6.61-15.49-9.72-5.67-3.36-11.32-6.7-16.32-11.08-2.55-2.23-5.46-4.04-8.43-6.19Z"/><path class="cls-2" d="m324.1,376.68c-3.46-7.48-6.78-14.66-10.11-21.84-.56-1.22-1.03-2.5-1.77-3.61-1.43-2.15-1.04-3.85,1.31-5.63,5.03,1.11,10.49,1.88,15.66,3.57,7.27,2.38,14.38,5.33,21.43,8.32,1.91.81,3.66,2.44,4.98,4.1,2.11,2.66,1.68,5.74-.56,8.28-3.56,4.03-7.99,6.32-13.33,6.85-5.95.58-11.9.64-17.61-.03Z"/><path class="cls-2" d="m313.17,413.2c2.76-5.49,6.53-10.1,3.92-16.31,1.01-.6,1.81-1.09,2.63-1.55.85-.48,1.73-.89,2.58-1.38,5.13-3,5.88-4.65,4.59-10.69,8.41-.29,16.51-.22,23.1,6.14,2.14,2.07,2.81,4.31,2.01,7.25-1.81,6.67-5.7,11.5-12.5,12.95-7.6,1.61-15.36,2.45-23.06,3.58-.94.14-1.92.02-3.27.02Z"/><path class="cls-2" d="m281.01,376c4.1-3.11,7.97-6.01,11.79-8.97.86-.66,1.76-1.42,2.26-2.35.39-.73.57-2.04.17-2.6-.42-.58-1.64-.67-2.54-.78-.41-.05-.9.32-1.31.57-9.57,6.01-20.34,8.58-31.22,10.8-1.41.29-2.9.18-4.51.26-.53-.97-1.02-1.88-1.79-3.29,4.75-1.63,9.18-3.26,13.67-4.66,8.95-2.78,18.01-5.24,26.89-8.25,3.51-1.19,6.65-3.46,10.19-5.37,3.59,6.76,5.91,14.24,8.34,21.32-2.24,1.35-4.22,2.63-6.28,3.77-3.05,1.68-5.77,4.11-9.51,4.24-.6.02-1.25.2-1.79.03-4.73-1.52-9.45-3.09-14.37-4.72Z"/><path class="cls-2" d="m319.47,386.36c-2.24,1.3-4.42,2.56-6.54,3.79-3.39-1.91-6.62-3.73-10.14-5.71.86-.98,1.28-1.79,1.95-2.16,2.44-1.36,4.88-2.76,7.47-3.8,2.96-1.19,3.73-.74,5.05,2.25.75,1.7,1.37,3.46,2.22,5.63Z"/><path class="cls-2" d="m213.13,357.48c-6.19-1.1-11.66-3.52-16.42-7.44,5.59,2.29,11.46,3.97,16.42,7.44Z"/><path class="cls-2" d="m278.04,351.26c-.62-1.42-1.48-2.78-.58-4.59.41,1.42.82,2.85,1.23,4.27-.22.11-.43.21-.65.32Z"/><path class="cls-2" d="m313.21,401.78c-.07-.75-.15-1.5-.22-2.25.16-.02.31-.03.47-.05.07.75.13,1.5.2,2.25-.15.02-.3.03-.45.05Z"/><path class="cls-2" d="m269.02,290.59c.31-.62.62-1.23.93-1.85.13.05.27.11.4.16-.28.69-.55,1.38-.83,2.08-.17-.13-.33-.26-.5-.39Z"/><path class="cls-2" d="m125.6,759.36c.66-7.95,1.45-15.84,3.85-23.47,2.84-9.06,7.43-17.25,12.78-25.01,1.47-2.13,3.82-3.7,5.94-5.31,3.2-2.43,6.54-4.69,9.85-6.98.79-.55,1.65-1.07,2.56-1.37,10.6-3.45,21.42-5.92,32.59-6.23,7.25-.2,14.28,1.51,21.29,3.19,9.02,2.16,16.61,6.94,23.33,13.1,2.11,1.93,3.7,4.52,5.2,7,2.97,4.91,5.89,9.86,8.49,14.96,4.03,7.91,6.49,16.32,6.62,25.27.13,9.09-.78,18.03-4.2,26.58-.77,1.91-1.2,3.96-1.8,5.95-2.36,7.82-6.35,14.44-13.53,18.84-3.12,1.91-6.14,4-9.09,6.16-7.55,5.52-16.01,8.87-25.17,10.28-6.17.95-12.45.69-18.59-.47-9.85-1.85-19.43-4.61-28.62-8.76-4.88-2.21-8.93-5.34-12.96-8.74-8.12-6.85-13.48-15.33-16.06-25.6-.35-1.4-.38-2.89-.67-4.31-.36-1.76-1.05-3.47-1.24-5.24-.33-3.27-.4-6.57-.58-9.85Zm71.47,54.41c5.98-.36,10.29-.28,14.49-.93,11.46-1.76,19.86-8.76,27.57-16.79,3.73-3.89,5.85-8.72,7.29-13.78,1.53-5.38,2.5-10.92,3.92-16.33,2.92-11.21,1.44-22.12-2.66-32.63-3.18-8.14-8.3-15.18-15.07-20.88-1.94-1.63-4.08-3.07-5.86-4.87-3.49-3.52-7.54-5.24-12.53-5-1.52.07-3.18-.27-4.57-.89-2.64-1.17-5.34-1.73-8.17-1.67-3.41.07-6.83.63-10.21.37-6.08-.47-11.95.41-17.7,2.12-8.51,2.53-16.68,5.93-22.47,13.02-5.41,6.63-10.06,13.81-12.43,22.21-1.11,3.92-1.82,7.95-3.19,11.81-.6,1.68-1.07,3.66-.75,5.34.55,2.84.49,5.58.25,8.42-.09,1.1.6,2.28.98,3.41.46,1.37,1.48,2.77,1.34,4.06-.43,4.08,1.62,7.57,2.69,11.16,1.83,6.12,6.26,10.92,10.53,15.62,5.69,6.28,13.42,9.5,21,12.23,8.65,3.12,17.76,5.63,25.56,3.99Z"/><path d="m417.16,564.23c-7.97-.22-12.39-3.45-14.21-8.86-1.24-3.69-.95-7.18,1.5-10.38,2.6-3.41,6.18-5.45,9.9-7.35,6.59-3.37,13.75-4.94,20.88-6.59,12.94-3.01,25.91-5.92,38.84-9,16.12-3.84,32.14-8.21,48.35-11.61,13.95-2.93,28.15-4.64,42.17-7.25,9.46-1.76,18.99-3.54,28.15-6.4,14.73-4.6,29.78-7.51,44.86-10.44,4.61-.89,9.22-.45,13.77.78,3.52.95,6.06,3.12,7.95,6.07,2.51,3.9.76,9.55-3.85,12.69-6.41,4.37-13.55,7.2-20.86,9.63-9.98,3.32-20.25,5.42-30.6,7.18-16.82,2.85-33.61,5.84-50.41,8.8-7.69,1.35-15.4,2.62-23.03,4.22-4.64.97-9.15,2.55-13.74,3.79-6.35,1.72-12.71,3.38-19.07,5.07-2.71.72-5.41,1.45-8.12,2.17-5.53,1.47-11.05,3.01-16.6,4.41-10.99,2.78-22,5.5-33.01,8.2-5.8,1.43-11.61,2.81-17.44,4.13-1.77.4-3.61.51-5.42.75Zm-.72-4.09c2.23-.25,3.84-.28,5.38-.63,5.35-1.21,10.69-2.48,16.02-3.82,10.89-2.72,21.76-5.48,32.64-8.25,5.9-1.5,11.8-3.03,17.7-4.57,2.71-.71,5.4-1.5,8.12-2.18,4.85-1.22,9.87-1.93,14.53-3.65,12.35-4.57,25.26-6.54,38.08-8.92,14.63-2.72,29.29-5.28,43.93-7.9,2.04-.36,4.09-.66,6.15-.94,12.85-1.76,25.53-4.36,37.7-8.88,5.57-2.07,10.81-5.04,16.14-7.72,2.21-1.11,3.66-3.19,3.51-5.6-.16-2.6-2.17-4.25-4.45-5.41-.43-.22-.92-.33-1.38-.48-3.78-1.28-7.73-1.65-11.57-.93-9.95,1.86-19.94,3.66-29.73,6.21-13.1,3.41-25.96,7.74-39.34,10.03-8.41,1.44-16.86,2.7-25.27,4.13-7.7,1.3-15.41,2.58-23.06,4.11-16.03,3.21-31.49,8.72-47.62,11.68-12.23,2.24-24.27,5.48-36.38,8.33-7.24,1.7-14.63,3.03-21.24,6.64-2.96,1.62-5.98,3.46-8.27,5.86-3.31,3.49-1.49,9.83,3.01,11.56,1.91.74,4,1,5.42,1.34Z"/><path d="m529.13,484.6c-1.58.56-2.81.99-4.39,1.55.66,2.84,1.23,5.67,1.99,8.45.36,1.32.54,2.51-.9,3.09-1.62.65-2.52-.51-3.08-1.79-.48-1.1-.72-2.3-1.14-3.69-.87.82-1.53,1.52-2.28,2.12-2.92,2.34-6.32,1.49-7.77-1.91-1.35-3.17.26-9.72,2.99-11.79.64-.48,1.53-.83,2.32-.88,1.54-.09,3.15-.17,4.61.2,1.05.27,1.92,1.29,3.03,2.1,1.14-.61,2.41-1.28,4.02-2.13-.55-2.27-1.07-4.49-1.63-6.7-.21-.82-.58-1.61-.73-2.44-.22-1.22.22-2.21,1.5-2.54,1.3-.34,2.11.32,2.47,1.54.58,1.99,1.12,3.99,1.69,5.98.22.8.46,1.59.73,2.51.74-.14,1.41-.1,1.88-.39,2.69-1.65,5.55-.65,8.29-.45.85.06,1.94,1.42,2.3,2.41.74,2.05.98,4.27,1.6,6.37.44,1.49,1.03,2.96,1.77,4.32.6,1.11.92,2.27-.22,2.85-.78.39-2.21.26-2.95-.23-.81-.54-1.34-1.71-1.66-2.72-.72-2.32-1.23-4.71-1.84-7.07-.27-1.04-.55-2.08-.88-3.28-2.6.89-4.95,1.7-7.75,2.66.69,3.54,1.34,6.97,2.03,10.39.12.59.64,1.21.53,1.72-.18.85-.55,2.07-1.16,2.3-.63.24-2.06-.28-2.39-.88-.74-1.36-1.1-2.95-1.47-4.48-.56-2.33-.99-4.7-1.51-7.19Zm-12.13-.48c-1.36,2.28-2.64,4.49-1.1,7.31,3.5-2.9,3.84-5.21,1.1-7.31Z"/><path d="m636.76,459.85c.25-.21.55-.42.79-.67,3.13-3.28,5.18-2.86,6.8,1.46.51,1.37.9,2.78,1.31,4.18.38,1.3.69,2.48,2.35,2.87,1.25.29,1.73,1.6,1.1,2.63-.49.78-1.64,1.58-2.51,1.6-2.06.04-3.26-1.45-3.94-3.27-.67-1.77-1.22-3.58-2.08-6.16-.65,1.58-.97,2.43-1.35,3.24-1.06,2.23-2.7,2.4-4.05.37-.8-1.19-1.47-2.47-2.49-4.2-2.11,3.8-2.82,7.21-1.41,10.85.6,1.55.42,2.69-1.2,3.2-1.42.45-2.33-.4-2.8-1.68-.29-.8-.48-1.64-.62-2.47-.14-.8-.17-1.63-.27-2.62-3.97,5.27-7.47,6.84-11.35,5.24-3.08-1.27-4.46-4.18-3.9-8.21.53-3.87,2.94-6.88,5.74-7.17,5.1-.54,7.35,1.02,9.54,6.87.42-1.16.74-2.04,1.07-2.91,2.01-5.41,4.51-6.28,9.28-3.15Zm-20.01,3.1c-.61,1.58-1.3,2.85-1.59,4.21-.42,1.96.44,3.25,2.08,3.65,1.95.47,4.11-.95,4.67-3.08.51-1.92-.13-2.93-2.23-3.62-.79-.26-1.55-.61-2.93-1.15Z"/><path d="m602.04,469.78c-2.54.88-4.94,1.71-7.64,2.64.27,1.58.55,2.98.75,4.38.13.94.42,1.98.16,2.82-.2.64-1.12,1.42-1.76,1.47-.63.04-1.64-.62-1.92-1.23-.5-1.08-.55-2.36-.85-3.54-.3-1.16-.67-2.29-1.01-3.44-.17-.57-.63-1.26-.45-1.69,1.2-2.93-.07-5.78-.12-8.66,0-.36-.11-.72-.14-1.09-.1-1.3.02-2.57,1.59-2.82,1.55-.25,2.17.79,2.38,2.14.2,1.33.36,2.66.53,3.99.13.95.26,1.91.46,3.4,2.59-.88,4.94-1.68,7.63-2.59-.23-1.74-.46-3.39-.66-5.04-.11-.85-.23-1.7-.25-2.55-.03-1.38.49-2.46,2.03-2.49,1.34-.02,1.86.87,1.98,2.14.12,1.33.41,2.65.55,3.98.18,1.6.44,3.04,1.91,4.14.57.42.99,2.13.66,2.49-1.85,2-.93,4.12-.65,6.23.1.72.37,1.43.34,2.14-.04,1.23-.75,2.28-1.97,2.17-.74-.07-1.78-.94-2-1.67-.53-1.73-.62-3.59-.94-5.39-.1-.58-.34-1.13-.6-1.96Z"/><path d="m387.58,515.33c.97-4.18,1.72-7.49,2.52-10.79.36-1.47.3-3.4,2.57-3.33,1.55.05,2.16,1.46,1.49,4.14-2.77,10.97-5.65,21.91-8.49,32.86-.12.47-.27.94-.5,1.36-.61,1.11-1.66,1.7-2.71,1.02-.62-.4-1.11-1.59-1.02-2.36.17-1.55.78-3.05,1.2-4.58.9-3.28,1.66-6.62,2.75-9.84.9-2.67.15-4.69-1.64-6.59-2.08-2.22-4.15-4.46-6.17-6.73-1.7-1.91-1.92-3.15-.86-4.07,1.09-.94,2.19-.55,3.89,1.33,2.11,2.33,4.25,4.63,6.96,7.58Z"/><path d="m463.64,496.41c.32-5.06,1.55-9.31,5.21-12.48,2.23-1.94,4.85-3,7.75-2.05,1.25.41,2.41,1.53,3.21,2.63.35.47-.08,1.9-.61,2.48-.35.38-1.55.16-2.3-.05-.97-.27-1.98-1.28-2.78-1.11-1.21.26-2.51,1.06-3.35,2-2.38,2.67-3.3,6.04-2.92,9.49.16,1.48,1.45,3.01,2.59,4.17,1.34,1.35,3.1,1.39,4.58-.02,1.14-1.08,2.18-2.27,3.21-3.45.79-.9,1.61-1.57,2.81-.8,1.31.84,1.24,2,.51,3.17-1.58,2.53-3.63,4.64-6.43,5.75-4.18,1.66-9.91-1.92-11.13-6.88-.26-1.05-.28-2.16-.36-2.85Z"/><path d="m422.55,512.99c1.74-2.88,1.78-5.56,1.86-8.23.08-2.92.64-4.1,2.03-4.06,2.14.07,2.16,1.97,2.74,3.38,1.65,4.05,3.29,8.11,4.98,12.14.61,1.45.41,2.65-.87,3.53-1.06.73-2.28.13-3.09-1.57-.78-1.64-1.43-3.34-2.31-5.43-.8,1.05-1.35,1.89-2.01,2.63-1.85,2.06-4.01,2.32-6.11.49-1.15-1.01-2.22-2.35-2.78-3.75-.9-2.24-1.48-4.64-1.96-7.02-.41-2.02.37-3.36,1.74-3.41,1.8-.07,2.02,1.23,2.34,2.65.53,2.36,1.27,4.67,2.02,6.98.17.51.74.89,1.42,1.68Z"/><path d="m413.39,512.35c-.1,3.51-.99,5.86-2.74,7.85-2.2,2.5-5.11,3.22-8.28,2.1-3.09-1.1-4.89-3.29-4.86-6.56.02-2.15.34-4.39,1.03-6.43,1.2-3.56,4.61-5.54,8.34-5.16.82.08,1.87.27,2.34.82,2.05,2.38,4.29,4.73,4.17,7.38Zm-11.77,1.31c-.07,3.26.56,4.31,2.37,4.83,1.86.54,3.35-.22,4.43-2.27,1.32-2.51,1.05-4.76-.82-6.71-1.56-1.63-3.77-1.52-4.84.49-.72,1.36-.94,2.98-1.15,3.66Z"/><path d="m652.98,464.98c2.76,2.02,3.79,2.04,5.59.23.69-.69,1.15-1.66,1.93-2.17.59-.38,1.72-.52,2.25-.19.54.34,1,1.45.87,2.1-.59,2.97-4.86,5.86-8.14,5.71-3.66-.17-6.52-2.68-7-6.29-.5-3.76.75-7,3.34-9.68,1.66-1.72,3.86-1.85,5.63-.57,1.79,1.3,2.37,3.37,1.53,5.51-.89,2.27-2.26,3.51-6.01,5.35Z"/><path d="m502.35,496.74c1.37-.22,2.29-.25,3.11-.54.53-.19.93-.76,1.37-1.18,1.02-.97,2.14-1.33,3.2-.2,1.1,1.17.37,2.23-.45,3.23-3.13,3.81-8.55,3.81-11.28-.22-1.04-1.54-2.33-3.88-1.85-5.29.94-2.75,1.62-5.96,4.42-7.75,1.71-1.09,3.78-.79,5.37.68,1.63,1.51,2.33,3.81,1.15,5.63-1.2,1.85-2.95,3.35-5.05,5.64Z"/><path d="m569.05,479.86c.89,1.1,1.83.41,2.61-.39.67-.69,1.04-1.71,1.77-2.29.56-.44,1.65-.76,2.21-.5.57.26,1.12,1.31,1.11,2-.04,2.14-3.22,5.22-5.6,5.66-2.67.5-5.02-.68-6.36-3.2-1.86-3.49-1.44-7.16,1.22-10.43,1.54-1.9,3.39-2.49,5.11-1.64,1.86.92,3.12,3.64,2.07,5.63-.97,1.84-2.62,3.31-4.15,5.16Z"/><path d="m436.92,501.08c2.12-1.19,3.99-2.55,6.08-3.27,1.02-.35,2.59.25,3.63.87.57.34.95,1.81.68,2.47-.25.59-1.51,1.11-2.3,1.08-2.98-.14-3.98.39-4.37,3.25-.21,1.54.02,3.15.09,4.72.03.6.4,1.28.22,1.79-.3.83-.78,1.96-1.44,2.18-.64.21-2.08-.38-2.34-.98-1.65-3.79-3.14-7.65-4.48-11.56-.21-.63.45-1.86,1.08-2.35.39-.3,1.56.13,2.2.52.54.33.82,1.08.96,1.28Z"/><path d="m555.36,481.65c.62-2.13,1.01-3.76,1.57-5.32.44-1.24.91-2.56,1.73-3.54.46-.55,1.87-.89,2.46-.58.57.3,1.04,1.65.87,2.38-.83,3.41-1.89,6.76-2.9,10.12-.42,1.41-.89,2.89-2.57,3.24-1.89.4-2.94-.89-3.77-2.28-1.62-2.71-3.18-5.46-4.72-8.21-.69-1.22-.6-2.41.7-3.14,1.2-.68,2.1-.01,2.74,1,1.22,1.93,2.4,3.9,3.89,6.34Z"/><path d="m486.45,491.19c2-1.27,3.69-2.47,5.51-3.42.79-.41,1.93-.55,2.78-.32.64.18,1.42,1.1,1.49,1.76.06.63-.62,1.43-1.15,2-.27.29-.94.17-1.39.34-3.47,1.25-4.83,3.25-4.73,6.9.01.49.24,1.05.07,1.44-.36.82-.74,1.93-1.43,2.24-1.19.54-2.03-.37-2.48-1.5-1.22-3.04-2.51-6.06-3.59-9.15-.21-.59.24-1.67.74-2.17.36-.35,1.44-.34,1.97-.06.82.44,1.45,1.25,2.2,1.93Z"/><path d="m543.83,469.51c-.44.33-1.13,1.2-1.97,1.38-1.2.26-2.45-1.27-2.41-2.6.04-1.29.77-2.01,2.01-2.12,1.24-.1,2.34,1.2,2.36,3.33Z"/><path d="m612.41,604.07c.55-2.45.81-5.05,1.75-7.37.74-1.84,1.99-3.85,3.59-4.89,6.05-3.91,12.68-6.29,20.06-5.34,7.56.97,12.49,5.61,15.93,12.06,2.19,4.1,2.12,8.71,2.65,13.17.08.62-.29,1.79-.69,1.9-2.24.66-2.54,2.79-3.59,4.34-4.86,7.16-18.42,11.69-26.53,8.72-5.74-2.1-9.71-6.1-11.33-12.03-.92-3.38-1.23-6.94-1.84-10.57Zm24-10.8c-5.24-.37-9.9,1.75-14.3,4.45-3.96,2.43-5.05,5.72-3.43,9.99,1.08,2.84,2.33,5.64,3.81,8.28,2.79,5,7.03,6.82,12.61,5.65,1.42-.3,2.8-.81,4.21-1.2,5.24-1.47,7.65-5.32,8.56-10.33.52-2.87.91-5.76,1.17-8.66.08-.84-.29-1.94-.85-2.59-3.04-3.56-6.62-6.16-11.79-5.59Z"/><path d="m302.52,499.74c-3.31-.03-5.68-2.78-5.13-6.13.53-3.23,2.51-5.51,5.29-7.06,1.82-1.01,3.8-.53,5.3,1.07,1.27,1.36,1.93,2.7.46,4.49-.51.62-.27,1.84-.42,2.77-.44,2.86-2.74,4.88-5.51,4.85Zm-.13-7.61c-.54,1.27-1.8,2.12-.31,3.26.25.19,1.02.09,1.25-.16,1.25-1.33.16-2.03-.94-3.1Z"/><path d="m328.07,489.05c-.01,3.06-3.56,6.08-7.09,6.02-2.81-.04-4.89-2.05-4.94-4.77-.07-3.52,3.01-6.82,6.28-6.76,3.67.07,5.77,2.08,5.75,5.5Zm-4.95,1.13c-1.03-.94-1.97-2.56-2.76-.49-.1.26.1.63.22,1.23.93-.27,1.73-.51,2.54-.75Z"/><path d="m338.46,489.63c-1.46-.38-2.69-.53-3.76-1.02-1.59-.72-2.4-2.1-2.11-3.85.45-2.74,2.11-4.69,4.68-5.57,2.47-.84,4.88-.15,6.78,1.58,1.99,1.82,1.46,5.84-1.02,7.3-1.41.83-3.14,1.1-4.57,1.57Zm.47-4.55c.03-.23.06-.45.1-.68-.57-.08-1.14-.17-1.71-.21-.02,0-.07.41-.11.63.57.09,1.15.17,1.72.26Z"/><path d="m246.67,842.8c.3-2.54.58-5.09.91-7.62.15-1.15.53-2.35,1.97-2.08,1.47.27,1.21,1.58,1.13,2.68-.23,3.04-.61,6.07-.64,9.11-.03,3.08.67,6.07,2.36,8.72,2.02,3.17,4.62,3.98,7.79,1.99,2.45-1.54,4.94-3.34,6.71-5.58,4.53-5.73,8.67-11.77,12.95-17.7.35-.48.42-1.27.85-1.55.52-.34,1.44-.59,1.91-.35.48.24.82,1.13.86,1.75.03.53-.38,1.15-.72,1.64-4.26,5.95-8.33,12.05-12.91,17.74-2.17,2.69-5.08,4.97-8.06,6.79-4.92,3-9.5,1.51-12.36-3.5-2.13-3.72-2.74-7.79-2.76-12.03Z"/><path d="m263.37,817.98c-.73,2.66-1.35,4.76-1.87,6.88-.47,1.87-.81,3.78-1.26,5.65-.17.69-.34,1.54-.83,1.95-.64.53-1.59.69-2.4,1.01-.22-.75-.76-1.59-.6-2.24,1.2-4.59,2.49-9.15,3.89-13.68.19-.6,1.18-.94,1.81-1.4.48.7.97,1.4,1.26,1.83Z"/><path d="m269.56,834.51c-.35-.64-1.13-1.41-1-1.95,1.02-4.12,2.16-8.22,3.42-12.27.17-.54,1.25-.8,1.92-1.19.32.7.93,1.41.88,2.09-.09,1.19-.63,2.33-.89,3.52-.51,2.35-1.04,4.7-1.4,7.08-.24,1.59-1.18,2.26-2.93,2.72Z"/><path class="cls-1" d="m197.07,813.76c-7.8,1.64-16.91-.87-25.56-3.99-7.58-2.73-15.3-5.95-21-12.23-4.27-4.71-8.7-9.51-10.53-15.62-1.07-3.59-3.12-7.08-2.69-11.16.14-1.29-.89-2.7-1.34-4.06-.38-1.13-1.07-2.31-.98-3.41.24-2.83.29-5.57-.25-8.42-.32-1.68.15-3.67.75-5.34,1.37-3.86,2.08-7.89,3.19-11.81,2.37-8.4,7.02-15.57,12.43-22.21,5.78-7.08,13.96-10.49,22.47-13.02,5.75-1.71,11.62-2.58,17.7-2.12,3.37.26,6.8-.31,10.21-.37,2.83-.06,5.54.5,8.17,1.67,1.39.62,3.06.96,4.57.89,4.99-.24,9.04,1.48,12.53,5,1.78,1.79,3.91,3.23,5.86,4.87,6.77,5.7,11.89,12.73,15.07,20.88,4.1,10.51,5.59,21.42,2.66,32.63-1.41,5.42-2.39,10.95-3.92,16.33-1.44,5.06-3.56,9.89-7.29,13.78-7.7,8.03-16.1,15.03-27.57,16.79-4.2.64-8.51.57-14.49.93Zm46.03-74.46c.56,5.51,1.94,10.87,1,16.35-.4,2.37-1.2,4.68-1.84,7-.34,1.23-.78,2.44-1.1,3.68-.18.69-.08,1.46-.28,2.14-1.58,5.55-3.05,11.15-4.87,16.62-1.16,3.52-2.8,6.9-5.83,8.29-1.35,2.26-2.06,4.35-3.48,5.65-3.51,3.19-7.58,5.57-12.18,7-.98.3-2.49.14-2.83,1.75,5.05-.06,8.66-1.25,12.17-3.37,9.83-5.95,14.8-15.39,18.14-25.74,2.78-8.62,3.63-17.66,3.74-26.72.06-4.41-.81-8.69-2.64-12.66Z"/><path class="cls-2" d="m416.44,560.14c-1.42-.34-3.51-.6-5.42-1.34-4.5-1.74-6.32-8.08-3.01-11.56,2.29-2.41,5.31-4.25,8.27-5.86,6.61-3.61,14-4.94,21.24-6.64,12.11-2.85,24.16-6.08,36.38-8.33,16.12-2.96,31.58-8.46,47.62-11.68,7.65-1.53,15.36-2.81,23.06-4.11,8.42-1.43,16.86-2.69,25.27-4.13,13.38-2.28,26.24-6.61,39.34-10.03,9.79-2.55,19.78-4.35,29.73-6.21,3.84-.72,7.79-.34,11.57.93.46.16.95.26,1.38.48,2.27,1.15,4.28,2.81,4.45,5.41.15,2.42-1.29,4.49-3.51,5.6-5.33,2.68-10.57,5.65-16.14,7.72-12.16,4.52-24.85,7.12-37.7,8.88-2.05.28-4.11.58-6.15.94-14.65,2.61-29.3,5.18-43.93,7.9-12.83,2.38-25.74,4.35-38.08,8.92-4.66,1.72-9.68,2.43-14.53,3.65-2.72.68-5.41,1.48-8.12,2.18-5.89,1.54-11.79,3.07-17.7,4.57-10.88,2.76-21.75,5.53-32.64,8.25-5.33,1.33-10.67,2.61-16.02,3.82-1.54.35-3.15.38-5.38.63Zm17.13-7.11c2.43-.03,3.59-1.04,3.35-2.53-.25-1.55-1.38-1.78-2.72-1.75-2.48.04-4.33-.69-5.32-3.37-.75-2.04-2.37-3.75-4.71-4.18-4.01-.73-8.66,3.56-8.41,7.65.27,4.36,4.71,7.63,8.52,5.78,3.24-1.58,6.15-3.41,9.29-1.59Z"/><path class="cls-3" d="m517,484.12c2.74,2.09,2.4,4.4-1.1,7.31-1.54-2.82-.26-5.03,1.1-7.31Z"/><path class="cls-3" d="m616.75,462.95c1.37.55,2.14.89,2.93,1.15,2.1.69,2.74,1.7,2.23,3.62-.56,2.13-2.72,3.55-4.67,3.08-1.63-.4-2.5-1.69-2.08-3.65.29-1.36.98-2.63,1.59-4.21Z"/><path class="cls-3" d="m401.62,513.66c.2-.68.43-2.3,1.15-3.66,1.07-2.01,3.28-2.12,4.84-.49,1.86,1.96,2.14,4.21.82,6.71-1.08,2.05-2.57,2.81-4.43,2.27-1.81-.53-2.45-1.58-2.37-4.83Z"/><path class="cls-2" d="m302.39,492.12c1.1,1.07,2.19,1.77.94,3.1-.23.25-1,.35-1.25.16-1.49-1.14-.22-1.98.31-3.26Z"/><path class="cls-2" d="m323.13,490.18c-.8.24-1.6.47-2.54.75-.12-.61-.32-.98-.22-1.23.79-2.07,1.73-.45,2.76.49Z"/><path class="cls-2" d="m338.94,485.09c-.57-.09-1.15-.17-1.72-.26.04-.22.09-.64.11-.63.57.05,1.14.13,1.71.21-.03.23-.06.45-.1.68Z"/><path class="cls-2" d="m243.1,739.31c1.83,3.97,2.7,8.26,2.64,12.66-.11,9.06-.96,18.1-3.74,26.72-3.34,10.35-8.32,19.79-18.14,25.74-3.51,2.12-7.12,3.31-12.17,3.37.35-1.61,1.85-1.45,2.83-1.75,4.6-1.42,8.67-3.81,12.18-7,1.43-1.3,2.13-3.39,3.48-5.65,3.03-1.39,4.67-4.77,5.83-8.29,1.81-5.48,3.28-11.07,4.87-16.62.2-.69.1-1.45.28-2.14.31-1.24.76-2.44,1.1-3.68.64-2.33,1.44-4.63,1.84-7,.93-5.48-.44-10.84-1-16.35Z"/><path d="m433.57,553.03c-3.14-1.82-6.05,0-9.29,1.59-3.81,1.86-8.25-1.42-8.52-5.78-.25-4.09,4.39-8.38,8.41-7.65,2.34.43,3.96,2.13,4.71,4.18.99,2.69,2.83,3.42,5.32,3.37,1.35-.02,2.47.21,2.72,1.75.24,1.5-.92,2.51-3.35,2.53Zm-10.67-7.74c-1.76.77-3.15,1.63-2.86,3.49.12.76.99,1.81,1.7,1.98,1.93.45,3.06-.89,4.21-2.7-1.04-.94-2.05-1.86-3.04-2.77Z"/><path class="cls-2" d="m422.9,545.29c1,.91,2.01,1.83,3.04,2.77-1.15,1.81-2.28,3.16-4.21,2.7-.71-.17-1.58-1.22-1.7-1.98-.29-1.86,1.1-2.73,2.86-3.49Z"/></g><path class="cls-1" d="m482.77,80.35c.57,7.93,1.82,15.56,1.52,23.13-.88,22.31-9.79,41.24-26.1,56.47-8.94,8.35-19.56,12.19-31.9,9.48-6.73-1.48-12.28-5.18-17.12-9.99-20.06-19.94-19.7-55.24.74-74.63,7.99-7.58,17.57-12.48,28.14-14.72,8.37-1.77,17.09-1.87,25.65-2.69.81-.08,1.63-.01,2.98-.01-1.63-2.98-2.99-5.66-4.53-8.25-16.46-27.69-41.24-41.87-72.92-44.62-18.76-1.63-36.9,1.41-54.43,8.11-25.48,9.73-48.64,23.41-69.17,41.4-7.74,6.78-14.42,14.52-19.06,23.81-.95,1.89-1.48,4.06-1.84,6.17-.46,2.68-1.87,4.25-4.5,4.44-2.59.19-4.82-1.08-5.14-3.64-.28-2.27.08-4.87.95-7,5.23-12.66,13.8-22.97,24.1-31.69,28.36-24.03,59.86-42.19,96.81-49.29,20.66-3.97,41.21-3.05,61.23,4.03,27.55,9.73,46.27,28.89,58.29,55.06,1.06,2.31,2.34,3.51,4.88,4.13,14.17,3.48,26.66,10.49,38.35,19.02,24.83,18.12,44.37,41.12,61.22,66.58.67,1.02,1.35,2.02,2.06,3.02.13.18.38.26,1.1.73-.57-5.95-1.16-11.51-1.63-17.08-.41-4.97-.79-9.95-.99-14.94-.16-3.83,1.67-5.99,4.75-6.07,2.81-.07,4.46,2.08,4.82,5.7,1.72,17.56,3.52,35.11,5.27,52.66.18,1.81.37,3.64.35,5.45-.06,5.9-4.24,8.79-9.6,6.23-5.7-2.72-11.33-5.71-16.62-9.14-10.31-6.7-20.23-13.98-30.57-20.62-4.2-2.7-9.2-4.12-13.61-6.54-1.54-.84-3.01-2.79-3.41-4.5-.57-2.43,1.26-4.45,3.64-4.54,2.56-.1,5.55.13,7.69,1.36,7.89,4.56,15.58,9.48,23.21,14.48,8.53,5.59,16.91,11.4,26.22,17.7-.29-1.6-.25-2.08-.45-2.41-15.47-25.19-32.41-49.22-54.82-68.88-12.51-10.98-25.78-20.78-41.61-26.58-1.36-.5-2.75-.93-3.95-1.33Zm-7.41,17.87c-.89-4.59-2.06-11.28-3.57-17.88-.26-1.15-1.83-2.69-2.96-2.84-13.96-1.93-27.4-.21-40.16,6.07-25.79,12.7-32.93,42.55-15.68,65.67,9.89,13.24,24.48,15.4,37.15,4.85,16.65-13.87,23.65-32.48,25.21-55.86Z"/><g><path class="cls-1" d="m772.64,867.03c0,8.5.33,17.01-.11,25.48-.31,5.93-1.59,11.81-2.59,17.69-.62,3.66-2.71,5.38-5.51,4.92-3-.49-4.26-2.84-3.75-6.75,1.03-7.96,2.4-15.9,2.89-23.89.37-6.08-.42-12.23-.7-18.35-.3-.03-.6-.05-.9-.08-.47.79-1.01,1.56-1.41,2.39-7.93,16.47-18.58,31.09-30.46,44.87-1.86,2.15-4.04,2.68-6.48,1.17-2.34-1.45-2.86-4.5-1.11-7.1,1.08-1.6,2.56-2.92,3.81-4.42,14.54-17.44,26.07-36.64,34.08-57.94.69-1.84,2.66-3.85,4.48-4.47,2.59-.88,4.32,1.23,5.68,3.51,11.26,18.81,22.8,37.43,38.49,53.05,3.01,2.99,3.12,6.24.67,8.22-2.23,1.79-4.64,1.23-7.34-1.39-10.37-10.08-18.8-21.68-26.72-33.7-.78-1.18-1.57-2.35-2.35-3.52-.22.11-.44.22-.66.33Z"/><path class="cls-1" d="m737.97,984.38c-1.61-1.13-3.54-1.79-4.09-3.05-.62-1.41-.68-3.91.2-5.01,5.89-7.42,8.38-16.37,11.84-24.9,1.77-4.38,3.72-8.69,5.77-12.95,1.06-2.2,2.99-3.12,5.48-2.4,2.47.72,3.63,2.5,3.41,4.93-.14,1.53-.74,3.06-1.35,4.51-3.56,8.5-7.02,17.06-10.86,25.43-1.7,3.71-4.11,7.12-6.44,10.49-.82,1.18-2.39,1.83-3.95,2.95Z"/><path class="cls-1" d="m725.56,1010.48c-.77.72-2.09,2.11-3.59,3.27-.9.7-2.27.82-3.11,1.56-5.26,4.65-10.35,9.49-15.66,14.08-3.31,2.85-6.91,5.37-10.38,8.02-2.41,1.83-4.84,1.79-6.82-.47-2.06-2.35-1.52-4.9.72-6.75,4.4-3.64,9.11-6.9,13.47-10.58,3.88-3.27,7.63-6.73,11.13-10.39,2.56-2.67,5.22-4.71,9.05-4.73,3.15-.01,5.34,2.01,5.2,6Z"/><path class="cls-1" d="m671.75,1051.41c-.65.64-1.72,2.45-3.26,3.05-6.77,2.62-13.64,4.99-20.54,7.25-5.18,1.7-10.44,3.18-15.71,4.57-2.9.77-5.38-.04-6.48-3.13-.9-2.54.64-5,3.76-6.08,11.46-3.95,22.93-7.86,34.4-11.76,4.09-1.39,7.95,1.03,7.82,6.1Z"/><path class="cls-1" d="m595.74,1061.77c2.53.96,5.24,1.62,7.52,2.98,2.13,1.27,2.33,3.64,1.15,5.84-1.2,2.25-3.18,2.63-5.61,2.25-2.33-.37-4.76-.63-7.09-.4-9.2.9-18.37,2.03-27.56,3.02-1.07.12-2.2.06-3.26-.14-2.5-.47-3.86-2.13-3.79-4.62.07-2.44,1.34-4.24,3.92-4.53,11.48-1.27,22.97-2.46,34.45-3.67.09-.25.18-.49.28-.74Z"/></g></svg>