<?xml version="1.0" encoding="UTF-8"?><svg id="Layer_1" xmlns="http://www.w3.org/2000/svg" viewBox="0 0 512 512"><defs><style>.cls-1{fill:#fdc91e;}.cls-2{fill-rule:evenodd;}</style></defs><polygon class="cls-1" points="10.72 3.64 506.08 6.39 507.1 15.76 506.08 486.22 501.92 494.16 10.72 497.47 7.5 493.19 10.72 3.64"/><g><path class="cls-2" d="m511.62,32.86c-.26-6.2-.72-15.44-.99-20.46l-.53-9.25-2.64-1.38c-2.04-.98-4.42-1.08-11.2-.39-15.42,1.57-72.49,1.87-100.49.59-14.7-.69-42.57-1.48-61.94-1.67-39.21-.39-45.6-.39-112.36-.1-25.7.1-83.69.1-128.83,0L10.59.11l-3.1,2.06c-3.95,2.66-4.88,5.02-5.47,13.97-.2,4.03-.53,9.15-.73,11.31-.13,2.16-.4,25.18-.59,51.14-.2,25.97-.46,48.49-.66,49.96-.13,1.48,0,19.67.4,40.33.66,34.82,1.12,98.06,1.38,182.15,0,18.98-.13,59.7-.4,90.49-.46,53.01-.4,56.26.73,59.41,1.71,4.82,4.22,5.8,14.7,5.9,4.88.1,10.81.59,13.18,1.08,10.61,2.26,17.46,2.95,36.9,3.64,23.2.69,24.84.69,65.57-.89,15.95-.59,30.05-1.08,31.3-.98,3.76.2,34.47.39,64.25.39,15.22-.1,33.34.29,40.2.79,24.25,1.57,124.09-.39,153.21-2.95,28.53-2.56,42.24-3.15,63.66-2.46,18.85.49,22.54.39,23.2-.69,1.71-3.15,2.11-31.87,2.9-205.86.92-223.76.99-251.89.4-266.05Zm-4.94,468.07l-.4,2.36-12.26-.89c-16.21-1.18-46.26-.59-64.32,1.18-34.99,3.44-106.62,4.43-249.09,3.44-34.07-.2-52.19,0-69.65.98-24.58,1.18-64.78-.2-76.64-2.75-3.95-.88-11.86-1.87-17.46-2.16-6.06-.39-10.81-1.08-11.6-1.77-1.45-1.18-1.45-1.28-1.25-42.79.07-22.92.46-50.85.86-62.26.4-13.08.4-35.7.07-61.47-.33-22.42-.59-58.52-.53-80.16.07-21.64-.26-46.82-.59-56.06-1.05-24.59-.92-138.68.13-163.27,1.05-23.02,1.58-15.15,1.58,22.13-.07,39.83.59,219.04,1.05,299.98.13,26.26,0,55.47-.33,64.92-1.19,38.56-1.45,72.68-.59,74.36,1.78,3.05,4.94,4.72,9.88,5.02,11.33.69,274.66.79,323.23.1,29-.39,77.63-1.08,108.07-1.48,51.14-.69,55.55-.88,57.2-2.46,2.97-2.95,3.62-2.16,2.64,3.05Zm-1.05-381.72c-.26,33.74-.66,61.87-.92,62.46-.46,1.08-.66,50.75-.79,224.84-.07,43.47-.26,80.06-.46,81.34-.2,1.28-.92,2.56-1.58,2.85-1.12.49-97.4,1.18-292.92,1.97-38.75.1-90.35.39-114.66.49-24.25.1-53.05-.2-63.86-.59l-19.7-.69.59-33.54c.53-32.75.59-58.92.46-176.65-.07-31.67-.13-75.64-.13-97.86s-.2-65.8-.46-96.88c-.26-31.08-.26-61.37.07-67.18l.46-10.72,14.3.2c7.84.1,50.74.2,95.29.2,158.29.1,201.52.49,245.47,1.87,62.41,1.97,126.06,1.28,137.4-1.38.92-.29,1.98,18.49,1.91,34.23,0,7.57-.26,41.41-.46,75.05Z"/><path class="cls-2" d="m500.08,21.75c-1.52-1.38-41.71,2.95-42.83,4.62-.79,1.18.13,1.28,4.42.49,2.37-.39,11.86-1.28,21.09-1.87,15.16-1.08,18.98-1.77,17.33-3.25Z"/><path class="cls-2" d="m495.67,34.24c-1.52-.88-13.05.3-15.02,1.57-.99.59,1.38.69,6.99.39,8.63-.39,10.08-.79,8.04-1.97Z"/><path class="cls-2" d="m493.3,44.67c-.33,0-.66.49-.66.98,0,.59.33.98.66.98.4,0,.66-.39.66-.98,0-.49-.26-.98-.66-.98Z"/><path class="cls-2" d="m490.53,475.07c-6.13-.98-46.66-1.57-46.66-.69,0,.79,10.81,1.48,38.42,2.46,6.39.2,11.66,0,11.66-.39,0-.49-1.58-1.08-3.43-1.38Z"/><path class="cls-2" d="m488.88,458.55c-1.25-.79-13.58.39-12.65,1.28,1.25,1.18,13.11,1.18,13.11,0,0-.59-.2-1.08-.46-1.28Z"/><path class="cls-2" d="m486.9,439.27c-1.05-.59-3.03-1.38-4.48-1.77-3.43-.79-2.37,1.08,1.32,2.36,1.45.49,3.16,1.28,3.82,1.67.59.39,1.12.29,1.12-.29,0-.49-.79-1.38-1.78-1.97Z"/><path class="cls-2" d="m64.63,32.96c-17.79.1-33.01.49-33.94.89-.92.39-1.32.88-.99.88,3.89.69,66.03-.2,66.49-.88s-10.48-.98-31.57-.89Z"/><path class="cls-2" d="m82.88,474.38c-3.16-2.26-56.8-2.36-56.8,0,0,.3,12.26.59,27.22.59,19.44.1,27.68.39,28.93,1.18,2.37,1.57,2.97,0,.66-1.77Z"/><path class="cls-2" d="m54.28,42.31c-6.79-1.18-16.34-.49-16.34,1.28,0,.29,4.48.69,9.88.69,9.88.1,12.92-.79,6.46-1.97Z"/><path class="cls-2" d="m45.45,69.06c-.26-.49-2.11-.79-4.15-.79-2.57,0-3.43.29-2.9,1.08.33.49,2.24.89,4.09.69,1.91-.2,3.23-.59,2.97-.98Z"/><path class="cls-2" d="m40.64,462.09c-2.5-.1-5.6-.69-6.99-1.38-3.16-1.57-3.82-.39-.79,1.48,3.56,2.16,12.32,3.15,12.32,1.38,0-1.08-1.12-1.38-4.55-1.48Z"/><path class="cls-2" d="m33.39,448.91c-2.7,0-4.68.39-4.68.98s1.85.98,4.22.98,4.48-.39,4.68-.98c.26-.59-1.32-.98-4.22-.98Z"/></g></svg>