<?xml version="1.0" encoding="UTF-8"?><svg id="Layer_1" xmlns="http://www.w3.org/2000/svg" viewBox="0 0 60 60"><defs><style>.cls-1{fill:#212121;}</style></defs><path class="cls-1" d="m18.3,35.67c-4.65-4.08-7.8-10.14-7.71-16.4.05-3.15.99-6.19,2.8-8.77,1.98-2.81,4.83-4.92,7.87-6.48,5.74-2.94,12.95-4.35,19.13-1.98,3.02,1.16,5.55,3.31,7.12,6.14,1.59,2.86,2.16,6.2,1.96,9.45-.44,7.05-4.83,13.08-9.99,17.6-.66.58-1.33,1.15-1.99,1.73-.32.28.1.85.46.6,3-2.09,5.67-4.87,7.81-7.83,2.11-2.92,3.74-6.27,4.35-9.84,1.14-6.66-1.16-14.04-7.22-17.57-5.92-3.44-13.6-2.66-19.71-.15-3.32,1.36-6.49,3.25-8.97,5.87-2.32,2.45-3.9,5.51-4.4,8.85-.98,6.45,1.62,13.23,6.21,17.78.57.57,1.2,1.08,1.84,1.58.32.25.75-.3.44-.57h0Z"/><path class="cls-1" d="m18.36,37.19c.07,0,.07-.11,0-.11s-.07.11,0,.11h0Z"/><path class="cls-1" d="m18.29,37.08c.81.84,1.23,1.82,1.31,2.99.08,1.09-.03,2.17-.02,3.26,0,1.01.11,2.05.5,2.99.29.68.98,1.83,1.83,1.86.2,0,.39-.26.25-.44-.28-.37-.75-.56-1.04-.95-.3-.4-.49-.88-.62-1.36-.28-1-.3-2.04-.27-3.08.05-1.82.05-4.46-1.72-5.55-.18-.11-.36.14-.22.28h0Z"/><path class="cls-1" d="m37.49,37.26c-1.36,1.52-1.39,3.65-1.67,5.56-.13.89-.34,1.79-.74,2.59-.41.83-1.03,1.44-1.78,1.97-.22.15-.09.52.19.45,1.76-.44,2.52-2.58,2.82-4.18.4-2.11.3-4.3,1.45-6.19.1-.16-.14-.36-.27-.21h0Z"/><path class="cls-1" d="m22.55,48.54c2.01.56,4.07.8,6.15.72.99-.04,1.99-.14,2.97-.31,1.01-.18,2.11-.36,3.04-.82.3-.15.08-.57-.22-.51-.95.17-1.86.51-2.81.7-1.01.2-2.03.32-3.06.36-1.99.09-4.01-.1-5.96-.52-.25-.05-.35.31-.11.38h0Z"/><path class="cls-1" d="m21.87,49.89c.25-.46.08-.99-.37-1.24-.22-.12-.47.08-.41.32.17.74.36,1.56.11,2.3-.18.56-.65,1.07-1.27,1.08-.18,0-.34.15-.34.34.01.71.02,1.43.02,2.14,0,.17.15.35.34.33.82-.08,1.64-.16,2.45-.24-.1-.17-.2-.34-.3-.52-.72,1.2-.29,2.64.59,3.63,1.11,1.25,2.84,1.51,4.43,1.53.92.01,1.83-.02,2.75-.02.89,0,1.77-.01,2.65-.15,1.5-.23,2.92-.88,3.69-2.24.68-1.21.78-2.83-.33-3.83-.08.21-.17.41-.26.62,1.45.14,2.62-1.24,2.4-2.63-.03-.18-.28-.32-.45-.26-.84.31-1.69.42-2.58.32.13.12.25.25.38.38-.01-1.04.11-2.11-.09-3.13-.07-.33-.63-.34-.68,0-.16,1.03,0,2.09.03,3.13,0,.22.17.35.37.38.95.1,1.89-.03,2.78-.36-.15-.09-.3-.17-.45-.26.15.97-.77,1.8-1.7,1.72-.31-.03-.48.42-.26.62.84.76.76,1.97.26,2.9-.63,1.17-1.78,1.71-3.05,1.94-1.46.26-2.98.15-4.45.18-1.4.03-2.99.07-4.23-.7-1.09-.68-1.93-2.19-1.21-3.41.12-.21-.03-.54-.3-.52-.82.09-1.64.17-2.45.26.11.11.22.22.33.33,0-.71-.02-1.43-.02-2.14-.11.11-.22.22-.34.34.81,0,1.47-.53,1.78-1.25.42-.95.16-2.01-.09-2.96-.09.12-.18.24-.27.36.32.03.44.38.34.65-.03.1.12.16.17.07h0Z"/><path class="cls-1" d="m21.78,51.27c2.27.37,4.55.47,6.85.33,1.11-.07,2.22-.19,3.32-.36,1.15-.18,2.37-.36,3.47-.74.31-.11.19-.56-.14-.5-1.1.21-2.18.52-3.29.71-1.14.2-2.3.33-3.46.41-2.23.15-4.49.08-6.71-.14-.17-.02-.21.27-.04.29h0Z"/><path class="cls-1" d="m21.02,53.13c1.1.31,2.29.42,3.44.49,1.23.08,2.46.08,3.69,0,1.16-.07,2.32-.2,3.47-.39.59-.1,1.18-.22,1.77-.35.56-.13,1.2-.21,1.69-.52.2-.12.12-.45-.12-.45-.55,0-1.11.24-1.65.37-.55.14-1.11.26-1.67.36-1.18.22-2.38.37-3.59.45-1.14.08-2.28.09-3.42.04-1.2-.05-2.38-.23-3.58-.29-.16,0-.19.23-.04.28h0Z"/><path class="cls-1" d="m25.58,46.72c-.23.3-.44.65-.73.9.18.1.36.21.54.31.19-.73,0-1.62-.05-2.38-.05-.83-.08-1.66-.12-2.48-.07-1.69-.11-3.38-.12-5.07-.01-1.61-.02-3.22.02-4.82.03-1.32.13-2.66.61-3.9.45-1.17,1.34-2.26,2.63-2.52,1.48-.3,2.19.94,2.38,2.21.21,1.51.18,3.09.2,4.61.03,1.67,0,3.35-.05,5.02-.13,3.75-.45,7.48-.98,11.19-.08.57.79.82.87.24.51-3.6.86-7.23.98-10.86.06-1.8.07-3.6.03-5.4-.03-1.66-.01-3.38-.27-5.03-.19-1.23-.84-2.52-2.17-2.79-1.25-.26-2.58.36-3.4,1.29-1.99,2.28-1.74,5.74-1.75,8.56,0,2.04.04,4.08.12,6.12.04,1.05.09,2.1.15,3.15.03.51.06,1.02.1,1.53.03.48.03.95.22,1.4.11.25.53.18.59-.08.08-.37.28-.72.43-1.07.07-.16-.13-.28-.23-.14h0Z"/><path class="cls-1" d="m27.5,49.14c.13-.64.07-1.3.06-1.94-.02-.7-.04-1.4-.05-2.1-.03-1.37-.07-2.74-.1-4.1-.03-1.37-.06-2.74-.1-4.1-.04-1.35.02-2.72-.24-4.05-.03-.13-.26-.14-.28,0-.19,1.34-.06,2.7-.02,4.05.04,1.37.08,2.74.13,4.1.04,1.37.08,2.74.13,4.1.02.7.04,1.4.06,2.1.02.65,0,1.31.17,1.94.03.12.23.13.25,0h0Z"/><path class="cls-1" d="m26.52,27.73c-.67-2.2-1.37-4.38-1.94-6.61-.56-2.23-1.02-4.48-1.41-6.74-.06-.35-.67-.36-.72,0-.05.38-.37.57-.75.56-.47-.01-.74-.44-.79-.87-.11-1.12.96-1.83,1.83-2.28-.14-.02-.28-.04-.42-.05.42.51.44,1.21.1,1.76h.63c-.46-.79-.82-2.28.13-2.89.58-.37,1.87.05,1.62.88.2-.05.4-.11.6-.16-.71-.67-.36-2.16.74-2.11.5.02,1,.35,1.19.81.09.22.11.58-.08.76-.22.21-.37-.03-.41-.24-.21-1.07,1.04-2.26,2-2.46.99-.21,2.36.78,1.84,1.88.16-.04.33-.09.49-.13-.61-.36-.2-1.35.35-1.56.98-.39,1.76.92,1.84,1.71.05.45.72.47.71,0,0-.58.88-.72,1.25-.4.64.56.04,1.59-.5,1.96.17.07.34.14.51.21-.24-.71.88-1.19,1.37-.75.65.57.21,1.7-.37,2.13.15.02.29.04.44.06-.02-.02-.17-.49-.26-.39-.01.02.03.22.03.25,0,.28-.17.54-.28.79-.28.62-.57,1.23-.86,1.85-.57,1.2-1.15,2.39-1.75,3.58-1.21,2.4-2.49,4.76-3.82,7.09.19-.02.37-.05.56-.07-.44-.38-.48-.95-.49-1.5,0-.68,0-1.37,0-2.05,0-1.4,0-2.81,0-4.21,0-2.81,0-5.62.01-8.43,0-.45-.71-.45-.71,0,0,3,0,6-.01,9,0,1.47,0,2.94,0,4.4,0,1.07-.22,2.52.7,3.3.17.15.44.14.56-.07,1.83-3.19,3.55-6.43,5.16-9.74.39-.81.77-1.61,1.15-2.43.27-.58.67-1.2.5-1.86-.1-.43-.6-.83-1.02-.49-.46.37-.33,1.12.03,1.49.1.1.31.15.44.06.99-.75,1.59-2.65.26-3.43-1.02-.6-2.73.36-2.3,1.61.07.2.31.34.51.21.96-.63,1.68-2.35.5-3.17-.85-.59-2.32-.13-2.31,1.01h.71c-.13-1.31-1.41-3.07-2.92-2.34-1.02.49-1.44,2.17-.34,2.81.16.09.41.05.49-.13.6-1.29-.43-2.78-1.78-2.97-1.46-.2-3,1.09-3.34,2.47-.13.53-.08,1.26.41,1.59.53.36,1.16.02,1.39-.51.56-1.31-.91-2.59-2.17-2.4-1.53.23-1.99,2.31-.93,3.32.2.19.53.1.61-.16.41-1.35-1.29-2.25-2.42-1.83-1.61.61-1.37,2.83-.66,4.02.14.24.49.24.63,0,.5-.85.4-1.88-.24-2.62-.1-.12-.29-.12-.42-.05-1.28.68-2.84,2.05-1.99,3.68.58,1.1,2.56,1.11,2.77-.28h-.72c.75,4.49,1.85,9.06,3.54,13.29.13.32.64.2.53-.15h0Z"/><path class="cls-1" d="m38.97,7.91c.69-.55,1.48-1,2.32-1.28.42-.14.82-.29,1.24-.05.29.17.5.45.63.75.65,1.47-.87,3.05-2.35,3.01.11.11.22.22.33.33,0-.65-.23-1.3-.55-1.86-.26-.45-.75-1.22-1.3-1.3-.26-.04-.43.18-.32.42.1.24.32.36.49.55.2.21.38.44.52.69.29.5.41,1.03.51,1.59.03.17.25.29.41.23.95-.33,1.85-.6,2.48-1.45.54-.72.65-1.64.27-2.46-.31-.68-1.07-1.37-1.87-1.17-1.16.29-2.23.89-3.15,1.65-.24.2.1.54.35.35h0Z"/><path class="cls-1" d="m42.49,13.06c.87-.61,1.85-1.07,2.92-1.21-.08-.06-.16-.12-.24-.18.69,2.85.67,5.93.2,8.81-.47,2.91-1.5,5.68-2.94,8.24-.82,1.45-1.79,2.83-2.88,4.1-.13.15.07.37.22.22,4.41-4.18,6.7-10.38,6.6-16.41-.03-1.71-.33-3.43-.72-5.1-.02-.1-.14-.19-.24-.18-1.19.11-2.3.56-3.13,1.43-.14.14.05.41.22.28h0Z"/><path class="cls-1" d="m42.2,12.83c1.69,5.64,1.13,11.79-1.92,16.88-.86,1.43-1.9,2.7-2.96,3.98-.14.17.07.37.24.24,2.32-1.83,3.88-4.63,4.87-7.36,1.02-2.81,1.47-5.87,1.19-8.86-.16-1.7-.52-3.36-1.16-4.95-.06-.15-.3-.1-.25.07h0Z"/><path class="cls-1" d="m17.5,35.68c.48.53.97,1.17,1.56,1.58.12.08.28-.08.2-.2-.41-.59-1.05-1.08-1.58-1.56-.12-.11-.29.06-.18.18h0Z"/><path class="cls-1" d="m17.05,35.35c.53.48,1.05.97,1.59,1.43.51.44,1,.91,1.59,1.23.13.07.32-.08.22-.22-.8-1.09-2.05-1.91-3.09-2.76-.22-.18-.53.12-.31.31h0Z"/><path class="cls-1" d="m18.98,6.63c-.82.31-1.53.9-2.17,1.48-.68.62-1.28,1.31-1.8,2.07-1.04,1.51-1.78,3.24-2.23,5.02-.98,3.91-.59,8.14.84,11.89.41,1.07.9,2.12,1.48,3.11.31.53.64,1.05.99,1.54.32.46.64.93,1.09,1.27.26.19.52-.17.4-.4-.21-.43-.54-.78-.82-1.17-.3-.41-.57-.83-.84-1.26-.51-.84-.97-1.72-1.36-2.63-.79-1.85-1.31-3.83-1.52-5.83-.38-3.6.21-7.36,2.05-10.51.51-.87,1.11-1.69,1.79-2.42.68-.73,1.49-1.26,2.24-1.9.11-.1,0-.31-.15-.26h0Z"/><path class="cls-1" d="m18.93,34.18c.05.08.1.15.17.21-.02-.07-.04-.14-.06-.21,0,0,0,0,0,.01-.01.11,0,.25.12.3.59.27,1.39.02,1.54-.67.07-.35-.05-.72-.3-.98-.13-.13-.3-.25-.48-.3-.22-.06-.34.02-.52.12-.17.09-.13.36.05.41,0-.02-.02-.03-.03-.05.02.02.04.04.05.07.06.04.1.07.16.09.07.03.14.05.21.1.12.09.24.26.23.42-.03.34-.46.4-.71.31-.09-.03-.2,0-.26.07,0,0,0,0-.01.01.07-.02.14-.04.21-.05-.06-.02-.1-.05-.15-.08-.14-.1-.3.09-.22.22h0Z"/><path class="cls-1" d="m24.24,33.7c1.28-2.41,2.68-4.72,4.11-7.04.05-.07-.06-.13-.11-.07-1.51,2.25-2.85,4.64-4.1,7.04-.04.07.07.13.1.06h0Z"/><path class="cls-1" d="m24.57,35.77c.86-1.56,1.72-3.12,2.58-4.69.43-.78.86-1.56,1.29-2.35.21-.39.43-.78.64-1.17.09-.17.18-.34.28-.5.17-.31.17-.53.6-.46-.08-.01-.12.1-.04.12.33.07.32-.45.03-.51-.35-.07-.57.46-.69.68-.32.59-.64,1.17-.96,1.76-1.28,2.35-2.57,4.7-3.85,7.05-.04.08.07.14.12.07h0Z"/><path class="cls-1" d="m25.75,37.92c.55-1.61,1.15-3.2,1.82-4.76.65-1.52,1.41-2.97,2.11-4.46.04-.08-.08-.15-.13-.07-.85,1.46-1.54,3.05-2.2,4.61-.65,1.52-1.23,3.07-1.74,4.64-.03.09.11.13.14.04h0Z"/><path class="cls-1" d="m25.37,45.66c1.51-2.63,3.03-5.33,4.22-8.13.03-.08-.08-.15-.12-.07-1.4,2.72-2.7,5.47-4.21,8.13-.04.08.07.15.12.07h0Z"/><path class="cls-1" d="m25.38,48.37c.84-1.42,1.66-2.84,2.49-4.26.82-1.42,1.72-2.81,2.47-4.27.04-.08-.07-.14-.12-.07-.9,1.37-1.67,2.84-2.5,4.26-.83,1.42-1.65,2.84-2.47,4.27-.05.08.08.16.13.07h0Z"/><path class="cls-1" d="m26.6,48.8c1.55-2.44,3.14-4.87,4.61-7.35.05-.08-.07-.15-.13-.07-1.6,2.41-3.1,4.89-4.61,7.35-.05.08.07.15.13.07h0Z"/><path class="cls-1" d="m28.42,48.36c1.11-1.42,2.07-2.94,2.88-4.56.04-.08-.08-.16-.13-.07-.83,1.59-1.79,3.11-2.88,4.53-.06.07.07.17.13.1h0Z"/><path class="cls-1" d="m22.67,49.11c0-.35.02-.69.03-1.04,0-.09-.13-.09-.13,0-.22,2.94-.03,5.94.51,8.83.02.09.16.05.14-.04-.5-2.92-.66-5.84-.51-8.8h-.13c0,.35,0,.69-.01,1.04,0,.07.11.07.12,0h0Z"/><path class="cls-1" d="m23.73,48.33c-.15,3.59-.2,7.24.12,10.83,0,.09.14.09.14,0-.14-3.62-.26-7.21-.12-10.83,0-.09-.14-.09-.14,0h0Z"/><path class="cls-1" d="m25.22,48.7c-.64,3.66-.9,7.53-.44,11.23.01.09.15.1.15,0-.11-1.85-.21-3.68-.15-5.53.07-1.9.27-3.79.59-5.66.02-.1-.13-.14-.15-.04h0Z"/><path class="cls-1" d="m32,48.32c-.26,3.35-.54,6.69-.75,10.04,0,.1.15.1.16,0,.29-3.34.5-6.7.74-10.04,0-.1-.14-.09-.15,0h0Z"/><path class="cls-1" d="m32.59,49.11c-.17,3.22-.08,6.48.41,9.67.01.09.16.07.15-.02-.38-3.21-.57-6.41-.42-9.65,0-.09-.14-.09-.15,0h0Z"/><path class="cls-1" d="m33.33,48.72c.47,3.73.5,7.44.37,11.2,0,.1.15.1.15,0,.32-3.71.1-7.51-.37-11.2-.01-.09-.16-.1-.15,0h0Z"/><path class="cls-1" d="m34.51,51.42c0,1.67-.03,3.35,0,5.02,0,.09.13.09.13,0,.04-1.67,0-3.35,0-5.02,0-.09-.15-.09-.15,0h0Z"/></svg>