<?xml version="1.0" encoding="UTF-8"?><svg id="Layer_1" xmlns="http://www.w3.org/2000/svg" viewBox="0 0 512 380"><defs><style>.cls-1{fill:#212121;}</style></defs><g><path class="cls-1" d="m19.49,328.41v-51.24h-5.92c-2.94,0-5.28.74-7,2.21-1.72,1.47-2.58,4.07-2.58,7.79H1.49v-7.08c0-1.11.19-2.18.58-3.21.39-1.03,1.1-1.86,2.12-2.5,1.03-.64,2.49-.96,4.37-.96h39.16v3.75h-17.41v51.24h-10.83Z"/><path class="cls-1" d="m102.4,329.16l-18-45.99c-1.28-3.17-2.56-5.36-3.83-6.58-1.28-1.22-2.75-1.94-4.42-2.17v-1.67c.22,0,.76-.03,1.62-.08.86-.05,1.49-.08,1.88-.08,1.94,0,3.94.21,6,.62s4,1.37,5.83,2.87c1.83,1.5,3.39,3.86,4.67,7.08l11.25,28.75,7.5-21.33-2.92-7.42c-1.28-3.17-2.65-5.36-4.12-6.58-1.47-1.22-3.04-1.94-4.71-2.17v-1.67c.22,0,.72-.03,1.5-.08.78-.05,1.36-.08,1.75-.08,1.94,0,3.94.22,6,.67,2.05.45,4,1.4,5.83,2.87,1.83,1.47,3.39,3.82,4.67,7.04l11.92,30.33,14.25-40.08h4l-19.75,55.74h-3.33l-12.83-32.66-11.42,32.66h-3.33Z"/><path class="cls-1" d="m197.63,328.41c-1.94,0-3.46-.32-4.54-.96-1.08-.64-1.85-1.75-2.29-3.33-.44-1.58-.67-3.76-.67-6.54v-44.16h10.83v44.16c0,2.5.35,4.51,1.04,6.04.69,1.53,2.29,2.29,4.79,2.29h.83v2.5h-10Z"/><path class="cls-1" d="m261.12,329.83c-2.28,0-4.53-.22-6.75-.67-2.22-.44-4.25-1.1-6.08-1.96-1.83-.86-3.29-1.92-4.37-3.17-1.08-1.25-1.63-2.65-1.63-4.21v-9.75h2.33c.89,5.78,2.68,9.89,5.37,12.33,2.69,2.44,6.37,3.67,11.04,3.67,2.11,0,3.96-.3,5.54-.92,1.58-.61,2.8-1.51,3.67-2.71.86-1.19,1.29-2.68,1.29-4.46,0-2.39-.76-4.37-2.29-5.96-1.53-1.58-3.62-3.18-6.29-4.79l-10.25-6.17c-3.78-2.22-6.44-4.5-8-6.83-1.56-2.33-2.33-5.03-2.33-8.08,0-4.39,1.68-7.86,5.04-10.42,3.36-2.55,7.9-3.83,13.62-3.83,2.28,0,4.53.22,6.75.67,2.22.44,4.25,1.1,6.08,1.96,1.83.86,3.29,1.9,4.37,3.12,1.08,1.22,1.62,2.64,1.62,4.25v9.75h-2.33c-.95-5.78-2.72-9.89-5.33-12.33-2.61-2.44-6.03-3.67-10.25-3.67-2,0-3.74.33-5.21,1-1.47.67-2.6,1.6-3.37,2.79-.78,1.19-1.17,2.62-1.17,4.29,0,2.33.79,4.22,2.37,5.67,1.58,1.44,3.68,2.94,6.29,4.5l10.25,6.08c3.78,2.22,6.54,4.4,8.29,6.54,1.75,2.14,2.63,4.74,2.63,7.79,0,4.78-1.81,8.55-5.42,11.33-3.61,2.78-8.78,4.17-15.5,4.17Z"/><path class="cls-1" d="m328.7,328.41c-1.94,0-3.46-.32-4.54-.96-1.08-.64-1.85-1.75-2.29-3.33-.44-1.58-.67-3.76-.67-6.54v-44.16h10.83v44.16c0,2.5.35,4.51,1.04,6.04.69,1.53,2.29,2.29,4.79,2.29h.83v2.5h-10Z"/><path class="cls-1" d="m399.52,330.08c-5.5,0-10.32-1.29-14.46-3.87-4.14-2.58-7.35-6.07-9.62-10.46-2.28-4.39-3.42-9.33-3.42-14.83s1.14-10.44,3.42-14.83c2.28-4.39,5.49-7.87,9.62-10.46,4.14-2.58,8.96-3.87,14.46-3.87s10.37,1.29,14.46,3.87c4.08,2.58,7.26,6.07,9.54,10.46,2.28,4.39,3.42,9.33,3.42,14.83s-1.14,10.44-3.42,14.83c-2.28,4.39-5.46,7.87-9.54,10.46-4.08,2.58-8.9,3.87-14.46,3.87Zm0-3.75c3.39,0,6.26-.99,8.62-2.96,2.36-1.97,4.17-4.86,5.42-8.67,1.25-3.8,1.87-8.4,1.87-13.79s-.62-10.05-1.87-13.83c-1.25-3.78-3.06-6.65-5.42-8.62-2.36-1.97-5.24-2.96-8.62-2.96s-6.18.99-8.54,2.96c-2.36,1.97-4.17,4.85-5.42,8.62-1.25,3.78-1.88,8.39-1.88,13.83s.63,9.99,1.88,13.79c1.25,3.81,3.05,6.69,5.42,8.67,2.36,1.97,5.21,2.96,8.54,2.96Z"/><path class="cls-1" d="m506.68,328.66l-35.33-41.49v41.24h-4.17v-44.99c0-2.11-.51-3.89-1.54-5.33-1.03-1.44-3.01-2.17-5.96-2.17h-.42v-2.5h5.83c3.17,0,5.73.42,7.71,1.25,1.97.83,3.6,2.08,4.87,3.75l28.66,33.33v-38.33h4.17v55.24h-3.83Z"/></g><g><path class="cls-1" d="m94.92,361.01c.93-1.63,2.2-2.9,3.81-3.81,1.61-.91,3.42-1.37,5.42-1.37,2.34,0,4.39.6,6.16,1.8,1.76,1.2,2.99,2.86,3.69,4.98h-4.83c-.48-1-1.16-1.75-2.03-2.25-.87-.5-1.88-.75-3.02-.75-1.22,0-2.31.29-3.26.86-.95.57-1.69,1.38-2.22,2.42-.53,1.04-.8,2.26-.8,3.66s.27,2.6.8,3.65c.53,1.05,1.27,1.86,2.22,2.43.95.57,2.04.86,3.26.86,1.14,0,2.15-.26,3.02-.77.87-.51,1.55-1.27,2.03-2.27h4.83c-.7,2.14-1.93,3.81-3.68,5-1.75,1.19-3.81,1.79-6.17,1.79-2,0-3.81-.46-5.42-1.37-1.61-.91-2.88-2.18-3.81-3.8s-1.4-3.46-1.4-5.52.47-3.91,1.4-5.54Z"/><path class="cls-1" d="m138.93,377.06l-4.62-8.17h-1.98v8.17h-4.2v-20.96h7.87c1.62,0,3,.29,4.14.86,1.14.57,2,1.34,2.57,2.31.57.97.86,2.06.86,3.26,0,1.38-.4,2.63-1.2,3.74-.8,1.11-1.99,1.88-3.57,2.3l5.01,8.5h-4.86Zm-6.61-11.32h3.51c1.14,0,1.99-.27,2.55-.83.56-.55.84-1.32.84-2.3s-.28-1.71-.84-2.24-1.41-.8-2.55-.8h-3.51v6.16Z"/><path class="cls-1" d="m162.08,359.5v5.25h7.06v3.33h-7.06v5.56h7.96v3.42h-12.16v-20.99h12.16v3.42h-7.96Z"/><path class="cls-1" d="m197.21,373.07h-8.35l-1.38,3.99h-4.41l7.54-20.99h4.89l7.54,20.99h-4.44l-1.38-3.99Zm-1.14-3.36l-3.03-8.77-3.03,8.77h6.07Z"/><path class="cls-1" d="m230.63,356.1v3.39h-5.58v17.57h-4.2v-17.57h-5.58v-3.39h15.37Z"/><path class="cls-1" d="m248.4,356.1v20.96h-4.2v-20.96h4.2Z"/><path class="cls-1" d="m281.88,356.1l-7.69,20.96h-5.11l-7.69-20.96h4.5l5.76,16.66,5.73-16.66h4.47Z"/><path class="cls-1" d="m299.12,359.5v5.25h7.06v3.33h-7.06v5.56h7.96v3.42h-12.16v-20.99h12.16v3.42h-7.96Z"/><path class="cls-1" d="m356.44,356.1v20.96h-4.2v-8.92h-8.98v8.92h-4.2v-20.96h4.2v8.62h8.98v-8.62h4.2Z"/><path class="cls-1" d="m375.23,356.1v12.97c0,1.42.37,2.51,1.11,3.26.74.75,1.78,1.13,3.12,1.13s2.41-.38,3.15-1.13c.74-.75,1.11-1.84,1.11-3.26v-12.97h4.23v12.94c0,1.78-.39,3.29-1.16,4.52-.77,1.23-1.8,2.16-3.09,2.78-1.29.62-2.73.93-4.31.93s-2.98-.31-4.25-.93c-1.27-.62-2.28-1.55-3.02-2.78-.74-1.23-1.11-2.74-1.11-4.52v-12.94h4.2Z"/><path class="cls-1" d="m417.33,368.08c.76.96,1.14,2.06,1.14,3.3,0,1.12-.28,2.11-.83,2.96-.55.85-1.35,1.52-2.39,2-1.04.48-2.27.72-3.69.72h-9.04v-20.96h8.65c1.42,0,2.65.23,3.68.69,1.03.46,1.81,1.1,2.34,1.92.53.82.8,1.75.8,2.79,0,1.22-.33,2.24-.98,3.06-.65.82-1.52,1.4-2.6,1.74,1.18.22,2.15.81,2.91,1.77Zm-10.6-3.33h3.84c1,0,1.77-.23,2.31-.68.54-.45.81-1.1.81-1.94s-.27-1.49-.81-1.95-1.31-.69-2.31-.69h-3.84v5.25Zm6.62,8.17c.57-.48.86-1.16.86-2.04s-.3-1.61-.9-2.12c-.6-.51-1.41-.77-2.43-.77h-4.14v5.65h4.23c1.02,0,1.82-.24,2.39-.72Z"/></g><g><path class="cls-1" d="m256,199.3c-1.05,3.97-8.77,10.27-19.37,16.3l3.82,6.82,15.55,27.99,15.55-27.99,3.82-6.82c-10.6-6.03-18.32-12.33-19.37-16.3Z"/><path class="cls-1" d="m453.58,2.73l-197.58,59.69L58.42,2.73c-.53,1.8-.79,3.6-.79,5.4,0,8.06,5.21,15.51,13.3,17.95l9.78,2.96,120.92,36.53c26.94,8.17,44.48,32.75,45.04,59.47-.04.56,0,1.16,0,1.72-.07,10.23-2.55,20.76-8.24,30.76-13.75,24.21-42.45,36.91-69.58,30.5-17.95-4.27-32.79-15.7-41.4-31.81-8.02-14.91-9.74-32.07-4.83-48.26,1.24-4.05,2.85-7.94,4.83-11.62-19.93,14.61-26,46.24-18.32,65.16,2.62,5.55,5.88,10.87,9.82,15.89,7.01,8.99,16,16.41,26.12,21.62,12.48,6.44,25.52,9.41,38.22,9.41,30.24,0,58.53-16.9,72.73-44.07,14.2,27.17,42.49,44.07,72.73,44.07,12.7,0,25.74-2.96,38.22-9.41,10.12-5.21,19.11-12.63,26.12-21.62,3.93-5.02,7.19-10.34,9.82-15.89l.04-.04c7.61-18.92,1.57-50.51-18.36-65.12,1.99,3.67,3.6,7.57,4.83,11.62,4.91,16.19,3.19,33.35-4.83,48.26-8.62,16.11-23.46,27.54-41.41,31.81-27.13,6.41-55.83-6.3-69.58-30.5-5.7-10-8.17-20.53-8.24-30.76,0-.56.04-1.16,0-1.72.56-26.72,18.1-51.3,45.04-59.47l120.92-36.53,9.78-2.96c8.09-2.44,13.3-9.89,13.3-17.95,0-1.8-.26-3.6-.79-5.4Z"/><path class="cls-1" d="m316.4,81.16c-23.79,7.16-38.9,31.44-33.28,55.64,5.1,21.88,24.54,36.23,45.6,36.23,4.46,0,8.99-.64,13.49-2.02,11.95-3.6,21.81-11.65,27.69-22.67,5.88-10.98,7.16-23.64,3.56-35.6-2.96-9.82-8.95-18.17-17.09-24.09l18.62-5.66,19.49-5.88,10.87-3.26c8.09-2.44,13.34-9.89,13.34-17.95,0-1.8-.26-3.63-.83-5.43l-101.47,30.69Zm12.29,68.98c-13.19,0-23.87-10.68-23.87-23.87s10.68-23.87,23.87-23.87c2.77,0,5.47.49,7.94,1.42-3.94,1.27-6.82,4.98-6.82,9.41,0,5.47,4.46,9.93,9.93,9.93,5.02,0,9.14-3.71,9.78-8.51,1.95,3.41,3.04,7.42,3.04,11.62,0,13.19-10.68,23.87-23.87,23.87Z"/><path class="cls-1" d="m117.51,77.11l19.48,5.88,18.62,5.66c-8.13,5.92-14.13,14.28-17.09,24.09-3.6,11.95-2.32,24.62,3.56,35.6,5.88,11.02,15.74,19.07,27.69,22.67,4.5,1.39,9.03,2.02,13.49,2.02,21.06,0,40.51-14.35,45.6-36.23,5.62-24.21-9.48-48.49-33.27-55.64l-101.47-30.69c-.56,1.8-.82,3.63-.82,5.43,0,8.06,5.25,15.51,13.34,17.95l10.87,3.26Zm65.8,25.29c2.77,0,5.47.49,7.94,1.42-3.93,1.27-6.82,4.98-6.82,9.41,0,5.47,4.46,9.93,9.93,9.93,5.02,0,9.14-3.71,9.78-8.51,1.95,3.41,3.03,7.42,3.03,11.62,0,13.19-10.68,23.87-23.87,23.87s-23.87-10.68-23.87-23.87,10.68-23.87,23.87-23.87Z"/></g></svg>