<?xml version="1.0" encoding="UTF-8"?><svg id="Layer_1" xmlns="http://www.w3.org/2000/svg" viewBox="0 0 512 244.35"><defs><style>.cls-1{fill-rule:evenodd;}</style></defs><path class="cls-1" d="m511.7,38.43c-.74-15.47-2.63-24.17-6.47-29.32-1.89-2.53-3.03-3.13-9.09-4.7-10.71-2.76-26.6-3.45-79.75-3.5-19.26-.05-45.33-.23-57.92-.46C329.5-.05,319-.1,196.14.13c-60.15.14-106.49.41-114.5.69-7.41.28-20.41.74-28.96.97-19.6.64-26.07,1.15-32.13,2.62-6.8,1.66-10.1,3.18-12.66,5.85C.68,17.81-.33,27.48.35,82.63c.27,18.23.4,34.3.4,35.68-1.28,65.09-1.01,80.38,1.48,93.22.54,2.81,1.28,6.63,1.62,8.56,2.09,11,6.94,17.68,14.82,20.44,4.58,1.57,28.56,2.3,119.89,3.73,11.05.18,26.54.09,38.39-.28,11.25-.32,49.84-.6,88.91-.69,37.99-.09,70.99-.28,73.42-.46,2.42-.14,27.75-.46,56.24-.69,67.15-.55,88.91-1.52,97.66-4.33,7.34-2.35,11.72-5.85,13.07-10.27,1.68-5.85,2.63-24.86,2.63-55.61.07-33.97,1.21-82.5,2.16-91.15.94-8.7,1.28-29.79.67-42.35Zm-7.34,51.56c-1.41,18.51-2.36,50.5-2.42,84.25-.07,35.4-.81,48.57-2.76,52.3-1.55,3.13-4.11,5.02-8.62,6.45-7.88,2.49-28.42,3.5-81.9,4.1-22.43.23-52.4.64-66.68.92-39.54.74-246.18.78-288.61.05-22.09-.37-25.39-.51-28.83-1.34-8.96-2.07-12.06-6.49-14.95-21.5-3.37-17.31-3.37-15.97-2.76-139.26.2-48.94.4-52.57,3.5-59.39,3.17-7,8.69-8.65,32.26-9.67,6.67-.28,14.89-.69,18.19-.97,16.7-1.29,36.98-1.47,152.89-1.43,179.77.05,249.28.46,265.04,1.47,9.97.64,18.45,3.31,20.88,6.49,2.49,3.22,4.92,14.18,5.66,25.04.4,6.81-.2,43.18-.88,52.48Z"/><path class="cls-1" d="m491.89,12.33c-1.82-1.66-4.31-1.8-35.76-2.07-31.05-.28-50.85.05-50.85.83,0,.23,10.37.41,24.11.46,13.2,0,31.79.18,41.22.32,16.37.32,17.31.37,19.73,1.38,2.56,1.15,3.37.69,1.55-.92Z"/><path class="cls-1" d="m370.72,10.58c-2.69,0-8.55-.37-12.93-.78-7.34-.74-15.42-.83-85.54-.87-53.88,0-80.76-.18-88.23-.55-5.93-.32-20.88-.78-33.27-1.01-18.25-.37-24.72-.32-34.01.23-6.33.32-20.75.87-32.06,1.15-26.54.64-48.7,1.66-55.77,2.53-6.8.78-12.6,2.53-13.27,3.87-.81,1.75.27,1.89,3.91.51,2.36-.87,5.99-1.66,10.98-2.3,7.88-1.01,13-1.29,48.76-2.49,12.06-.37,27.48-1.06,34.35-1.47,10.17-.64,16.37-.74,34.01-.46,11.85.18,26.87.55,33.34.83,7.75.37,38.32.55,88.91.6,54.15.05,79.14.23,83.86.6,8.42.64,21.89.74,21.89.09,0-.28-2.09-.46-4.92-.46Z"/><path class="cls-1" d="m135.39,232.71c-18.66,1.1-53.55,1.43-76.65.69-10.1-.32-14.75-.69-22.23-1.8-8.49-1.24-10.64-1.43-9.63-.74.13.14,4.04.87,8.69,1.66,6.33,1.06,10.84,1.52,18.79,1.8,20.41.83,69.98.37,82.37-.74,4.98-.41,3.84-1.2-1.35-.87Z"/></svg>