<?xml version="1.0" encoding="UTF-8"?><svg id="Layer_1" xmlns="http://www.w3.org/2000/svg" viewBox="0 0 1028.61 855"><defs><style>.cls-1,.cls-2{fill:#fdc91e;}.cls-3{fill:#212121;}.cls-3,.cls-2{fill-rule:evenodd;}</style></defs><polygon class="cls-1" points="90.59 329.42 102.43 318.81 111.94 317.06 129.4 314.03 218.72 314.03 681.39 309.12 698.18 309.12 708.65 317.21 708.65 323.42 715.24 357.69 715.24 533.21 715.24 563.5 718.44 574.97 718.44 634.8 718.44 666.13 713.54 747.16 663 756.53 546.78 758.28 348.93 758.18 149.61 758.28 111.22 754.92 104.83 748.76 98.1 734.37 93.1 676.79 84.39 391.58 84.39 346.26 90.59 329.42"/><path class="cls-3" d="m121.73,825.34c60.74,4.84,154.08.57,212.63,1.96-88.02-8.13-188.54,2.92-258.32-15.76,7.9,9.32,27.98,12.4,45.69,13.8Z"/><path class="cls-3" d="m677.98,794.33c29.67-1.21,65.05-.07,79.91-23.47-.32-1.24-1.28-1.89-3.13-1.67-17.93,18.41-59.54,18.5-95.71,19.91-90.53,3.54-195.95,2.44-277.93,7.58,94.39,6.42,205.62,1.32,296.86-2.35Z"/><path class="cls-3" d="m401.13,822.56c121.32,6.81,241.17-2.44,360.37-4-117.89-8.22-247.45-3.54-360.37,4Z"/><path class="cls-3" d="m759.9,753.45c7.79-100.91,7.43-216.76-3.65-309.58,1.74,102.7-2.3,210.9,3.65,309.58Z"/><path class="cls-3" d="m50.71,742.68c1.87,18.27,4.66,41.04,19.6,43.32-29.18-55.88-7.73-159.99-24.67-227.55,3.02,59.79-.55,129.05,5.07,184.23Z"/><path class="cls-3" d="m292.12,275.55c32.77-1.1,66.97,6.8,95.3-2.47-85.39-2.78-190.46-12.35-262,4.8,51.7-6.8,115.27-.6,166.7-2.33Z"/><path class="cls-3" d="m744.27,283.29c11.77,29.58,7.98,74.01,16.47,106.74-2-38.91,4.42-85.86-16.47-106.74Z"/><path class="cls-3" d="m43.89,367.97c-.44-21.22-2.54-41.81,3.04-60.25,2.06-6.8,12.61-15.35,8.42-20.42-1.06-.02-2.12-.05-3.17-.07-.13,2.03-2.09,2.15-1.71,4.71-16.01,22.24-14.63,70.47-13.78,110.76.93,42.98,4.95,86.14,9.82,119.27,1.24-48.32-1.57-104.23-2.63-153.99Z"/><path class="cls-3" d="m344.71,792.62c-86.42.93-173.36,1.3-260.32,1.67,78.21,11.62,183.75,8.65,260.32-1.67Z"/><path class="cls-3" d="m811.08,276.97c51.45,4.68,122.06-8.88,138.97,28.75-4.4-47.71-98.73-34.85-138.97-28.75Z"/><path class="cls-3" d="m906.91,712.55c10.12,13.61,10.92,36.1,16.14,54.37,6.85-19.16-1.94-45.45-16.14-54.37Z"/><path class="cls-3" d="m961.1,702.74c-3.18-117.31.02-247.41-12.08-354.2,2.79,103.84,4.53,220.35,6.42,325.51.86,47.84,7.93,106.26-9.63,136.25,18.65-6.14,15.02-30.51,15.42-47.23.47-19.98.37-41.7-.13-60.33Z"/><path class="cls-3" d="m842.63,811c-9.39-3.63-17.63-10.57-25.15-10.14,9.72,13.98,26.65,21.1,51.88,20.3-5.95-7.1-17.66-6.65-26.73-10.16Z"/><path class="cls-3" d="m801.92,787.8c-9.86-23.98,5.89-51.88,9.53-66.43-12.38,13.75-27.35,49.33-9.53,66.43Z"/><path class="cls-3" d="m895.12,805.91c-.04,2.12-.1,4.23-.15,6.35,2.12.05,4.23.11,6.34.14.86-4.95-1.21-7.12-6.19-6.49Z"/><path class="cls-3" d="m904.87,796.62c-1.33,5.92,1.6,7.77,6.16,8.08,3.83-3.84.86-9.93-6.16-8.08Z"/><path class="cls-3" d="m720.81,531.91c1.87-77.6,1.3-155.63-8.95-220.83-10.89-9.38-28.83-6.1-42.71-5.8-183.14,4.11-381.32,3.84-568.36,6.92-29.09,19.36-22.08,63.96-21.48,101.05,1.83,113.23,5.06,245.68,20.29,343.31,99.25,7.51,205.47,6.72,309.37,4.3,102.78-2.4,213.59,8.36,306.48-6.9,11.33-64.1,3.53-146.22,5.36-222.06ZM105.2,326.59c20.4-13.75,48.72-8.34,84.34-9.07,2.38,5.87-6.05,8.86-9.82,12.45-30.51,29.09-61.4,68.56-86.64,104.25,2.71-36.59-14.21-89.86,12.12-107.63Zm-13.11,148.87c-.13-6.3-2.4-14.39-1.08-20.67,2.2-10.43,15.96-25.69,24.7-37.48,26.58-35.81,58.48-69.01,86.53-99.48,56.11-.27,106.5,3.42,160.28.69,2.47,6-8.33,11.03-14.69,17.1-43.16,41.13-83.83,91.12-122.41,139.9-44.18,55.83-92.13,111.51-127.97,173.08-7.94-53.74-4.22-118.7-5.35-173.13Zm33.07,142.05c70.72-102.08,161.01-218.48,245.24-297.22,2.58-2.4,12.25-3.82,20.7-2.67,1.73,3.58-3.18,8.84-5.02,10.98-46.59,53.96-99.51,108.65-145.28,166.32-49.42,62.3-99.3,125.97-141.16,193.4-11.24-27.77,7.53-44.85,25.51-70.8Zm-25.89,86.67c2.98-16.63,22.45-38.19,33.02-53.17,80.86-114.66,179.51-238.49,268.34-333.16,33.45-2.86,69.56-2.9,104.84-3.82-113.03,147-221.5,298.84-340.73,439.35-38.6,5.98-73.52-4.39-65.47-49.19Zm159.18,46.68c-1.24-6.8,9.73-15.96,16.47-24.99,19.09-25.6,41.3-55.54,59.13-82.69-30.4,28.82-61.43,71.07-89.89,107.35-15.43-1.57-26.69,1.26-41.27.59,63.58-88.33,131.84-171.73,196.69-258.72-65.83,74.36-134.86,161.98-199.52,244.37-3.88,4.96-4.87,14.96-13.08,15.55-4.14,4.13-3.96-3.13.07-3.17,99.58-123.8,189.4-255.73,287-383.5,13.32-17.43,25.69-38.18,44.1-51.31,1.34,8.36-10.7,19.82-18.18,29.73-21.28,28.14-46.25,60.81-65.71,92.03,32.34-32.72,63.27-81.05,93.4-121.52,15.35-.69,29.08-3.1,46.08-2.06.79,6.92-6.19,12.43-9.94,17.22-69.05,88.22-139.64,184.52-206.63,275.93,42.2-41.1,77.98-93.52,116.14-143.21,37.96-49.42,74.38-101.12,111.53-149.67,41.41,3.22,83.46-2.94,117.3,6.01,13.66,31.26,8.65,78.47,9.89,116.1.19,5.5,2.31,11.85,1.16,17.49-2.11,10.34-20.11,28.86-29.55,40.54-70.32,87.1-154.29,178.03-222.15,261.27-73.07.23-137.25-7.54-203.07-3.31Zm223.73,2.22c-2.4-2.92,5.34-11.64,9.94-17.22,32.54-39.55,68.53-80.14,102.92-121.31,39.82-47.7,81.54-96.3,116.21-146.38-.12,11.4,4.37,26.86.59,41.27-3.87,14.77-38.28,50.51-49.15,63.89-50.27,61.86-103.45,124.35-155.13,180.37-8.46-.21-16.92-.41-25.37-.62Zm227.16-8.79c-24.43,12.29-67.58,4.96-101.74,7.06-1.93-6.4,6.62-9.29,9.81-12.47,30.32-30.07,65.58-69.54,93-104.09,5.96,29.27,5.1,78.67-1.07,109.5Zm2.95-122.15c-2.56,8.97-19.07,24.46-27.81,34.25-28.8,32.27-64.34,64.33-89.58,94.66-25.34.5-47.56,4.29-74.66,2.95,63.05-78.05,131.47-150.43,189.74-233.48-1.67,32.47,10.73,72.1,2.31,101.62Z"/><path class="cls-3" d="m925.12,549.54c-2.03-87.6.44-191-8.22-250.97-34.29-15.85-103.73-14.41-138.04-1.74-1.77,116.88-2.53,232.78,7.7,338.23,19.45,3.49,39.81.37,65.08-.02,18.52-.28,52.95,9.46,65.1-1.6,11.01-10.02,8.9-61.36,8.38-83.9Zm-93.98-183.2c25.39.34,55.59-3.27,76.05,5-1.87,12.54-23.29,4.68-33.42,3.97-26.27-1.87-59.39.57-79.34-.34.04-15.87,23.55-8.82,36.71-8.63Zm-2.63-22.29c12.11-1.16,28.11.68,42.82,1.03,14.21.34,33.37-3.56,36.33,7.22-1.99,8.73-14.69,4.23-20.73,4.27-28.43.12-66.7-1.81-91.99-2.22-2.66-14.84,24.86-9.46,33.58-10.3Zm-34.42,45.19c31.64-3.79,82.33-5.96,112.58,4.32-30.96,4.95-78.81,2.15-112.74,2.03.06-2.12.11-4.24.16-6.35Zm91.35,29.19c-27.95.12-69.29-.48-90.37-3.75.97-7.37,10.18-5.6,14.42-6.01,19.54-1.83,48.97-.53,73,.18,7.54.23,21.51-3.4,23.69,5.34-1.52,8.61-14.55,4.23-20.73,4.25Zm20.27,14.78c-.05,2.1-.1,4.22-.16,6.33-21.8,9.52-58.08.55-85.72,1.1-9.06.18-21.46,6.37-25.31-3.77,2.31-7.4,13.5-5.57,19.2-5.89,27.93-1.6,64.73-.8,91.99,2.22Zm-109.99,19.55c36.46,1.94,77.25-.25,111,4.27.4,14.84-21.29,7.42-33.51,7.13-25.91-.64-57-1.53-79.38,1.25.29-4.55-.62-10.39,1.89-12.65Zm8.95,24.02c28.67-3.74,71.94,1.64,101.51,2.46-.04,2.12-.09,4.23-.15,6.35-17.7,4.32-53.12-.96-80.94-.37-12.1.27-25.72,6.14-31.68-2.35-.12-7.06,8.11-5.66,11.26-6.08Zm100.83,31.01c-31.94,4.75-79.41,2.83-111.15,2.08.05-2.1.1-4.22.16-6.33,22.97-4.91,68.72-3.98,95.28-2.47,6.07.36,18.15-7.15,15.71,6.72Zm-90.88,16.85c28.04-.52,68.38-4.98,92,2.22-5.38,9.02-19.56,3.82-30.24,4.04-17.15.34-38.91-.11-55.57.25-10.18.21-24.67,7.08-26.88-3.83,1.03-6.74,14.92-2.56,20.69-2.69Zm58.2,22.04c12.29,0,29.85-3.93,34.73,7.19-23.83,5.68-61.83,2.31-90.52,2.58-7.46.07-19.02,6.07-22.13-3.72,18.35-6.16,50.88-6.05,77.91-6.05Zm-46.57,22.68c20.26-.44,36.83.23,58.73-.18,7.37-.12,21.21-6.21,22.13,3.72-5.01,9.16-26.41,3.17-39.76,3.81-19.97.96-53.34,1.8-71.46,1.44,1.24-11.56,19.2-8.54,30.37-8.79Zm54.33,50.51c-26.37-1.85-61.37,2.3-80.98,1.23,1.72-11.12,25.33-8.47,35.14-8.68,24.43-.52,54.92-2.31,72.93,3.36.41,11.15-18.75,4.68-27.09,4.09Zm-83.57-22.65c3.79-7.49,23.97-6.85,33.51-7.12,22.96-.66,49.96.89,71.45-1.46,1.58.05,3.16.07,4.75.12-1.26,4.8,1.48,5.82,1.36,9.55-38.02-3.47-81.95,3.84-111.07-1.1Zm-1.58-263.49c1.15-15.73,26.78-8.88,43.05-8.49,17.6.43,36.93,1.03,50.77,1.23,7.65.11,18.24-7.19,18.92,5.21-30.99,5.41-79.27,3.88-112.74,2.05Zm.47-19.04c-3.09-3.9,2.94-7.61-1.33-11.14,33.85,1.37,85.66-1.89,114.14,5.92-32.8,6.8-77.13,1.48-112.81,5.21Z"/><path class="cls-2" d="m936.67,662.48c-9.13-3.01-25.49-2.63-34.89-.85-2.69,8.95-2.9,28.16,3.88,36.61,9.51.21,19.03.46,28.54.69,10.8-6.85,5.44-25.46,2.46-36.45Zm-8.54,25.19c-4.76-.12-9.52-.23-14.28-.36.11-4.21.2-8.45.31-12.68,4.95.44,11.67-.78,14.23,1.92-.09,3.72-.18,7.42-.27,11.12Z"/><path class="cls-2" d="m836.63,664.83c-8.6-3.68-23.6-1.26-34.85-2.42-8.45,6.88-6.88,25.9-2.47,36.43,10.63,2.7,31.5,4.39,38.15-2.26-.85-13.31,1.32-21.65-.83-31.76Zm-13.23,21.9c-3.98,1.98-6.47-4.8-7.93-.18-3.36-1.09-1.25-9.8.27-11.12,2.64.07,5.29.12,7.93.2-.1,3.7-.19,7.4-.28,11.1Z"/><path class="cls-3" d="m885.81,666.03c-27.89-12.35-43.41,10.48-30.95,32.57,7.42,2.12,24.99,4.41,30.17-.87,2.76-7.22,3.17-24.34.77-31.7Zm-11.61,20.35c-6.77.76-11.1-.8-9.32-8.17,3.18.07,6.34.16,9.52.23-.07,2.65-.12,5.3-.2,7.93Z"/><path class="cls-2" d="m912.48,744.44c-4.31-37.34-65.75-46.13-88.4-19.6-40.18,47.04,28.09,103.73,72.98,66.82,7.17-17.83,17.49-29.34,15.42-47.22Zm-86.07,15.37c3.2,1.6,6.19,3.4,9.39,4.98-2.96,24.19,23.23,17.17,39.2,20-17.96,17.47-50.03-.37-48.59-24.98Zm17.21,9.94c4.95,2.01,8.26,5.55,14.13,6.67-4.84,4-13-2.01-14.13-6.67Zm14.47-7.58c-11.32-6.42-23.94-9.82-31.34-16.63.04-1.6.07-3.18.11-4.77,17.75,5.91,40.3,20.42,59.59,30.01-6.45,12.85-19.68-3.7-28.36-8.61Zm-2.61-23.89c12.12-4.27,26.8,2.35,28.25,13.38-10.71-3.22-17.54-10.14-28.25-13.38Zm39.2,20c-6.77-.27-5.59-8.11-7.62-12.88-7.03-15.94-30.85-14.2-47.28-13.84,18-17.1,59.47-5.11,54.9,26.72Z"/><path class="cls-3" d="m992.08,668.59c-2.37-101.47-2.8-187.81-8.9-289.07-2.63-43.8-4.15-104.87-28.77-122.89-9.18-6.72-25.92-9.25-37.84-10.44-57.87-5.8-122.34,5.53-184.11.32-22.95-24.62-52.45-43.02-90.77-52.98,11.56-21.47,22.59-43.48,33.46-65.66.16-.29.35-.55.51-.85.37-.62.64-1.26.85-1.9,11.82-24.16,23.43-48.55,35.23-72.72,45.98,7.29,38.68-55.28,4.44-52.27-18.42,1.62-25.22,26.42-15.4,45.65-32.8,43.11-59.6,92.51-89.06,139.1-54.58-14.73-123.66-13.41-174.59.55-41.26-45.92-86.98-87.58-131.77-130.13,30.39-39.94-43.31-60.97-39.31-15.25,1.29,14.66,14.69,21.1,32.78,23.02,29.72,45.03,69.45,88.79,95.2,132.43-27.44,8.75-50.32,14.16-73.66,26.79-11.17,6.05-20.2,18.27-33.84,21.4-22.02,5.07-53.49-.44-84.08-2.03-52.97-2.74-110.82-7.49-149.32,5.92-28.36,9.87-36.67,34.73-39.83,72.05-7.79,91.78,5.04,188.27,7.45,282.67,1.01,39.12-2.24,81.84.04,130.15,1.81,38.5-1.37,97.97,19.48,113.16,12.24,8.9,46.4,7.95,66.47,7.93,89.81.02,178.38-2.03,272.97.25,65.83,1.58,133.53-1.55,203.15.14,57.82,1.39,133.73,1.44,201.55.11,51.33-1.01,159.16,6.12,189.22-14.48,36.63-25.1,19.68-117.56,18.41-170.96ZM726.4,36.86c-3.7-.09-7.4-.18-11.11-.27-10.42-28.11,29.6-19.57,11.11.27Zm-436.62,6.92c-3.95.14-4.85-2.62-7.84-3.36-.8-9.52,2.73-14.46,13-12.38-3.1,3.81-.39,13.68-5.15,15.74Zm354.49,108.54c7.21-11.99,15.31-24.96,21.49-35.97-3.58,10.5-10.02,25.33-16.81,39.26-6.08,12.45-12.71,28.23-21.42,32.82-1.89-11.39,9.46-24.02,16.74-36.11Zm-257.38,11.24c-8.81-11.78-15.51-25.83-24.54-35.49,18.15,15.25,41.74,38.73,57.23,61.7-16.46,3.15-24.82-15.65-32.69-26.2Zm143.6,33.62c71.14-2.77,133.96,16.53,178.17,48.75-25.73.46-46.43-18.38-72.35-27.15-39.76-13.43-89.38-20.69-137.77-12.85,71.56,2.58,135.36,12.58,181.58,39.3-46.35,8.61-68.16-19.11-113.79-20.21-15.82-.37-30.31,2.01-44.56,5.28-11.78,2.7-22.52,10.19-36.83,13.4-21.95,4.91-47.01-1.9-74.59-.21,15.02-11.35,34.79-17.7,54.54-24.09-25.4-5.34-54.65,12.99-73.62,25.21-20.76-.66-38.58,1.82-60.31.12,51.35-28.69,120.31-44.46,199.53-47.55Zm98.82,48.41c-36.57,2.83-79.84-1.39-119-1.28,29.66-13.84,88.48-12.95,119,1.28Zm335.38,571.53c-15.59,19.64-67.26,11.51-100.28,11.87-131.86,1.35-270.92,4.95-412.75,4.32-101.8-.44-205,7.4-306.36,2.12-31.9-1.65-65.89-1.35-93.28-14.94-14.64-81.48-9.89-171.83-14.22-265.39-2.79-60.29-8.82-128.91-7.83-201.74.35-25.71-1.09-56.64,6.37-66.52,10.88-14.39,60.47-17.65,89.36-20.05,102.22-8.54,207.47-4.54,319.05-1.83,75.09,1.83,145.55-1.25,215.84.44,70.45,1.71,142.24,3.68,215.79,2.05,25.53-.57,51.3-1.94,69.57,11.19,14.67,36.86,12.62,82.4,15.97,127.36,8.09,108.56,5.62,228.69,7.52,346.18.33,20.57,2.8,55.43-4.73,64.95Z"/></svg>