<?xml version="1.0" encoding="UTF-8"?><svg id="Layer_1" xmlns="http://www.w3.org/2000/svg" viewBox="0 0 814.93 855"><defs><style>.cls-1{fill:#fdc91e;}.cls-2{fill:#fff;}.cls-3{fill:#212121;}.cls-4{fill:#584f4f;}</style></defs><path class="cls-1" d="m185.15,292.63c-38.67,92.15-44.22,259.73,45.9,336.68,41.19,35.17,97.91,43.42,147.96,46.86,58.41,4.01,124.68-6.52,181.83-28.87,116.86-45.73,126.12-115.76,126.07-202.55-.03-75.03-12.7-134.53-38.72-181.77-1.05,1.17-2.24,2.64-3.16,3.78-5.1,6.32-12.79,15.89-22.29,10.97-13.71-7.1-49.36-3.71-75.38-1.24-12.34,1.17-23.01,2.19-30.79,2.19-.16.11-.47,0-.71,0-13.56,0-27.12.04-40.68.09-46.98.16-95.57.32-143.39-1.48-7.4-.28-15.99-.92-25.08-1.6-41.6-3.11-98.4-7.36-121.57,16.95Z"/><path class="cls-3" d="m403.86,689.03c-8.68,0-17.25-.29-25.67-.86-52.01-3.57-111.09-12.27-154.94-49.71-94.81-80.95-89.24-256.14-48.76-351.49.26-.62.63-1.19,1.08-1.69,26.67-29.47,87.58-24.92,132.05-21.59,8.98.67,17.46,1.3,24.63,1.58,47.56,1.78,96.03,1.63,142.9,1.47,13.81-.05,27.77-.02,41.42-.09h.01c7.2,0,18.11-1.04,29.65-2.13,30.44-2.9,64.94-6.18,81.87,2.43,1.84-.62,5.7-5.4,7.58-7.74,4.3-5.34,8.33-10.38,14.11-9.91,2.16.18,5.21,1.24,7.5,5.28,28,49.49,41.63,111.69,41.66,190.15.04,88.31-9.99,165.34-133.72,213.76-50.52,19.77-108.02,30.53-161.36,30.53Zm-218.71-396.39c-38.67,92.15-44.22,259.73,45.9,336.68,41.19,35.17,97.91,43.42,147.96,46.86,58.41,4.01,124.68-6.52,181.83-28.87,116.86-45.73,126.12-115.76,126.07-202.55-.03-75.03-12.7-134.53-38.72-181.77-1.05,1.17-2.24,2.64-3.16,3.78-5.1,6.32-12.79,15.89-22.29,10.97-13.71-7.1-49.36-3.71-75.38-1.24-12.34,1.17-23.01,2.19-30.79,2.19-.16.11-.47,0-.71,0-13.56,0-27.12.04-40.68.09-46.98.16-95.57.32-143.39-1.48-7.4-.28-15.99-.92-25.08-1.6-41.6-3.11-98.4-7.36-121.57,16.95Z"/><g><path class="cls-3" d="m411.94,202.72c-1.52,0-2.97-.24-4.36-.74-11.18-3.96-28.26-21.6-49.42-44.25-7.27-7.78-13.55-14.5-17.27-17.75-17-14.87-44.14-33.7-63.1-40.9-5.91-2.24-11.49-4.2-16.8-6.07-25.19-8.84-45.09-15.82-65.26-40.42l-2.36-2.88,1.53-3.4C219.99-9.42,338.74-1.56,417.33,3.64c17.51,1.16,32.57,2.19,43.07,2.13,27.57.11,68.83,2.21,95.89,5.3,38.11,4.35,63.94,15.9,82.8,24.33,6.63,2.97,12.36,5.52,17.04,7.01l11.22,3.56-9.45,7.01c-16.45,12.19-44.12,20.89-73.41,30.09-33.19,10.43-67.51,21.21-85.03,37.16-5.85,5.33-14.75,15.76-24.17,26.8-28.31,33.19-48.7,55.69-63.35,55.69ZM207.55,47.95c17.17,19.6,34.23,25.58,57.42,33.72,5.4,1.9,11.08,3.89,17.09,6.17,20.29,7.71,48.94,27.51,66.75,43.09,4.16,3.65,10.64,10.57,18.13,18.59,14.07,15.07,35.35,37.84,44.65,41.13,8.21,2.9,40.68-35.17,54.55-51.43,10.1-11.83,18.82-22.05,25.22-27.89,19.48-17.74,55.08-28.93,89.52-39.75,22.86-7.19,44.71-14.05,60.07-22.21-2.16-.94-4.41-1.94-6.77-3-18.14-8.11-42.99-19.22-79.25-23.36-26.27-3-66.09-5.22-93.28-5.22-.55,0-1.07,0-1.62,0-10.83,0-25.98-1-43.48-2.16-69.03-4.57-183.46-12.13-208.98,32.31Z"/><path class="cls-1" d="m294.7,76.55c-.31,0-.62,0-.95-.02-9.7-.42-16.88-11.59-23.21-21.44-2.3-3.59-4.48-6.97-6.05-8.63-2.29-2.4-2.2-6.21.2-8.5,2.4-2.29,6.21-2.2,8.5.2,2.37,2.48,4.73,6.16,7.47,10.42,3.29,5.12,10.14,15.78,13.62,15.93,2.49.08,3.51-.26,5.39-8.18,1.19-5,2.81-11.85,9.64-13.06,11.91-2.11,16.41,7.24,18.56,11.74.23.49.52,1.1.8,1.63,9.04-1.3,17.32-7.17,26.82-13.9,1.45-1.03,2.92-2.07,4.42-3.11,2.07-1.44,4.83-1.43,6.9.02,2.87,2.02,5.44,3.87,7.76,5.54,9.18,6.61,14.31,10.3,18.23,10.3.07,0,.14,0,.2,0,4.34-.15,11.09-4.82,21.75-12.43,1.67-1.19,3.83-1.45,5.73-.69,1.9.77,3.29,2.45,3.67,4.46.51,2.72,1.77,7.42,4.34,8.28,2.88.97,10.26-1.52,21.5-11.74,1.42-1.29,3.34-1.82,5.23-1.45,1.88.38,3.46,1.62,4.27,3.36,1.23,2.64,3.8,4.91,6.52,7.31.99.87,1.99,1.75,2.96,2.68,5.38-6.52,10.95-13.24,17.75-17.89,1.32-.9,2.94-1.24,4.51-.95,1.57.3,2.96,1.2,3.86,2.52,1.43,2.1,4.18,4.21,7.09,6.43,1.95,1.49,3.94,3.01,5.77,4.7,1.35-1.09,2.09-1.88,2.71-3.89.67-2.22,2.57-3.86,4.87-4.2,2.29-.35,4.58.67,5.88,2.59,3.25,4.84,7.25,7.5,11.26,7.51h.02c4.09,0,8.18-2.7,11.5-7.6,1.86-2.75,5.6-3.47,8.35-1.61,2.75,1.86,3.47,5.6,1.61,8.35-5.63,8.31-13.25,12.89-21.46,12.89h-.05c-5.58-.01-10.88-2.16-15.44-6.17-.86.83-1.7,1.5-2.42,2.06-1.07.85-1.7,1.36-2.09,1.99-1.1,1.76-3.02,2.82-5.09,2.82h0c-2.07,0-4-1.07-5.1-2.82-1.5-2.39-4.6-4.77-7.61-7.07-1.83-1.4-3.7-2.83-5.42-4.39-3.96,3.58-7.72,8.15-11.39,12.6-1.54,1.86-3.04,3.69-4.54,5.42-1.28,1.48-3.15,2.27-5.13,2.05-1.94-.19-3.67-1.3-4.64-3-1.15-2.02-3.36-3.96-5.69-6.02-1.69-1.49-3.49-3.08-5.16-4.91-11.27,9.02-20.74,12.33-28.22,9.82-4.19-1.4-7.42-4.4-9.65-8.96-20.89,14.31-25.78,13.02-47.49-2.61-1.32-.95-2.72-1.96-4.21-3.02-.3.21-.59.42-.89.63-11.11,7.87-21.59,15.31-34.69,16.28-6.37.45-9.11-5.23-10.74-8.65-2.05-4.3-2.93-5.31-4.52-5.2-.39,1.03-.82,2.84-1.12,4.13-1.45,6.14-4.13,17.45-16.68,17.45Z"/><path class="cls-1" d="m348.18,121.52c-.31,0-.63-.01-.96-.04-7.59-.58-11.3-10.8-15.6-22.63-1.25-3.46-2.55-7.04-3.46-8.72-1.57-2.93-.48-6.57,2.45-8.15,2.93-1.58,6.57-.48,8.15,2.45,1.32,2.46,2.64,6.1,4.18,10.32,1.15,3.17,2.97,8.17,4.61,11.65.29-1.58.52-3.29.68-4.5.81-6.07,1.58-11.8,6.9-13.47,2.61-.81,5.18-.6,7.44.64,4.14,2.27,5.65,7.02,6.76,11.09,3.25-2.38,6.85-6.89,10.36-11.3l2.5-3.12c1.14-1.41,2.86-2.23,4.67-2.23h.01c1.82,0,3.54.83,4.68,2.25,1.62,2.02,3.08,3.88,4.39,5.55,2.95,3.76,5.99,7.64,7.59,8.89,2.11-1.52,6.58-7.17,9.63-11.03,1.51-1.92,4.03-2.73,6.39-2.05,2.35.68,4.05,2.71,4.31,5.14.41,3.8.98,5.99,1.43,7.2,1.39-1.16,3.95-3.83,7.7-9.87,1.27-2.04,3.63-3.13,6-2.77,2.37.36,4.31,2.09,4.92,4.42.5,1.91,1.29,3.51,2.23,5.12,2.32-4.79,4.8-9.37,7.7-12.88,1.36-1.65,3.48-2.45,5.6-2.11,2.11.34,3.88,1.78,4.65,3.77.76,1.96,2.04,3.78,3.55,5.83.75-2.21,2.73-3.82,5.12-4.05,2.66-.28,5.24,1.31,6.2,3.85,1.57,4.14,2.99,5.65,3.59,6.14.7-.57,2.18-2.32,3.68-6.23,1.19-3.1,4.68-4.65,7.76-3.47,3.1,1.19,4.66,4.67,3.47,7.76-4.46,11.66-10.58,14.11-14.93,14.11h-.02c-2.44,0-5.45-.79-8.39-3.57-.03.08-.07.17-.1.26-.85,2.4-3.12,4.01-5.67,4.01s-4.82-1.61-5.67-4.01c-.87-2.46-2.52-4.7-4.27-7.07-1.33,2.57-2.63,5.36-3.91,8.11-.86,1.86-1.72,3.69-2.56,5.41-1.08,2.2-3.43,3.52-5.83,3.36-2.45-.17-4.54-1.82-5.3-4.15-.69-2.14-1.88-4-3.26-6.15-.16-.24-.31-.48-.47-.73-5.25,6.24-9.97,8.57-14.8,7.48-3.47-.79-5.77-3.17-7.32-6.2-3.92,4.25-7.34,6.63-11.49,6.63h-.02c-6.1-.01-9.9-4.72-16.63-13.3-5.86,7.24-11.69,13.55-19.54,14.58-4.31.54-6.59-2.25-7.91-5.29-1.2,6.1-3.81,13.06-11.18,13.06Zm75.84-21.22h0Z"/><path class="cls-1" d="m405.71,175.41c-1.82,0-3.57-.83-4.72-2.29-11.89-15.07-18.05-28.69-18.82-41.64-.19-3.32,2.33-6.16,5.65-6.36,3.32-.15,6.16,2.33,6.36,5.65.43,7.32,3.19,15.13,8.36,23.66.27-1.71.53-3.43.78-5.13.69-4.58,1.4-9.31,2.33-13.88.5-2.41,2.41-4.28,4.84-4.71,2.45-.46,4.87.66,6.17,2.76.77,1.24,2.18,2.96,3.66,4.78.4.49.81.98,1.22,1.5.97-2.14,3.2-3.57,5.66-3.53,3.32.1,5.93,2.87,5.83,6.19-.03,1.06-.01,2.03,0,2.94.06,4.11.13,8.76-4.09,13.88-1.38,1.67-3.56,2.48-5.7,2.09-2.14-.38-3.9-1.89-4.62-3.94-.7-2.03-1.96-4.12-3.43-6.17-.98,6.52-1.99,13.25-3.68,19.71-.58,2.21-2.35,3.9-4.58,4.37-.41.09-.82.13-1.23.13Z"/></g><g><g><path class="cls-2" d="m100.25,41.83c89.17.48,173.47,40.99,244.6,93.62,25.87,19.14,58.45,45.6,60.49,80.02-37,3.87-86.41-33.78-125.27-43.24-74.87-18.23-155.66-5.72-232.09-9.31-3.7-22.71,23.29-30.08,38.37-42.09-23.94-13.04-49.41-7.48-74.49-11.27-7.9-44.03,43.63-36.78,71.96-38.83-24.25-14.06-22.56-31.61,16.44-28.9Z"/><path class="cls-3" d="m399.89,221.76c-22.66,0-48.2-12.21-72.97-24.05-17.26-8.25-33.57-16.05-48.27-19.63-48.39-11.78-100.39-10.5-150.68-9.24-26.46.65-53.81,1.33-80.26.1-2.84-.13-5.19-2.24-5.65-5.04-3.4-20.87,13.94-31.19,27.87-39.49,1.38-.82,2.74-1.63,4.07-2.44-11.82-4.01-24.15-4.34-37.05-4.68-8.46-.22-17.21-.46-25.97-1.78-2.55-.38-4.56-2.35-5.02-4.88-2.24-12.49-.29-22.58,5.79-29.98,11.64-14.17,34.73-14.98,55.53-15.38-4.76-5.51-6.5-11.2-4.87-16.53,2.12-6.94,10.47-14.81,38.08-12.91,80.16.48,163.59,32.37,247.96,94.8,31.46,23.27,60.85,49.62,62.91,84.5.19,3.21-2.18,6-5.38,6.33-2,.21-4.03.31-6.08.31Zm-224.42-65.74c35.7,0,71.54,1.97,106.02,10.37,15.92,3.88,33.55,12.31,50.61,20.47,23.07,11.03,46.84,22.39,66.51,22.86-4.8-27.15-30.23-49.38-57.34-69.44-82.34-60.92-163.44-92.02-241.06-92.44-.13,0-.26,0-.38-.02-19.64-1.36-25.46,2.85-25.95,4.43-.47,1.54,2.14,7.01,12.94,13.28,2.28,1.32,3.44,3.98,2.84,6.55-.59,2.57-2.79,4.45-5.42,4.65-4.59.33-9.65.43-15.01.52-17.72.33-39.78.73-48.22,11.01-3.16,3.85-4.43,9.08-3.83,15.91,6.64.73,13.44.9,20.06,1.08,17.1.45,34.77.92,51.98,10.28,1.77.96,2.94,2.75,3.12,4.76.17,2.01-.67,3.97-2.24,5.23-4.22,3.36-9.21,6.33-14.03,9.2-12.92,7.69-21.39,13.42-22.33,22.41,24.35.9,49.52.27,73.92-.33,15.82-.4,31.8-.79,47.81-.79Z"/></g><g><path class="cls-2" d="m145,165.81c0,30.8.38,64.86,17.88,91.74,17.11,26.28,52.65,47.27,84.27,49.98,39.9,3.42,73.71-10.04,106.79-30.82,24.42-15.33,28.57-33.9,37.36-56.71"/><path class="cls-3" d="m259.68,314.08c-4.32,0-8.66-.19-13.04-.57-33.44-2.86-70.78-25.02-88.8-52.69-18.86-28.96-18.86-65.59-18.86-95.02,0-3.32,2.69-6.01,6.01-6.01s6.01,2.69,6.01,6.01c0,27.84,0,62.49,16.91,88.45,16.16,24.82,49.7,44.7,79.75,47.27,33.75,2.89,65.55-6.34,103.08-29.92,19.62-12.33,24.99-26.89,31.78-45.33,1.01-2.75,2.05-5.57,3.16-8.45,1.19-3.1,4.68-4.64,7.77-3.45,3.1,1.2,4.64,4.68,3.45,7.77-1.09,2.83-2.11,5.59-3.1,8.28-7.28,19.78-13.57,36.85-36.67,51.36-35.12,22.06-65.73,32.28-97.47,32.28Z"/></g><path class="cls-3" d="m274.77,270.21c-.75,0-1.48,0-2.22,0-27.35-.16-52.66-11.16-71.25-30.98-18.65-19.88-28.03-45.97-26.43-73.45.38-6.63,6.04-11.71,12.71-11.3,6.63.38,11.69,6.08,11.3,12.71-1.22,20.83,5.87,40.57,19.96,55.59,14.03,14.96,33.16,23.27,53.84,23.39,25.07.14,42.11-2.74,55.42-17.92,3.41-3.88,4.06-7.4,5.05-12.73.79-4.28,1.7-9.14,4.2-14.39,2.86-6,10.03-8.54,16.03-5.68,5.99,2.86,8.54,10.03,5.68,16.03-1.14,2.4-1.66,5.19-2.26,8.43-1.27,6.84-2.85,15.35-10.61,24.2-20.72,23.62-47.54,26.11-71.42,26.11Z"/><path class="cls-3" d="m220.12,167.04c.07,22.76,8.48,44.19,30.24,54.21,18.86,8.69,50.91,7.25,58.46-15.7,13.19-40.09-60.37-40.38-88.7-38.52Z"/></g><g><g><path class="cls-2" d="m714.68,41.83c-89.17.48-173.47,40.99-244.6,93.62-25.87,19.14-58.45,45.6-60.49,80.02,37,3.87,86.41-33.78,125.27-43.24,74.87-18.23,155.66-5.72,232.09-9.31,3.7-22.71-23.29-30.08-38.37-42.09,23.94-13.04,49.41-7.48,74.49-11.27,7.9-44.03-43.63-36.78-71.96-38.83,24.25-14.06,22.56-31.61-16.44-28.9Z"/><path class="cls-3" d="m415.04,221.76c-2.05,0-4.08-.1-6.08-.31-3.2-.33-5.56-3.13-5.38-6.33,2.06-34.88,31.46-61.22,62.91-84.5,84.37-62.43,167.79-94.32,247.96-94.8,27.62-1.9,35.96,5.98,38.08,12.91,1.63,5.33-.11,11.03-4.87,16.53,20.8.39,43.9,1.2,55.53,15.38,6.08,7.4,8.03,17.49,5.79,29.98-.46,2.53-2.47,4.5-5.02,4.88-8.76,1.32-17.51,1.56-25.97,1.78-12.9.34-25.23.67-37.05,4.68,1.32.8,2.68,1.61,4.07,2.44,13.93,8.29,31.27,18.61,27.87,39.49-.46,2.8-2.82,4.91-5.65,5.04-26.45,1.24-53.81.56-80.26-.1-50.29-1.26-102.29-2.54-150.68,9.24-14.7,3.58-31.01,11.37-48.27,19.63-24.77,11.84-50.31,24.05-72.97,24.05ZM722.37,47.57c-2.18,0-4.6.08-7.27.27-.13.01-.26.01-.38.02-77.61.42-158.72,31.51-241.06,92.44-27.1,20.06-52.54,42.29-57.34,69.44,19.67-.47,43.45-11.84,66.51-22.86,17.06-8.16,34.7-16.59,50.61-20.47,49.94-12.16,102.75-10.85,153.83-9.58,24.4.6,49.58,1.23,73.92.33-.94-8.99-9.41-14.72-22.33-22.41-4.82-2.87-9.81-5.84-14.03-9.2-1.58-1.26-2.42-3.22-2.24-5.23.18-2.01,1.35-3.79,3.12-4.76,17.21-9.37,34.88-9.84,51.98-10.28,6.61-.18,13.41-.35,20.06-1.08.6-6.83-.67-12.06-3.83-15.91-8.44-10.28-30.5-10.69-48.22-11.01-5.36-.1-10.42-.19-15.01-.52-2.63-.19-4.83-2.07-5.42-4.65-.6-2.57.56-5.23,2.84-6.55,10.81-6.27,13.41-11.75,12.94-13.28-.42-1.37-4.81-4.69-18.67-4.69Zm-7.69-5.73h.03-.03Z"/></g><g><path class="cls-2" d="m669.93,165.81c0,30.8-.38,64.86-17.88,91.74-17.11,26.28-52.65,47.27-84.27,49.98-39.9,3.42-73.71-10.04-106.79-30.82-24.42-15.33-28.57-33.9-37.36-56.71"/><path class="cls-3" d="m555.25,314.08c-31.74,0-62.34-10.22-97.47-32.28-23.1-14.5-29.39-31.58-36.67-51.36-.99-2.7-2.01-5.46-3.1-8.28-1.19-3.1.35-6.58,3.45-7.77,3.1-1.2,6.58.35,7.77,3.45,1.11,2.88,2.15,5.7,3.16,8.45,6.79,18.44,12.16,33.01,31.78,45.33,37.55,23.58,69.34,32.81,103.08,29.92,30.05-2.57,63.59-22.45,79.75-47.27,16.91-25.96,16.91-60.61,16.91-88.45,0-3.32,2.69-6.01,6.01-6.01s6.01,2.69,6.01,6.01c0,29.43,0,66.06-18.86,95.02-18.02,27.67-55.37,49.83-88.8,52.69-4.38.37-8.72.57-13.04.57Z"/></g><path class="cls-3" d="m540.16,270.21c-23.88,0-50.69-2.49-71.42-26.11-7.76-8.85-9.34-17.36-10.61-24.2-.6-3.24-1.12-6.03-2.26-8.43-2.86-6-.31-13.17,5.68-16.03,5.99-2.86,13.18-.31,16.03,5.68,2.5,5.25,3.4,10.11,4.2,14.39.99,5.32,1.64,8.84,5.05,12.72,13.31,15.18,30.31,17.99,55.42,17.92,20.69-.12,39.81-8.43,53.84-23.39,14.09-15.02,21.18-34.77,19.96-55.59-.39-6.63,4.67-12.32,11.3-12.71,6.65-.4,12.32,4.67,12.71,11.3,1.6,27.48-7.78,53.57-26.43,73.45-18.59,19.82-43.9,30.83-71.25,30.98-.74,0-1.48,0-2.22,0Z"/><path class="cls-3" d="m594.8,167.04c-.07,22.76-8.48,44.19-30.24,54.21-18.86,8.69-50.91,7.25-58.46-15.7-13.19-40.09,60.37-40.38,88.7-38.52Z"/></g><path class="cls-3" d="m401.59,374.06c-.21,0-.42-.01-.62-.02-2.54-.18-4.89-1.42-6.46-3.42-18.21-23.1-33.98-61.19-37.51-90.57-.5-4.21,1.99-8.2,6-9.6,27.46-9.54,67.65-9.23,93.47.73,2.58.99,4.56,3.11,5.37,5.75.82,2.64.38,5.51-1.19,7.78-7.33,10.64-13.07,22.5-18.61,33.97-8.88,18.37-18.06,37.37-34.2,52.86-1.69,1.62-3.93,2.51-6.25,2.51Zm-25.52-88.7c4,21.38,14.34,46.89,26.43,65.44,9.68-11.77,16.33-25.54,23.3-39.96,4.16-8.62,8.43-17.44,13.48-26.07-19.18-4.51-43.92-4.34-63.21.59Z"/><g><g><g><path class="cls-2" d="m157.82,333.73c66.36-56.11,117.64,86.81,122.24,130.32,5.38,50.93-15.75,102.54-47.24,141.86-18.71,23.37-59.94,65.41-86.66,50.72-26.43-14.53-44.89-74.29-50.3-101.33-7.87-39.31-6.09-75.28,5.83-112.64,11.56-36.22,38.1-94.45,56.14-108.93Z"/><path class="cls-3" d="m158.12,665.36c-7.22,0-12.19-2-14.87-3.47-35.76-19.66-53.12-104.56-53.29-105.41-8.13-40.6-6.23-77.35,5.99-115.65,11.7-36.67,38.36-95.86,58.04-111.74,16.77-14.15,34.02-17.81,51.29-10.88,47.31,19,77.32,112.77,80.75,145.21,5.08,48.08-12.61,101.39-48.53,146.25-36.87,46.05-63.54,55.69-79.39,55.7Zm30.26-338.5c-8.81,0-17.63,3.8-26.68,11.46-.04.03-.08.06-.12.1-15.64,12.56-41.5,66.36-54.17,106.07-11.57,36.28-13.37,71.11-5.66,109.63,6.19,30.95,24.51,84.71,47.3,97.24,21.74,11.93,59.93-25.31,79.07-49.21,33.95-42.4,50.7-92.51,45.95-137.47-3.39-32.09-33.26-119.24-73.27-135.31-4.15-1.67-8.29-2.51-12.42-2.51Zm-30.56,6.87h.03-.03Z"/></g><path class="cls-3" d="m180.89,524.05c-2.95,0-5.88-.58-8.75-1.74-16.93-6.89-18.47-26.57-17.68-44.3-5.48,7.68-12.44,14.75-20.37,16.93-6.07,1.67-12.09.38-17.42-3.71-3.93-3.02-6.3-8.22-7.03-15.46-2.35-23.12,12.24-67.34,21.43-77.97,2.17-2.51,5.97-2.79,8.48-.62,2.51,2.17,2.79,5.97.62,8.48-6.82,7.89-20.62,48.66-18.56,68.89.43,4.24,1.52,6.47,2.4,7.14,2.36,1.81,4.49,2.32,6.91,1.65,9.71-2.67,20.64-21.97,25.25-33.51,1.05-2.62,3.79-4.16,6.57-3.7,2.79.46,4.88,2.8,5.02,5.62.25,4.72-.17,10.48-.62,16.58-1.23,16.85-2.77,37.83,9.55,42.83,3.43,1.39,6.7,1.12,10.32-.85,10.44-5.7,18.92-23.37,20.8-33.4.51-2.72,2.8-4.74,5.56-4.9,2.7-.16,5.28,1.58,6.09,4.22l.34,1.11c2.02,6.54,8.15,26.44,16.21,30.17,1.46.68,2.79.66,4.44-.05,7.93-3.39,4.53-24.46,2.28-38.4-1.33-8.26-2.48-15.39-2.08-20.61.25-3.31,3.13-5.79,6.45-5.54,3.31.25,5.79,3.14,5.54,6.45-.29,3.8.8,10.59,1.96,17.79,3.18,19.73,7.14,44.29-9.43,51.38-4.76,2.05-9.69,2.01-14.23-.1-7.63-3.53-13.04-12.18-17.23-22.2-4.76,9.82-11.96,19.73-20.95,24.65-3.88,2.12-7.88,3.18-11.87,3.18Z"/></g><path class="cls-3" d="m177.99,617.68c-1.97,0-3.71-.4-5.17-.95-6.77-2.56-11.26-9.82-14.21-17.69-1.59,2.78-3.57,5.17-5.99,6.84-3.78,2.61-8.22,3.26-12.83,1.87-19.76-5.93-18.29-33.39-17.42-49.8.16-2.97.3-5.61.29-7.71-.01-3.32,2.67-6.02,5.99-6.04h.02c3.31,0,6,2.68,6.01,5.99.01,2.37-.14,5.17-.31,8.4-.68,12.88-1.84,34.43,8.86,37.64,1.4.42,2.04.1,2.55-.25,3.49-2.4,6.52-12.11,7.36-23.6.23-3.14,2.85-5.57,6-5.57h.01c3.15,0,5.77,2.45,5.99,5.6,1.07,15.36,6.76,31.14,11.93,33.09,2.19.82,5.32-1.83,7-3.49,10.25-10.09,12.25-22.5,12.13-39.26-.02-3.32,2.65-6.03,5.97-6.05h.04c3.3,0,5.99,2.67,6.01,5.97.11,15.59-1.01,33.44-15.73,47.92-5.54,5.45-10.51,7.11-14.52,7.11Z"/></g><g><g><g><path class="cls-2" d="m698.09,320.93c-66.36-56.11-117.64,86.81-122.24,130.32-5.38,50.93,15.75,102.54,47.24,141.86,18.71,23.37,59.94,65.41,86.66,50.72,26.43-14.53,44.89-74.29,50.3-101.33,7.87-39.31,6.09-75.28-5.83-112.64-11.55-36.22-38.1-94.45-56.13-108.93Z"/><path class="cls-3" d="m697.79,652.56c-15.85,0-42.51-9.64-79.39-55.7-35.92-44.85-53.61-98.16-48.53-146.25,3.43-32.44,33.44-126.21,80.75-145.2,17.28-6.94,34.53-3.27,51.3,10.88,19.67,15.88,46.34,75.07,58.03,111.74,12.22,38.3,14.12,75.04,5.99,115.64-.17.85-17.53,85.75-53.29,105.41-2.67,1.47-7.65,3.47-14.87,3.47Zm-30.26-338.5c-4.14,0-8.27.84-12.42,2.51-40.01,16.06-69.88,103.21-73.27,135.3-4.75,44.97,12,95.08,45.95,137.47,19.14,23.9,57.34,61.17,79.07,49.21,22.79-12.53,41.1-66.29,47.3-97.24,7.71-38.52,5.91-73.35-5.66-109.62-12.67-39.71-38.52-93.51-54.17-106.07-.04-.03-.08-.06-.12-.1-9.06-7.66-17.87-11.46-26.68-11.46Z"/></g><path class="cls-3" d="m675.03,511.25c-3.98,0-7.99-1.06-11.87-3.18-8.99-4.91-16.19-14.83-20.95-24.65-4.19,10.02-9.6,18.67-17.23,22.2-4.54,2.1-9.46,2.13-14.23.09-16.57-7.08-12.61-31.64-9.43-51.38,1.16-7.19,2.25-13.99,1.96-17.79-.25-3.31,2.23-6.2,5.54-6.45,3.33-.22,6.2,2.23,6.45,5.54.4,5.22-.76,12.36-2.09,20.61-2.25,13.95-5.64,35.02,2.28,38.41,1.67.71,3,.73,4.44.05,8.06-3.73,14.19-23.63,16.21-30.17l.34-1.11c.82-2.64,3.34-4.37,6.09-4.22,2.76.16,5.05,2.18,5.56,4.9,1.87,10.03,10.36,27.7,20.8,33.4,3.62,1.97,6.89,2.24,10.32.85,12.31-5.01,10.78-25.98,9.55-42.84-.45-6.1-.86-11.86-.62-16.58.15-2.82,2.24-5.16,5.02-5.62,2.79-.44,5.52,1.08,6.57,3.7,4.61,11.54,15.54,30.84,25.25,33.51,2.42.65,4.56.16,6.91-1.65.88-.67,1.96-2.9,2.39-7.15,2.06-20.23-11.75-61-18.56-68.88-2.17-2.51-1.89-6.31.62-8.48,2.51-2.17,6.31-1.9,8.48.62,9.18,10.63,23.78,54.85,21.43,77.97-.74,7.24-3.1,12.45-7.03,15.47-5.33,4.09-11.36,5.38-17.42,3.71-7.93-2.18-14.89-9.26-20.37-16.93.79,17.73-.75,37.42-17.68,44.3-2.86,1.16-5.8,1.74-8.75,1.74Z"/></g><path class="cls-4" d="m677.93,604.89c-4.01,0-8.99-1.67-14.53-7.11-14.01-13.79-15.84-31.17-15.73-47.92.02-3.31,2.71-5.97,6.01-5.97h.04c3.32.02,5.99,2.73,5.97,6.05-.12,16.76,1.88,29.17,12.13,39.26,1.69,1.66,4.85,4.31,7,3.49,5.18-1.96,10.86-17.73,11.93-33.09.22-3.15,2.83-5.59,5.99-5.6h.01c3.15,0,5.77,2.43,6,5.57.84,11.49,3.87,21.2,7.36,23.6.52.36,1.15.66,2.55.25,10.7-3.21,9.55-24.76,8.86-37.63-.17-3.24-.32-6.03-.31-8.4.01-3.31,2.7-5.99,6.01-5.99h.02c3.32.01,6,2.72,5.99,6.04-.01,2.1.14,4.75.29,7.72.88,16.4,2.34,43.86-17.41,49.79-4.62,1.39-9.06.74-12.83-1.86-2.43-1.68-4.4-4.06-6-6.84-2.95,7.87-7.44,15.13-14.21,17.69-1.46.55-3.2.95-5.17.95Z"/></g><path class="cls-3" d="m331.74,678.34c-3.1,0-5.73-2.38-5.99-5.53-.96-11.95-6.28-25.6-11.41-38.8-4.22-10.85-8.58-22.06-10.78-32.81-6.25-30.56-8.25-67.21-5.65-103.21,4.39-60.71,41.4-103.94,94.31-110.13,49.92-5.84,91.54,7.41,120.34,38.31,32.16,34.5,44.31,87.61,33.33,145.7-5.23,27.7-14.86,55.82-27.11,79.19-2.51,4.79-5.34,7.38-7.41,9.27-2.31,2.1-3.26,2.98-3.8,6.6-.49,3.28-3.55,5.52-6.84,5.05-3.28-.49-5.55-3.56-5.05-6.84,1.18-7.85,4.73-11.09,7.58-13.7,1.79-1.64,3.34-3.05,4.87-5.97,11.72-22.34,20.93-49.28,25.95-75.84,10.26-54.3-.79-103.6-30.31-135.27-26.1-27.99-64.18-39.96-110.15-34.56-46.9,5.48-79.76,44.36-83.71,99.05-2.52,34.94-.59,70.43,5.44,99.94,1.99,9.74,6.16,20.47,10.2,30.85,5.45,14.01,11.08,28.49,12.19,42.2.27,3.31-2.2,6.21-5.51,6.48-.16.01-.33.02-.49.02Z"/><g><g><path class="cls-3" d="m356.73,787.85c-.06,0-.13,0-.2,0-3.32-.11-5.92-2.89-5.82-6.2.49-15.08-.08-30.65-.63-45.7-.64-17.45-1.3-35.49-.33-53.04.18-3.32,3-5.9,6.33-5.67,3.32.18,5.86,3.02,5.67,6.33-.94,17-.29,34.76.34,51.94.56,15.26,1.14,31.03.64,46.53-.11,3.25-2.78,5.82-6.01,5.82Z"/><path class="cls-3" d="m298.56,826.23c-1.51,0-3.03-.57-4.2-1.71-2.38-2.32-2.43-6.12-.11-8.5,10.74-11.02,29.09-23.46,45.6-31.42-7.97-1.38-17.65-1.28-25.54-1.2-3.76.03-7.32.07-10.41-.04-3.32-.12-5.91-2.91-5.8-6.23.12-3.32,2.92-5.77,6.23-5.8,2.88.11,6.24.07,9.87.03,15.4-.15,34.65-.35,45.32,8.61l8.28,6.95-10.27,3.37c-17.05,5.6-42.09,21.22-54.66,34.11-1.18,1.21-2.74,1.82-4.3,1.82Z"/><path class="cls-3" d="m329.55,855c-3.1,0-5.73-2.38-5.99-5.53-1.21-14.89,6.98-27.02,14.21-37.72,6.41-9.49,12.47-18.46,11.53-27.99l-.67-6.82,6.85.22c6.21.2,13.68,1.53,20.9,2.82,6.8,1.21,13.84,2.47,19.18,2.64,3.32.11,5.92,2.89,5.82,6.2-.11,3.32-2.86,5.79-6.2,5.82-6.22-.2-13.68-1.54-20.91-2.82-4.44-.79-8.97-1.6-13.07-2.11-1.25,10.68-7.44,19.85-13.47,28.77-6.72,9.94-13.06,19.34-12.2,30.02.27,3.31-2.2,6.21-5.51,6.48-.17.01-.33.02-.49.02Z"/></g><g><path class="cls-3" d="m456.96,787.85c-3.23,0-5.9-2.57-6.01-5.82-.5-15.5.08-31.28.64-46.54.63-17.17,1.28-34.93.34-51.93-.18-3.32,2.36-6.15,5.67-6.33,3.26-.22,6.15,2.36,6.33,5.67.97,17.55.3,35.59-.33,53.03-.55,15.06-1.12,30.63-.63,45.72.11,3.32-2.5,6.1-5.82,6.2-.06,0-.13,0-.2,0Z"/><path class="cls-3" d="m515.13,826.23c-1.56,0-3.13-.61-4.3-1.82-12.57-12.89-37.6-28.51-54.65-34.11l-10.27-3.37,8.28-6.95c10.67-8.95,29.87-8.76,45.32-8.61,3.62.04,6.98.07,9.87-.03,3.32,0,6.1,2.48,6.23,5.8.12,3.32-2.48,6.11-5.8,6.23-3.1.11-6.65.07-10.41.04-7.89-.08-17.58-.17-25.54,1.2,16.5,7.96,34.85,20.39,45.59,31.42,2.32,2.38,2.27,6.18-.11,8.5-1.17,1.14-2.68,1.71-4.2,1.71Z"/><path class="cls-3" d="m484.14,855c-.16,0-.33,0-.49-.02-3.31-.27-5.78-3.17-5.51-6.48.87-10.68-5.48-20.07-12.19-30.02-6.02-8.92-12.22-18.09-13.47-28.77-4.1.52-8.63,1.32-13.07,2.11-7.22,1.29-14.69,2.62-20.91,2.82-3.32-.03-6.1-2.5-6.2-5.82-.11-3.32,2.5-6.1,5.82-6.2,5.34-.17,12.38-1.43,19.18-2.64,7.22-1.29,14.69-2.62,20.91-2.82l6.85-.22-.67,6.82c-.94,9.53,5.12,18.5,11.53,27.99,7.23,10.71,15.42,22.84,14.21,37.72-.26,3.14-2.89,5.53-5.99,5.53Z"/></g></g></svg>