<?xml version="1.0" encoding="UTF-8"?><svg id="Layer_1" xmlns="http://www.w3.org/2000/svg" viewBox="0 0 435.79 1080"><defs><style>.cls-1{fill-rule:evenodd;}</style></defs><path class="cls-1" d="m407.82,1079.73c5.27-.18,13.14-.51,17.41-.69l7.87-.37,1.17-1.85c.84-1.43.92-3.1.34-7.87-1.34-10.83-1.59-50.91-.5-70.58.59-10.32,1.26-29.9,1.42-43.5.33-27.54.33-752.44.08-799.33-.08-18.05-.08-58.78,0-90.48l.08-57.62-1.76-2.17c-2.26-2.78-4.27-3.42-11.89-3.84-3.43-.14-7.79-.37-9.63-.51-1.84-.09-21.43-.28-43.53-.42-22.1-.14-41.27-.32-42.53-.46-1.26-.09-16.74,0-34.32.28-29.64.46-83.47.79-155.04.97-16.16,0-50.82-.09-77.02-.28C14.86.68,12.09.73,9.42,1.52c-4.1,1.2-4.94,2.96-5.02,10.32-.08,3.42-.5,7.59-.92,9.26-1.93,7.45-2.51,12.26-3.1,25.92-.59,16.29-.59,17.45.75,46.05.5,11.2.92,21.1.84,21.98-.17,2.64-.34,24.21-.34,45.12.08,10.69-.25,743.84-.67,748.65-1.34,17.03.34,87.15,2.51,107.6,2.18,20.04,2.68,29.67,2.09,44.71-.42,13.24-.34,15.83.59,16.29,2.68,1.2,27.12,1.48,175.22,2.04,190.45.65,214.4.69,226.45.28Zm-398.41-3.47l-2.01-.28.75-8.61c1-11.39.5-32.49-1-45.17-2.93-24.58-3.77-795.3-2.93-895.36.17-23.93,0-36.65-.84-48.92-1-17.26.17-45.49,2.34-53.82.75-2.78,1.59-8.33,1.84-12.26.34-4.26.92-7.59,1.51-8.15,1-1.02,1.09-1.02,36.42-.88,19.51.05,43.28.32,52.99.6,11.13.28,30.39.28,52.32.05,19.09-.23,49.81-.42,68.23-.37,18.42.05,39.85-.19,47.72-.42,20.93-.74,118.04-.65,138.97.09,19.59.74,12.89,1.11-18.84,1.11-33.91-.05-186.44.42-255.33.74-22.35.09-47.22,0-55.25-.23-32.82-.83-61.87-1.02-63.29-.42-2.6,1.25-4.02,3.47-4.27,6.94-.59,7.96-.67,913.32-.08,947.43.34,20.36.92,54.52,1.26,75.9.59,35.91.75,39.01,2.09,40.17,2.51,2.08,1.84,2.55-2.6,1.85Zm324.9-.74c-28.71-.18-52.66-.46-53.16-.65-.92-.32-43.2-.46-191.38-.56-37-.05-68.15-.19-69.23-.32-1.09-.14-2.18-.65-2.43-1.11-.42-.79-1-788.82-1.67-926.14-.08-27.21-.34-63.45-.42-80.53-.08-17.03.17-37.26.5-44.85l.59-13.84,28.55.42c27.88.37,50.15.42,150.35.32,26.96-.05,64.38-.09,83.3-.09s56.01-.14,82.46-.32c26.45-.19,52.24-.19,57.18.05l9.13.32-.17,10.04c-.08,5.51-.17,35.64-.17,66.92-.08,111.17-.42,861.94-1.59,892.81-1.67,43.83-1.09,88.53,1.17,96.5.25.65-15.74,1.39-29.13,1.34-6.45,0-35.24-.18-63.88-.32Z"/><path class="cls-1" d="m417.28,1071.63c1.17-1.06-2.51-29.3-3.93-30.08-1-.56-1.09.09-.42,3.1.34,1.67,1.09,8.33,1.59,14.81.92,10.64,1.51,13.33,2.76,12.17Z"/><path class="cls-1" d="m406.65,1068.53c.75-1.06-.25-9.16-1.34-10.55-.5-.69-.59.97-.34,4.91.34,6.06.67,7.08,1.67,5.65Z"/><path class="cls-1" d="m397.77,1066.86c0-.23-.42-.46-.84-.46-.5,0-.84.23-.84.46,0,.28.34.46.84.46.42,0,.84-.19.84-.46Z"/><path class="cls-1" d="m40.13,1064.92c1.07-4.3,1.71-32.77.75-32.77-.86,0-1.6,7.59-2.67,26.98-.21,4.49,0,8.19.43,8.19.53,0,1.18-1.11,1.5-2.41Z"/><path class="cls-1" d="m58.09,1063.76c.85-.88-.43-9.53-1.39-8.89-1.28.88-1.28,9.21,0,9.21.64,0,1.18-.14,1.39-.32Z"/><path class="cls-1" d="m79.04,1062.38c.64-.74,1.5-2.13,1.92-3.15.85-2.41-1.18-1.67-2.57.93-.53,1.02-1.39,2.22-1.82,2.68-.43.42-.32.79.32.79.53,0,1.5-.56,2.14-1.25Z"/><path class="cls-1" d="m407.74,45.39c-.08-12.5-.42-23.19-.75-23.83-.33-.65-.75-.93-.75-.69-.59,2.73.17,46.37.75,46.7s.84-7.36.75-22.17Z"/><path class="cls-1" d="m40.88,58.21c2.46-2.22,2.57-39.89,0-39.89-.32,0-.64,8.61-.64,19.11-.11,13.65-.43,19.44-1.28,20.32-1.71,1.67,0,2.08,1.92.46Z"/><path class="cls-1" d="m399.78,38.12c1-4.77.42-11.48-1.09-11.48-.25,0-.59,3.15-.59,6.94-.08,6.94.67,9.07,1.67,4.54Z"/><path class="cls-1" d="m377.01,31.92c.42-.19.67-1.48.67-2.92,0-1.81-.25-2.41-.92-2.04-.42.23-.75,1.57-.59,2.87.17,1.34.5,2.27.84,2.08Z"/><path class="cls-1" d="m54.24,28.54c.11-1.76.75-3.93,1.5-4.91,1.71-2.22.43-2.68-1.6-.56-2.35,2.5-3.42,8.65-1.5,8.65,1.18,0,1.5-.79,1.6-3.19Z"/><path class="cls-1" d="m68.56,23.45c0-1.9-.43-3.29-1.07-3.29s-1.07,1.3-1.07,2.96.43,3.15,1.07,3.29c.64.19,1.07-.93,1.07-2.96Z"/></svg>