<?xml version="1.0" encoding="UTF-8"?><svg id="Layer_1" xmlns="http://www.w3.org/2000/svg" viewBox="0 0 491.08 506.98"><defs><style>.cls-1{fill:#212121;}</style></defs><path class="cls-1" d="m254.35,0C264.26,0,274.17,0,284.07,0c9.12,1.28,18.32,2.14,27.33,3.92,81.42,16.1,136.28,63.99,165.67,140.89,16.84,44.08,17.43,89.81,7.42,135.5-12.72,58.11-39.57,108.91-82.67,150.35-25.19,24.22-54.64,41.87-88.08,52.46-23.21,7.35-46.97,10.67-71.29,7.99-32-3.52-59.9-16.32-83.62-38.08-2.21-2.02-3.78-2.07-6.38-.68-16.72,8.93-33.29,18.21-50.42,26.28-20.56,9.68-41.58,18.4-62.52,27.27-8.17,3.47-15.01-1.82-14.33-10.75.16-2.08.98-4.16,1.76-6.12,2.51-6.27,5.22-12.47,7.71-18.74.51-1.28,1.04-3.16.48-4.15-3.04-5.36-.84-9.76,1.87-14.32,3.95-6.64,8.1-13.22,11.42-20.18,6.37-13.37,12.3-26.95,18.19-40.54.68-1.56.65-4.3-.29-5.56-6.78-9.1-13.55-18.24-20.93-26.84C4.97,311.52-8.82,257.53,5.49,197.22c13.75-57.93,47.32-103.21,94.13-138.9C137.26,29.63,179.77,11.6,226.44,3.63,235.68,2.05,245.04,1.19,254.35,0Zm-3.19,173.24c-2.79-7.15-5.88-14.78-8.76-22.48-8.77-23.51-23.45-42.59-43.05-58.09-2.31-1.83-3.98-2.16-6.43-.5-5.86,3.98-12.11,7.43-17.77,11.67-23.2,17.41-36.57,40.05-35.39,69.77.99,24.92,7.99,48.38,18.83,70.71,17.34,35.75,42.21,65.7,72.05,91.57,19.11,16.57,40.25,29.89,65.12,36.24,29.78,7.61,56,2.16,75.39-23.06,8.48-11.03,14.77-23.74,22.18-35.61,1.63-2.61,1.33-4.52-.28-7.09-15.47-24.69-38.74-37.93-66.02-45.36-1.01-.27-2.36-.19-3.28.27-4.39,2.2-8.86,4.32-12.99,6.97-7.09,4.54-14.63,7.73-23.05,8.11-34.4,1.55-65.76-25.19-74.83-53.78-5.39-16.98,1-32.71,16.78-41.14,6.57-3.51,14.01-5.4,21.5-8.19Zm-159.02,89.26c-2.14,7.27,4.08,9.45,6.75,13.32-2.03-4-4.05-8-6.75-13.32Zm143.83-62.85c-5.55,4.6-5.42,9.81-4.08,15.51,1.32-5.02,2.59-9.84,4.08-15.51Zm-30.78-158.1h13.5c0-.52-.02-1.04-.02-1.57-4.53-2.58-8.99.69-13.48,1.57Zm-109.79,281.47c.45-.38.91-.76,1.36-1.14-3.35-4.55-6.7-9.11-10.05-13.66-.38.28-.76.56-1.15.84,3.28,4.65,6.56,9.3,9.84,13.95Z"/></svg>